<svg xmlns="http://www.w3.org/2000/svg" xmlns:xlink="http://www.w3.org/1999/xlink" width="110" height="110" viewBox="0 0 110 110">
  <defs>
    <filter id="Trazado_982547" x="0" y="0" width="110" height="110" filterUnits="userSpaceOnUse">
      <feOffset dy="3" input="SourceAlpha"/>
      <feGaussianBlur stdDeviation="3" result="blur"/>
      <feFlood flood-opacity="0.161"/>
      <feComposite operator="in" in2="blur"/>
      <feComposite in="SourceGraphic"/>
    </filter>
  </defs>
  <g id="Grupo_1171981" data-name="Grupo 1171981" transform="translate(-8396 -5078)">
    <g id="Grupo_1171566" data-name="Grupo 1171566" transform="translate(8405 5084)">
      <g id="Grupo_1163801" data-name="Grupo 1163801" transform="translate(0)">
        <g id="Grupo_1163014" data-name="Grupo 1163014">
          <g id="Grupo_1157015" data-name="Grupo 1157015" transform="translate(0 0)">
            <g id="Grupo_1155792" data-name="Grupo 1155792">
              <g id="Grupo_1154703" data-name="Grupo 1154703">
                <g id="Grupo_1150789" data-name="Grupo 1150789">
                  <g id="Grupo_1154212" data-name="Grupo 1154212">
                    <g id="Grupo_1152583" data-name="Grupo 1152583">
                      <g id="Grupo_1146973" data-name="Grupo 1146973" transform="translate(0 0)">
                        <g id="Grupo_1146954" data-name="Grupo 1146954">
                          <g transform="matrix(1, 0, 0, 1, -9, -6)" filter="url(#Trazado_982547)">
                            <g id="Trazado_982547-2" data-name="Trazado 982547" transform="translate(9 6)" fill="#f2f7f5">
                              <path d="M 46 90.49987030029297 C 39.99187850952148 90.49987030029297 34.16426849365234 89.32350921630859 28.67905426025391 87.00345611572266 C 23.38019943237305 84.76224517822266 18.62104034423828 81.55341339111328 14.53374671936035 77.46613311767578 C 10.44646644592285 73.37885284423828 7.237639904022217 68.61969757080078 4.996413230895996 63.32085418701172 C 2.676359891891479 57.83565521240234 1.5 52.008056640625 1.5 45.99993515014648 C 1.5 39.99181365966797 2.676359891891479 34.16421508789062 4.996413230895996 28.67901420593262 C 7.237639904022217 23.38017463684082 10.44646644592285 18.62101554870605 14.53374671936035 14.53373527526855 C 18.62104034423828 10.44645500183105 23.38019943237305 7.23762845993042 28.67905426025391 4.996415138244629 C 34.16426849365234 2.676361799240112 39.99187850952148 1.500001788139343 46 1.500001788139343 C 52.00812149047852 1.500001788139343 57.83573150634766 2.676361799240112 63.32094573974609 4.996415138244629 C 68.61979675292969 7.23762845993042 73.37895965576172 10.44645500183105 77.46625518798828 14.53373527526855 C 81.55353546142578 18.62101554870605 84.76235961914062 23.38017463684082 87.00358581542969 28.67901420593262 C 89.32363891601562 34.16421508789062 90.5 39.99181365966797 90.5 45.99993515014648 C 90.5 52.008056640625 89.32363891601562 57.83565521240234 87.00358581542969 63.32085418701172 C 84.76235961914062 68.61969757080078 81.55353546142578 73.37885284423828 77.46625518798828 77.46613311767578 C 73.37895965576172 81.55341339111328 68.61979675292969 84.76224517822266 63.32094573974609 87.00345611572266 C 57.83573150634766 89.32350921630859 52.00812149047852 90.49987030029297 46 90.49987030029297 Z" stroke="none"/>
                              <path d="M 46 2.999992370605469 C 40.1937141418457 2.999992370605469 34.56269836425781 4.136489868164062 29.26337051391602 6.377906799316406 C 24.14332580566406 8.543502807617188 19.54441070556641 11.64437866210938 15.59439849853516 15.59437561035156 C 11.64440155029297 19.54439544677734 8.54351806640625 24.14329528808594 6.377914428710938 29.26333618164062 C 4.136497497558594 34.56264877319336 3 40.19366455078125 3 45.99993515014648 C 3 51.80620574951172 4.136497497558594 57.43720626831055 6.377914428710938 62.73651885986328 C 8.54351806640625 67.8565673828125 11.64440155029297 72.45545959472656 15.59439849853516 76.40547943115234 C 19.54441070556641 80.35547637939453 24.14332580566406 83.45635223388672 29.26337051391602 85.6219482421875 C 34.56269836425781 87.86336517333984 40.1937141418457 88.99986267089844 46 88.99986267089844 C 51.8062858581543 88.99986267089844 57.43730163574219 87.86336517333984 62.73661422729492 85.6219482421875 C 67.85667419433594 83.45635223388672 72.45557403564453 80.35547637939453 76.40558624267578 76.40547943115234 C 80.35559844970703 72.45545959472656 83.45647430419922 67.8565673828125 85.6220703125 62.73651885986328 C 87.86350250244141 57.43720626831055 89 51.80620574951172 89 45.99993515014648 C 89 40.19366455078125 87.86350250244141 34.56264877319336 85.6220703125 29.26333618164062 C 83.45647430419922 24.14329528808594 80.35559844970703 19.54439544677734 76.40558624267578 15.59437561035156 C 72.45557403564453 11.64437866210938 67.85667419433594 8.543502807617188 62.73661422729492 6.377906799316406 C 57.43730163574219 4.136489868164062 51.8062858581543 2.999992370605469 46 2.999992370605469 M 46 -7.62939453125e-06 C 71.40509033203125 -7.62939453125e-06 92 20.59486389160156 92 45.99993515014648 C 92 71.40499114990234 71.40509033203125 91.99986267089844 46 91.99986267089844 C 20.59490203857422 91.99986267089844 0 71.40499114990234 0 45.99993515014648 C 0 20.59486389160156 20.59490203857422 -7.62939453125e-06 46 -7.62939453125e-06 Z" stroke="none" fill="#01899b"/>
                            </g>
                          </g>
                        </g>
                      </g>
                    </g>
                  </g>
                </g>
              </g>
            </g>
          </g>
        </g>
      </g>
    </g>
    <g id="leader" transform="translate(8422 5093.794)">
      <g id="Grupo_1171979" data-name="Grupo 1171979" transform="translate(0.854 9.06)">
        <g id="Grupo_1171975" data-name="Grupo 1171975" transform="translate(0 11.829)">
          <g id="Grupo_1171969" data-name="Grupo 1171969" transform="translate(0 13.624)">
            <g id="Grupo_1171961" data-name="Grupo 1171961" transform="translate(38.007)">
              <g id="Grupo_1171960" data-name="Grupo 1171960">
                <g id="Grupo_1171959" data-name="Grupo 1171959">
                  <g id="Grupo_1171958" data-name="Grupo 1171958">
                    <path id="Trazado_1017041" data-name="Trazado 1017041" d="M360.023,357.153H341.47v-7.381a6.443,6.443,0,0,1,6.443-6.443h5.668a6.443,6.443,0,0,1,6.443,6.443v7.381Z" transform="translate(-341.47 -331.498)" fill="#27d1b3"/>
                    <g id="Grupo_1171955" data-name="Grupo 1171955" transform="translate(6.382 11.832)">
                      <g id="Grupo_1171954" data-name="Grupo 1171954">
                        <path id="Trazado_1017042" data-name="Trazado 1017042" d="M403.107,351.975l-2.215,1.948a.679.679,0,0,1-.9,0l-2.216-1.948a.679.679,0,0,1-.21-.679l2.041-7.965h1.666l2.041,7.965A.68.68,0,0,1,403.107,351.975Z" transform="translate(-397.548 -343.331)" fill="#fb4a59"/>
                      </g>
                    </g>
                    <path id="Trazado_1017043" data-name="Trazado 1017043" d="M428.22,349.773v7.381h-3.353v-7.381a6.444,6.444,0,0,0-6.443-6.443h3.353A6.444,6.444,0,0,1,428.22,349.773Z" transform="translate(-409.666 -331.498)" fill="#20b69f"/>
                    <g id="Grupo_1171957" data-name="Grupo 1171957" transform="translate(4.024)">
                      <g id="Grupo_1171956" data-name="Grupo 1171956">
                        <path id="Trazado_1017044" data-name="Trazado 1017044" d="M382.085,251.76a5.252,5.252,0,0,1-5.252-5.252v-1.9a5.252,5.252,0,1,1,10.5,0v1.9A5.252,5.252,0,0,1,382.085,251.76Z" transform="translate(-376.833 -239.36)" fill="#ffcec0"/>
                        <path id="Trazado_1017045" data-name="Trazado 1017045" d="M415.294,244.617v1.9a5.256,5.256,0,0,1-6.914,4.984,5.255,5.255,0,0,0,3.589-4.984v-1.9a5.257,5.257,0,0,0-3.589-4.984,5.253,5.253,0,0,1,6.914,4.984Z" transform="translate(-404.79 -239.364)" fill="#fdb0a0"/>
                      </g>
                    </g>
                  </g>
                </g>
              </g>
            </g>
            <g id="Grupo_1171968" data-name="Grupo 1171968">
              <g id="Grupo_1171967" data-name="Grupo 1171967">
                <g id="Grupo_1171966" data-name="Grupo 1171966">
                  <path id="Trazado_1017046" data-name="Trazado 1017046" d="M26.053,357.153H7.5v-7.381a6.443,6.443,0,0,1,6.443-6.443h5.668a6.443,6.443,0,0,1,6.443,6.443v7.381Z" transform="translate(-7.5 -331.498)" fill="#fb4a59"/>
                  <g id="Grupo_1171963" data-name="Grupo 1171963" transform="translate(6.382 11.832)">
                    <g id="Grupo_1171962" data-name="Grupo 1171962">
                      <path id="Trazado_1017047" data-name="Trazado 1017047" d="M69.137,351.975l-2.216,1.948a.679.679,0,0,1-.9,0l-2.216-1.948a.679.679,0,0,1-.21-.679l2.041-7.965h1.666l2.041,7.965A.68.68,0,0,1,69.137,351.975Z" transform="translate(-63.578 -343.331)" fill="#f8f3f1"/>
                    </g>
                  </g>
                  <path id="Trazado_1017048" data-name="Trazado 1017048" d="M94.25,349.773v7.381H90.9v-7.381a6.444,6.444,0,0,0-6.443-6.443h3.353A6.444,6.444,0,0,1,94.25,349.773Z" transform="translate(-75.696 -331.498)" fill="#f82f40"/>
                  <g id="Grupo_1171965" data-name="Grupo 1171965" transform="translate(4.024)">
                    <g id="Grupo_1171964" data-name="Grupo 1171964">
                      <path id="Trazado_1017049" data-name="Trazado 1017049" d="M48.115,251.76a5.252,5.252,0,0,1-5.252-5.252v-1.9a5.252,5.252,0,1,1,10.5,0v1.9A5.252,5.252,0,0,1,48.115,251.76Z" transform="translate(-42.863 -239.36)" fill="#ffcec0"/>
                      <path id="Trazado_1017050" data-name="Trazado 1017050" d="M81.324,244.617v1.9A5.256,5.256,0,0,1,74.41,251.5,5.255,5.255,0,0,0,78,246.513v-1.9a5.257,5.257,0,0,0-3.589-4.984,5.253,5.253,0,0,1,6.914,4.984Z" transform="translate(-70.82 -239.364)" fill="#fdb0a0"/>
                    </g>
                  </g>
                </g>
              </g>
            </g>
          </g>
          <g id="Grupo_1171974" data-name="Grupo 1171974" transform="translate(15.245)">
            <path id="Trazado_1017051" data-name="Trazado 1017051" d="M167.529,337.5H141.458v-11.34a9.053,9.053,0,0,1,9.053-9.053h7.965a9.053,9.053,0,0,1,9.053,9.053V337.5Z" transform="translate(-141.458 -294.633)" fill="#0d5f7f"/>
            <path id="Trazado_1017052" data-name="Trazado 1017052" d="M263.355,326.157V337.5h-4.712v-11.34a9.054,9.054,0,0,0-9.053-9.053H254.3A9.054,9.054,0,0,1,263.355,326.157Z" transform="translate(-237.284 -294.633)" fill="#094c66"/>
            <path id="Trazado_1017053" data-name="Trazado 1017053" d="M208.819,317.609l-6.952,13.24-6.952-13.24a9.064,9.064,0,0,1,2.97-.5h7.963A9.064,9.064,0,0,1,208.819,317.609Z" transform="translate(-188.832 -294.639)" fill="#fff"/>
            <path id="Trazado_1017054" data-name="Trazado 1017054" d="M231.921,324.091l-3.548,6.758-3.548-6.758,2.555-6.98h1.985Z" transform="translate(-215.338 -294.639)" fill="#fb4a59"/>
            <g id="Grupo_1171973" data-name="Grupo 1171973" transform="translate(1.066)">
              <g id="Grupo_1171970" data-name="Grupo 1171970" transform="translate(0 10.994)">
                <circle id="Elipse_11873" data-name="Elipse 11873" cx="2.795" cy="2.795" r="2.795" fill="#fdb0a0"/>
              </g>
              <g id="Grupo_1171971" data-name="Grupo 1171971" transform="translate(18.347 10.994)">
                <circle id="Elipse_11874" data-name="Elipse 11874" cx="2.795" cy="2.795" r="2.795" fill="#f69583"/>
              </g>
              <g id="Grupo_1171972" data-name="Grupo 1171972" transform="translate(4.589 5.845)">
                <path id="Trazado_1017055" data-name="Trazado 1017055" d="M198.529,188.433a7.38,7.38,0,0,1-7.38-7.38v-2.664a7.38,7.38,0,0,1,14.761,0v2.664a7.38,7.38,0,0,1-7.38,7.38Z" transform="translate(-191.149 -171.008)" fill="#ffcec0"/>
                <path id="Trazado_1017056" data-name="Trazado 1017056" d="M249.576,178.386v2.664a7.383,7.383,0,0,1-9.153,7.165,7.38,7.38,0,0,0,5.606-7.165v-2.664a7.384,7.384,0,0,0-5.606-7.165,7.379,7.379,0,0,1,9.153,7.165Z" transform="translate(-234.815 -171.006)" fill="#fdb0a0"/>
              </g>
              <path id="Trazado_1017057" data-name="Trazado 1017057" d="M264.353,142.14a20.7,20.7,0,0,1-6.952-.383,4.139,4.139,0,0,1-3.029-4v-2.817a2.586,2.586,0,0,1,2.586-2.586H258.9a6.4,6.4,0,0,1,6.4,6.4v2.345A1.051,1.051,0,0,1,264.353,142.14Z" transform="translate(-242.588 -130.905)" fill="#7a7179"/>
              <path id="Trazado_1017058" data-name="Trazado 1017058" d="M278.913,138.745v2.345a1.051,1.051,0,0,1-.949,1.046,24.174,24.174,0,0,1-4.533.038c.15-.013.288-.025.417-.038a1.05,1.05,0,0,0,.947-1.046v-2.345a6.4,6.4,0,0,0-5.063-6.258,2.546,2.546,0,0,1,.837-.14h1.945A6.4,6.4,0,0,1,278.913,138.745Z" transform="translate(-256.2 -130.902)" fill="#685e67"/>
              <path id="Trazado_1017059" data-name="Trazado 1017059" d="M162.535,131.173a24.635,24.635,0,0,0,8.374-.433,4.879,4.879,0,0,0,3.57-4.719V122.7a3.048,3.048,0,0,0-3.048-3.048h-2.293a7.541,7.541,0,0,0-7.541,7.541v2.934A1.051,1.051,0,0,0,162.535,131.173Z" transform="translate(-160.372 -119.651)" fill="#9b8f99"/>
              <path id="Trazado_1017060" data-name="Trazado 1017060" d="M189.89,122.695v3.32a4.88,4.88,0,0,1-3.569,4.72,23.242,23.242,0,0,1-7.334.525,17.506,17.506,0,0,0,3.184-.525,4.88,4.88,0,0,0,3.57-4.72v-3.32a3.049,3.049,0,0,0-2.332-2.963,7.531,7.531,0,0,1,1.138-.085h2.294A3.048,3.048,0,0,1,189.89,122.695Z" transform="translate(-175.783 -119.647)" fill="#8b8088"/>
            </g>
          </g>
        </g>
        <g id="Grupo_1171978" data-name="Grupo 1171978" transform="translate(4.676 0)">
          <g id="Grupo_1171976" data-name="Grupo 1171976">
            <circle id="Elipse_11875" data-name="Elipse 11875" cx="10.407" cy="10.407" r="10.407" fill="#27d1b3"/>
            <path id="Trazado_1017061" data-name="Trazado 1017061" d="M128.926,26.116a10.415,10.415,0,0,1-13.168,10.037,10.036,10.036,0,0,0,0-20.072,10.417,10.417,0,0,1,13.17,10.036Z" transform="translate(-108.112 -15.71)" fill="#20b69f"/>
          </g>
          <g id="Grupo_1171977" data-name="Grupo 1171977" transform="translate(3.733 5.257)">
            <path id="Trazado_1017062" data-name="Trazado 1017062" d="M85.277,72.142l-3.735-3.735a.536.536,0,0,1,0-.757l1.542-1.542a.536.536,0,0,1,.757,0L86.034,68.3l6.243-6.243a.536.536,0,0,1,.757,0L94.577,63.6a.536.536,0,0,1,0,.757l-7.786,7.786A1.071,1.071,0,0,1,85.277,72.142Z" transform="translate(-81.385 -61.9)" fill="#bcea73"/>
          </g>
        </g>
      </g>
      <g id="Grupo_1171980" data-name="Grupo 1171980" transform="translate(0 8.206)">
        <path id="Trazado_1017063" data-name="Trazado 1017063" d="M52.709,45.7a6.079,6.079,0,0,0,1.534-4.041v-1.9a6.106,6.106,0,0,0-12.212,0v1.9A6.079,6.079,0,0,0,43.566,45.7a7.3,7.3,0,0,0-2.337,1.033,9.954,9.954,0,0,0-4.819-3.665.845.845,0,0,0-.092-.033,9.825,9.825,0,0,0-1.436-.374,8.221,8.221,0,0,0,2.364-4.5,3.648,3.648,0,0,0,3.331-6.346,1.908,1.908,0,0,0,.152-.747V28.732a7.259,7.259,0,0,0-7.251-7.251H31.534c-.091,0-.182,0-.272.012a3.9,3.9,0,0,0-3.038-1.457H27.181c.009-.189.016-.379.016-.569a11.258,11.258,0,1,0-9.66,11.146v.751a1.916,1.916,0,0,0,.073.523,3.648,3.648,0,0,0,3.41,6.281,8.222,8.222,0,0,0,2.365,4.5,9.811,9.811,0,0,0-1.412.367.855.855,0,0,0-.141.05,9.981,9.981,0,0,0-4.791,3.66A7.262,7.262,0,0,0,14.7,45.7a6.079,6.079,0,0,0,1.534-4.041v-1.9a6.106,6.106,0,1,0-12.211,0v1.9A6.079,6.079,0,0,0,5.559,45.7,7.308,7.308,0,0,0,0,52.787v7.381a.854.854,0,1,0,1.707,0V52.787A5.6,5.6,0,0,1,7.3,47.2h.266a6.089,6.089,0,0,0,.576.233L6.43,54.1A1.526,1.526,0,0,0,6.9,55.629l2.216,1.948a1.537,1.537,0,0,0,2.024,0l2.216-1.948a1.526,1.526,0,0,0,.473-1.532l-1.708-6.667A6.09,6.09,0,0,0,12.7,47.2h.266a5.557,5.557,0,0,1,3.217,1.023,9.822,9.822,0,0,0-.935,4.125.854.854,0,0,0,.848.859H16.1a.853.853,0,0,0,.853-.848,8.22,8.22,0,0,1,4.833-7.416L28.28,57.309v6.436a.854.854,0,0,0,1.707,0V57.309l6.495-12.37a8.209,8.209,0,0,1,4.833,7.474v11.34a.854.854,0,0,0,1.707,0V52.412a9.848,9.848,0,0,0-.935-4.2A5.593,5.593,0,0,1,45.3,47.2h.266a6.071,6.071,0,0,0,.576.233L44.437,54.1a1.526,1.526,0,0,0,.473,1.532l2.216,1.948a1.537,1.537,0,0,0,2.024,0l2.216-1.948a1.526,1.526,0,0,0,.473-1.532l-.273-1.065a.853.853,0,1,0-1.654.424l.246.961-2.02,1.776-2.02-1.776,1.706-6.659q.156.008.314.008t.314-.008l.434,1.693a.854.854,0,0,0,1.654-.424l-.409-1.6a6.049,6.049,0,0,0,.58-.235l.038,0h.224a5.6,5.6,0,0,1,5.589,5.589v7.381a.854.854,0,0,0,1.707,0V52.787A7.308,7.308,0,0,0,52.709,45.7ZM5.731,39.764a4.4,4.4,0,0,1,8.8,0v1.9a4.4,4.4,0,1,1-8.8,0v-1.9ZM12.15,54.417l-2.02,1.776L8.11,54.417l1.706-6.659q.156.008.314.008t.314-.008Zm26.157-17.8a1.927,1.927,0,0,1-.94-.244V34.114a8.257,8.257,0,0,0-.065-1.027c.664-.024,1.251-.069,1.711-.114.059-.006.117-.015.174-.026a1.942,1.942,0,0,1-.881,3.673ZM33.48,23.188a5.55,5.55,0,0,1,5.544,5.544v2.345a.2.2,0,0,1-.178.2,19.787,19.787,0,0,1-6.644-.357,3.215,3.215,0,0,1-1.023-.488,5.773,5.773,0,0,0,.948-3.171v-3.32a3.909,3.909,0,0,0-.073-.749H33.48ZM22.2,28.824a.854.854,0,1,0-.951-1.418,9.554,9.554,0,1,1,2.67-2.694.853.853,0,0,0,1.426.939,11.194,11.194,0,0,0,1.618-3.909h1.26a2.2,2.2,0,0,1,2.195,2.195v3.32a4.028,4.028,0,0,1-2.941,3.9,24.083,24.083,0,0,1-8.06.408.2.2,0,0,1-.175-.2V30.233A11.2,11.2,0,0,0,22.2,28.824Zm-4.183,5.854a1.938,1.938,0,0,1,.75-1.532,1.908,1.908,0,0,0,.471.113c.468.049,1.044.1,1.694.133-.022.242-.033.484-.033.723v2.262a1.94,1.94,0,0,1-2.882-1.7Zm4.589,2.1V34.114a6.473,6.473,0,0,1,.038-.681,20.872,20.872,0,0,0,5.282-.632,5.625,5.625,0,0,0,2.108-1.095,4.931,4.931,0,0,0,1.717.859,16.953,16.953,0,0,0,3.825.527,6.582,6.582,0,0,1,.082,1.023v2.664a6.527,6.527,0,1,1-13.053,0Zm6.527,18.485-2.616-4.983,1.939-5.3c.224.018.449.03.677.03s.454-.012.677-.03l1.939,5.3Zm-3.982-11.05H25.6a8.177,8.177,0,0,0,1.157.447l-1.31,3.579L23.429,44.4A8.156,8.156,0,0,1,25.151,44.213Zm7.67,4.026-1.31-3.579a8.177,8.177,0,0,0,1.158-.448h.447a8.2,8.2,0,0,1,1.723.184ZM43.738,41.66v-1.9a4.4,4.4,0,0,1,8.8,0v1.9a4.4,4.4,0,1,1-8.8,0Z" transform="translate(0 -8.206)"/>
        <path id="Trazado_1017064" data-name="Trazado 1017064" d="M134.812,424.906a.854.854,0,0,0-.854.854v7.271a.854.854,0,0,0,1.707,0V425.76A.854.854,0,0,0,134.812,424.906Z" transform="translate(-118.713 -377.484)"/>
        <path id="Trazado_1017065" data-name="Trazado 1017065" d="M277.409,445.24h-.022a.854.854,0,0,0,0,1.707h.022a.854.854,0,0,0,0-1.707Z" transform="translate(-245.063 -395.504)"/>
        <path id="Trazado_1017066" data-name="Trazado 1017066" d="M88.539,56.349,87,54.807a1.389,1.389,0,0,0-1.964,0l-5.64,5.64L77.8,58.858a1.389,1.389,0,0,0-1.964,0L74.3,60.4a1.39,1.39,0,0,0,0,1.964L78.032,66.1a1.927,1.927,0,0,0,2.722,0l7.786-7.786A1.391,1.391,0,0,0,88.539,56.349Zm-8.992,8.543a.218.218,0,0,1-.307,0l-3.51-3.51,1.093-1.093,1.967,1.967a.853.853,0,0,0,1.207,0l6.018-6.018,1.093,1.093Z" transform="translate(-65.482 -49.143)"/>
      </g>
    </g>
  </g>
</svg>
