<svg xmlns="http://www.w3.org/2000/svg" xmlns:xlink="http://www.w3.org/1999/xlink" width="110" height="110" viewBox="0 0 110 110">
  <defs>
    <filter id="Trazado_982547" x="0" y="0" width="110" height="110" filterUnits="userSpaceOnUse">
      <feOffset dy="3" input="SourceAlpha"/>
      <feGaussianBlur stdDeviation="3" result="blur"/>
      <feFlood flood-opacity="0.161"/>
      <feComposite operator="in" in2="blur"/>
      <feComposite in="SourceGraphic"/>
    </filter>
  </defs>
  <g id="Grupo_1172004" data-name="Grupo 1172004" transform="translate(-8711 -5524)">
    <g id="Grupo_1171569" data-name="Grupo 1171569" transform="translate(8720 5530)">
      <g id="Grupo_1163803" data-name="Grupo 1163803" transform="translate(0)">
        <g id="Grupo_1163015" data-name="Grupo 1163015">
          <g id="Grupo_1157017" data-name="Grupo 1157017" transform="translate(0 0)">
            <g id="Grupo_1155793" data-name="Grupo 1155793">
              <g id="Grupo_1154704" data-name="Grupo 1154704">
                <g id="Grupo_1150790" data-name="Grupo 1150790">
                  <g id="Grupo_1154214" data-name="Grupo 1154214">
                    <g id="Grupo_1152583" data-name="Grupo 1152583">
                      <g id="Grupo_1146973" data-name="Grupo 1146973" transform="translate(0 0)">
                        <g id="Grupo_1146954" data-name="Grupo 1146954">
                          <g transform="matrix(1, 0, 0, 1, -9, -6)" filter="url(#Trazado_982547)">
                            <g id="Trazado_982547-2" data-name="Trazado 982547" transform="translate(9 6)" fill="#f2f7f5">
                              <path d="M 46 90.49987030029297 C 39.99187850952148 90.49987030029297 34.16426849365234 89.32350921630859 28.67905426025391 87.00345611572266 C 23.38019943237305 84.76224517822266 18.62104034423828 81.55341339111328 14.53374671936035 77.46613311767578 C 10.44646644592285 73.37885284423828 7.237639904022217 68.61969757080078 4.996413230895996 63.32085418701172 C 2.676359891891479 57.83565521240234 1.5 52.008056640625 1.5 45.99993515014648 C 1.5 39.99181365966797 2.676359891891479 34.16421508789062 4.996413230895996 28.67901420593262 C 7.237639904022217 23.38017463684082 10.44646644592285 18.62101554870605 14.53374671936035 14.53373527526855 C 18.62104034423828 10.44645500183105 23.38019943237305 7.23762845993042 28.67905426025391 4.996415138244629 C 34.16426849365234 2.676361799240112 39.99187850952148 1.500001788139343 46 1.500001788139343 C 52.00812149047852 1.500001788139343 57.83573150634766 2.676361799240112 63.32094573974609 4.996415138244629 C 68.61979675292969 7.23762845993042 73.37895965576172 10.44645500183105 77.46625518798828 14.53373527526855 C 81.55353546142578 18.62101554870605 84.76235961914062 23.38017463684082 87.00358581542969 28.67901420593262 C 89.32363891601562 34.16421508789062 90.5 39.99181365966797 90.5 45.99993515014648 C 90.5 52.008056640625 89.32363891601562 57.83565521240234 87.00358581542969 63.32085418701172 C 84.76235961914062 68.61969757080078 81.55353546142578 73.37885284423828 77.46625518798828 77.46613311767578 C 73.37895965576172 81.55341339111328 68.61979675292969 84.76224517822266 63.32094573974609 87.00345611572266 C 57.83573150634766 89.32350921630859 52.00812149047852 90.49987030029297 46 90.49987030029297 Z" stroke="none"/>
                              <path d="M 46 2.999992370605469 C 40.1937141418457 2.999992370605469 34.56269836425781 4.136489868164062 29.26337051391602 6.377906799316406 C 24.14332580566406 8.543502807617188 19.54441070556641 11.64437866210938 15.59439849853516 15.59437561035156 C 11.64440155029297 19.54439544677734 8.54351806640625 24.14329528808594 6.377914428710938 29.26333618164062 C 4.136497497558594 34.56264877319336 3 40.19366455078125 3 45.99993515014648 C 3 51.80620574951172 4.136497497558594 57.43720626831055 6.377914428710938 62.73651885986328 C 8.54351806640625 67.8565673828125 11.64440155029297 72.45545959472656 15.59439849853516 76.40547943115234 C 19.54441070556641 80.35547637939453 24.14332580566406 83.45635223388672 29.26337051391602 85.6219482421875 C 34.56269836425781 87.86336517333984 40.1937141418457 88.99986267089844 46 88.99986267089844 C 51.8062858581543 88.99986267089844 57.43730163574219 87.86336517333984 62.73661422729492 85.6219482421875 C 67.85667419433594 83.45635223388672 72.45557403564453 80.35547637939453 76.40558624267578 76.40547943115234 C 80.35559844970703 72.45545959472656 83.45647430419922 67.8565673828125 85.6220703125 62.73651885986328 C 87.86350250244141 57.43720626831055 89 51.80620574951172 89 45.99993515014648 C 89 40.19366455078125 87.86350250244141 34.56264877319336 85.6220703125 29.26333618164062 C 83.45647430419922 24.14329528808594 80.35559844970703 19.54439544677734 76.40558624267578 15.59437561035156 C 72.45557403564453 11.64437866210938 67.85667419433594 8.543502807617188 62.73661422729492 6.377906799316406 C 57.43730163574219 4.136489868164062 51.8062858581543 2.999992370605469 46 2.999992370605469 M 46 -7.62939453125e-06 C 71.40509033203125 -7.62939453125e-06 92 20.59486389160156 92 45.99993515014648 C 92 71.40499114990234 71.40509033203125 91.99986267089844 46 91.99986267089844 C 20.59490203857422 91.99986267089844 0 71.40499114990234 0 45.99993515014648 C 0 20.59486389160156 20.59490203857422 -7.62939453125e-06 46 -7.62939453125e-06 Z" stroke="none" fill="#01899b"/>
                            </g>
                          </g>
                        </g>
                      </g>
                    </g>
                  </g>
                </g>
              </g>
            </g>
          </g>
        </g>
      </g>
    </g>
    <g id="professional_4336250" transform="translate(8738 5548)">
      <g id="Grupo_1172002" data-name="Grupo 1172002" transform="translate(0.897 0.897)">
        <g id="Grupo_1171987" data-name="Grupo 1171987" transform="translate(7.177)">
          <path id="Trazado_1017119" data-name="Trazado 1017119" d="M29.087,21.769a6.646,6.646,0,0,0,.619,1.391,1.536,1.536,0,0,0-.179.161,2.685,2.685,0,0,0-.789,1.9,2.615,2.615,0,0,0,.206,1.032,13.459,13.459,0,1,1,6.2-16.3,7.079,7.079,0,0,0-1.92,2.709,6.293,6.293,0,0,0-.987.484,9.862,9.862,0,1,0-3.149,8.621Z" transform="translate(-9 -1)" fill="#ccd1d9"/>
        </g>
        <g id="Grupo_1171988" data-name="Grupo 1171988" transform="translate(26.914 7.177)">
          <path id="Trazado_1017120" data-name="Trazado 1017120" d="M54.325,21.56H43.47a5.283,5.283,0,0,1-4.539-2.575l-2.045.789a3.6,3.6,0,0,0-2.3,3.346v.233h-.9a2.654,2.654,0,0,0-1.722.628,6.646,6.646,0,0,1-.619-1.391A6.9,6.9,0,0,1,31,20.4v-.287a7.168,7.168,0,0,1,3.5-6.145,6.293,6.293,0,0,1,.987-.484A7.155,7.155,0,0,1,42.115,9H47.13a10.788,10.788,0,0,1,9.9,15.054v.009a2.661,2.661,0,0,0-1.812-.709h-.9Z" transform="translate(-31 -9)" fill="#b27946"/>
        </g>
        <g id="Grupo_1171989" data-name="Grupo 1171989" transform="translate(10.766 3.589)">
          <path id="Trazado_1017121" data-name="Trazado 1017121" d="M22.868,5a9.856,9.856,0,0,1,9.779,8.559,7.168,7.168,0,0,0-3.5,6.145v.287a6.9,6.9,0,0,0,.35,2.189A9.87,9.87,0,1,1,22.868,5Z" transform="translate(-13 -5)" fill="#75b1f2"/>
        </g>
        <g id="Grupo_1171990" data-name="Grupo 1171990" transform="translate(37.679 41.268)">
          <path id="Trazado_1017122" data-name="Trazado 1017122" d="M46.589,47l1.794,7.177-2.691,2.691L43,54.177,44.794,47Z" transform="translate(-43 -47)" fill="#e6e9ed"/>
        </g>
        <g id="Grupo_1171991" data-name="Grupo 1171991" transform="translate(30.502 39.088)">
          <path id="Trazado_1017123" data-name="Trazado 1017123" d="M44.868,56.618l2.691-2.691L45.766,46.75l3.589,2.691.61-4.871a10.382,10.382,0,0,1,1.884,1.48,9.837,9.837,0,0,1,2.889,6.98v6.28H35V53.03a9.873,9.873,0,0,1,4.773-8.46l.61,4.871,3.589-2.691-1.794,7.177Z" transform="translate(-35 -44.57)" fill="#fcd770"/>
        </g>
        <g id="Grupo_1171992" data-name="Grupo 1171992" transform="translate(41.268 38.083)">
          <path id="Trazado_1017124" data-name="Trazado 1017124" d="M51.2,44.455l-.61,4.871L47,46.635l1.911-3.185A10.241,10.241,0,0,1,51.2,44.455Z" transform="translate(-47 -43.45)" fill="#ffc729"/>
        </g>
        <g id="Grupo_1171993" data-name="Grupo 1171993" transform="translate(35.275 38.083)">
          <path id="Trazado_1017125" data-name="Trazado 1017125" d="M42.608,43.45l1.911,3.185L40.93,49.326l-.61-4.871A10.241,10.241,0,0,1,42.608,43.45Z" transform="translate(-40.32 -43.45)" fill="#ffc729"/>
        </g>
        <g id="Grupo_1171994" data-name="Grupo 1171994" transform="translate(37.563 37.679)">
          <path id="Trazado_1017126" data-name="Trazado 1017126" d="M48.486,43.4l-1.911,3.185H44.781L42.87,43.4a9.968,9.968,0,0,1,5.616,0Z" transform="translate(-42.87 -43)" fill="#f0d0b4"/>
        </g>
        <g id="Grupo_1171995" data-name="Grupo 1171995" transform="translate(26.914 21.531)">
          <path id="Trazado_1017127" data-name="Trazado 1017127" d="M34.589,25v5.383h-.9a2.683,2.683,0,0,1-2.485-1.66A2.615,2.615,0,0,1,31,27.691a2.685,2.685,0,0,1,.789-1.9,1.536,1.536,0,0,1,.179-.161A2.654,2.654,0,0,1,33.691,25Z" transform="translate(-31 -25)" fill="#f0d0b4"/>
        </g>
        <g id="Grupo_1171996" data-name="Grupo 1171996" transform="translate(30.502 17.162)">
          <path id="Trazado_1017128" data-name="Trazado 1017128" d="M54.737,24.5v7.177a8.975,8.975,0,0,1-8.971,8.971H43.971A8.975,8.975,0,0,1,35,31.676v-7.41a3.6,3.6,0,0,1,2.3-3.346l2.045-.789A5.283,5.283,0,0,0,43.882,22.7H54.737Z" transform="translate(-35 -20.13)" fill="#f0d0b4"/>
        </g>
        <g id="Grupo_1171997" data-name="Grupo 1171997" transform="translate(50.239 21.531)">
          <path id="Trazado_1017129" data-name="Trazado 1017129" d="M59.709,25.709A2.689,2.689,0,0,1,57.9,30.383H57V25h.9A2.661,2.661,0,0,1,59.709,25.709Z" transform="translate(-57 -25)" fill="#f0d0b4"/>
        </g>
        <g id="Grupo_1171998" data-name="Grupo 1171998" transform="translate(17.943 34.091)">
          <path id="Trazado_1017130" data-name="Trazado 1017130" d="M26.383,39V58.737H21V40.794Z" transform="translate(-21 -39)" fill="#ff826e"/>
        </g>
        <g id="Grupo_1171999" data-name="Grupo 1171999" transform="translate(8.971 37.679)">
          <path id="Trazado_1017131" data-name="Trazado 1017131" d="M16.383,43V59.148H11V44.794Z" transform="translate(-11 -43)" fill="#ff826e"/>
        </g>
        <g id="Grupo_1172000" data-name="Grupo 1172000" transform="translate(0 41.268)">
          <path id="Trazado_1017132" data-name="Trazado 1017132" d="M6.383,47V59.56H1V48.794Z" transform="translate(-1 -47)" fill="#ff826e"/>
        </g>
        <g id="Grupo_1172001" data-name="Grupo 1172001" transform="translate(36.782 30.502)">
          <path id="Trazado_1017133" data-name="Trazado 1017133" d="M42,35h7.177A3.589,3.589,0,1,1,42,35Z" transform="translate(-42 -35)" fill="#ff826e"/>
        </g>
      </g>
      <g id="Grupo_1172003" data-name="Grupo 1172003">
        <path id="Trazado_1017134" data-name="Trazado 1017134" d="M41,34.9a4.486,4.486,0,0,0,8.971,0V34H41Zm7.024.9a2.692,2.692,0,0,1-5.076,0Z" transform="translate(-4.218 -3.498)"/>
        <path id="Trazado_1017135" data-name="Trazado 1017135" d="M42.383,29.589h1.794a3.589,3.589,0,1,0-7.177,0h1.794a1.794,1.794,0,1,1,3.589,0Z" transform="translate(-3.806 -2.675)"/>
        <path id="Trazado_1017136" data-name="Trazado 1017136" d="M50.589,26A3.592,3.592,0,0,0,47,29.589h1.794a1.794,1.794,0,1,1,3.589,0h1.794A3.592,3.592,0,0,0,50.589,26Z" transform="translate(-4.835 -2.675)"/>
        <path id="Trazado_1017137" data-name="Trazado 1017137" d="M56.445,18.859A11.7,11.7,0,0,0,44.764,7.177H39.744a8.015,8.015,0,0,0-4.315,1.252,14.352,14.352,0,1,0-6.916,18.892,3.568,3.568,0,0,0,2.813,1.387v.9a9.884,9.884,0,0,0,6.132,9.138,10.769,10.769,0,0,0-6.132,9.7v7.177H52.857V48.445a10.767,10.767,0,0,0-6.142-9.707,9.881,9.881,0,0,0,6.142-9.132v-.9a3.592,3.592,0,0,0,3.589-3.589,3.554,3.554,0,0,0-.754-2.176A11.616,11.616,0,0,0,56.445,18.859ZM22.354,26.914A12.56,12.56,0,1,1,33.984,9.629,8.007,8.007,0,0,0,32.7,11.4a10.77,10.77,0,1,0-4.491,11.984,3.551,3.551,0,0,0-.468,1.738,3.587,3.587,0,0,0,.054.532A12.566,12.566,0,0,1,22.354,26.914Zm5.615-5.574a8.93,8.93,0,0,1-4.718,1.938V21.531H21.457V23.28A8.929,8.929,0,0,1,16.681,21.3l1.233-1.233-1.269-1.269-1.233,1.233a8.929,8.929,0,0,1-1.984-4.776h1.749V13.457H13.429a8.929,8.929,0,0,1,1.984-4.776l1.233,1.233,1.269-1.269L16.681,7.412a8.929,8.929,0,0,1,4.776-1.984V7.177h1.794V5.43a8.96,8.96,0,0,1,4.77,1.987L26.795,8.645l1.269,1.269L29.3,8.682a8.894,8.894,0,0,1,1.856,3.947,7.976,7.976,0,0,0-3.414,6.556v.287a8.025,8.025,0,0,0,.232,1.868Zm1.562,3.78a1.8,1.8,0,0,1,1.794-1.794v3.589a1.8,1.8,0,0,1-1.794-1.794Zm1.846-3.589h-.052a3.549,3.549,0,0,0-1.34.266,6.243,6.243,0,0,1-.454-2.324v-.287a6.209,6.209,0,0,1,3.921-5.792l.357-.143.143-.357a6.21,6.21,0,0,1,5.793-3.922h5.019A9.886,9.886,0,0,1,54.2,21.8a3.562,3.562,0,0,0-1.347-.267v-.9a6.174,6.174,0,0,0-5.175-6.109l-.958-.16-.294,1.77.958.16a4.384,4.384,0,0,1,3.583,3.441H41.106a4.4,4.4,0,0,1-4.4-4.4v-.088l-1.794.088a6.143,6.143,0,0,0,.423,2.233l-1.143.442a4.515,4.515,0,0,0-2.817,3.517ZM43.485,39.593l-1,1.675H41.7l-1-1.675a8.2,8.2,0,0,1,2.787,0Zm2.734.9-.34,2.723-1.7-1.278,1.116-1.86a9.174,9.174,0,0,1,.929.415Zm-7.326-.414,1.116,1.86-1.7,1.278-.34-2.723a8.631,8.631,0,0,1,.929-.415Zm3,2.988h.394l1.5,6-1.7,1.7-1.7-1.7Zm9.169,5.383v5.383H33.12V48.445A8.95,8.95,0,0,1,36.3,41.609l.612,4.893,2.8-2.1-1.305,5.219L42.091,53.3l3.685-3.685L44.47,44.4l2.8,2.1.612-4.893a8.947,8.947,0,0,1,3.176,6.835ZM42.988,37.679H41.194A8.076,8.076,0,0,1,33.12,29.6V22.2a2.71,2.71,0,0,1,1.721-2.51l1.394-.539a6.18,6.18,0,0,0,4.871,2.384h9.956v8.075A8.084,8.084,0,0,1,42.988,37.679Zm9.868-10.766V23.325a1.794,1.794,0,1,1,0,3.589Z" transform="translate(-0.823 0)"/>
        <path id="Trazado_1017138" data-name="Trazado 1017138" d="M24.794,10H23v5.754l2.057,2.057,1.269-1.269-1.531-1.531Z" transform="translate(-2.366 -1.029)"/>
        <path id="Trazado_1017139" data-name="Trazado 1017139" d="M17.943,57.7H16.148V41.2L8.971,43.593V57.7H7.177V44.789L0,47.182v12.31H25.12V37.612L17.943,40Zm-12.56,0H1.794V48.475l3.589-1.2Zm5.383-12.81,3.589-1.2V57.7H10.766ZM19.737,41.3l3.589-1.2V57.7H19.737Z" transform="translate(0 -3.869)"/>
        <path id="Trazado_1017140" data-name="Trazado 1017140" d="M0,0H25.83V1.794H0Z" transform="translate(0.597 38.651) rotate(-20.355)"/>
      </g>
    </g>
  </g>
</svg>
