<svg xmlns="http://www.w3.org/2000/svg" xmlns:xlink="http://www.w3.org/1999/xlink" width="110" height="110" viewBox="0 0 110 110">
  <defs>
    <filter id="Trazado_982547" x="0" y="0" width="110" height="110" filterUnits="userSpaceOnUse">
      <feOffset dy="3" input="SourceAlpha"/>
      <feGaussianBlur stdDeviation="3" result="blur"/>
      <feFlood flood-opacity="0.161"/>
      <feComposite operator="in" in2="blur"/>
      <feComposite in="SourceGraphic"/>
    </filter>
  </defs>
  <g id="Grupo_1172009" data-name="Grupo 1172009" transform="translate(-8396 -5964)">
    <g id="Grupo_1171570" data-name="Grupo 1171570" transform="translate(8405 5970)">
      <g id="Grupo_1163801" data-name="Grupo 1163801" transform="translate(0)">
        <g id="Grupo_1163014" data-name="Grupo 1163014">
          <g id="Grupo_1157015" data-name="Grupo 1157015" transform="translate(0 0)">
            <g id="Grupo_1155792" data-name="Grupo 1155792">
              <g id="Grupo_1154703" data-name="Grupo 1154703">
                <g id="Grupo_1150789" data-name="Grupo 1150789">
                  <g id="Grupo_1154212" data-name="Grupo 1154212">
                    <g id="Grupo_1152583" data-name="Grupo 1152583">
                      <g id="Grupo_1146973" data-name="Grupo 1146973" transform="translate(0 0)">
                        <g id="Grupo_1146954" data-name="Grupo 1146954">
                          <g transform="matrix(1, 0, 0, 1, -9, -6)" filter="url(#Trazado_982547)">
                            <g id="Trazado_982547-2" data-name="Trazado 982547" transform="translate(9 6)" fill="#f2f7f5">
                              <path d="M 46 90.49987030029297 C 39.99187850952148 90.49987030029297 34.16426849365234 89.32350921630859 28.67905426025391 87.00345611572266 C 23.38019943237305 84.76224517822266 18.62104034423828 81.55341339111328 14.53374671936035 77.46613311767578 C 10.44646644592285 73.37885284423828 7.237639904022217 68.61969757080078 4.996413230895996 63.32085418701172 C 2.676359891891479 57.83565521240234 1.5 52.008056640625 1.5 45.99993515014648 C 1.5 39.99181365966797 2.676359891891479 34.16421508789062 4.996413230895996 28.67901420593262 C 7.237639904022217 23.38017463684082 10.44646644592285 18.62101554870605 14.53374671936035 14.53373527526855 C 18.62104034423828 10.44645500183105 23.38019943237305 7.23762845993042 28.67905426025391 4.996415138244629 C 34.16426849365234 2.676361799240112 39.99187850952148 1.500001788139343 46 1.500001788139343 C 52.00812149047852 1.500001788139343 57.83573150634766 2.676361799240112 63.32094573974609 4.996415138244629 C 68.61979675292969 7.23762845993042 73.37895965576172 10.44645500183105 77.46625518798828 14.53373527526855 C 81.55353546142578 18.62101554870605 84.76235961914062 23.38017463684082 87.00358581542969 28.67901420593262 C 89.32363891601562 34.16421508789062 90.5 39.99181365966797 90.5 45.99993515014648 C 90.5 52.008056640625 89.32363891601562 57.83565521240234 87.00358581542969 63.32085418701172 C 84.76235961914062 68.61969757080078 81.55353546142578 73.37885284423828 77.46625518798828 77.46613311767578 C 73.37895965576172 81.55341339111328 68.61979675292969 84.76224517822266 63.32094573974609 87.00345611572266 C 57.83573150634766 89.32350921630859 52.00812149047852 90.49987030029297 46 90.49987030029297 Z" stroke="none"/>
                              <path d="M 46 2.999992370605469 C 40.1937141418457 2.999992370605469 34.56269836425781 4.136489868164062 29.26337051391602 6.377906799316406 C 24.14332580566406 8.543502807617188 19.54441070556641 11.64437866210938 15.59439849853516 15.59437561035156 C 11.64440155029297 19.54439544677734 8.54351806640625 24.14329528808594 6.377914428710938 29.26333618164062 C 4.136497497558594 34.56264877319336 3 40.19366455078125 3 45.99993515014648 C 3 51.80620574951172 4.136497497558594 57.43720626831055 6.377914428710938 62.73651885986328 C 8.54351806640625 67.8565673828125 11.64440155029297 72.45545959472656 15.59439849853516 76.40547943115234 C 19.54441070556641 80.35547637939453 24.14332580566406 83.45635223388672 29.26337051391602 85.6219482421875 C 34.56269836425781 87.86336517333984 40.1937141418457 88.99986267089844 46 88.99986267089844 C 51.8062858581543 88.99986267089844 57.43730163574219 87.86336517333984 62.73661422729492 85.6219482421875 C 67.85667419433594 83.45635223388672 72.45557403564453 80.35547637939453 76.40558624267578 76.40547943115234 C 80.35559844970703 72.45545959472656 83.45647430419922 67.8565673828125 85.6220703125 62.73651885986328 C 87.86350250244141 57.43720626831055 89 51.80620574951172 89 45.99993515014648 C 89 40.19366455078125 87.86350250244141 34.56264877319336 85.6220703125 29.26333618164062 C 83.45647430419922 24.14329528808594 80.35559844970703 19.54439544677734 76.40558624267578 15.59437561035156 C 72.45557403564453 11.64437866210938 67.85667419433594 8.543502807617188 62.73661422729492 6.377906799316406 C 57.43730163574219 4.136489868164062 51.8062858581543 2.999992370605469 46 2.999992370605469 M 46 -7.62939453125e-06 C 71.40509033203125 -7.62939453125e-06 92 20.59486389160156 92 45.99993515014648 C 92 71.40499114990234 71.40509033203125 91.99986267089844 46 91.99986267089844 C 20.59490203857422 91.99986267089844 0 71.40499114990234 0 45.99993515014648 C 0 20.59486389160156 20.59490203857422 -7.62939453125e-06 46 -7.62939453125e-06 Z" stroke="none" fill="#01899b"/>
                            </g>
                          </g>
                        </g>
                      </g>
                    </g>
                  </g>
                </g>
              </g>
            </g>
          </g>
        </g>
      </g>
    </g>
    <g id="research_5530249" transform="translate(8422.989 5975.938)">
      <g id="Grupo_1172008" data-name="Grupo 1172008" transform="translate(0.888 13.939)">
        <g id="Grupo_1172005" data-name="Grupo 1172005" transform="translate(8.949 0)">
          <path id="Trazado_1017141" data-name="Trazado 1017141" d="M90.72,21.063h31.821a1,1,0,0,1,.734.3L129.1,27.2a1,1,0,0,1,.3.734V71.512a1.04,1.04,0,0,1-1.038,1.038H90.72a1.04,1.04,0,0,1-1.038-1.038V22.1a1.04,1.04,0,0,1,1.038-1.038Z" transform="translate(-89.682 -21.063)" fill="#eceff1" fill-rule="evenodd"/>
          <path id="Trazado_1017142" data-name="Trazado 1017142" d="M90.72,21.063h2.431V72.55H90.72a1.04,1.04,0,0,1-1.038-1.038V22.1a1.04,1.04,0,0,1,1.038-1.038Z" transform="translate(-89.682 -21.063)" fill="#d1d1d6" fill-rule="evenodd"/>
          <path id="Trazado_1017143" data-name="Trazado 1017143" d="M393.481,21.884a1.042,1.042,0,0,1,.3.214l5.828,5.828a1.042,1.042,0,0,1,.214.3H394a.52.52,0,0,1-.519-.519V21.884Z" transform="translate(-360.192 -21.794)" fill="#a79ba7" fill-rule="evenodd"/>
        </g>
        <g id="Grupo_1172006" data-name="Grupo 1172006" transform="translate(17.877 14.583)">
          <path id="Trazado_1017144" data-name="Trazado 1017144" d="M366.8,339.624a12.087,12.087,0,0,1-2.04,2.245l5.546,5.436,2.111-2.176Z" transform="translate(-343.551 -319.301)" fill="#a79ba7" fill-rule="evenodd"/>
          <path id="Trazado_1017145" data-name="Trazado 1017145" d="M378.815,339.283a1.394,1.394,0,0,1-.6.81l5.509,5.473.675-.739Z" transform="translate(-355.524 -318.997)" fill="#837683" fill-rule="evenodd"/>
          <path id="Trazado_1017146" data-name="Trazado 1017146" d="M410.6,387.079l2.383-2.456a1.1,1.1,0,0,0-.023-1.545l-6.6-6.4a1.1,1.1,0,0,0-1.545.023l-2.383,2.456a1.1,1.1,0,0,0,.023,1.545l6.6,6.4A1.1,1.1,0,0,0,410.6,387.079Z" transform="translate(-376.815 -352.018)" fill="#f1ba84" fill-rule="evenodd"/>
          <path id="Trazado_1017147" data-name="Trazado 1017147" d="M429.643,376.675l6.6,6.4a1.1,1.1,0,0,1,.023,1.545l-2.383,2.456a1.086,1.086,0,0,1-.3.216,1.1,1.1,0,0,0,1.272-.216l2.383-2.456a1.1,1.1,0,0,0-.023-1.545l-6.6-6.4a1.1,1.1,0,0,0-1.249-.193A1.076,1.076,0,0,1,429.643,376.675Z" transform="translate(-401.077 -352.019)" fill="#e3a76f" fill-rule="evenodd"/>
          <ellipse id="Elipse_11878" data-name="Elipse 11878" cx="12.018" cy="12.018" rx="12.018" ry="12.018" transform="translate(0 4.999) rotate(-12.007)" fill="#ffe177"/>
          <ellipse id="Elipse_11879" data-name="Elipse 11879" cx="8.629" cy="8.629" rx="8.629" ry="8.629" transform="translate(4.02 20.938) rotate(-77.993)" fill="#eceff1"/>
        </g>
        <g id="Grupo_1172007" data-name="Grupo 1172007" transform="translate(0 8.877)">
          <path id="Trazado_1017148" data-name="Trazado 1017148" d="M67.014,332.547h4.7v2.389a1.429,1.429,0,0,1-1.424,1.424H68.438a1.429,1.429,0,0,1-1.424-1.424Z" transform="translate(-60.549 -307.294)" fill="#b1b1b5" fill-rule="evenodd"/>
          <path id="Trazado_1017149" data-name="Trazado 1017149" d="M91.039,332.547h.8v2.389a1.429,1.429,0,0,1-1.424,1.424h-.8a1.429,1.429,0,0,0,1.424-1.424v-2.389Z" transform="translate(-80.674 -307.294)" fill="#9c9c9e" fill-rule="evenodd"/>
          <path id="Trazado_1017150" data-name="Trazado 1017150" d="M53.681,301.153H61.3v2.98a1.429,1.429,0,0,1-1.424,1.424h-4.77a1.428,1.428,0,0,1-1.425-1.424v-2.98Z" transform="translate(-48.677 -279.34)" fill="#d1d1d6" fill-rule="evenodd"/>
          <path id="Trazado_1017151" data-name="Trazado 1017151" d="M104.371,301.153h.8v2.98a1.429,1.429,0,0,1-1.424,1.424h-.8a1.428,1.428,0,0,0,1.424-1.424Z" transform="translate(-92.545 -279.34)" fill="#b1b1b5" fill-rule="evenodd"/>
          <path id="Trazado_1017152" data-name="Trazado 1017152" d="M40.247,276.363H50.715v2.847a1.429,1.429,0,0,1-1.424,1.424H41.671a1.429,1.429,0,0,1-1.424-1.424Z" transform="translate(-36.715 -257.266)" fill="#eceff1" fill-rule="evenodd"/>
          <path id="Trazado_1017153" data-name="Trazado 1017153" d="M116.937,276.363h.8v2.847a1.429,1.429,0,0,1-1.424,1.424h-.8a1.429,1.429,0,0,0,1.424-1.424Z" transform="translate(-103.734 -257.266)" fill="#d1d1d6" fill-rule="evenodd"/>
          <path id="Trazado_1017154" data-name="Trazado 1017154" d="M16.781,102.08a8.766,8.766,0,0,1,8.766,8.766c0,4.869-3.11,4.578-3.532,11.754H11.547c-.422-7.176-3.532-6.885-3.532-11.754A8.766,8.766,0,0,1,16.781,102.08Z" transform="translate(-8.015 -102.08)" fill="#8ac9fe" fill-rule="evenodd"/>
          <path id="Trazado_1017155" data-name="Trazado 1017155" d="M34.516,102.08a8.766,8.766,0,0,1,8.766,8.766c0,4.869-3.11,4.578-3.532,11.754h-.8c0-6.672,5.328-8.752,2.787-14.5a8.768,8.768,0,0,0-13.808-3.042A8.744,8.744,0,0,1,34.516,102.08Z" transform="translate(-25.75 -102.08)" fill="#60b7ff" fill-rule="evenodd"/>
        </g>
      </g>
      <path id="Trazado_1017156" data-name="Trazado 1017156" d="M37.862,59.849a.876.876,0,0,1-.877.877H22.411a.877.877,0,0,1,0-1.753H36.986A.876.876,0,0,1,37.862,59.849Zm-16.327-34.3a.876.876,0,0,1,.876-.876H36.986a.876.876,0,1,1,0,1.753H22.411A.876.876,0,0,1,21.535,25.551Zm0-5.323a.876.876,0,0,1,.876-.877H36.986a.877.877,0,1,1,0,1.754H22.411A.877.877,0,0,1,21.535,20.228Zm11.476,30.32a7.753,7.753,0,1,1,7.754-7.753A7.762,7.762,0,0,1,33.011,50.548Zm0-17.259a9.506,9.506,0,1,0,9.507,9.507A9.517,9.517,0,0,0,33.011,33.288ZM54.3,60.517l-2.383,2.456a.219.219,0,0,1-.306,0l-6.6-6.4a.217.217,0,0,1-.064-.152.215.215,0,0,1,.059-.154l2.383-2.455a.21.21,0,0,1,.152-.064h0a.215.215,0,0,1,.15.06l6.6,6.4A.22.22,0,0,1,54.3,60.517Zm-21.29-6.581a11.141,11.141,0,1,0-11.14-11.14A11.153,11.153,0,0,0,33.011,53.935Zm11.476.351L42.1,51.938c.3-.3.591-.616.863-.944l2.42,2.375ZM10.713,64.549H48.685v-1.97l-4.894-4.748a1.968,1.968,0,0,1-.433-2.2l-2.593-2.543a12.9,12.9,0,1,1,3.224-3.539l2.694,2.643a1.956,1.956,0,0,1,.832-.2,1.937,1.937,0,0,1,1.169.362V21.252h-5.56a.877.877,0,0,1-.877-.877v-5.56H10.713V22A9.656,9.656,0,0,1,19.3,31.582a8.93,8.93,0,0,1-1.554,5.156,12.646,12.646,0,0,0-1.978,6.627v1.4a2.3,2.3,0,0,1-1.377,2.105v.744a2.3,2.3,0,0,1-1.46,2.14v.709a2.3,2.3,0,0,1-2.214,2.3V64.549ZM8.229,50.459v-.548h2.944v.548a.555.555,0,0,1-.548.547H8.777a.555.555,0,0,1-.548-.547Zm3.815-17.651V31.647A1.161,1.161,0,1,1,13.2,32.807Zm-1.753,9.651H9.017v-7.9h1.274ZM7.263,32.807H6.1a1.161,1.161,0,1,1,1.162-1.161Zm6.748,11.953a.556.556,0,0,1-.548.548H5.843a.556.556,0,0,1-.548-.548v-.549h8.716ZM12.634,47.61a.555.555,0,0,1-.548.547H7.316a.555.555,0,0,1-.548-.547v-.548h5.866ZM1.764,31.582a7.889,7.889,0,1,1,15.779,0,7.284,7.284,0,0,1-1.314,4.269,14.136,14.136,0,0,0-2.153,6.607H12.044v-7.9H13.2a2.914,2.914,0,1,0-2.914-2.913v1.161H9.017V31.647A2.914,2.914,0,1,0,6.1,34.56H7.264v7.9H5.232a14.133,14.133,0,0,0-2.155-6.607A7.285,7.285,0,0,1,1.764,31.582ZM44,16.054,47.444,19.5H44Zm11.516,42.9-5.079-4.929V20.375a.875.875,0,0,0-.257-.62l-6.437-6.437a.875.875,0,0,0-.619-.256H9.836a.876.876,0,0,0-.876.876v8.027A9.655,9.655,0,0,0,.011,31.582a8.934,8.934,0,0,0,1.553,5.156,12.641,12.641,0,0,1,1.978,6.627v1.4A2.3,2.3,0,0,0,5.015,46.9v.706a2.3,2.3,0,0,0,1.46,2.14v.709a2.3,2.3,0,0,0,2.3,2.3H8.96V65.426a.876.876,0,0,0,.876.877H49.562a.877.877,0,0,0,.876-.877v-1.15a1.967,1.967,0,0,0,2.737-.083l2.383-2.456a1.971,1.971,0,0,0-.041-2.784Z" fill-rule="evenodd"/>
    </g>
  </g>
</svg>
