<svg xmlns="http://www.w3.org/2000/svg" xmlns:xlink="http://www.w3.org/1999/xlink" width="113" height="113" viewBox="0 0 113 113">
  <defs>
    <filter id="Trazado_982547" x="0" y="0" width="113" height="113" filterUnits="userSpaceOnUse">
      <feOffset dy="3" input="SourceAlpha"/>
      <feGaussianBlur stdDeviation="3" result="blur"/>
      <feFlood flood-opacity="0.161"/>
      <feComposite operator="in" in2="blur"/>
      <feComposite in="SourceGraphic"/>
    </filter>
  </defs>
  <g id="Grupo_1171948" data-name="Grupo 1171948" transform="translate(-171.136 -6882)">
    <g id="Grupo_1171577" data-name="Grupo 1171577" transform="translate(0.136 3601)">
      <g id="Grupo_1167519" data-name="Grupo 1167519" transform="translate(180 3287)">
        <g id="Grupo_1166845" data-name="Grupo 1166845" transform="translate(0)">
          <g id="Grupo_1166720" data-name="Grupo 1166720">
            <g id="Grupo_1164305" data-name="Grupo 1164305">
              <g id="Grupo_1163948" data-name="Grupo 1163948">
                <g id="Grupo_1158168" data-name="Grupo 1158168">
                  <g id="Grupo_1152576" data-name="Grupo 1152576">
                    <g id="Grupo_1148633" data-name="Grupo 1148633">
                      <g id="Grupo_1148525" data-name="Grupo 1148525">
                        <g transform="matrix(1, 0, 0, 1, -9, -6)" filter="url(#Trazado_982547)">
                          <g id="Trazado_982547-2" data-name="Trazado 982547" transform="translate(9 6)" fill="#f2f7f5">
                            <path d="M 47.5 93.5 C 41.28937149047852 93.5 35.26533508300781 92.28397369384766 29.59518623352051 89.88570404052734 C 24.11771965026855 87.56893157958984 19.19813346862793 84.25196075439453 14.97309303283691 80.02691650390625 C 10.74804019927979 75.80186462402344 7.431066513061523 70.88229370117188 5.114293098449707 65.40481567382812 C 2.716026782989502 59.73468017578125 1.5 53.71062850952148 1.5 47.5 C 1.5 41.28937149047852 2.716026782989502 35.26533508300781 5.114293098449707 29.59518623352051 C 7.431066513061523 24.11771965026855 10.74804019927979 19.19813346862793 14.97309303283691 14.97309303283691 C 19.19813346862793 10.74804019927979 24.11771965026855 7.431066513061523 29.59518623352051 5.114293098449707 C 35.26533508300781 2.716026782989502 41.28937149047852 1.5 47.5 1.5 C 53.71062850952148 1.5 59.73468017578125 2.716026782989502 65.40481567382812 5.114293098449707 C 70.88229370117188 7.431066513061523 75.80186462402344 10.74804019927979 80.02691650390625 14.97309303283691 C 84.25196075439453 19.19813346862793 87.56893157958984 24.11771965026855 89.88570404052734 29.59518623352051 C 92.28397369384766 35.26533508300781 93.5 41.28937149047852 93.5 47.5 C 93.5 53.71062850952148 92.28397369384766 59.73468017578125 89.88570404052734 65.40481567382812 C 87.56893157958984 70.88229370117188 84.25196075439453 75.80186462402344 80.02691650390625 80.02691650390625 C 75.80186462402344 84.25196075439453 70.88229370117188 87.56893157958984 65.40481567382812 89.88570404052734 C 59.73468017578125 92.28397369384766 53.71062850952148 93.5 47.5 93.5 Z" stroke="none"/>
                            <path d="M 47.5 3 C 41.49121475219727 3 35.66376876831055 4.176155090332031 30.17950439453125 6.495796203613281 C 24.88084411621094 8.736953735351562 20.12152099609375 11.94598388671875 16.03375244140625 16.03375244140625 C 11.94598388671875 20.12152099609375 8.736953735351562 24.88084411621094 6.495796203613281 30.17950439453125 C 4.176155090332031 35.66376876831055 3 41.49121475219727 3 47.5 C 3 53.50878524780273 4.176155090332031 59.33623123168945 6.495796203613281 64.82049560546875 C 8.736953735351562 70.11915588378906 11.94598388671875 74.87847900390625 16.03375244140625 78.96624755859375 C 20.12152099609375 83.05401611328125 24.88084411621094 86.26304626464844 30.17950439453125 88.50419616699219 C 35.66376876831055 90.82384490966797 41.49121475219727 92 47.5 92 C 53.50878524780273 92 59.33623123168945 90.82384490966797 64.82049560546875 88.50419616699219 C 70.11915588378906 86.26304626464844 74.87847900390625 83.05401611328125 78.96624755859375 78.96624755859375 C 83.05401611328125 74.87847900390625 86.26304626464844 70.11915588378906 88.50419616699219 64.82049560546875 C 90.82384490966797 59.33623123168945 92 53.50878524780273 92 47.5 C 92 41.49121475219727 90.82384490966797 35.66376876831055 88.50419616699219 30.17950439453125 C 86.26304626464844 24.88084411621094 83.05401611328125 20.12152099609375 78.96624755859375 16.03375244140625 C 74.87847900390625 11.94598388671875 70.11915588378906 8.736953735351562 64.82049560546875 6.495796203613281 C 59.33623123168945 4.176155090332031 53.50878524780273 3 47.5 3 M 47.5 0 C 73.7335205078125 0 95 21.2664794921875 95 47.5 C 95 73.7335205078125 73.7335205078125 95 47.5 95 C 21.2664794921875 95 0 73.7335205078125 0 47.5 C 0 21.2664794921875 21.2664794921875 0 47.5 0 Z" stroke="none" fill="#88bba9"/>
                          </g>
                        </g>
                      </g>
                    </g>
                  </g>
                </g>
              </g>
            </g>
          </g>
        </g>
      </g>
    </g>
    <g id="team-management" transform="translate(198.136 6905.565)">
      <g id="Grupo_1171924" data-name="Grupo 1171924" transform="translate(16.377 1.301)">
        <g id="Grupo_1171919" data-name="Grupo 1171919" transform="translate(0 0)">
          <circle id="Elipse_11867" data-name="Elipse 11867" cx="13.178" cy="13.178" r="13.178" fill="#f7e365"/>
        </g>
        <g id="Grupo_1171920" data-name="Grupo 1171920" transform="translate(2.601 2.601)">
          <path id="Trazado_1016982" data-name="Trazado 1016982" d="M182.825,30.468a13.179,13.179,0,0,1-18.439,18.439,13.179,13.179,0,1,0,18.439-18.439Z" transform="translate(-164.386 -30.468)" fill="#f3d332"/>
        </g>
        <g id="Grupo_1171923" data-name="Grupo 1171923" transform="translate(5.326 4.874)">
          <g id="Grupo_1171921" data-name="Grupo 1171921">
            <path id="Trazado_1016983" data-name="Trazado 1016983" d="M201.675,58.42l1.713-1.86a1.166,1.166,0,0,0,.152-1.373l-1.009-1.747a1.166,1.166,0,0,0-1.265-.555l-2.467.554-.079-.045-.754-2.413a1.166,1.166,0,0,0-1.113-.818h-2.017a1.166,1.166,0,0,0-1.113.818l-.754,2.413-.079.045-2.467-.554a1.166,1.166,0,0,0-1.265.555l-1.009,1.747a1.166,1.166,0,0,0,.152,1.373l1.713,1.86v.09L188.3,60.37a1.166,1.166,0,0,0-.152,1.373l1.009,1.747a1.166,1.166,0,0,0,1.265.555l2.467-.554.079.045.754,2.413a1.166,1.166,0,0,0,1.113.818h2.017a1.166,1.166,0,0,0,1.113-.818l.754-2.413.079-.045,2.467.554a1.166,1.166,0,0,0,1.265-.555l1.009-1.747a1.166,1.166,0,0,0-.152-1.373l-1.713-1.86v-.09Zm-5.83,1.911a1.866,1.866,0,1,1,1.866-1.866A1.866,1.866,0,0,1,195.845,60.331Z" transform="translate(-187.994 -50.161)" fill="#62a4fb"/>
          </g>
          <g id="Grupo_1171922" data-name="Grupo 1171922" transform="translate(5.113 2.695)">
            <path id="Trazado_1016984" data-name="Trazado 1016984" d="M240.851,79.161v-.09l1.713-1.86a1.166,1.166,0,0,0,.152-1.373l-1.009-1.747a1.166,1.166,0,0,0-1.265-.555l-1.4.314a8.215,8.215,0,0,1-6.76,10.776L232.9,86.6a1.166,1.166,0,0,0,1.113.818h2.017a1.166,1.166,0,0,0,1.113-.818l.754-2.413.078-.045,2.467.554a1.166,1.166,0,0,0,1.265-.555l1.009-1.747a1.166,1.166,0,0,0-.152-1.373Z" transform="translate(-232.282 -73.507)" fill="#5392f9"/>
          </g>
        </g>
      </g>
      <g id="Grupo_1171940" data-name="Grupo 1171940" transform="translate(12.994 22.783)">
        <g id="Grupo_1171929" data-name="Grupo 1171929" transform="translate(18.661)">
          <g id="Grupo_1171925" data-name="Grupo 1171925" transform="translate(0 9.33)">
            <path id="Trazado_1016985" data-name="Trazado 1016985" d="M274.2,279.03V290.1h14.461V279.03a4.2,4.2,0,0,0-4.2-4.2H278.4A4.2,4.2,0,0,0,274.2,279.03Z" transform="translate(-274.198 -274.832)" fill="#e175a5"/>
          </g>
          <g id="Grupo_1171926" data-name="Grupo 1171926" transform="translate(0 9.33)">
            <path id="Trazado_1016986" data-name="Trazado 1016986" d="M282.127,279.029a6.961,6.961,0,0,0-1.4-4.2H278.4a4.2,4.2,0,0,0-4.2,4.2V290.1h7.929Z" transform="translate(-274.198 -274.831)" fill="#de5791"/>
          </g>
          <g id="Grupo_1171927" data-name="Grupo 1171927" transform="translate(2.566)">
            <circle id="Elipse_11868" data-name="Elipse 11868" cx="4.665" cy="4.665" r="4.665" fill="#fed2a4"/>
          </g>
          <g id="Grupo_1171928" data-name="Grupo 1171928" transform="translate(3.113 0.548)">
            <path id="Trazado_1016987" data-name="Trazado 1016987" d="M307.475,198.759a4.665,4.665,0,0,1-6.311,6.311,4.665,4.665,0,1,0,6.311-6.311Z" transform="translate(-301.164 -198.759)" fill="#ffbd86"/>
          </g>
        </g>
        <g id="Grupo_1171934" data-name="Grupo 1171934">
          <g id="Grupo_1171930" data-name="Grupo 1171930" transform="translate(0 9.33)">
            <path id="Trazado_1016988" data-name="Trazado 1016988" d="M112.552,279.03V290.1h14.461V279.03a4.2,4.2,0,0,0-4.2-4.2H116.75A4.2,4.2,0,0,0,112.552,279.03Z" transform="translate(-112.552 -274.832)" fill="#e175a5"/>
          </g>
          <g id="Grupo_1171931" data-name="Grupo 1171931" transform="translate(6.532 9.33)">
            <path id="Trazado_1016989" data-name="Trazado 1016989" d="M177.059,290.1V279.03a4.2,4.2,0,0,0-4.2-4.2h-2.328a6.961,6.961,0,0,0-1.4,4.2V290.1Z" transform="translate(-169.13 -274.832)" fill="#de5791"/>
          </g>
          <g id="Grupo_1171932" data-name="Grupo 1171932" transform="translate(2.566)">
            <circle id="Elipse_11869" data-name="Elipse 11869" cx="4.665" cy="4.665" r="4.665" fill="#fed2a4"/>
          </g>
          <g id="Grupo_1171933" data-name="Grupo 1171933" transform="translate(3.113 0.548)">
            <path id="Trazado_1016990" data-name="Trazado 1016990" d="M145.829,198.759a4.665,4.665,0,0,1-6.311,6.311,4.665,4.665,0,1,0,6.311-6.311Z" transform="translate(-139.518 -198.759)" fill="#ffbd86"/>
          </g>
        </g>
        <g id="Grupo_1171939" data-name="Grupo 1171939" transform="translate(9.331)">
          <g id="Grupo_1171935" data-name="Grupo 1171935" transform="translate(0 9.33)">
            <path id="Trazado_1016991" data-name="Trazado 1016991" d="M193.375,279.03V290.1h14.461V279.03a4.2,4.2,0,0,0-4.2-4.2h-6.064A4.2,4.2,0,0,0,193.375,279.03Z" transform="translate(-193.375 -274.832)" fill="#62a4fb"/>
          </g>
          <g id="Grupo_1171936" data-name="Grupo 1171936" transform="translate(7.231 9.33)">
            <path id="Trazado_1016992" data-name="Trazado 1016992" d="M259.039,274.832h-3.032a4.2,4.2,0,0,1,4.2,4.2V290.1h3.032V279.03A4.2,4.2,0,0,0,259.039,274.832Z" transform="translate(-256.007 -274.832)" fill="#5392f9"/>
          </g>
          <g id="Grupo_1171937" data-name="Grupo 1171937" transform="translate(2.566)">
            <circle id="Elipse_11870" data-name="Elipse 11870" cx="4.665" cy="4.665" r="4.665" fill="#fed2a4"/>
          </g>
          <g id="Grupo_1171938" data-name="Grupo 1171938" transform="translate(3.113 0.548)">
            <path id="Trazado_1016993" data-name="Trazado 1016993" d="M226.652,198.759a4.665,4.665,0,0,1-6.311,6.311,4.665,4.665,0,1,0,6.311-6.311Z" transform="translate(-220.341 -198.759)" fill="#ffbd86"/>
          </g>
        </g>
      </g>
      <g id="Grupo_1171946" data-name="Grupo 1171946" transform="translate(0.866 37.763)">
        <g id="Grupo_1171941" data-name="Grupo 1171941" transform="translate(7.464 4.02)">
          <path id="Trazado_1016994" data-name="Trazado 1016994" d="M72.152,358.6h4.2v14.928h-4.2Z" transform="translate(-72.152 -358.597)" fill="#d3effd"/>
        </g>
        <g id="Grupo_1171942" data-name="Grupo 1171942" transform="translate(11.662)">
          <path id="Trazado_1016995" data-name="Trazado 1016995" d="M153.415,324.595a2.8,2.8,0,0,0-3.958,0l-8.8,8.8h-8.115a2.8,2.8,0,0,0,0-5.6H123.68l-1.8-1.458a9.142,9.142,0,0,0-11.422-.074l-1.941,1.532v14.928l16.893,1.059a9.329,9.329,0,0,0,3.337-.4l13.124-4.053a4.666,4.666,0,0,0,1.922-1.159l9.62-9.62A2.8,2.8,0,0,0,153.415,324.595Z" transform="translate(-108.519 -323.775)" fill="#fed2a4"/>
        </g>
        <g id="Grupo_1171943" data-name="Grupo 1171943" transform="translate(28.43)">
          <path id="Trazado_1016996" data-name="Trazado 1016996" d="M281.891,324.595a2.8,2.8,0,0,0-3.958,0l-8.8,8.8h-1.669a34.256,34.256,0,0,1-2.805,3.174,31.328,31.328,0,0,1-10.9,7.207l.125.008a9.329,9.329,0,0,0,3.337-.4l13.124-4.053a4.666,4.666,0,0,0,1.922-1.159l9.62-9.62A2.8,2.8,0,0,0,281.891,324.595Z" transform="translate(-253.763 -323.775)" fill="#ffbd86"/>
        </g>
        <g id="Grupo_1171944" data-name="Grupo 1171944" transform="translate(0 2.154)">
          <path id="Trazado_1016997" data-name="Trazado 1016997" d="M7.5,342.434h7.464v18.659H7.5Z" transform="translate(-7.5 -342.434)" fill="#62a4fb"/>
        </g>
        <g id="Grupo_1171945" data-name="Grupo 1171945" transform="translate(4.898 2.154)">
          <path id="Trazado_1016998" data-name="Trazado 1016998" d="M49.928,342.434h2.566v18.659H49.928Z" transform="translate(-49.928 -342.434)" fill="#5392f9"/>
        </g>
      </g>
      <g id="Grupo_1171947" data-name="Grupo 1171947" transform="translate(0 0.435)">
        <circle id="Elipse_11871" data-name="Elipse 11871" cx="0.933" cy="0.933" r="0.933" transform="translate(3.665 42.281)"/>
        <circle id="Elipse_11872" data-name="Elipse 11872" cx="0.933" cy="0.933" r="0.933" transform="translate(3.665 46.013)"/>
        <path id="Trazado_1016999" data-name="Trazado 1016999" d="M237.807,101.158a2.732,2.732,0,1,0-2.732,2.732A2.735,2.735,0,0,0,237.807,101.158Zm-2.732,1a1,1,0,1,1,1-1A1,1,0,0,1,235.075,102.158Z" transform="translate(-205.52 -87.113)"/>
        <path id="Trazado_1017000" data-name="Trazado 1017000" d="M58.036,37.97a3.665,3.665,0,0,0-5.183,0l-5.871,5.872V40.993a.866.866,0,1,0-1.732,0v4.581l-.941.941H39.664a3.666,3.666,0,0,0-2.013-5.431V36.311A5.042,5.042,0,0,0,36.4,32.979h5.523a3.336,3.336,0,0,1,3.332,3.333v.641a.866.866,0,1,0,1.732,0v-.641a5.072,5.072,0,0,0-4.161-4.982A5.524,5.524,0,0,0,41.15,22.4,14.083,14.083,0,0,0,43.6,14.479,13.923,13.923,0,0,0,39.367,4.434a.866.866,0,0,0-1.209,1.24,12.2,12.2,0,0,1,3.709,8.805,12.341,12.341,0,0,1-2.516,7.459c-.154-.013-.309-.021-.466-.021a5.53,5.53,0,0,0-4.665,2.566,5.571,5.571,0,0,0-1.91-1.828,2.054,2.054,0,0,0,.193-.432l.535-1.711,1.749.393a2.023,2.023,0,0,0,2.2-.967L38,18.191a2.023,2.023,0,0,0-.265-2.393L36.52,14.48l1.215-1.319A2.023,2.023,0,0,0,38,10.768L36.991,9.021a2.023,2.023,0,0,0-2.2-.967l-1.749.393L32.5,6.736A2.024,2.024,0,0,0,30.563,5.31H28.546a2.023,2.023,0,0,0-1.94,1.426l-.535,1.711-1.749-.393a2.023,2.023,0,0,0-2.2.967l-1.009,1.747a2.024,2.024,0,0,0,.265,2.393l1.215,1.319L21.374,15.8a2.024,2.024,0,0,0-.265,2.393l1.009,1.747a2.023,2.023,0,0,0,2.2.967l1.749-.393.535,1.711a2.049,2.049,0,0,0,.193.433,5.57,5.57,0,0,0-1.91,1.828,5.53,5.53,0,0,0-4.665-2.566c-.157,0-.312.008-.466.021a12.313,12.313,0,0,1,9.8-19.771A12.187,12.187,0,0,1,35.1,3.482a.866.866,0,1,0,.78-1.546,13.9,13.9,0,0,0-6.323-1.5A14.045,14.045,0,0,0,17.959,22.4a5.524,5.524,0,0,0-1.671,8.925,5.071,5.071,0,0,0-4.161,4.982v4.606H9.2v-1a.866.866,0,0,0-.866-.866H.866A.866.866,0,0,0,0,39.917V58.576a.866.866,0,0,0,.866.866H8.33a.866.866,0,0,0,.866-.866v-1h3.311l11.356.713a.866.866,0,0,0,.108-1.728L13.394,55.9V42.2l1.611-1.272A8.275,8.275,0,0,1,25.345,41l1.8,1.457a.866.866,0,0,0,.545.193h8.863a1.933,1.933,0,0,1,0,3.866H26.523a.865.865,0,0,0-.612.254l-1.225,1.225a.866.866,0,1,0,1.224,1.225l.971-.971H44.668a.866.866,0,0,0,.612-.254l8.8-8.8a1.933,1.933,0,0,1,2.734,2.734l-9.62,9.62a3.811,3.811,0,0,1-1.566.943L32.5,56.546a8.422,8.422,0,0,1-3.026.36L28,56.814a.866.866,0,1,0-.108,1.728l1.472.092q.322.02.643.02a10.133,10.133,0,0,0,3-.454l13.124-4.053a5.55,5.55,0,0,0,2.279-1.373l9.62-9.62a3.67,3.67,0,0,0,0-5.183ZM38.885,23.649a3.8,3.8,0,1,1-3.8,3.8,3.8,3.8,0,0,1,3.8-3.8ZM28.546,21.917a.3.3,0,0,1-.287-.211l-.754-2.413a.866.866,0,0,0-.393-.492l-.078-.045a.866.866,0,0,0-.623-.1l-2.467.554a.3.3,0,0,1-.326-.143l-1.009-1.747a.3.3,0,0,1,.039-.354l1.713-1.86a.866.866,0,0,0,.229-.587v-.09a.866.866,0,0,0-.229-.587l-1.713-1.86a.3.3,0,0,1-.039-.354l1.009-1.747a.3.3,0,0,1,.326-.143l2.467.554a.865.865,0,0,0,.623-.1l.078-.045a.865.865,0,0,0,.393-.492l.754-2.413a.3.3,0,0,1,.287-.211h2.017a.3.3,0,0,1,.287.211L31.6,9.666a.865.865,0,0,0,.393.491l.079.045a.866.866,0,0,0,.623.1l2.467-.554a.3.3,0,0,1,.326.143L36.5,11.634a.3.3,0,0,1-.039.354l-1.713,1.86a.866.866,0,0,0-.229.587v.09a.866.866,0,0,0,.229.587l1.713,1.86a.3.3,0,0,1,.039.354l-1.009,1.747a.3.3,0,0,1-.326.143L32.7,18.661a.864.864,0,0,0-.622.095L32,18.8a.866.866,0,0,0-.393.491l-.754,2.413a.3.3,0,0,1-.287.211H28.546Zm1.009,1.732a3.8,3.8,0,1,1-3.8,3.8,3.8,3.8,0,0,1,3.8-3.8Zm-9.331,0a3.8,3.8,0,1,1-3.8,3.8,3.8,3.8,0,0,1,3.8-3.8ZM7.464,57.711H1.732V40.783H7.464ZM9.2,42.649h2.467v13.2H9.2Zm7.655-4.676a9.982,9.982,0,0,0-2.918,1.6l-.073.058V36.311a3.336,3.336,0,0,1,3.332-3.332h5.522a5.042,5.042,0,0,0-1.256,3.332v1.2a9.959,9.959,0,0,0-4.608.464Zm9.585,1.681A10.012,10.012,0,0,0,23.19,37.9v-1.59a3.336,3.336,0,0,1,3.332-3.332h6.064a3.336,3.336,0,0,1,3.332,3.332v4.606H28Z" transform="translate(0 -0.435)"/>
      </g>
    </g>
  </g>
</svg>
