<svg xmlns="http://www.w3.org/2000/svg" xmlns:xlink="http://www.w3.org/1999/xlink" width="505" height="487" viewBox="0 0 505 487">
  <defs>
    <clipPath id="clip-path">
      <rect id="Rectángulo_414366" data-name="Rectángulo 414366" width="505" height="487" transform="translate(180.136 1237)" fill="#fff" stroke="#707070" stroke-width="1" opacity="0.8"/>
    </clipPath>
    <clipPath id="clip-path-2">
      <path id="Trazado_1016859" data-name="Trazado 1016859" d="M460.579,179.015c-.206-3.153.382-6.317.17-9.47s-1.463-6.523-4.249-8.016a8.443,8.443,0,0,0-6.666-.227c-2.164.744-4.075,2.063-6.607,2.794a39.7,39.7,0,0,0-7.073-13.052,21.512,21.512,0,0,0-12.586-7.458c-8.123-1.287-16.443,3.655-20.538,10.785s-4.42,15.972-3.108,23.937c-6.073-3.2-12.379-6.384-19.215-7.011s-14.4,1.883-17.871,7.808c-3.49,5.963-1.93,13.841,2,19.525s9.82,9.651,16.134,14.438a29.983,29.983,0,0,0-8.4,17.762A22.927,22.927,0,0,0,379,249.1c3.954,3.842,9.332,5.909,14.74,6.983a50.515,50.515,0,0,0,29.186-2.949Z" transform="translate(-360.896 -143.382)"/>
    </clipPath>
    <clipPath id="clip-path-5">
      <path id="Trazado_1016869" data-name="Trazado 1016869" d="M255.557,398.131c2.982,1.044,5.664,2.823,8.648,3.861s6.576,1.206,9.04-.773a8.444,8.444,0,0,0,2.816-6.046c.162-2.283-.3-4.558.013-7.174a39.694,39.694,0,0,0,14.78-1.4,21.513,21.513,0,0,0,11.788-8.664c4.363-6.972,3.069-16.562-1.891-23.12s-12.97-10.315-20.814-12.225c5.319-4.338,10.718-8.9,13.97-14.941s3.9-13.993-.194-19.5c-4.122-5.545-11.983-7.192-18.751-5.8s-12.724,5.261-19.6,9.2a29.99,29.99,0,0,0-13.06-14.678,22.928,22.928,0,0,0-19.335-1.228c-5.083,2.137-9.088,6.277-12.192,10.833a50.509,50.509,0,0,0-8.7,28.013Z" transform="translate(-202.07 -294.047)"/>
    </clipPath>
    <clipPath id="clip-path-8">
      <path id="Trazado_1016928" data-name="Trazado 1016928" d="M165.806,264.544c3.827,12.417,7.682,24.989,8.339,37.966s-2.212,26.607-10.526,36.592c-5.012,6.018-11.69,10.389-18.378,14.465q-10.4,6.338-21.179,12.028a207.54,207.54,0,0,0,14.76,48.076,322.314,322.314,0,0,0,55.971-32.734c13.2-9.629,26.079-20.811,32.684-35.757,9.149-20.7,4.6-45.113-4.8-65.7s-23.293-38.806-33.763-58.874l-29.726,2.125Z" transform="translate(-124.062 -220.604)"/>
    </clipPath>
    <clipPath id="clip-path-10">
      <path id="Trazado_1016936" data-name="Trazado 1016936" d="M181.572,242.346a705.084,705.084,0,0,1,64.21,201.3c-17.7,7.876-36.9,12.457-56.392,15.108Q173.5,402.107,157.619,345.453c-7.108-25.348-14.256-50.805-25.043-74.82-7.925-17.639-18.04-35.7-16.159-54.949,0,0,75.733,3.706,77.514,5.191Z" transform="translate(-116.188 -215.684)"/>
    </clipPath>
  </defs>
  <g id="Enmascarar_grupo_1098797" data-name="Enmascarar grupo 1098797" transform="translate(-180.136 -1237)" clip-path="url(#clip-path)">
    <g id="Grupo_1171911" data-name="Grupo 1171911" transform="translate(194.109 1241.642)">
      <circle id="Elipse_11852" data-name="Elipse 11852" cx="2.721" cy="2.721" r="2.721" transform="translate(364.575 360.467)" fill="#ffdbea"/>
      <path id="Trazado_1016842" data-name="Trazado 1016842" d="M210.353,440.912a2.721,2.721,0,1,1,2.721,2.721A2.721,2.721,0,0,1,210.353,440.912Z" transform="translate(56.423 -4.012)" fill="#ffbad7"/>
      <path id="Trazado_1016843" data-name="Trazado 1016843" d="M352.171,123.673a2.721,2.721,0,1,1,2.721,2.721A2.721,2.721,0,0,1,352.171,123.673Z" transform="translate(-234.983 -21.394)" fill="#ffdbea"/>
      <circle id="Elipse_11853" data-name="Elipse 11853" cx="2.721" cy="2.721" r="2.721" transform="translate(367.296 118.812)" fill="#ffdbea"/>
      <g id="Grupo_1171841" data-name="Grupo 1171841" transform="translate(73.594 27.478)">
        <path id="Trazado_1016844" data-name="Trazado 1016844" d="M393.5,83.011a2.721,2.721,0,1,1,2.721,2.721A2.721,2.721,0,0,1,393.5,83.011Z" transform="translate(-393.5 -51.1)" fill="#ffbad7"/>
        <path id="Trazado_1016845" data-name="Trazado 1016845" d="M386.206,55.337a2.721,2.721,0,1,1,2.721,2.721A2.721,2.721,0,0,1,386.206,55.337Z" transform="translate(-378.512 -52.616)" fill="#ffbad7"/>
        <path id="Trazado_1016846" data-name="Trazado 1016846" d="M371.649,70.452a2.014,2.014,0,1,1,2.014,2.014A2.014,2.014,0,0,1,371.649,70.452Z" transform="translate(-347.185 -51.749)" fill="none" stroke="#17014e" stroke-linecap="round" stroke-linejoin="round" stroke-miterlimit="10" stroke-width="1"/>
      </g>
      <path id="Trazado_1016847" data-name="Trazado 1016847" d="M61.271,338.263a2.014,2.014,0,1,1,2.014,2.014A2.013,2.013,0,0,1,61.271,338.263Z" transform="translate(364.171 -9.597)" fill="none" stroke="#17014e" stroke-linecap="round" stroke-linejoin="round" stroke-miterlimit="10" stroke-width="1"/>
      <g id="Grupo_1171842" data-name="Grupo 1171842" transform="translate(25.733 304.767)">
        <circle id="Elipse_11854" data-name="Elipse 11854" cx="2.721" cy="2.721" r="2.721" fill="#ffbad7"/>
        <path id="Trazado_1016848" data-name="Trazado 1016848" d="M423.086,320.095a2.014,2.014,0,1,1,2.014,2.014A2.013,2.013,0,0,1,423.086,320.095Z" transform="translate(-405.016 -315.36)" fill="none" stroke="#17014e" stroke-linecap="round" stroke-linejoin="round" stroke-miterlimit="10" stroke-width="1"/>
      </g>
      <g id="Grupo_1171843" data-name="Grupo 1171843" transform="translate(311.174 128.812)">
        <path id="Trazado_1016849" data-name="Trazado 1016849" d="M43.714,209.631l4.251-15.784-6.889-6.906a5.855,5.855,0,0,1-.842-7.244,66.259,66.259,0,0,1,7.427-9.656A5.848,5.848,0,0,1,54.872,169l8.445,4.889,14.166-8.156.013-9.758a5.849,5.849,0,0,1,4.519-5.715,66.378,66.378,0,0,1,12.079-1.574,5.854,5.854,0,0,1,5.841,4.366l2.513,9.425,15.784,4.251,6.906-6.889a5.855,5.855,0,0,1,7.244-.842,66.26,66.26,0,0,1,9.656,7.427,5.848,5.848,0,0,1,1.038,7.212l-4.889,8.444,8.156,14.166,9.758.013a5.849,5.849,0,0,1,5.715,4.519,66.379,66.379,0,0,1,1.574,12.079,5.854,5.854,0,0,1-4.366,5.841l-9.425,2.513L145.347,237l6.889,6.906a5.855,5.855,0,0,1,.842,7.244,66.325,66.325,0,0,1-7.427,9.657,5.848,5.848,0,0,1-7.212,1.038l-8.445-4.889-14.166,8.156-.012,9.758a5.849,5.849,0,0,1-4.519,5.715,66.378,66.378,0,0,1-12.079,1.574,5.856,5.856,0,0,1-5.842-4.366l-2.513-9.425L75.08,264.114,68.174,271a5.855,5.855,0,0,1-7.244.842,66.324,66.324,0,0,1-9.657-7.427,5.848,5.848,0,0,1-1.038-7.212l4.889-8.445L46.969,234.6l-9.758-.013a5.849,5.849,0,0,1-5.715-4.519,66.389,66.389,0,0,1-1.574-12.079,5.854,5.854,0,0,1,4.366-5.841Zm46.165,30.957a26.061,26.061,0,1,0-18.388-31.941A26.063,26.063,0,0,0,89.879,240.588Z" transform="translate(-12.026 -148.686)" fill="#f2cc85"/>
        <path id="Trazado_1016850" data-name="Trazado 1016850" d="M102.244,284.643l9.345-7.345-1.007-7.021a4.257,4.257,0,0,1,2.662-4.586,48.252,48.252,0,0,1,8.529-2.392,4.252,4.252,0,0,1,4.653,2.534l2.791,6.523,11.8,1.414,4.254-5.679a4.252,4.252,0,0,1,5.12-1.362,48.205,48.205,0,0,1,7.721,4.34,4.258,4.258,0,0,1,1.5,5.086l-2.638,6.583,7.345,9.345,7.021-1.007a4.256,4.256,0,0,1,4.586,2.662,48.243,48.243,0,0,1,2.392,8.529,4.253,4.253,0,0,1-2.534,4.653l-6.523,2.791-1.416,11.8,5.679,4.254a4.252,4.252,0,0,1,1.362,5.12,48.25,48.25,0,0,1-4.34,7.721,4.258,4.258,0,0,1-5.086,1.5l-6.584-2.638-9.345,7.345,1.007,7.021a4.256,4.256,0,0,1-2.662,4.586,48.222,48.222,0,0,1-8.529,2.392,4.252,4.252,0,0,1-4.653-2.534l-2.791-6.524-11.8-1.414-4.254,5.679a4.252,4.252,0,0,1-5.12,1.362,48.209,48.209,0,0,1-7.721-4.34,4.258,4.258,0,0,1-1.5-5.086l2.638-6.584L96.8,330.03l-7.021,1.007a4.256,4.256,0,0,1-4.586-2.662,48.247,48.247,0,0,1-2.392-8.529,4.253,4.253,0,0,1,2.534-4.653l6.523-2.791,1.416-11.8-5.679-4.254a4.252,4.252,0,0,1-1.362-5.12,48.246,48.246,0,0,1,4.34-7.721,4.258,4.258,0,0,1,5.086-1.5Zm13.418,38.126a18.951,18.951,0,1,0,3.191-26.61A18.951,18.951,0,0,0,115.662,322.77Z" transform="translate(-82.733 -142.41)" fill="none" stroke="#fff" stroke-linecap="round" stroke-linejoin="round" stroke-miterlimit="10" stroke-width="1.759"/>
      </g>
      <path id="Trazado_1016851" data-name="Trazado 1016851" d="M274.367,47.977l9.345-7.345L282.7,33.612a4.257,4.257,0,0,1,2.662-4.586,48.246,48.246,0,0,1,8.529-2.392,4.253,4.253,0,0,1,4.653,2.534l2.791,6.523,11.8,1.414,4.254-5.679a4.252,4.252,0,0,1,5.12-1.362,48.2,48.2,0,0,1,7.721,4.34,4.258,4.258,0,0,1,1.5,5.086L329.1,46.074l7.345,9.345,7.021-1.007a4.257,4.257,0,0,1,4.586,2.662,48.247,48.247,0,0,1,2.392,8.529,4.252,4.252,0,0,1-2.534,4.653l-6.523,2.791-1.416,11.8,5.679,4.254a4.252,4.252,0,0,1,1.362,5.12,48.249,48.249,0,0,1-4.34,7.721,4.258,4.258,0,0,1-5.086,1.5L331,100.81l-9.345,7.345,1.007,7.021A4.256,4.256,0,0,1,320,119.761a48.247,48.247,0,0,1-8.529,2.392,4.252,4.252,0,0,1-4.653-2.534L304.03,113.1l-11.8-1.414-4.254,5.679a4.252,4.252,0,0,1-5.12,1.362,48.2,48.2,0,0,1-7.721-4.34,4.258,4.258,0,0,1-1.5-5.086l2.638-6.584-7.345-9.345L261.9,94.373a4.257,4.257,0,0,1-4.586-2.662,48.244,48.244,0,0,1-2.392-8.529,4.252,4.252,0,0,1,2.534-4.653l6.524-2.791,1.414-11.8-5.679-4.254a4.252,4.252,0,0,1-1.362-5.12,48.124,48.124,0,0,1,4.342-7.721,4.258,4.258,0,0,1,5.086-1.5ZM287.786,86.1a18.951,18.951,0,1,0,3.191-26.61A18.951,18.951,0,0,0,287.786,86.1Z" transform="translate(-125.237 -26.565)" fill="#f2cc85"/>
      <path id="Trazado_1016852" data-name="Trazado 1016852" d="M397.253,363.309l9.345-7.345-1.007-7.021a4.258,4.258,0,0,1,2.662-4.586,48.249,48.249,0,0,1,8.529-2.392,4.252,4.252,0,0,1,4.653,2.534l2.791,6.524,11.8,1.414,4.254-5.679a4.252,4.252,0,0,1,5.12-1.362,48.251,48.251,0,0,1,7.721,4.34,4.258,4.258,0,0,1,1.5,5.086l-2.638,6.584,7.345,9.345,7.021-1.007a4.256,4.256,0,0,1,4.586,2.662,48.25,48.25,0,0,1,2.392,8.529,4.252,4.252,0,0,1-2.534,4.653l-6.523,2.791-1.416,11.8,5.679,4.254a4.252,4.252,0,0,1,1.362,5.12,48.251,48.251,0,0,1-4.34,7.721,4.258,4.258,0,0,1-5.086,1.5l-6.584-2.638-9.345,7.345,1.007,7.021a4.256,4.256,0,0,1-2.662,4.586,48.219,48.219,0,0,1-8.529,2.392,4.252,4.252,0,0,1-4.653-2.534l-2.791-6.524-11.8-1.414-4.254,5.679a4.252,4.252,0,0,1-5.12,1.362,48.129,48.129,0,0,1-7.721-4.342,4.258,4.258,0,0,1-1.5-5.086l2.638-6.584L391.81,408.7l-7.021,1.007a4.256,4.256,0,0,1-4.586-2.662,48.244,48.244,0,0,1-2.392-8.529,4.252,4.252,0,0,1,2.534-4.653l6.523-2.791,1.414-11.8-5.679-4.254a4.252,4.252,0,0,1-1.362-5.12,48.249,48.249,0,0,1,4.34-7.721,4.258,4.258,0,0,1,5.086-1.5Zm13.418,38.125a18.951,18.951,0,1,0,3.191-26.61A18.951,18.951,0,0,0,410.67,401.435Z" transform="translate(-377.742 -9.288)" fill="#f2cc85"/>
      <g id="Grupo_1171845" data-name="Grupo 1171845" transform="translate(368.409 31.884)">
        <circle id="Elipse_11855" data-name="Elipse 11855" cx="2.721" cy="2.721" r="2.721" transform="translate(0 13.588)" fill="#ffbad7"/>
        <path id="Trazado_1016853" data-name="Trazado 1016853" d="M92.778,58.807a2.014,2.014,0,1,1,2.014,2.014A2.013,2.013,0,0,1,92.778,58.807Z" transform="translate(-68.979 -56.793)" fill="none" stroke="#17014e" stroke-linecap="round" stroke-linejoin="round" stroke-miterlimit="10" stroke-width="1"/>
        <g id="Grupo_1171844" data-name="Grupo 1171844" transform="translate(21.265 25.232)">
          <line id="Línea_999" data-name="Línea 999" y2="4.548" transform="translate(2.274)" fill="none" stroke="#fff" stroke-linecap="round" stroke-linejoin="round" stroke-miterlimit="10" stroke-width="1"/>
          <line id="Línea_1000" data-name="Línea 1000" x1="4.548" transform="translate(0 2.274)" fill="none" stroke="#fff" stroke-linecap="round" stroke-linejoin="round" stroke-miterlimit="10" stroke-width="1"/>
        </g>
      </g>
      <g id="Grupo_1171846" data-name="Grupo 1171846" transform="translate(38.182 105.438)">
        <line id="Línea_1001" data-name="Línea 1001" y2="4.548" transform="translate(2.274)" fill="none" stroke="#fff" stroke-linecap="round" stroke-linejoin="round" stroke-miterlimit="10" stroke-width="1"/>
        <line id="Línea_1002" data-name="Línea 1002" x1="4.548" transform="translate(0 2.274)" fill="none" stroke="#fff" stroke-linecap="round" stroke-linejoin="round" stroke-miterlimit="10" stroke-width="1"/>
      </g>
      <g id="Grupo_1171847" data-name="Grupo 1171847" transform="translate(399.176 394.423)">
        <circle id="Elipse_11856" data-name="Elipse 11856" cx="9.184" cy="9.184" r="9.184" transform="translate(0 0)" fill="none" stroke="#fff" stroke-linecap="round" stroke-linejoin="round" stroke-miterlimit="10" stroke-width="1"/>
        <circle id="Elipse_11857" data-name="Elipse 11857" cx="6.001" cy="6.001" r="6.001" transform="translate(3.183 3.183)" fill="#fff"/>
      </g>
      <g id="Grupo_1171848" data-name="Grupo 1171848" transform="translate(25.272 259.562)">
        <circle id="Elipse_11858" data-name="Elipse 11858" cx="9.184" cy="9.184" r="9.184" transform="translate(0 0)" fill="none" stroke="#fff" stroke-linecap="round" stroke-linejoin="round" stroke-miterlimit="10" stroke-width="1"/>
        <circle id="Elipse_11859" data-name="Elipse 11859" cx="6.001" cy="6.001" r="6.001" transform="translate(3.183 3.183)" fill="#fff"/>
      </g>
      <g id="Grupo_1171849" data-name="Grupo 1171849" transform="translate(155.876 78.827)">
        <circle id="Elipse_11860" data-name="Elipse 11860" cx="9.184" cy="9.184" r="9.184" transform="translate(0 0)" fill="none" stroke="#fff" stroke-linecap="round" stroke-linejoin="round" stroke-miterlimit="10" stroke-width="1"/>
        <circle id="Elipse_11861" data-name="Elipse 11861" cx="6.001" cy="6.001" r="6.001" transform="translate(3.183 3.183)" fill="#fff"/>
      </g>
      <ellipse id="Elipse_11862" data-name="Elipse 11862" cx="85.35" cy="11.289" rx="85.35" ry="11.289" transform="translate(55.58 456.245)" fill="#f2cc85"/>
      <ellipse id="Elipse_11863" data-name="Elipse 11863" cx="41.893" cy="8.602" rx="41.893" ry="8.602" transform="translate(294.788 458.932)" fill="#f2cc85"/>
      <g id="Grupo_1171856" data-name="Grupo 1171856" transform="translate(13.527 123.217)">
        <g id="Grupo_1171851" data-name="Grupo 1171851" transform="translate(0 0)">
          <path id="Trazado_1016854" data-name="Trazado 1016854" d="M460.579,179.015c-.206-3.153.382-6.317.17-9.47s-1.463-6.523-4.249-8.016a8.443,8.443,0,0,0-6.666-.227c-2.164.744-4.075,2.063-6.607,2.794a39.7,39.7,0,0,0-7.073-13.052,21.512,21.512,0,0,0-12.586-7.458c-8.123-1.287-16.443,3.655-20.538,10.785s-4.42,15.972-3.108,23.937c-6.073-3.2-12.379-6.384-19.215-7.011s-14.4,1.883-17.871,7.808c-3.49,5.963-1.93,13.841,2,19.525s9.82,9.651,16.134,14.438a29.983,29.983,0,0,0-8.4,17.762A22.927,22.927,0,0,0,379,249.1c3.954,3.842,9.332,5.909,14.74,6.983a50.515,50.515,0,0,0,29.186-2.949Z" transform="translate(-360.896 -143.382)" fill="#8c7eee"/>
          <g id="Grupo_1171850" data-name="Grupo 1171850" transform="translate(11.582 0.015)">
            <path id="Trazado_1016855" data-name="Trazado 1016855" d="M411.009,162.829c-2.742.944-5.7,1.026-8.52,1.724a10.12,10.12,0,0,0-6.132,3.837,30.654,30.654,0,0,1,3.749-14.02c3.558-6.2,10.306-10.734,17.344-10.974,3.265,2.644,3.645,7.053,2.262,10.874A14.374,14.374,0,0,1,411.009,162.829Z" transform="translate(-369.555 -143.396)" fill="#796ae6"/>
            <path id="Trazado_1016856" data-name="Trazado 1016856" d="M391.019,169.852a30.927,30.927,0,0,1,5.548,1.058c-.444,6.523,3.758,12.958,9,17.142,5.868,4.68,13.008,7.47,19.225,11.676a54.9,54.9,0,0,1,20.726,27.786l-12.282,24.177a49.914,49.914,0,0,1-10,3c.415-15.627-6.3-31.275-17.3-42.5-6.071-6.195-13.5-11.354-17.615-18.988a27.674,27.674,0,0,1-1.1-23.378A22.622,22.622,0,0,1,391.019,169.852Z" transform="translate(-382.791 -141.952)" fill="#796ae6"/>
            <path id="Trazado_1016857" data-name="Trazado 1016857" d="M426.994,226.869a27.993,27.993,0,0,1,3.569-11.23,23.5,23.5,0,0,1,13.393,13.416,25.478,25.478,0,0,1-1.621,21.459,24.886,24.886,0,0,1-8.907-5.37A22.922,22.922,0,0,1,426.994,226.869Z" transform="translate(-426.904 -139.438)" fill="#796ae6"/>
          </g>
        </g>
        <g id="Grupo_1171855" data-name="Grupo 1171855" transform="translate(0 0)">
          <g id="Grupo_1171852" data-name="Grupo 1171852" clip-path="url(#clip-path-2)">
            <path id="Trazado_1016858" data-name="Trazado 1016858" d="M421.163,150.983c.309,6.142-4.631,11.793-10.566,13.4s-12.432-.292-17.407-3.908-8.617-8.774-11.63-14.135" transform="translate(-343.073 -143.219)" fill="none" stroke="#fff" stroke-linecap="round" stroke-linejoin="round" stroke-miterlimit="10" stroke-width="1"/>
          </g>
          <g id="Grupo_1171853" data-name="Grupo 1171853" clip-path="url(#clip-path-2)">
            <path id="Trazado_1016860" data-name="Trazado 1016860" d="M464.708,207.034c-10.511-10.8-24.882-18.185-39.941-18.781-8.991-.355-17.888,1.645-26.849,2.459s-18.519.292-26.1-4.551" transform="translate(-376.328 -141.038)" fill="none" stroke="#fff" stroke-linecap="round" stroke-linejoin="round" stroke-miterlimit="10" stroke-width="1"/>
          </g>
          <g id="Grupo_1171854" data-name="Grupo 1171854" clip-path="url(#clip-path-2)">
            <path id="Trazado_1016862" data-name="Trazado 1016862" d="M442.818,253.9a13.965,13.965,0,0,0-27.292-5.674" transform="translate(-400.676 -138.199)" fill="none" stroke="#fff" stroke-linecap="round" stroke-linejoin="round" stroke-miterlimit="10" stroke-width="1"/>
          </g>
        </g>
      </g>
      <g id="Grupo_1171863" data-name="Grupo 1171863" transform="translate(177.732 282.136)">
        <g id="Grupo_1171858" data-name="Grupo 1171858" transform="translate(0 0)">
          <path id="Trazado_1016864" data-name="Trazado 1016864" d="M255.557,398.131c2.982,1.044,5.664,2.823,8.648,3.861s6.576,1.206,9.04-.773a8.444,8.444,0,0,0,2.816-6.046c.162-2.283-.3-4.558.013-7.174a39.694,39.694,0,0,0,14.78-1.4,21.513,21.513,0,0,0,11.788-8.664c4.363-6.972,3.069-16.562-1.891-23.12s-12.97-10.315-20.814-12.225c5.319-4.338,10.718-8.9,13.97-14.941s3.9-13.993-.194-19.5c-4.122-5.545-11.983-7.192-18.751-5.8s-12.724,5.261-19.6,9.2a29.99,29.99,0,0,0-13.06-14.678,22.928,22.928,0,0,0-19.335-1.228c-5.083,2.137-9.088,6.277-12.192,10.833a50.509,50.509,0,0,0-8.7,28.013Z" transform="translate(-202.07 -294.046)" fill="#8c7eee"/>
          <g id="Grupo_1171857" data-name="Grupo 1171857" transform="translate(0.002)">
            <path id="Trazado_1016865" data-name="Trazado 1016865" d="M202.109,358.84c.2-2.893,1.288-5.651,1.747-8.514a10.121,10.121,0,0,0-1.133-7.144,30.636,30.636,0,0,1,11.436,8.935c4.311,5.7,5.846,13.684,3.314,20.254-3.711,1.969-7.918.6-10.892-2.173A14.374,14.374,0,0,1,202.109,358.84Z" transform="translate(-115.482 -291.354)" fill="#796ae6"/>
            <path id="Trazado_1016866" data-name="Trazado 1016866" d="M303.27,326.507a31.051,31.051,0,0,1-3.143,4.693c-5.83-2.961-13.395-1.611-19.3,1.58-6.6,3.569-11.963,9.049-18.266,13.125a54.886,54.886,0,0,1-33.681,8.2l-17.445-20.76a49.918,49.918,0,0,1,1.155-10.378c14.219,6.5,31.244,6.442,45.874.708,8.077-3.164,15.73-7.984,24.367-8.783a27.675,27.675,0,0,1,21.945,8.136A22.763,22.763,0,0,1,303.27,326.507Z" transform="translate(-211.437 -292.91)" fill="#796ae6"/>
            <path id="Trazado_1016867" data-name="Trazado 1016867" d="M281.075,296.864a28,28,0,0,1,8.939,7.679,23.5,23.5,0,0,1-17.585,7.078,25.483,25.483,0,0,1-19.115-9.887,24.9,24.9,0,0,1,8.427-6.1A22.918,22.918,0,0,1,281.075,296.864Z" transform="translate(-240.845 -294.046)" fill="#796ae6"/>
          </g>
        </g>
        <g id="Grupo_1171862" data-name="Grupo 1171862" transform="translate(0 0.001)">
          <g id="Grupo_1171859" data-name="Grupo 1171859" clip-path="url(#clip-path-5)">
            <path id="Trazado_1016868" data-name="Trazado 1016868" d="M206.492,386.02c-5.773-2.119-9.041-8.875-8.2-14.966s5.133-11.326,10.407-14.491,11.446-4.5,17.558-5.174" transform="translate(-118.91 -290.906)" fill="none" stroke="#fff" stroke-linecap="round" stroke-linejoin="round" stroke-miterlimit="10" stroke-width="1"/>
          </g>
          <g id="Grupo_1171860" data-name="Grupo 1171860" clip-path="url(#clip-path-5)">
            <path id="Trazado_1016870" data-name="Trazado 1016870" d="M218.859,375.617c14.053-5.448,26.469-15.785,32.91-29.411,3.845-8.136,5.484-17.107,8.24-25.67s6.975-17.157,14.4-22.24" transform="translate(-188.895 -293.815)" fill="none" stroke="#fff" stroke-linecap="round" stroke-linejoin="round" stroke-miterlimit="10" stroke-width="1"/>
          </g>
          <g id="Grupo_1171861" data-name="Grupo 1171861" clip-path="url(#clip-path-5)">
            <path id="Trazado_1016872" data-name="Trazado 1016872" d="M277.647,314.012a13.965,13.965,0,0,0,15.9-22.9" transform="translate(-275.339 -294.208)" fill="none" stroke="#fff" stroke-linecap="round" stroke-linejoin="round" stroke-miterlimit="10" stroke-width="1"/>
          </g>
        </g>
      </g>
      <g id="Grupo_1171869" data-name="Grupo 1171869" transform="translate(56.987 151.345)">
        <g id="Grupo_1171864" data-name="Grupo 1171864" transform="translate(0 0)">
          <path id="Trazado_1016874" data-name="Trazado 1016874" d="M272.325,299.551a948.9,948.9,0,0,0,128.852-2.741,21.666,21.666,0,0,0,19.591-18.726,357.174,357.174,0,0,0,1.061-80.765A21.622,21.622,0,0,0,402.1,177.94a844.69,844.69,0,0,0-134.908-1.06A21.6,21.6,0,0,0,247.2,196.847a336.129,336.129,0,0,0,4.809,85.1A21.626,21.626,0,0,0,272.325,299.551Z" transform="translate(-246.359 -169.795)" fill="#17014e" opacity="0.09"/>
          <path id="Trazado_1016875" data-name="Trazado 1016875" d="M263.656,293.391a949.011,949.011,0,0,0,128.867,1.9,21.666,21.666,0,0,0,20.252-18.008,357.192,357.192,0,0,0,3.966-80.675,21.623,21.623,0,0,0-19.023-20.077,844.78,844.78,0,0,0-134.782-5.914,21.6,21.6,0,0,0-20.695,19.235,336.12,336.12,0,0,0,1.745,85.223A21.624,21.624,0,0,0,263.656,293.391Z" transform="translate(-233.84 -170.048)" fill="#fff"/>
          <path id="Trazado_1016876" data-name="Trazado 1016876" d="M267.952,287.723a21.673,21.673,0,0,1-18.632-14.231,25.427,25.427,0,0,0,10.579,6.353c5.306,1.713,10.936,2.1,16.5,2.441q44.83,2.759,89.773,2.844c15.674.029,31.606-.238,46.093-3.188a21.728,21.728,0,0,1-15.447,7.678A948.822,948.822,0,0,1,267.952,287.723Z" transform="translate(-238.135 -164.381)" fill="#7f7aff"/>
          <path id="Trazado_1016877" data-name="Trazado 1016877" d="M253.448,282.459q39.191,2.117,78.455,2.19c14.118.025,28.446-.188,41.738-2.386" transform="translate(-203.866 -163.9)" fill="none" stroke="#17014e" stroke-linecap="round" stroke-linejoin="round" stroke-miterlimit="10" stroke-width="1"/>
          <path id="Trazado_1016878" data-name="Trazado 1016878" d="M375.32,275.658a27.282,27.282,0,0,0,8,4.069c5.306,1.713,10.936,2.1,16.5,2.441q1.481.092,2.963.179" transform="translate(-361.558 -164.262)" fill="none" stroke="#17014e" stroke-linecap="round" stroke-linejoin="round" stroke-miterlimit="10" stroke-width="1"/>
        </g>
        <g id="Grupo_1171865" data-name="Grupo 1171865" transform="translate(99.118 14.477)">
          <circle id="Elipse_11864" data-name="Elipse 11864" cx="26.854" cy="26.854" r="26.854" transform="translate(37.977 75.954) rotate(-135)" fill="#ffaa08"/>
          <path id="Trazado_1016879" data-name="Trazado 1016879" d="M311.289,220.6l-26.594,3.7a27.039,27.039,0,0,1-.259-3.7,26.729,26.729,0,0,1,5.128-15.778Z" transform="translate(-273.316 -182.62)" fill="#ef5e9c"/>
          <path id="Trazado_1016880" data-name="Trazado 1016880" d="M297.506,219.777l14.264,22.75a26.845,26.845,0,0,1-40.858-19.053h0Z" transform="translate(-259.533 -181.8)" fill="#8c7eee"/>
        </g>
        <g id="Grupo_1171866" data-name="Grupo 1171866" transform="translate(36.106 44.204)">
          <circle id="Elipse_11865" data-name="Elipse 11865" cx="1.556" cy="1.556" r="1.556" transform="translate(81.379 2.209)" fill="none" stroke="#17014e" stroke-linecap="round" stroke-linejoin="round" stroke-miterlimit="10" stroke-width="1"/>
          <line id="Línea_1003" data-name="Línea 1003" x1="35.496" transform="translate(45.883 3.765)" fill="none" stroke="#17014e" stroke-linecap="round" stroke-linejoin="round" stroke-miterlimit="10" stroke-width="1"/>
          <path id="Trazado_1016881" data-name="Trazado 1016881" d="M340.439,219.485h38.354a3.765,3.765,0,0,0,3.765-3.765h0a3.765,3.765,0,0,0-3.765-3.765H340.439a3.765,3.765,0,0,0-3.765,3.765h0A3.765,3.765,0,0,0,340.439,219.485Z" transform="translate(-336.674 -211.956)" fill="none" stroke="#17014e" stroke-linecap="round" stroke-linejoin="round" stroke-miterlimit="10" stroke-width="1"/>
        </g>
        <g id="Grupo_1171867" data-name="Grupo 1171867" transform="translate(36.106 66.638)">
          <circle id="Elipse_11866" data-name="Elipse 11866" cx="1.556" cy="1.556" r="1.556" transform="translate(93.264 2.209)" fill="none" stroke="#17014e" stroke-linecap="round" stroke-linejoin="round" stroke-miterlimit="10" stroke-width="1"/>
          <line id="Línea_1004" data-name="Línea 1004" x1="47.38" transform="translate(45.883 3.765)" fill="none" stroke="#17014e" stroke-linecap="round" stroke-linejoin="round" stroke-miterlimit="10" stroke-width="1"/>
          <path id="Trazado_1016882" data-name="Trazado 1016882" d="M340.439,240.754h38.354a3.765,3.765,0,0,0,3.765-3.765h0a3.765,3.765,0,0,0-3.765-3.765H340.439a3.765,3.765,0,0,0-3.765,3.765h0A3.764,3.764,0,0,0,340.439,240.754Z" transform="translate(-336.674 -233.225)" fill="none" stroke="#17014e" stroke-linecap="round" stroke-linejoin="round" stroke-miterlimit="10" stroke-width="1"/>
        </g>
        <g id="Grupo_1171868" data-name="Grupo 1171868" transform="translate(36.106 21.769)">
          <path id="Trazado_1016883" data-name="Trazado 1016883" d="M291.176,204.808a1.556,1.556,0,1,1,1.556,1.556A1.555,1.555,0,0,1,291.176,204.808Z" transform="translate(-200.413 -189.999)" fill="none" stroke="#17014e" stroke-linecap="round" stroke-linejoin="round" stroke-miterlimit="10" stroke-width="1"/>
          <path id="Trazado_1016884" data-name="Trazado 1016884" d="M293.639,194.256h35.5l9.9,9.9" transform="translate(-247.756 -190.491)" fill="none" stroke="#17014e" stroke-linecap="round" stroke-linejoin="round" stroke-miterlimit="10" stroke-width="1"/>
          <path id="Trazado_1016885" data-name="Trazado 1016885" d="M340.439,198.216h38.354a3.765,3.765,0,0,0,3.765-3.765h0a3.765,3.765,0,0,0-3.765-3.765H340.439a3.765,3.765,0,0,0-3.765,3.765h0A3.765,3.765,0,0,0,340.439,198.216Z" transform="translate(-336.674 -190.687)" fill="none" stroke="#17014e" stroke-linecap="round" stroke-linejoin="round" stroke-miterlimit="10" stroke-width="1"/>
        </g>
        <path id="Trazado_1016886" data-name="Trazado 1016886" d="M262.709,261.726h44.437a1.733,1.733,0,0,0,1.733-1.733v-1.937a1.733,1.733,0,0,0-1.733-1.733H262.709a1.733,1.733,0,0,0-1.733,1.733v1.937A1.733,1.733,0,0,0,262.709,261.726Z" transform="translate(-147.044 -165.321)" fill="#ffbad7"/>
        <path id="Trazado_1016887" data-name="Trazado 1016887" d="M312.535,261.726h6.877a1.733,1.733,0,0,0,1.733-1.733v-1.937a1.733,1.733,0,0,0-1.733-1.733h-6.877a1.733,1.733,0,0,0-1.733,1.733v1.937A1.732,1.732,0,0,0,312.535,261.726Z" transform="translate(-211.866 -165.321)" fill="#ffbad7"/>
        <path id="Trazado_1016888" data-name="Trazado 1016888" d="M331.407,261.726h58.044a1.733,1.733,0,0,0,1.733-1.733v-1.937a1.733,1.733,0,0,0-1.733-1.733H331.407a1.733,1.733,0,0,0-1.733,1.733v1.937A1.734,1.734,0,0,0,331.407,261.726Z" transform="translate(-301.811 -165.321)" fill="#ffbad7"/>
        <path id="Trazado_1016889" data-name="Trazado 1016889" d="M262.709,270.477h82.836a1.733,1.733,0,0,0,1.733-1.733v-1.937a1.733,1.733,0,0,0-1.733-1.733H262.709a1.733,1.733,0,0,0-1.733,1.733v1.937A1.734,1.734,0,0,0,262.709,270.477Z" transform="translate(-185.443 -164.842)" fill="#ffbad7"/>
      </g>
      <g id="Grupo_1171907" data-name="Grupo 1171907" transform="translate(131.239 3.532)">
        <path id="Trazado_1016890" data-name="Trazado 1016890" d="M67.027,165.1c6.248-7.388,14.532-12.778,22.947-17.555a186.535,186.535,0,0,1,58.6-20.8c4.209-.77,8.447-1.4,12.7-1.921a53.005,53.005,0,0,1,1.708-8.932,80.861,80.861,0,0,1,10.392-21.871A14.476,14.476,0,0,1,163.2,88.107a12.768,12.768,0,0,1-1.4-11.958,12.033,12.033,0,0,1,9.217-7.139,11.45,11.45,0,0,1,3.206.012c-1.331-11.913,3.748-24.591,13.471-31.729,12.1-8.88,30.237-8.335,41.78,1.259a23.369,23.369,0,0,1,14.262,17.367c1.2,5.713.793,11.59.062,17.412a10.163,10.163,0,0,1,2.678.015,8.7,8.7,0,0,1,5.3,2.8c2.086,2.4,2.51,5.875,1.985,9.01a13.859,13.859,0,0,1-5.584,9.281,10.1,10.1,0,0,1-2.652,1.248,92.575,92.575,0,0,0,7.58,18.174c5.922,11.042,13.31,21.268,18.839,32.512s9.167,23.978,6.858,36.292a34.033,34.033,0,0,1-12.661,20.692,16.948,16.948,0,0,0,4.9,3.762c6.01,2.96,13.265,1.4,19.437-1.213a55.338,55.338,0,0,0,12.151-7.176,75.922,75.922,0,0,0,9.191-8.429q2.592-2.777,5.167-5.568a8.906,8.906,0,0,1-1.436-3.71,45.4,45.4,0,0,1-.467-5.909,8.754,8.754,0,0,1,8.165-8.926,27.493,27.493,0,0,1,2.828-.022,3.075,3.075,0,0,1,2.451-2.609,82.164,82.164,0,0,1,28.243-.253,3.126,3.126,0,0,1,2.615,2.888,56.794,56.794,0,0,1-.78,13.618,15.056,15.056,0,0,1-1.331,4,2.181,2.181,0,0,1,.918,1.513,4.493,4.493,0,0,1-.65,2.574,17.324,17.324,0,0,1-6.225,6.474,30.257,30.257,0,0,1-6.847,3.076,6.917,6.917,0,0,1-6.114,1.683,186.6,186.6,0,0,1-24.238,22.834,118.767,118.767,0,0,1,4.984,19.229,71.042,71.042,0,0,1-68.414,4.376c-.143.018-.286.035-.429.051,9.177,14.4,19.178,28.326,26.667,43.661,9.932,20.339,15.11,44.623,6.5,65.555a60.67,60.67,0,0,1-6.1,11.167,703.332,703.332,0,0,1,21.915,86.659,171.47,171.47,0,0,1-19.789,7.9q2.16,6.946,4.318,13.891.082.267.17.537a6.662,6.662,0,0,0,2.039,3.427,5.962,5.962,0,0,0,4.964.591,34.931,34.931,0,0,1,5-1.258c1.358-.119,2.978.307,3.456,1.584.687,1.833-1.423,3.417-3.2,4.231a222.429,222.429,0,0,1-43.884,15.023q-1.851-6-3.7-12-2.68-8.686-5.359-17.372l-18.3-59.311a320.89,320.89,0,0,1-28.4,15.685c-2.095-4.389-4.016-8.86-5.8-13.386-4.94,2.5-11.549,5.524-17.036,7.927-.392.172-.783.343-1.163.507a41.334,41.334,0,0,0-5.493,2.476c-1.421.977-1.4,4.4-1.558,6.119a34.779,34.779,0,0,1-.392,5.144c-.32,1.326-1.238,2.728-2.6,2.775-1.957.067-2.789-2.434-3-4.38a242.28,242.28,0,0,1-.906-43.431q5.226-2.517,10.373-5.192,5.835-3.025,11.571-6.239h0q10.621-5.962,20.862-12.571c2.736-1.766,5.462-3.592,8.07-5.553l-.93-3.017c-7.76-25.156-15.562-50.42-26.967-74.148-7.445-15.49-16.621-31.27-17.6-48.13-1.159-.382-2.316-.775-3.466-1.194a353.569,353.569,0,0,1-1.217-37.149,20.824,20.824,0,0,1-4.213-3.834,117.627,117.627,0,0,0-18.6-2.221q-.782,6.419-2.034,12.768c-19.11,2.924-34.683-.85-53.309-6.8-4.473-1.43-8.975-3.063-12.725-5.893s-6.694-7.054-6.96-11.745C61.192,173.5,63.843,168.865,67.027,165.1Zm256.414,4.307a5.533,5.533,0,0,0-5.138,5.661,42.094,42.094,0,0,0,.434,5.487,5.7,5.7,0,0,0,.531,1.661c.332-.37.674-.733,1-1.105,1.977-2.228,3.9-4.5,5.742-6.838-.083-1.628-.123-3.258-.094-4.888A23.42,23.42,0,0,0,323.44,169.406Zm-163.013,4.681q.184-2.228.4-4.454-6.927.051-13.845.4c.655.133,1.313.252,1.967.391A60.353,60.353,0,0,1,160.428,174.087Z" transform="translate(-61.448 -29.856)" fill="#17014e" opacity="0.09"/>
        <g id="Grupo_1171906" data-name="Grupo 1171906" transform="translate(9.692 0)">
          <g id="Grupo_1171878" data-name="Grupo 1171878" transform="translate(100.764)">
            <path id="Trazado_1016891" data-name="Trazado 1016891" d="M219.628,208.313c12.453-1.381,22.212-12.666,24.837-24.916s-.684-25.076-5.92-36.458-12.359-21.8-17.993-32.988-9.817-23.622-8.965-36.327c1.212-7.226,2.423-14.628,1.1-21.835A23.371,23.371,0,0,0,198.879,38.06c-11.292-9.889-29.409-10.9-41.734-2.337s-17.691,25.9-12.36,39.93c0,0-.562,10.775-.4,12.144-5.851,7.918-11.07,16.453-13.976,25.86s-3.362,19.8.159,28.993Z" transform="translate(-128.079 -29.914)" fill="#7f7aff"/>
            <g id="Grupo_1171870" data-name="Grupo 1171870" transform="translate(40.9 78.255)">
              <path id="Trazado_1016892" data-name="Trazado 1016892" d="M201.171,105.379a198.615,198.615,0,0,1-.6,22.716s-13.015-2.553-13.7-2.892q.525-10.59,2.058-21.1Z" transform="translate(-186.863 -104.104)" fill="#a74b3f"/>
              <path id="Trazado_1016893" data-name="Trazado 1016893" d="M186.865,110.958c.262-2.289.545-4.575.878-6.853l12.25,1.275q.089,2.908.091,5.818A36.546,36.546,0,0,1,186.865,110.958Z" transform="translate(-185.685 -104.104)" fill="#17014e" opacity="0.09"/>
            </g>
            <g id="Grupo_1171873" data-name="Grupo 1171873" transform="translate(1.164 37.008)">
              <g id="Grupo_1171872" data-name="Grupo 1171872">
                <path id="Trazado_1016894" data-name="Trazado 1016894" d="M236.258,69.621a11.8,11.8,0,0,0-20.134,2.352,12.766,12.766,0,0,0,1.1,11.991,14.516,14.516,0,0,0,10.435,6.243,16.838,16.838,0,0,0,11.8-3.35Z" transform="translate(-215.109 -65)" fill="#a74b3f"/>
                <g id="Grupo_1171871" data-name="Grupo 1171871" transform="translate(6.607 8.016)">
                  <path id="Trazado_1016895" data-name="Trazado 1016895" d="M232.435,73.059a10.38,10.38,0,0,0-9.844,2.09" transform="translate(-222.591 -72.6)" fill="none" stroke="#8c3a30" stroke-linecap="round" stroke-linejoin="round" stroke-miterlimit="10" stroke-width="1"/>
                  <path id="Trazado_1016896" data-name="Trazado 1016896" d="M225.84,72.851a13.876,13.876,0,0,0,1.861,6.666" transform="translate(-221.283 -72.586)" fill="none" stroke="#8c3a30" stroke-linecap="round" stroke-linejoin="round" stroke-miterlimit="10" stroke-width="1"/>
                </g>
              </g>
              <path id="Trazado_1016897" data-name="Trazado 1016897" d="M224.533,87.413a2.505,2.505,0,1,1-1.259,3.388A2.6,2.6,0,0,1,224.533,87.413Z" transform="translate(-212.043 -63.782)" fill="#fff"/>
            </g>
            <g id="Grupo_1171874" data-name="Grupo 1171874" transform="translate(77.556 43.227)">
              <path id="Trazado_1016898" data-name="Trazado 1016898" d="M153.385,71.773a11.048,11.048,0,0,1,5.993-.737A8.7,8.7,0,0,1,164.6,73.97c2.023,2.45,2.359,5.938,1.752,9.059a13.862,13.862,0,0,1-5.822,9.134,9.614,9.614,0,0,1-10.494.025Z" transform="translate(-150.035 -70.896)" fill="#a74b3f"/>
              <path id="Trazado_1016899" data-name="Trazado 1016899" d="M157.85,90.379a2.506,2.506,0,1,1-1.26,3.388A2.576,2.576,0,0,1,157.85,90.379Z" transform="translate(-151.413 -69.839)" fill="#fff"/>
              <path id="Trazado_1016900" data-name="Trazado 1016900" d="M159.017,92.186l3.349-20.415a11.7,11.7,0,0,1,3.391-.828c.582,5.239,1.014,15.338-2.911,22.713A8.33,8.33,0,0,1,159.017,92.186Z" transform="translate(-159.017 -70.894)" fill="#17014e" opacity="0.09"/>
            </g>
            <g id="Grupo_1171877" data-name="Grupo 1171877" transform="translate(20.801 30.365)">
              <g id="Grupo_1171876" data-name="Grupo 1171876" transform="translate(0)">
                <path id="Trazado_1016901" data-name="Trazado 1016901" d="M220.609,58.7c1.589,8.62,2.868,17.457,1.545,26.123s-5.6,17.247-13.018,21.919a30.071,30.071,0,0,1-15.788,4.2c-7.56.062-15.359-2.15-20.922-7.27-4.394-4.045-7.137-9.647-8.571-15.445a59.443,59.443,0,0,1-1.342-17.4,8.336,8.336,0,0,0,2.107,4.785,2,2,0,0,0,1.855.845,2.069,2.069,0,0,0,1.182-1.368,12.605,12.605,0,0,0,.889-4.988,12.348,12.348,0,0,0,8.186-1.185,11.217,11.217,0,0,0,5.4-6.238,25.066,25.066,0,0,0,20.407,7.576A23.632,23.632,0,0,0,220.609,58.7Z" transform="translate(-162.392 -58.702)" fill="#a74b3f"/>
                <g id="Grupo_1171875" data-name="Grupo 1171875" transform="translate(4.593 32.103)">
                  <path id="Trazado_1016902" data-name="Trazado 1016902" d="M199.932,94.847a8.18,8.18,0,0,1,3.028-4.211,8.277,8.277,0,1,1,7.01,14.7,24.74,24.74,0,0,1-4.6-3.329A26.816,26.816,0,0,1,199.932,94.847Z" transform="translate(-199.932 -89.137)" fill="#cc6356"/>
                  <path id="Trazado_1016903" data-name="Trazado 1016903" d="M168.045,90.636a8.534,8.534,0,0,1,8.943-.424,29.451,29.451,0,0,1-9.341,13.514,8.173,8.173,0,0,1-2.557-3.484A8.388,8.388,0,0,1,168.045,90.636Z" transform="translate(-123.596 -89.136)" fill="#cc6356"/>
                </g>
              </g>
              <path id="Trazado_1016904" data-name="Trazado 1016904" d="M189.958,87.845a1.569,1.569,0,0,1,2.077.669,1.633,1.633,0,0,1-.709,2.084,1.7,1.7,0,0,1-2.133-.612A1.5,1.5,0,0,1,189.958,87.845Z" transform="translate(-159.913 -57.114)" fill="none" stroke="#17014e" stroke-linecap="round" stroke-linejoin="round" stroke-miterlimit="10" stroke-width="1"/>
              <path id="Trazado_1016905" data-name="Trazado 1016905" d="M183.632,82.18a7.17,7.17,0,0,0-.379-5.369" transform="translate(-145.676 -57.71)" fill="none" stroke="#8c3a30" stroke-linecap="round" stroke-linejoin="round" stroke-miterlimit="10" stroke-width="1"/>
              <path id="Trazado_1016906" data-name="Trazado 1016906" d="M174.267,76.482a4.927,4.927,0,0,0-7.079.42" transform="translate(-119.013 -57.799)" fill="none" stroke="#17014e" stroke-linecap="round" stroke-linejoin="round" stroke-miterlimit="10" stroke-width="1"/>
              <path id="Trazado_1016907" data-name="Trazado 1016907" d="M204.886,75.533a7.576,7.576,0,0,0-7.357-1.151" transform="translate(-181.636 -57.869)" fill="none" stroke="#17014e" stroke-linecap="round" stroke-linejoin="round" stroke-miterlimit="10" stroke-width="1"/>
              <path id="Trazado_1016908" data-name="Trazado 1016908" d="M159.221,71.617a6.342,6.342,0,0,1,5.525-5.322,56.537,56.537,0,0,1,11.55-.11,6.378,6.378,0,0,1,5.832,6.382c0,.437-.024.877-.032,1.313a12.705,12.705,0,0,1,4.809-.91,12.894,12.894,0,0,1,4.758.969,6.375,6.375,0,0,1,5.827-6.315,56.4,56.4,0,0,1,11.551.11,6.34,6.34,0,0,1,5.524,5.322,35.964,35.964,0,0,1,.2,9.763,6.42,6.42,0,0,1-5.52,5.671,43.863,43.863,0,0,1-5.788.383,44.4,44.4,0,0,1-5.875-.392,6.458,6.458,0,0,1-5.538-5.811c-.179-2.095-.274-4.212-.328-6.325a10.7,10.7,0,0,0-4.831-1.225,10.545,10.545,0,0,0-4.844,1.156c-.063,1.657-.155,3.312-.3,4.954a6.455,6.455,0,0,1-5.538,5.811,44.373,44.373,0,0,1-5.872.391,43.912,43.912,0,0,1-5.791-.383,6.42,6.42,0,0,1-5.52-5.671A36.007,36.007,0,0,1,159.221,71.617Zm38.643,14.731a41.912,41.912,0,0,0,11.093.009,4.273,4.273,0,0,0,3.666-3.78,33.858,33.858,0,0,0-.185-9.187,4.184,4.184,0,0,0-3.64-3.519,54.65,54.65,0,0,0-6.084-.341c-1.682,0-3.361.078-5.025.234A4.29,4.29,0,0,0,193.807,74c.009,2.822.136,5.677.377,8.488A4.293,4.293,0,0,0,197.865,86.348Zm-36.7-5.211a4.274,4.274,0,0,0,3.666,3.781,41.867,41.867,0,0,0,11.093-.008,4.292,4.292,0,0,0,3.68-3.864c.242-2.81.367-5.666.377-8.488a4.29,4.29,0,0,0-3.884-4.233,54.19,54.19,0,0,0-11.109.105,4.186,4.186,0,0,0-3.64,3.52A33.9,33.9,0,0,0,161.161,81.137Z" transform="translate(-150.885 -58.305)" fill="#ffaa08"/>
            </g>
          </g>
          <g id="Grupo_1171884" data-name="Grupo 1171884" transform="translate(171.337 77.942)">
            <g id="Grupo_1171882" data-name="Grupo 1171882" transform="translate(69.214)">
              <path id="Trazado_1016909" data-name="Trazado 1016909" d="M75.222,217.659a186.466,186.466,0,0,0,27.553-24.214l6.166-8.258-23.777-10.22c-2.842,3.041-5.774,6-8.693,8.969a75.939,75.939,0,0,1-9.406,8.188Z" transform="translate(-67.066 -99.909)" fill="#a74b3f"/>
              <path id="Trazado_1016910" data-name="Trazado 1016910" d="M53.762,192.175a32.643,32.643,0,0,0,8.424-3.329,17.328,17.328,0,0,0,6.39-6.312,4.48,4.48,0,0,0,.716-2.556,1.953,1.953,0,0,0-1.671-1.822c-1.053-.043-1.787.976-2.423,1.815a13.894,13.894,0,0,1-9.7,5.377C55.067,187.313,54.634,189.274,53.762,192.175Z" transform="translate(-13.397 -99.734)" fill="#a74b3f"/>
              <path id="Trazado_1016911" data-name="Trazado 1016911" d="M71.927,155.5a8.929,8.929,0,0,1-2.72-5.768,16.5,16.5,0,0,1,.82-6.43c.768-2.51,1.869-5.275.725-7.638-.812-1.677-2.548-2.656-4.047-3.762a17.865,17.865,0,0,1-7.314-13.089,15.026,15.026,0,0,1,6.517-13.269,9.592,9.592,0,0,1,6.49-1.654,9.727,9.727,0,0,1,6.253,4.242,14.242,14.242,0,0,1,2.284,10.88c-.405,2.011-1.245,3.909-1.787,5.889a9.251,9.251,0,0,0,.044,6.041c.757,1.762,2.338,3.091,2.982,4.9.869,2.44-.19,5.181-1.768,7.236s-3.652,3.683-5.258,5.716A18.64,18.64,0,0,0,71.927,155.5Z" transform="translate(-32.489 -103.808)" fill="#fff"/>
              <g id="Grupo_1171879" data-name="Grupo 1171879" transform="translate(23.976 56.73)">
                <path id="Trazado_1016912" data-name="Trazado 1016912" d="M52.434,173.9a70.907,70.907,0,0,1-.036-12.485,3.1,3.1,0,0,1,2.566-2.83,82.182,82.182,0,0,1,28.241.476,3.126,3.126,0,0,1,2.54,2.954,56.865,56.865,0,0,1-1.131,13.594A15.041,15.041,0,0,1,70.575,187.6q-1.555.062-3.12.059A15.146,15.146,0,0,1,52.434,173.9Z" transform="translate(-52.14 -157.591)" fill="#ffaa08"/>
                <path id="Trazado_1016913" data-name="Trazado 1016913" d="M63.489,167.538a1.223,1.223,0,0,1,1.8-1.092,5.88,5.88,0,0,1,0,9.6,1.223,1.223,0,0,1-1.8-1.092Z" transform="translate(-46.099 -157.114)" fill="#8c7eee"/>
                <path id="Trazado_1016914" data-name="Trazado 1016914" d="M72.907,174.96a1.223,1.223,0,0,1-1.8,1.092,5.88,5.88,0,0,1,0-9.6,1.223,1.223,0,0,1,1.8,1.092Z" transform="translate(-56.653 -157.114)" fill="#8c7eee"/>
              </g>
              <g id="Grupo_1171880" data-name="Grupo 1171880" transform="translate(18.099 64.625)">
                <path id="Trazado_1016915" data-name="Trazado 1016915" d="M78.343,175.51c2.618-2.8,5.158-5.672,7.535-8.681.742-.939,1.764-2,2.925-1.7a2.055,2.055,0,0,1,1.391,1.745,4.891,4.891,0,0,1-.374,2.313,18.883,18.883,0,0,1-2.869,5.173,8.4,8.4,0,0,1-2.726,10.964" transform="translate(-78.343 -165.076)" fill="#a74b3f"/>
                <path id="Trazado_1016916" data-name="Trazado 1016916" d="M78.343,175.51c2.618-2.8,5.158-5.672,7.535-8.681.742-.939,1.764-2,2.925-1.7a2.055,2.055,0,0,1,1.391,1.745,4.891,4.891,0,0,1-.374,2.313,18.883,18.883,0,0,1-2.869,5.173,8.4,8.4,0,0,1-2.726,10.964" transform="translate(-78.343 -165.076)" fill="none" stroke="#8c3a30" stroke-linecap="round" stroke-linejoin="round" stroke-miterlimit="10" stroke-width="1"/>
              </g>
              <path id="Trazado_1016917" data-name="Trazado 1016917" d="M85.894,183.345h.147a28.715,28.715,0,0,0,8.179-1.309,1.612,1.612,0,1,0-.968-3.076,25.534,25.534,0,0,1-7.262,1.159,5.586,5.586,0,0,1-5.655-4.974,42.04,42.04,0,0,1-.291-5.5,5.532,5.532,0,0,1,5.282-5.526,23.6,23.6,0,0,1,5.277.4,1.613,1.613,0,0,0,.6-3.17,27.236,27.236,0,0,0-5.992-.45,8.753,8.753,0,0,0-8.393,8.712,45.361,45.361,0,0,0,.314,5.919A8.827,8.827,0,0,0,85.894,183.345Z" transform="translate(-63.754 -100.681)" fill="#ffaa08"/>
              <g id="Grupo_1171881" data-name="Grupo 1171881" transform="translate(35.708 78.708)">
                <path id="Trazado_1016918" data-name="Trazado 1016918" d="M64.551,186.833a7.507,7.507,0,0,0,3.813-3.568,19.108,19.108,0,0,1,3-4.393,1.483,1.483,0,0,1,.752-.436,1.078,1.078,0,0,1,1.015.554,2.53,2.53,0,0,1,.3,1.175,16.929,16.929,0,0,1-1.326,6.492,13.084,13.084,0,0,1-2.394,4.72,6.841,6.841,0,0,1-6.527,1.879" transform="translate(-63.182 -178.428)" fill="#a74b3f"/>
                <path id="Trazado_1016919" data-name="Trazado 1016919" d="M64.551,186.833a7.507,7.507,0,0,0,3.813-3.568,19.108,19.108,0,0,1,3-4.393,1.483,1.483,0,0,1,.752-.436,1.078,1.078,0,0,1,1.015.554,2.53,2.53,0,0,1,.3,1.175,16.929,16.929,0,0,1-1.326,6.492,13.084,13.084,0,0,1-2.394,4.72,6.841,6.841,0,0,1-6.527,1.879" transform="translate(-63.182 -178.428)" fill="none" stroke="#8c3a30" stroke-linecap="round" stroke-linejoin="round" stroke-miterlimit="10" stroke-width="1"/>
              </g>
            </g>
            <g id="Grupo_1171883" data-name="Grupo 1171883" transform="translate(0 25.826)">
              <path id="Trazado_1016920" data-name="Trazado 1016920" d="M92.189,229.183a71.234,71.234,0,0,0,84.589,8.372A110.493,110.493,0,0,0,161.4,194.683a55.384,55.384,0,0,1-12.332,6.859c-6.237,2.448-13.53,3.825-19.462.711-4.3-2.258-7.173-6.523-9.318-10.881-5.116-10.394-7.05-22.007-9.915-33.234-2.714-10.642-5.879-22.222-14.136-29.845Z" transform="translate(-92.188 -128.292)" fill="#ef5e9c"/>
              <path id="Trazado_1016921" data-name="Trazado 1016921" d="M104.365,232.616a10.277,10.277,0,0,1,1.2-11.956c2.454-2.658,6.181-3.825,8.732-6.391a10.668,10.668,0,0,0,.674-14.315,36.435,36.435,0,0,0,7.444-2,14.588,14.588,0,0,1,2.89,12.062c-.557,2.548-1.8,4.9-2.454,7.427s-.616,5.475,1.109,7.433c1.887,2.142,5.064,2.4,7.711,3.468a12.756,12.756,0,0,1,7.669,10.884,72.231,72.231,0,0,1-23.1,4.617,17.013,17.013,0,0,0-4.681-4.771C108.938,237.152,106.049,235.389,104.365,232.616Z" transform="translate(-66.13 -124.475)" fill="#d64583"/>
              <path id="Trazado_1016922" data-name="Trazado 1016922" d="M125.478,226.977s20.532,5.033,48.99-2.157q1.424,5.723,2.311,11.757A71.234,71.234,0,0,1,92.19,228.2L95.1,155.682l6.123-9.552S120.319,204.521,125.478,226.977Z" transform="translate(-92.19 -127.315)" fill="#17014e" opacity="0.09"/>
            </g>
          </g>
          <g id="Grupo_1171894" data-name="Grupo 1171894" transform="translate(90.592 195.948)">
            <g id="Grupo_1171889" data-name="Grupo 1171889" transform="translate(0 5.189)">
              <path id="Trazado_1016923" data-name="Trazado 1016923" d="M240.02,390.7c-4.885,2.585-13.938,6.484-21.087,9.4h0c-7.146-14.311-3.8-36.092-3.8-36.092h0q5.913-2.873,11.728-5.938Z" transform="translate(-203.538 -213.072)" fill="#a74b3f"/>
              <path id="Trazado_1016924" data-name="Trazado 1016924" d="M245.93,363.693a267.543,267.543,0,0,1,3.8,36.092l-1.176.478A41.234,41.234,0,0,0,243,402.6c-1.445.94-1.518,4.365-1.715,6.076a35.018,35.018,0,0,1-.524,5.132c-.353,1.317-1.309,2.695-2.671,2.708-1.958.017-2.725-2.505-2.882-4.455a242.233,242.233,0,0,1,.216-43.441Q240.715,366.233,245.93,363.693Z" transform="translate(-234.34 -212.764)" fill="#ffaa08"/>
              <g id="Grupo_1171888" data-name="Grupo 1171888" transform="translate(23.318)">
                <path id="Trazado_1016925" data-name="Trazado 1016925" d="M154.723,234.98a42.782,42.782,0,0,0,14.42-1.014c1.494-.367,3.264-1.172,3.314-2.709a2.027,2.027,0,0,0-.033-.428s.214-4.841-5.978-7.008-18.212-.287-18.212-.287Z" transform="translate(-89.559 -220.485)" fill="#c23a74"/>
                <path id="Trazado_1016926" data-name="Trazado 1016926" d="M165.806,264.544c3.827,12.417,7.682,24.989,8.339,37.966s-2.212,26.607-10.526,36.592c-5.012,6.018-11.69,10.389-18.378,14.465q-10.4,6.338-21.179,12.028a207.54,207.54,0,0,0,14.76,48.076,322.314,322.314,0,0,0,55.971-32.734c13.2-9.629,26.079-20.811,32.684-35.757,9.149-20.7,4.6-45.113-4.8-65.7s-23.293-38.806-33.763-58.874l-29.726,2.125Z" transform="translate(-124.062 -220.604)" fill="#fff"/>
                <g id="Grupo_1171887" data-name="Grupo 1171887">
                  <g id="Grupo_1171885" data-name="Grupo 1171885" clip-path="url(#clip-path-8)">
                    <path id="Trazado_1016927" data-name="Trazado 1016927" d="M197.348,223.494c11.8,17.088,23.625,34.457,30.832,53.93,4.094,11.058,6.612,23.393,2.84,34.566-3.9,11.543-13.781,19.892-23.46,27.292-21.983,16.8-45.614,32.119-72,40.431" transform="translate(-136.597 -220.446)" fill="none" stroke="#ffdbea" stroke-linecap="round" stroke-linejoin="round" stroke-miterlimit="10" stroke-width="1"/>
                  </g>
                  <g id="Grupo_1171886" data-name="Grupo 1171886" clip-path="url(#clip-path-8)">
                    <path id="Trazado_1016929" data-name="Trazado 1016929" d="M169.689,257.777c1.792.328,3.419-1.441,3.64-3.249a10.151,10.151,0,0,0-1.289-5.241q-2.02-4.506-4.044-9.011" transform="translate(-111.313 -219.526)" fill="none" stroke="#ffdbea" stroke-linecap="round" stroke-linejoin="round" stroke-miterlimit="10" stroke-width="1"/>
                  </g>
                </g>
                <path id="Trazado_1016931" data-name="Trazado 1016931" d="M129.5,353.615c.647-.389,1.3-.771,1.943-1.163,6.687-4.076,13.365-8.447,18.378-14.465C158.135,328,161,314.37,160.347,301.394c-.571-11.272-3.555-22.238-6.837-33.064l9.246-27.371s32.251,52.054,50.168,104.693c-6.795,14.15-19.2,24.886-31.929,34.169a322.63,322.63,0,0,1-38.035,23.831Z" transform="translate(-110.265 -219.489)" fill="#17014e" opacity="0.09"/>
              </g>
            </g>
            <g id="Grupo_1171893" data-name="Grupo 1171893" transform="translate(10.426)">
              <path id="Trazado_1016932" data-name="Trazado 1016932" d="M166.561,435.187q2.519,8.911,5.04,17.822c.051.179.1.361.156.541,0,0-15.5,11.842-35.612,10.685q-2.454-8.753-4.909-17.5Z" transform="translate(-58.035 -203.657)" fill="#a74b3f"/>
              <path id="Trazado_1016933" data-name="Trazado 1016933" d="M116.578,463.282,152.19,452.6a6.661,6.661,0,0,0,1.95,3.479,5.963,5.963,0,0,0,4.947.718,35.036,35.036,0,0,1,5.035-1.129c1.361-.084,2.969.384,3.414,1.673.638,1.85-1.51,3.378-3.31,4.147a222.519,222.519,0,0,1-44.257,13.885Q118.273,469.326,116.578,463.282Z" transform="translate(-38.468 -202.703)" fill="#ffaa08"/>
              <g id="Grupo_1171892" data-name="Grupo 1171892">
                <path id="Trazado_1016934" data-name="Trazado 1016934" d="M181.572,242.346a705.084,705.084,0,0,1,64.21,201.3c-17.7,7.876-36.9,12.457-56.392,15.108Q173.5,402.107,157.619,345.453c-7.108-25.348-14.256-50.805-25.043-74.82-7.925-17.639-18.04-35.7-16.159-54.949,0,0,75.733,3.706,77.514,5.191Z" transform="translate(-116.188 -215.684)" fill="#fff"/>
                <g id="Grupo_1171891" data-name="Grupo 1171891">
                  <g id="Grupo_1171890" data-name="Grupo 1171890" clip-path="url(#clip-path-10)">
                    <path id="Trazado_1016935" data-name="Trazado 1016935" d="M166.371,225.3c2.059,9.191-2.214,19.458-12.006,27.07a1065.179,1065.179,0,0,1,54.311,209.109" transform="translate(-119.351 -215.157)" fill="none" stroke="#ffdbea" stroke-linecap="round" stroke-linejoin="round" stroke-miterlimit="10" stroke-width="1"/>
                  </g>
                </g>
                <path id="Trazado_1016937" data-name="Trazado 1016937" d="M124.327,240.961a705.22,705.22,0,0,1,55.625,156.776" transform="translate(-58.943 -214.299)" fill="none" stroke="#ffdbea" stroke-linecap="round" stroke-linejoin="round" stroke-miterlimit="10" stroke-width="1"/>
                <path id="Trazado_1016938" data-name="Trazado 1016938" d="M198.947,389.609q-6.39-22.791-12.782-45.583" transform="translate(-143.164 -208.652)" fill="none" stroke="#ffdbea" stroke-linecap="round" stroke-linejoin="round" stroke-miterlimit="10" stroke-width="1"/>
              </g>
            </g>
          </g>
          <g id="Grupo_1171900" data-name="Grupo 1171900" transform="translate(88.414 91.549)">
            <g id="Grupo_1171895" data-name="Grupo 1171895">
              <path id="Trazado_1016939" data-name="Trazado 1016939" d="M148.275,119.377a229.98,229.98,0,0,1,42.205-2.564c17.625,13.325,36.827,6.674,36.827,6.674h0a37.119,37.119,0,0,1,6.535,4.221q.728.59,1.407,1.218l3.549,14.1a426.84,426.84,0,0,1,17.829,93.6c-.281-1.37-2.03-2.121-3.5-2.445-16.5-3.637-33.625-.024-50.518.19a118.792,118.792,0,0,1-45.134-8.159,353.884,353.884,0,0,1,4.149-79.075,93.99,93.99,0,0,1-9.613-14.854C148.3,124.743,148.275,119.377,148.275,119.377Z" transform="translate(-148.275 -116.708)" fill="#ef5e9c"/>
              <path id="Trazado_1016940" data-name="Trazado 1016940" d="M148.27,230.412c0-.007,0-.015,0-.022s.006.014.007.021Z" transform="translate(-39.914 -110.479)" fill="#ef5e9c"/>
            </g>
            <g id="Grupo_1171896" data-name="Grupo 1171896" transform="translate(3.422 0.006)">
              <path id="Trazado_1016941" data-name="Trazado 1016941" d="M159.224,213.4a39.16,39.16,0,0,1,21.145-18.813c6.743-2.427,14.3-3.033,20.163-7.158,5.975-4.207,9.09-11.3,13.652-17a40.467,40.467,0,0,1,31.07-14.914q1.057,3.9,2.043,7.812c-5.452.189-10.974,1.159-15.64,3.952-5,3-8.848,8.4-8.729,14.234.136,6.75,5.313,12.647,5.338,19.4.018,4.835-2.642,9.3-5.83,12.933s-6.974,6.733-9.951,10.543a26.036,26.036,0,0,0-4.236,7.77c-1.141.042-2.28.074-3.42.089a118.792,118.792,0,0,1-45.133-8.159Q159.377,218.743,159.224,213.4Z" transform="translate(-153.915 -114.587)" fill="#d64583"/>
              <path id="Trazado_1016942" data-name="Trazado 1016942" d="M155.873,182.684c3.382-1.741,7.377-1.171,11.182.756q2.62,13.395,4.39,26.944a46.3,46.3,0,0,1-11.316-4.111c-4.28-2.39-8.017-6.173-9.244-10.92S151.514,184.929,155.873,182.684Z" transform="translate(-68.876 -113.155)" fill="#d64583"/>
              <path id="Trazado_1016943" data-name="Trazado 1016943" d="M248.337,116.749a18,18,0,0,1-.851,15.464c-2.885,5.356-8.725,9.263-14.8,8.949-5.493-.284-10.4-3.847-13.636-8.293-3.042-4.177-4.852-9.093-6.551-13.983A230.071,230.071,0,0,1,248.337,116.749Z" transform="translate(-212.496 -116.713)" fill="#d64583"/>
            </g>
            <path id="Trazado_1016944" data-name="Trazado 1016944" d="M197.057,151.17a105.488,105.488,0,0,1-20.984-34.363c.273.008.547.008.821.018,12.2.4,25.322,1.186,36.006,6.656C207.868,132.734,203.163,142.435,197.057,151.17Z" transform="translate(-133.868 -116.702)" fill="#a74b3f"/>
            <g id="Grupo_1171897" data-name="Grupo 1171897" transform="translate(90.524 26.314)">
              <path id="Trazado_1016945" data-name="Trazado 1016945" d="M148.5,141.655a426.485,426.485,0,0,1,17.6,90.715" transform="translate(-148.496 -141.655)" fill="none" stroke="#c23a74" stroke-linecap="round" stroke-linejoin="round" stroke-miterlimit="10" stroke-width="1"/>
            </g>
            <g id="Grupo_1171899" data-name="Grupo 1171899" transform="translate(25.676 28.135)">
              <path id="Trazado_1016946" data-name="Trazado 1016946" d="M203.529,168.086a68.827,68.827,0,0,0,19.1,2,4.183,4.183,0,0,0,3.87-2.971,36.407,36.407,0,0,0,1.523-12.794,4.161,4.161,0,0,0-3.069-3.688,73.581,73.581,0,0,0-19.122-2.754,4.169,4.169,0,0,0-4.089,3.256,59.52,59.52,0,0,0-1.392,12.885A4.2,4.2,0,0,0,203.529,168.086Z" transform="translate(-200.352 -143.135)" fill="#17014e" opacity="0.09"/>
              <path id="Trazado_1016947" data-name="Trazado 1016947" d="M202.8,167.6a68.86,68.86,0,0,0,19.191.813,4.183,4.183,0,0,0,3.679-3.206,36.411,36.411,0,0,0,.73-12.863,4.163,4.163,0,0,0-3.291-3.491,73.584,73.584,0,0,0-19.256-1.567,4.169,4.169,0,0,0-3.881,3.5,59.513,59.513,0,0,0-.594,12.947A4.2,4.2,0,0,0,202.8,167.6Z" transform="translate(-197.771 -143.173)" fill="#fff"/>
              <path id="Trazado_1016948" data-name="Trazado 1016948" d="M213.128,149.58v-4.333a1.866,1.866,0,0,0-3.732,0v4.333a1.866,1.866,0,0,0,3.732,0Z" transform="translate(-194.92 -143.381)" fill="#17014e"/>
              <path id="Trazado_1016949" data-name="Trazado 1016949" d="M203.651,154.468a3.328,3.328,0,1,1,.114,4.811,3.04,3.04,0,0,1-.995-1.952A3.159,3.159,0,0,1,203.651,154.468Z" transform="translate(-184.047 -142.824)" fill="#a74b3f"/>
              <g id="Grupo_1171898" data-name="Grupo 1171898" transform="translate(6.221 10.868)">
                <path id="Trazado_1016950" data-name="Trazado 1016950" d="M221.16,153.817q-3.849-.066-7.7-.133" transform="translate(-213.46 -153.684)" fill="none" stroke="#17014e" stroke-linecap="round" stroke-linejoin="round" stroke-miterlimit="10" stroke-width="1"/>
                <path id="Trazado_1016951" data-name="Trazado 1016951" d="M221.16,157.473l-7.7-.134" transform="translate(-213.46 -153.484)" fill="none" stroke="#17014e" stroke-linecap="round" stroke-linejoin="round" stroke-miterlimit="10" stroke-width="1"/>
                <path id="Trazado_1016952" data-name="Trazado 1016952" d="M221.16,161.129l-7.7-.134" transform="translate(-213.46 -153.283)" fill="none" stroke="#17014e" stroke-linecap="round" stroke-linejoin="round" stroke-miterlimit="10" stroke-width="1"/>
              </g>
            </g>
          </g>
          <g id="Grupo_1171902" data-name="Grupo 1171902" transform="translate(5.905 94.219)">
            <path id="Trazado_1016953" data-name="Trazado 1016953" d="M235.628,155.476c6.436-7.224,14.858-12.4,23.392-16.956a186.54,186.54,0,0,1,59.117-19.282s4.563,13.14,11.786,19.468,3.435,23.808,3.435,23.808a326.222,326.222,0,0,0-54.974,2.945Z" transform="translate(-235.628 -119.239)" fill="#ef5e9c"/>
            <g id="Grupo_1171901" data-name="Grupo 1171901" transform="translate(5.621 1.807)">
              <path id="Trazado_1016954" data-name="Trazado 1016954" d="M282.986,120.952c4.007,2.423,5.989,7.422,6.19,12.155.212,5-1.162,9.9-2,14.832-.826,4.853-1.069,10.069,1.1,14.478q-15.8.473-31.5,2.486a17.738,17.738,0,0,1,4.63-22.66c4.057-3.153,9.8-4.947,11.532-9.783,1.037-2.892.268-6-.85-8.94Q277.489,122.084,282.986,120.952Z" transform="translate(-216.028 -120.952)" fill="#d64583"/>
              <path id="Trazado_1016955" data-name="Trazado 1016955" d="M319.569,147.359a14.771,14.771,0,0,1-13.618,1.724,101.275,101.275,0,0,1,17.772-11.534c.369-.2.745-.384,1.115-.579C325.2,140.847,323,144.9,319.569,147.359Z" transform="translate(-305.951 -120.074)" fill="#d64583"/>
            </g>
            <path id="Trazado_1016956" data-name="Trazado 1016956" d="M259.72,163.622l-14.447-3.373v-6.183s37.51-5.536,60.241,6.472A326.162,326.162,0,0,0,259.72,163.622Z" transform="translate(-216.964 -117.401)" fill="#17014e" opacity="0.09"/>
            <path id="Trazado_1016957" data-name="Trazado 1016957" d="M291.543,160.275a326.223,326.223,0,0,0-54.974,2.945" transform="translate(-193.812 -116.999)" fill="none" stroke="#c23a74" stroke-linecap="round" stroke-linejoin="round" stroke-miterlimit="10" stroke-width="1"/>
          </g>
          <g id="Grupo_1171905" data-name="Grupo 1171905" transform="translate(0 130.456)">
            <g id="Grupo_1171903" data-name="Grupo 1171903" transform="translate(71.677 5.077)">
              <path id="Trazado_1016958" data-name="Trazado 1016958" d="M216.5,179.947a117.587,117.587,0,0,1,21.569,2.864c2.813,3.553,6.8,6.338,11.1,6.8a45.984,45.984,0,0,0,.782,7.048c.187.988.683,2.206,1.69,2.188.91-.017,1.406-1.061,1.619-1.947a17.659,17.659,0,0,0,.352-1.96,24.674,24.674,0,0,1,.943,6.414,6.336,6.336,0,0,0,.2,1.917,1.854,1.854,0,0,0,1.3,1.3,1.785,1.785,0,0,0,1.663-.743,4.5,4.5,0,0,0,.72-1.762,23.7,23.7,0,0,0,.608-5.294,23.9,23.9,0,0,1,.546,2.639,7.462,7.462,0,0,0,.7,2.7,2.12,2.12,0,0,0,2.337,1.121c1.174-.39,1.4-1.931,1.373-3.169a41.6,41.6,0,0,0-.811-7.182c.983,2.14,2.032,4.249,3.209,6.289a3.947,3.947,0,0,0,1.118,1.382,1.412,1.412,0,0,0,1.668.012,2.044,2.044,0,0,0,.431-1.706c-.59-9.361-5.2-18.253-11.942-24.773a54,54,0,0,0-25.194-13.324q-5.52-1.324-11.1-2.361Z" transform="translate(-216.496 -158.407)" fill="#a74b3f"/>
              <path id="Trazado_1016959" data-name="Trazado 1016959" d="M231.558,187.788a17.765,17.765,0,0,1,.2,5.542" transform="translate(-194.639 -156.797)" fill="none" stroke="#8c3a30" stroke-linecap="round" stroke-linejoin="round" stroke-miterlimit="10" stroke-width="1"/>
              <path id="Trazado_1016960" data-name="Trazado 1016960" d="M226.529,181.839a45.186,45.186,0,0,1,2.5,13.654" transform="translate(-186.478 -157.123)" fill="none" stroke="#8c3a30" stroke-linecap="round" stroke-linejoin="round" stroke-miterlimit="10" stroke-width="1"/>
              <path id="Trazado_1016961" data-name="Trazado 1016961" d="M222.6,180.592a41.833,41.833,0,0,1,3.915,11.078" transform="translate(-179.822 -157.191)" fill="none" stroke="#8c3a30" stroke-linecap="round" stroke-linejoin="round" stroke-miterlimit="10" stroke-width="1"/>
            </g>
            <g id="Grupo_1171904" data-name="Grupo 1171904">
              <path id="Trazado_1016962" data-name="Trazado 1016962" d="M268.146,153.594c-3.279,3.682-6.05,8.244-5.9,13.173.144,4.7,2.98,8.994,6.654,11.921s8.133,4.675,12.568,6.22c18.467,6.431,33.937,10.6,53.116,8.176a175.656,175.656,0,0,0,4.214-34.416,314,314,0,0,0-43.5-4.7Z" transform="translate(-262.241 -153.594)" fill="#ef5e9c"/>
              <path id="Trazado_1016963" data-name="Trazado 1016963" d="M287.505,193.025c-1.706-2.4-2.009-5.926-1.611-8.986.535-4.085,1.864-8.279.68-12.225-1.126-3.757-4.292-6.465-6.989-9.315-2.2-2.326-4.257-5.232-4.519-8.313,5.428.307,10.853.723,16.262,1.276a23.713,23.713,0,0,1,5.123,3.418,10.4,10.4,0,0,1,3.683,7.671c-.09,3.062-1.957,5.74-3.127,8.571a19.994,19.994,0,0,0,2.041,18.626A85.9,85.9,0,0,1,287.505,193.025Z" transform="translate(-237.11 -153.562)" fill="#d64583"/>
              <path id="Trazado_1016964" data-name="Trazado 1016964" d="M305.743,158.649a314,314,0,0,0-43.5-4.7" transform="translate(-229.185 -153.575)" fill="none" stroke="#c23a74" stroke-linecap="round" stroke-linejoin="round" stroke-miterlimit="10" stroke-width="1"/>
            </g>
          </g>
        </g>
      </g>
      <g id="Grupo_1171910" data-name="Grupo 1171910" transform="translate(51.787 289.52)">
        <g id="Grupo_1171908" data-name="Grupo 1171908" transform="translate(0 0)">
          <path id="Trazado_1016965" data-name="Trazado 1016965" d="M401.458,306.3A775.564,775.564,0,0,0,272.6,309.228c-10.1,1.075-18.157,10.544-19.337,22.864a534.6,534.6,0,0,0,.059,98.887c1.153,12.708,9.607,22.666,20.008,23.8A691.137,691.137,0,0,0,408.3,456.523c10.679-.922,19.115-11.295,19.718-24.379a503.483,503.483,0,0,0-5.991-104.223C420.065,315.817,411.5,306.91,401.458,306.3Z" transform="translate(-251.001 -300.836)" fill="#17014e" opacity="0.09"/>
          <path id="Trazado_1016966" data-name="Trazado 1016966" d="M399.222,305.015a775.6,775.6,0,0,0-128.867-2.323c-10.137.662-18.572,9.795-20.252,22.057a534.5,534.5,0,0,0-3.966,98.808c.634,12.745,8.676,23.039,19.023,24.591a691.156,691.156,0,0,0,134.782,7.24c10.707-.486,19.559-10.507,20.695-23.557a503.513,503.513,0,0,0-1.744-104.38C417.426,315.279,409.234,306.031,399.222,305.015Z" transform="translate(-239.111 -301.046)" fill="#fff"/>
          <path id="Trazado_1016967" data-name="Trazado 1016967" d="M265.38,433.538c7.226,3.2,15.2,4.2,23.054,5.079q31.437,3.5,63.058,4.914c23.439,1.048,47.117,1.2,68.321-1.789a19.752,19.752,0,0,1-13.729,6.851,691.239,691.239,0,0,1-134.782-7.24c-7.97-1.2-14.556-7.588-17.459-16.283A31.934,31.934,0,0,0,265.38,433.538Z" transform="translate(-245.253 -294.251)" fill="#7f7aff"/>
          <path id="Trazado_1016968" data-name="Trazado 1016968" d="M258.318,442.561q6.093-.418,11.993-1.107" transform="translate(-100.473 -293.353)" fill="none" stroke="#17014e" stroke-linecap="round" stroke-linejoin="round" stroke-miterlimit="10" stroke-width="1"/>
          <path id="Trazado_1016969" data-name="Trazado 1016969" d="M275.178,438.318q29.5,3.163,59.151,4.488c15.426.69,30.956.994,45.816.267" transform="translate(-228.09 -293.525)" fill="none" stroke="#17014e" stroke-linecap="round" stroke-linejoin="round" stroke-miterlimit="10" stroke-width="1"/>
          <path id="Trazado_1016970" data-name="Trazado 1016970" d="M381.493,429.351a34.262,34.262,0,0,0,6.754,3.952c6.225,2.755,13.007,3.884,19.787,4.7" transform="translate(-368.119 -294.016)" fill="none" stroke="#17014e" stroke-linecap="round" stroke-linejoin="round" stroke-miterlimit="10" stroke-width="1"/>
        </g>
        <path id="Trazado_1016971" data-name="Trazado 1016971" d="M274.031,420.234h13.206a1.733,1.733,0,0,0,1.733-1.733v-1.937a1.733,1.733,0,0,0-1.733-1.733H274.03a1.733,1.733,0,0,0-1.733,1.733V418.5A1.734,1.734,0,0,0,274.031,420.234Z" transform="translate(-133.877 -294.812)" fill="#ffbad7"/>
        <path id="Trazado_1016972" data-name="Trazado 1016972" d="M301.435,420.234h13.207a1.733,1.733,0,0,0,1.733-1.733v-1.937a1.733,1.733,0,0,0-1.733-1.733H301.435a1.733,1.733,0,0,0-1.733,1.733V418.5A1.734,1.734,0,0,0,301.435,420.234Z" transform="translate(-190.188 -294.812)" fill="#ffbad7"/>
        <path id="Trazado_1016973" data-name="Trazado 1016973" d="M334.746,420.234h13.207a1.733,1.733,0,0,0,1.733-1.733v-1.937a1.733,1.733,0,0,0-1.733-1.733H334.746a1.733,1.733,0,0,0-1.733,1.733V418.5A1.733,1.733,0,0,0,334.746,420.234Z" transform="translate(-258.635 -294.812)" fill="#ffbad7"/>
        <path id="Trazado_1016974" data-name="Trazado 1016974" d="M356.485,420.234h13.206a1.733,1.733,0,0,0,1.733-1.733v-1.937a1.733,1.733,0,0,0-1.733-1.733H356.485a1.733,1.733,0,0,0-1.733,1.733V418.5A1.734,1.734,0,0,0,356.485,420.234Z" transform="translate(-303.303 -294.812)" fill="#ffbad7"/>
        <path id="Trazado_1016975" data-name="Trazado 1016975" d="M354.822,333.75H361.7a1.734,1.734,0,0,0,1.733-1.733V330.08a1.733,1.733,0,0,0-1.733-1.733h-6.878a1.733,1.733,0,0,0-1.733,1.733v1.937A1.734,1.734,0,0,0,354.822,333.75Z" transform="translate(-293.559 -299.55)" fill="#ffbad7"/>
        <path id="Trazado_1016976" data-name="Trazado 1016976" d="M267.215,333.75h82.836a1.733,1.733,0,0,0,1.733-1.733V330.08a1.733,1.733,0,0,0-1.733-1.733H267.215a1.733,1.733,0,0,0-1.733,1.733v1.937A1.734,1.734,0,0,0,267.215,333.75Z" transform="translate(-189.502 -299.55)" fill="#ffbad7"/>
        <g id="Grupo_1171909" data-name="Grupo 1171909" transform="translate(30.881 39.145)">
          <path id="Trazado_1016977" data-name="Trazado 1016977" d="M396.97,365.681c-12.723-11.154-29.511-8.219-39.023,0s-21.124,9.613-25.592-.037S322.9,348.792,315.264,349.1c-18.42.734-12.313,43.949-20.833,47s-14.446-16.706-30.564-16.221V412.5h133.1V365.681Z" transform="translate(-263.867 -337.559)" fill="#ffaa08"/>
          <line id="Línea_1005" data-name="Línea 1005" y2="84.629" transform="translate(133.103)" fill="none" stroke="#17014e" stroke-linecap="round" stroke-linejoin="round" stroke-miterlimit="10" stroke-width="1"/>
          <line id="Línea_1006" data-name="Línea 1006" x1="133.103" transform="translate(0 74.942)" fill="none" stroke="#17014e" stroke-linecap="round" stroke-linejoin="round" stroke-miterlimit="10" stroke-width="1"/>
          <path id="Trazado_1016978" data-name="Trazado 1016978" d="M278.627,357.808a1.66,1.66,0,1,1,1.659,1.659A1.659,1.659,0,0,1,278.627,357.808Z" transform="translate(-164.411 -337.172)" fill="none" stroke="#17014e" stroke-linecap="round" stroke-linejoin="round" stroke-miterlimit="10" stroke-width="1"/>
          <path id="Trazado_1016979" data-name="Trazado 1016979" d="M361.082,394.192a1.659,1.659,0,1,1,1.659,1.659A1.659,1.659,0,0,1,361.082,394.192Z" transform="translate(-333.838 -335.179)" fill="none" stroke="#17014e" stroke-linecap="round" stroke-linejoin="round" stroke-miterlimit="10" stroke-width="1"/>
          <path id="Trazado_1016980" data-name="Trazado 1016980" d="M306.032,369.4a1.66,1.66,0,1,1,1.66,1.659A1.66,1.66,0,0,1,306.032,369.4Z" transform="translate(-220.723 -336.537)" fill="none" stroke="#17014e" stroke-linecap="round" stroke-linejoin="round" stroke-miterlimit="10" stroke-width="1"/>
          <path id="Trazado_1016981" data-name="Trazado 1016981" d="M339.343,349.172a1.66,1.66,0,1,1,1.66,1.659A1.66,1.66,0,0,1,339.343,349.172Z" transform="translate(-289.17 -337.645)" fill="none" stroke="#17014e" stroke-linecap="round" stroke-linejoin="round" stroke-miterlimit="10" stroke-width="1"/>
          <line id="Línea_1007" data-name="Línea 1007" y2="52.646" transform="translate(115.876 22.296)" fill="none" stroke="#17014e" stroke-linecap="round" stroke-linejoin="round" stroke-miterlimit="10" stroke-width="1"/>
          <line id="Línea_1008" data-name="Línea 1008" y2="40.419" transform="translate(86.97 34.523)" fill="none" stroke="#17014e" stroke-linecap="round" stroke-linejoin="round" stroke-miterlimit="10" stroke-width="1"/>
          <line id="Línea_1009" data-name="Línea 1009" y2="61.755" transform="translate(51.833 13.187)" fill="none" stroke="#17014e" stroke-linecap="round" stroke-linejoin="round" stroke-miterlimit="10" stroke-width="1"/>
          <line id="Línea_1010" data-name="Línea 1010" y2="14.269" transform="translate(28.905 60.673)" fill="none" stroke="#17014e" stroke-linecap="round" stroke-linejoin="round" stroke-miterlimit="10" stroke-width="1"/>
        </g>
      </g>
    </g>
  </g>
</svg>
