<svg xmlns="http://www.w3.org/2000/svg" xmlns:xlink="http://www.w3.org/1999/xlink" width="113" height="113" viewBox="0 0 113 113">
  <defs>
    <filter id="Trazado_982547" x="0" y="0" width="113" height="113" filterUnits="userSpaceOnUse">
      <feOffset dy="3" input="SourceAlpha"/>
      <feGaussianBlur stdDeviation="3" result="blur"/>
      <feFlood flood-opacity="0.161"/>
      <feComposite operator="in" in2="blur"/>
      <feComposite in="SourceGraphic"/>
    </filter>
  </defs>
  <g id="Grupo_1171690" data-name="Grupo 1171690" transform="translate(-171 -3865)">
    <g id="Grupo_1171485" data-name="Grupo 1171485" transform="translate(0 584)">
      <g id="Grupo_1167519" data-name="Grupo 1167519" transform="translate(180 3287)">
        <g id="Grupo_1166845" data-name="Grupo 1166845" transform="translate(0)">
          <g id="Grupo_1166720" data-name="Grupo 1166720">
            <g id="Grupo_1164305" data-name="Grupo 1164305">
              <g id="Grupo_1163948" data-name="Grupo 1163948">
                <g id="Grupo_1158168" data-name="Grupo 1158168">
                  <g id="Grupo_1152576" data-name="Grupo 1152576">
                    <g id="Grupo_1148633" data-name="Grupo 1148633">
                      <g id="Grupo_1148525" data-name="Grupo 1148525">
                        <g transform="matrix(1, 0, 0, 1, -9, -6)" filter="url(#Trazado_982547)">
                          <g id="Trazado_982547-2" data-name="Trazado 982547" transform="translate(9 6)" fill="#fdf6ea">
                            <path d="M 47.5 93.5 C 41.28937149047852 93.5 35.26533508300781 92.28397369384766 29.59518623352051 89.88570404052734 C 24.11771965026855 87.56893157958984 19.19813346862793 84.25196075439453 14.97309303283691 80.02691650390625 C 10.74804019927979 75.80186462402344 7.431066513061523 70.88229370117188 5.114293098449707 65.40481567382812 C 2.716026782989502 59.73468017578125 1.5 53.71062850952148 1.5 47.5 C 1.5 41.28937149047852 2.716026782989502 35.26533508300781 5.114293098449707 29.59518623352051 C 7.431066513061523 24.11771965026855 10.74804019927979 19.19813346862793 14.97309303283691 14.97309303283691 C 19.19813346862793 10.74804019927979 24.11771965026855 7.431066513061523 29.59518623352051 5.114293098449707 C 35.26533508300781 2.716026782989502 41.28937149047852 1.5 47.5 1.5 C 53.71062850952148 1.5 59.73468017578125 2.716026782989502 65.40481567382812 5.114293098449707 C 70.88229370117188 7.431066513061523 75.80186462402344 10.74804019927979 80.02691650390625 14.97309303283691 C 84.25196075439453 19.19813346862793 87.56893157958984 24.11771965026855 89.88570404052734 29.59518623352051 C 92.28397369384766 35.26533508300781 93.5 41.28937149047852 93.5 47.5 C 93.5 53.71062850952148 92.28397369384766 59.73468017578125 89.88570404052734 65.40481567382812 C 87.56893157958984 70.88229370117188 84.25196075439453 75.80186462402344 80.02691650390625 80.02691650390625 C 75.80186462402344 84.25196075439453 70.88229370117188 87.56893157958984 65.40481567382812 89.88570404052734 C 59.73468017578125 92.28397369384766 53.71062850952148 93.5 47.5 93.5 Z" stroke="none"/>
                            <path d="M 47.5 3 C 41.49121475219727 3 35.66376876831055 4.176155090332031 30.17950439453125 6.495796203613281 C 24.88084411621094 8.736953735351562 20.12152099609375 11.94598388671875 16.03375244140625 16.03375244140625 C 11.94598388671875 20.12152099609375 8.736953735351562 24.88084411621094 6.495796203613281 30.17950439453125 C 4.176155090332031 35.66376876831055 3 41.49121475219727 3 47.5 C 3 53.50878524780273 4.176155090332031 59.33623123168945 6.495796203613281 64.82049560546875 C 8.736953735351562 70.11915588378906 11.94598388671875 74.87847900390625 16.03375244140625 78.96624755859375 C 20.12152099609375 83.05401611328125 24.88084411621094 86.26304626464844 30.17950439453125 88.50419616699219 C 35.66376876831055 90.82384490966797 41.49121475219727 92 47.5 92 C 53.50878524780273 92 59.33623123168945 90.82384490966797 64.82049560546875 88.50419616699219 C 70.11915588378906 86.26304626464844 74.87847900390625 83.05401611328125 78.96624755859375 78.96624755859375 C 83.05401611328125 74.87847900390625 86.26304626464844 70.11915588378906 88.50419616699219 64.82049560546875 C 90.82384490966797 59.33623123168945 92 53.50878524780273 92 47.5 C 92 41.49121475219727 90.82384490966797 35.66376876831055 88.50419616699219 30.17950439453125 C 86.26304626464844 24.88084411621094 83.05401611328125 20.12152099609375 78.96624755859375 16.03375244140625 C 74.87847900390625 11.94598388671875 70.11915588378906 8.736953735351562 64.82049560546875 6.495796203613281 C 59.33623123168945 4.176155090332031 53.50878524780273 3 47.5 3 M 47.5 0 C 73.7335205078125 0 95 21.2664794921875 95 47.5 C 95 73.7335205078125 73.7335205078125 95 47.5 95 C 21.2664794921875 95 0 73.7335205078125 0 47.5 C 0 21.2664794921875 21.2664794921875 0 47.5 0 Z" stroke="none" fill="#edae3b"/>
                          </g>
                        </g>
                      </g>
                    </g>
                  </g>
                </g>
              </g>
            </g>
          </g>
        </g>
      </g>
    </g>
    <g id="briefcase" transform="translate(203 3890.528)">
      <path id="Trazado_1016157" data-name="Trazado 1016157" d="M136,15.219V8h19.851v7.219h7.218V27.851h-7.218l-.56,3.366a13.666,13.666,0,0,0-1.976.83L151.3,30.612l.036-.054V15.218Zm0,0" transform="translate(-120.661 -7.098)" fill="#e6e9ed"/>
      <path id="Trazado_1016158" data-name="Trazado 1016158" d="M319.219,15.219H312V8Zm0,0" transform="translate(-276.81 -7.098)" fill="#fcd770"/>
      <path id="Trazado_1016159" data-name="Trazado 1016159" d="M43.73,72H32V91.851H57.265V88.242a1.944,1.944,0,0,0-.045-.406l.045-.009.993-.993.776.56.036-.054V72Zm0,0" transform="translate(-28.391 -63.879)" fill="#5cd6b3"/>
      <path id="Trazado_1016160" data-name="Trazado 1016160" d="M265.572,210.167a9.925,9.925,0,1,0-4.141-18.949l-.189.018a1.089,1.089,0,0,0-.181-.018h-5.414v-3.609a1.943,1.943,0,0,0-.045-.406l.045-.009.993-.993.776.56,2.012,1.435a13.666,13.666,0,0,1,1.976-.83l.56-3.366h7.219l.56,3.366a13.664,13.664,0,0,1,1.976.83L274.5,186.2l5.107,5.107-1.994,2.788a13.667,13.667,0,0,1,.83,1.976l3.366.56v7.219l-3.366.56a13.667,13.667,0,0,1-.83,1.976l1.994,2.788-5.107,5.107-2.788-1.994a13.671,13.671,0,0,1-1.976.83l-.56,3.366h-7.219V209.49a9.985,9.985,0,0,0,3.609.677Zm0,0" transform="translate(-226.773 -163.247)" fill="#ffc729"/>
      <path id="Trazado_1016161" data-name="Trazado 1016161" d="M309.932,243.609a6.226,6.226,0,0,0-3.528,1.083h-.081V241.8a.9.9,0,0,0-.722-.884l.189-.018a9.925,9.925,0,1,1,.532,18.272V255.1a6.217,6.217,0,0,0,3.609,1.137,6.316,6.316,0,1,0,0-12.632Zm0,0" transform="translate(-271.133 -212.931)" fill="#fcd770"/>
      <path id="Trazado_1016162" data-name="Trazado 1016162" d="M42.288,457.8v.9a.905.905,0,0,1-.9.9H8.9a.905.905,0,0,1-.9-.9V456H42.288Zm0,0" transform="translate(-7.098 -404.568)" fill="#b27946"/>
      <path id="Trazado_1016163" data-name="Trazado 1016163" d="M42.288,251.79v1.624l-13.535,8.121v-1.8a.905.905,0,0,0-.9-.9H22.437a.905.905,0,0,0-.9.9v1.8L8,253.414V248.9a.905.905,0,0,1,.9-.9H41.386a1.094,1.094,0,0,1,.181.018.9.9,0,0,1,.722.884Zm0,0" transform="translate(-7.098 -220.029)" fill="#b27946"/>
      <path id="Trazado_1016164" data-name="Trazado 1016164" d="M42.288,308.858v5.188H8V296l13.535,8.121v1.8a.905.905,0,0,0,.9.9h5.414a.905.905,0,0,0,.9-.9v-1.8L42.288,296Zm0,0" transform="translate(-7.098 -262.614)" fill="#cf9e76"/>
      <path id="Trazado_1016165" data-name="Trazado 1016165" d="M135.218,346.707v1.8a.905.905,0,0,1-.9.9H128.9a.905.905,0,0,1-.9-.9V344.9a.905.905,0,0,1,.9-.9h5.414a.905.905,0,0,1,.9.9Zm0,0" transform="translate(-113.563 -305.2)" fill="#fcd770"/>
      <path id="Trazado_1016166" data-name="Trazado 1016166" d="M55.943,41.369V32.622l-3.595-.6q-.2-.545-.455-1.088l2.121-2.97L47.829,21.78,44.86,23.9c-.362-.17-.725-.321-1.088-.456l-.461-2.768V7.747L35.563,0H14.437V7.219H2.706V27.069H1.8a1.806,1.806,0,0,0-1.8,1.8V54.139a1.806,1.806,0,0,0,1.8,1.8H34.287a1.806,1.806,0,0,0,1.8-1.8h7.081l.6-3.594c.362-.134.725-.286,1.088-.456l2.97,2.122,6.185-6.185-2.121-2.97c.169-.362.32-.725.455-1.088ZM36.092,3.081,40.23,7.219H36.092ZM16.241,1.8H34.287V9.023h7.218V19.851H34.425l-.6,3.594c-.362.134-.725.286-1.088.456l-1.158-.827V16.242H39.7v-1.8H31.581v-1.8H39.7v-1.8H31.581V7.219H16.241ZM4.511,9.023H29.776V21.784l-.006,0-.734.734a2.7,2.7,0,0,0-1.966-.858H9.023a2.71,2.71,0,0,0-2.707,2.707v2.707h-1.8ZM8.12,27.069V24.362a.9.9,0,0,1,.9-.9H27.069a.9.9,0,0,1,.9.9v2.707Zm26.167,1.8v4l-11.73,7.038V39.7a1.806,1.806,0,0,0-1.8-1.8H15.339a1.806,1.806,0,0,0-1.8,1.8v.211L1.8,32.875v-4Zm1.8,3.448a5.414,5.414,0,1,1,0,9.346Zm0,11.345a7.218,7.218,0,1,0,0-13.345V28.874a1.737,1.737,0,0,0-.069-.464A9.026,9.026,0,1,1,36.092,45.6Zm-15.338-.356H15.339V39.7h5.414ZM1.8,54.139v-1.8H28.874v-1.8H1.8V34.979l11.73,7.038v1.294a1.806,1.806,0,0,0,1.8,1.8h5.414a1.806,1.806,0,0,0,1.8-1.8V42.017l11.73-7.038V50.53h-3.61v1.8h3.61v1.8Zm49.853-8.309-4.023,4.023-2.61-1.863-.489.249a12.484,12.484,0,0,1-1.844.771l-.522.17-.526,3.155H36.092V47.471a10.826,10.826,0,1,0-1.644-20.386c-.053,0-.106-.016-.161-.016H29.776V24.362c0-.012,0-.022,0-.034l.191-.191L32.573,26l.489-.249a12.484,12.484,0,0,1,1.844-.771l.522-.17.526-3.155h5.69l.526,3.155.522.17a12.676,12.676,0,0,1,1.844.771l.489.249,2.61-1.863,4.023,4.023-1.863,2.61.249.488a12.545,12.545,0,0,1,.771,1.845l.169.522,3.156.525v5.691l-3.156.525-.169.522a12.621,12.621,0,0,1-.771,1.845l-.249.488Zm0,0" transform="translate(0 0)"/>
      <path id="Trazado_1016167" data-name="Trazado 1016167" d="M336,200h1.8v1.8H336Zm0,0" transform="translate(-298.103 -177.442)"/>
      <path id="Trazado_1016168" data-name="Trazado 1016168" d="M417.539,233.111l1.276-1.276,1.276,1.276-1.276,1.276Zm0,0" transform="translate(-370.446 -205.687)"/>
      <path id="Trazado_1016169" data-name="Trazado 1016169" d="M456,320h1.8v1.8H456Zm0,0" transform="translate(-404.569 -283.907)"/>
      <path id="Trazado_1016170" data-name="Trazado 1016170" d="M417.539,402.815l1.276-1.276,1.276,1.276-1.276,1.276Zm0,0" transform="translate(-370.446 -356.25)"/>
      <path id="Trazado_1016171" data-name="Trazado 1016171" d="M336,440h1.8v1.8H336Zm0,0" transform="translate(-298.103 -390.373)"/>
      <path id="Trazado_1016172" data-name="Trazado 1016172" d="M56,96H77.656v1.8H56Zm0,0" transform="translate(-49.684 -85.172)"/>
      <path id="Trazado_1016173" data-name="Trazado 1016173" d="M56,128h1.8v1.8H56Zm0,0" transform="translate(-49.684 -113.563)"/>
      <path id="Trazado_1016174" data-name="Trazado 1016174" d="M88,128h1.8v1.8H88Zm0,0" transform="translate(-78.075 -113.563)"/>
      <path id="Trazado_1016175" data-name="Trazado 1016175" d="M120,128h14.437v1.8H120Zm0,0" transform="translate(-106.466 -113.563)"/>
      <path id="Trazado_1016176" data-name="Trazado 1016176" d="M56,160H77.656v1.8H56Zm0,0" transform="translate(-49.684 -141.954)"/>
      <path id="Trazado_1016177" data-name="Trazado 1016177" d="M160,32h1.8v1.8H160Zm0,0" transform="translate(-141.954 -28.391)"/>
      <path id="Trazado_1016178" data-name="Trazado 1016178" d="M192,32h7.218v1.8H192Zm0,0" transform="translate(-170.345 -28.391)"/>
      <path id="Trazado_1016179" data-name="Trazado 1016179" d="M272,32h1.8v1.8H272Zm0,0" transform="translate(-241.322 -28.391)"/>
    </g>
  </g>
</svg>
