<svg xmlns="http://www.w3.org/2000/svg" xmlns:xlink="http://www.w3.org/1999/xlink" width="110" height="110" viewBox="0 0 110 110">
  <defs>
    <filter id="Trazado_982547" x="0" y="0" width="110" height="110" filterUnits="userSpaceOnUse">
      <feOffset dy="3" input="SourceAlpha"/>
      <feGaussianBlur stdDeviation="3" result="blur"/>
      <feFlood flood-opacity="0.161"/>
      <feComposite operator="in" in2="blur"/>
      <feComposite in="SourceGraphic"/>
    </filter>
  </defs>
  <g id="Grupo_1171652" data-name="Grupo 1171652" transform="translate(-1115 -823)">
    <g id="Grupo_1171416" data-name="Grupo 1171416" transform="translate(-0.701 -6107)">
      <g id="Grupo_1163803" data-name="Grupo 1163803" transform="translate(-0.494 2285.316)">
        <g id="Grupo_1163015" data-name="Grupo 1163015" transform="translate(1.195 305.685)">
          <g id="Grupo_1157017" data-name="Grupo 1157017" transform="translate(0 3549)">
            <g id="Grupo_1155793" data-name="Grupo 1155793" transform="translate(-0.999 -3894)">
              <g id="Grupo_1154704" data-name="Grupo 1154704" transform="translate(0 1466)">
                <g id="Grupo_1150790" data-name="Grupo 1150790" transform="translate(3 2320)">
                  <g id="Grupo_1154214" data-name="Grupo 1154214" transform="translate(79 -5809)">
                    <g id="Grupo_1152583" data-name="Grupo 1152583" transform="translate(1043 6713)">
                      <g id="Grupo_1146973" data-name="Grupo 1146973" transform="translate(0 0)">
                        <g id="Grupo_1146954" data-name="Grupo 1146954">
                          <g transform="matrix(1, 0, 0, 1, -9, -6)" filter="url(#Trazado_982547)">
                            <g id="Trazado_982547-2" data-name="Trazado 982547" transform="translate(9 6)" fill="#e4f2f4">
                              <path d="M 46 90.49987030029297 C 39.99187850952148 90.49987030029297 34.16426849365234 89.32350921630859 28.67905426025391 87.00345611572266 C 23.38019943237305 84.76224517822266 18.62104034423828 81.55341339111328 14.53374671936035 77.46613311767578 C 10.44646644592285 73.37885284423828 7.237639904022217 68.61969757080078 4.996413230895996 63.32085418701172 C 2.676359891891479 57.83565521240234 1.5 52.008056640625 1.5 45.99993515014648 C 1.5 39.99181365966797 2.676359891891479 34.16421508789062 4.996413230895996 28.67901420593262 C 7.237639904022217 23.38017463684082 10.44646644592285 18.62101554870605 14.53374671936035 14.53373527526855 C 18.62104034423828 10.44645500183105 23.38019943237305 7.23762845993042 28.67905426025391 4.996415138244629 C 34.16426849365234 2.676361799240112 39.99187850952148 1.500001788139343 46 1.500001788139343 C 52.00812149047852 1.500001788139343 57.83573150634766 2.676361799240112 63.32094573974609 4.996415138244629 C 68.61979675292969 7.23762845993042 73.37895965576172 10.44645500183105 77.46625518798828 14.53373527526855 C 81.55353546142578 18.62101554870605 84.76235961914062 23.38017463684082 87.00358581542969 28.67901420593262 C 89.32363891601562 34.16421508789062 90.5 39.99181365966797 90.5 45.99993515014648 C 90.5 52.008056640625 89.32363891601562 57.83565521240234 87.00358581542969 63.32085418701172 C 84.76235961914062 68.61969757080078 81.55353546142578 73.37885284423828 77.46625518798828 77.46613311767578 C 73.37895965576172 81.55341339111328 68.61979675292969 84.76224517822266 63.32094573974609 87.00345611572266 C 57.83573150634766 89.32350921630859 52.00812149047852 90.49987030029297 46 90.49987030029297 Z" stroke="none"/>
                              <path d="M 46 2.999992370605469 C 40.1937141418457 2.999992370605469 34.56269836425781 4.136489868164062 29.26337051391602 6.377906799316406 C 24.14332580566406 8.543502807617188 19.54441070556641 11.64437866210938 15.59439849853516 15.59437561035156 C 11.64440155029297 19.54439544677734 8.54351806640625 24.14329528808594 6.377914428710938 29.26333618164062 C 4.136497497558594 34.56264877319336 3 40.19366455078125 3 45.99993515014648 C 3 51.80620574951172 4.136497497558594 57.43720626831055 6.377914428710938 62.73651885986328 C 8.54351806640625 67.8565673828125 11.64440155029297 72.45545959472656 15.59439849853516 76.40547943115234 C 19.54441070556641 80.35547637939453 24.14332580566406 83.45635223388672 29.26337051391602 85.6219482421875 C 34.56269836425781 87.86336517333984 40.1937141418457 88.99986267089844 46 88.99986267089844 C 51.8062858581543 88.99986267089844 57.43730163574219 87.86336517333984 62.73661422729492 85.6219482421875 C 67.85667419433594 83.45635223388672 72.45557403564453 80.35547637939453 76.40558624267578 76.40547943115234 C 80.35559844970703 72.45545959472656 83.45647430419922 67.8565673828125 85.6220703125 62.73651885986328 C 87.86350250244141 57.43720626831055 89 51.80620574951172 89 45.99993515014648 C 89 40.19366455078125 87.86350250244141 34.56264877319336 85.6220703125 29.26333618164062 C 83.45647430419922 24.14329528808594 80.35559844970703 19.54439544677734 76.40558624267578 15.59437561035156 C 72.45557403564453 11.64437866210938 67.85667419433594 8.543502807617188 62.73661422729492 6.377906799316406 C 57.43730163574219 4.136489868164062 51.8062858581543 2.999992370605469 46 2.999992370605469 M 46 -7.62939453125e-06 C 71.40509033203125 -7.62939453125e-06 92 20.59486389160156 92 45.99993515014648 C 92 71.40499114990234 71.40509033203125 91.99986267089844 46 91.99986267089844 C 20.59490203857422 91.99986267089844 0 71.40499114990234 0 45.99993515014648 C 0 20.59486389160156 20.59490203857422 -7.62939453125e-06 46 -7.62939453125e-06 Z" stroke="none" fill="#01899b"/>
                            </g>
                          </g>
                        </g>
                      </g>
                    </g>
                  </g>
                </g>
              </g>
            </g>
          </g>
        </g>
      </g>
    </g>
    <g id="branding" transform="translate(1135.36 846)">
      <g id="Grupo_1171650" data-name="Grupo 1171650" transform="translate(7.478 0.838)">
        <g id="Grupo_1171649" data-name="Grupo 1171649" transform="translate(0)">
          <path id="Trazado_1016098" data-name="Trazado 1016098" d="M50.107,290.064H30.387a4.73,4.73,0,0,0-3.747,1.843l-5.8,7.523v-7.294h-6.7v12.277a4.819,4.819,0,0,0,1.6,3.629,4.715,4.715,0,0,0,6.57-.335l5.932-6.11v11.868a.559.559,0,0,0,.559.559H49.094a.559.559,0,0,0,.559-.559v-7.347h6.7v-9.8A6.25,6.25,0,0,0,50.107,290.064Z" transform="translate(-14.139 -258.493)" fill="#6bd9e7"/>
          <path id="Trazado_1016099" data-name="Trazado 1016099" d="M207.946,289.037l-1.825,15.786a.559.559,0,0,0,.175.474l2.8,2.6a.559.559,0,0,0,.76,0l2.8-2.6a.559.559,0,0,0,.175-.474l-1.825-15.786Z" transform="translate(-184.667 -257.581)" fill="#7a8c98"/>
          <path id="Trazado_1016100" data-name="Trazado 1016100" d="M153.662,290.063a4.731,4.731,0,0,0-.742.06l4.647,4.3a1.082,1.082,0,0,0,1.581-.12l3.075-3.86,3.075,3.86a1.082,1.082,0,0,0,1.581.12l4.711-4.356H153.662Z" transform="translate(-137.414 -258.492)" fill="#03bed7"/>
          <path id="Trazado_1016101" data-name="Trazado 1016101" d="M202.162,208.993v9.058a6.812,6.812,0,0,0,7.6,0v-9.058Z" transform="translate(-181.154 -186.48)" fill="#e8ad8c"/>
          <path id="Trazado_1016102" data-name="Trazado 1016102" d="M137.381,12h-1.5l-.619-1.2A6.126,6.126,0,0,0,129.82,7.5H118.428a6.133,6.133,0,0,0-6.072,6.994l1.53,10.789h24.5l1.478-10.419A2.509,2.509,0,0,0,137.381,12Z" transform="translate(-101.328 -7.5)" fill="#7a8c98"/>
          <path id="Trazado_1016103" data-name="Trazado 1016103" d="M258.945,12h-1.5l-.619-1.2A6.126,6.126,0,0,0,251.385,7.5H249.15c3.442,0,4.386,2.616,5.439,4.648l.412.794a.743.743,0,0,0,.66.4h1.05a2.509,2.509,0,0,1,2.484,2.862l-1.478,9.079h2.235l1.478-10.419A2.509,2.509,0,0,0,258.945,12Z" transform="translate(-222.892 -7.5)" fill="#596c76"/>
          <g id="Grupo_1171648" data-name="Grupo 1171648" transform="translate(0 8.931)">
            <path id="Trazado_1016104" data-name="Trazado 1016104" d="M111.672,150.67h24.695a1.76,1.76,0,0,1,1.76,1.76V154.2a1.76,1.76,0,0,1-1.76,1.76H111.672a1.76,1.76,0,0,1-1.761-1.76V152.43A1.76,1.76,0,0,1,111.672,150.67Z" transform="translate(-99.21 -143.605)" fill="#e8ad8c"/>
            <path id="Trazado_1016105" data-name="Trazado 1016105" d="M172.375,89.939v10.709a4.493,4.493,0,0,1-4.492,4.494h-9.376a4.493,4.493,0,0,1-4.492-4.494V91.064h11.269a3.028,3.028,0,0,0,3.03-3.028v-.277a.322.322,0,0,1,.322-.322h1.239A2.5,2.5,0,0,1,172.375,89.939Z" transform="translate(-138.386 -87.436)" fill="#e8ad8c"/>
            <path id="Trazado_1016106" data-name="Trazado 1016106" d="M21.047,189.26H18.409a.407.407,0,0,1-.407-.407v-3.26a1.931,1.931,0,0,0-3.862,0v12.685h6.907a3.1,3.1,0,0,0,3.1-3.1v-2.826A3.1,3.1,0,0,0,21.047,189.26Z" transform="translate(-14.14 -172.911)" fill="#e8ad8c"/>
          </g>
          <path id="Trazado_1016107" data-name="Trazado 1016107" d="M307.061,270.333v22.021a.62.62,0,0,0,.62.62H327.76a.619.619,0,0,0,.619-.62V270.333a.619.619,0,0,0-.619-.62H307.681A.62.62,0,0,0,307.061,270.333Z" transform="translate(-274.333 -240.416)" fill="#eaf6ff"/>
          <path id="Trazado_1016108" data-name="Trazado 1016108" d="M474.553,269.713h-2.235a.62.62,0,0,1,.619.62v22.021a.62.62,0,0,1-.619.62h2.235a.619.619,0,0,0,.619-.62V270.333A.62.62,0,0,0,474.553,269.713Z" transform="translate(-421.126 -240.416)" fill="#c4e2ff"/>
          <path id="Trazado_1016109" data-name="Trazado 1016109" d="M371.5,464.316H366.98a1.919,1.919,0,0,0-1.919,1.919v1.819a.752.752,0,0,0,.752.752h6.853a.752.752,0,0,0,.752-.752v-1.819A1.919,1.919,0,0,0,371.5,464.316Z" transform="translate(-325.852 -413.276)" fill="#e8ad8c"/>
          <path id="Trazado_1016110" data-name="Trazado 1016110" d="M352.308,329.492c.3-.909,1.6-1.326,3.1-1.064a.415.415,0,0,0,.482-.35c.213-1.5,1.014-2.618,1.97-2.618s1.757,1.116,1.97,2.618a.415.415,0,0,0,.482.35c1.494-.262,2.8.155,3.1,1.064s-.519,2.016-1.881,2.682a.415.415,0,0,0-.184.566c.71,1.34.718,2.714-.055,3.276s-2.078.13-3.132-.96a.415.415,0,0,0-.6,0c-1.055,1.09-2.359,1.522-3.132.96s-.765-1.936-.055-3.276a.415.415,0,0,0-.184-.566C352.827,331.508,352.013,330.4,352.308,329.492Z" transform="translate(-314.471 -289.934)" fill="#fed402"/>
        </g>
      </g>
      <g id="Grupo_1171651" data-name="Grupo 1171651" transform="translate(6.64 0)">
        <path id="Trazado_1016111" data-name="Trazado 1016111" d="M196.339,145.816v-.888a.838.838,0,1,0-1.676,0v.888a.838.838,0,0,0,1.676,0Z" transform="translate(-173.655 -127.991)"/>
        <path id="Trazado_1016112" data-name="Trazado 1016112" d="M263.534,146.654a.838.838,0,0,0,.838-.838v-.888a.838.838,0,1,0-1.676,0v.888A.838.838,0,0,0,263.534,146.654Z" transform="translate(-234.087 -127.991)"/>
        <path id="Trazado_1016113" data-name="Trazado 1016113" d="M202.223,191.976a5.59,5.59,0,0,0,7.03,0,.838.838,0,1,0-1.048-1.308,3.923,3.923,0,0,1-4.934,0,.838.838,0,0,0-1.048,1.308Z" transform="translate(-180.091 -169.201)"/>
        <path id="Trazado_1016114" data-name="Trazado 1016114" d="M61.524,45.717a.838.838,0,0,0,.838-.838V30.755A1.459,1.459,0,0,0,60.905,29.3H40.826a1.46,1.46,0,0,0-1.458,1.458v.816H36.926V28.312h.049a5.337,5.337,0,0,0,5.33-5.332v-.023h2.329a2.6,2.6,0,0,0,2.6-2.6V18.594a2.6,2.6,0,0,0-1.51-2.358L46.844,8.32A3.348,3.348,0,0,0,43.531,4.5h-.993l-.385-.743A6.942,6.942,0,0,0,35.97,0H24.578a7,7,0,0,0-5.6,2.819,6.927,6.927,0,0,0-1.3,5.13L17.9,9.514a.838.838,0,0,0,1.66-.235l-.221-1.565a5.262,5.262,0,0,1,.989-3.9,5.317,5.317,0,0,1,4.254-2.141H35.97A5.272,5.272,0,0,1,40.665,4.53l.619,1.2a.838.838,0,0,0,.744.453h1.5a1.672,1.672,0,0,1,1.654,1.906L44.063,16H42.3V12.272a3.344,3.344,0,0,0-3.34-3.341H37.726a1.161,1.161,0,0,0-1.16,1.16v.277a2.193,2.193,0,0,1-2.192,2.19H23.106a.838.838,0,0,0-.838.838V16H20.51L20.1,13.1a.838.838,0,0,0-1.659.236l.411,2.9a2.6,2.6,0,0,0-1.511,2.358v1.767a2.6,2.6,0,0,0,2.6,2.6h2.329v.023a5.337,5.337,0,0,0,5.33,5.332h.049V31.57H23.726a5.612,5.612,0,0,0-4.41,2.17l-4.3,5.574V35.923a3.94,3.94,0,0,0,3.3-3.882V29.215a3.939,3.939,0,0,0-3.935-3.934H12.178V22.452a2.769,2.769,0,0,0-5.538,0V46.758a5.647,5.647,0,0,0,1.887,4.258,5.553,5.553,0,0,0,7.73-.387l4.486-4.621c0,1.781,0,9.313,0,9.8a1.4,1.4,0,0,0,1.4,1.4H42.433a1.4,1.4,0,0,0,1.4-1.4V54.234h2.019v1.382a1.592,1.592,0,0,0,1.59,1.59h6.853a1.592,1.592,0,0,0,1.59-1.59V54.234h5.023a1.459,1.459,0,0,0,1.457-1.458V48.789a.838.838,0,1,0-1.676,0v3.769h-5.1a2.76,2.76,0,0,0-2.462-1.518H48.606a2.76,2.76,0,0,0-2.462,1.518h-5.1V30.973H60.686V44.879a.838.838,0,0,0,.838.838ZM39.368,33.38l-3,2.77a.243.243,0,0,1-.356-.027L34.4,34.091a9.037,9.037,0,0,0,1.918-.845h3.052Zm-11.111-.134a9.036,9.036,0,0,0,1.918.845C28.54,36.07,28.6,36.2,28.383,36.214a.24.24,0,0,1-.184-.065l-3.14-2.9Zm2.979,2.2.831-1.044c.073,0,.146,0,.22,0s.146,0,.22,0l.831,1.044,1.456,12.587-2.507,2.325L29.78,48.036Zm13.4-17.777a.923.923,0,0,1,.922.922v1.767a.923.923,0,0,1-.922.922H42.3v-3.61Zm-24.695,3.61a.923.923,0,0,1-.923-.922V18.594a.923.923,0,0,1,.923-.922h2.329v3.61H19.939Zm4,1.7V14.235H34.375a3.872,3.872,0,0,0,3.86-3.628h.73a1.666,1.666,0,0,1,1.664,1.665V22.981a3.659,3.659,0,0,1-3.654,3.656H27.6a3.659,3.659,0,0,1-3.654-3.656ZM35.25,28.312v3.611a5.857,5.857,0,0,1-5.926,0V28.312ZM8.316,22.452a1.093,1.093,0,0,1,2.186,0v3.26a1.246,1.246,0,0,0,1.245,1.245h2.638a2.262,2.262,0,0,1,2.084,1.389H12.479a.838.838,0,0,0,0,1.676h4.164v1.324H12.479a.838.838,0,1,0,0,1.676h3.937A2.259,2.259,0,0,1,14.385,34.3H8.316Zm40.29,30.264h4.519A1.082,1.082,0,0,1,54.206,53.8V55.53H47.524V53.8A1.082,1.082,0,0,1,48.606,52.716Zm-6.452,1.518v1.3H22.42V42.043a.838.838,0,0,0-1.676,0V43.6l-5.708,5.88a3.858,3.858,0,0,1-5.4.275,3.971,3.971,0,0,1-1.317-3V35.975h5.028v5.8s0,0,0,.006v2.6a.838.838,0,0,0,1.676,0V42.06l5.623-7.3a3.915,3.915,0,0,1,2.09-1.385l4.327,4a1.913,1.913,0,0,0,2.233.27L28.1,47.986a1.405,1.405,0,0,0,.438,1.183l2.8,2.6a1.4,1.4,0,0,0,1.9,0l2.8-2.6a1.4,1.4,0,0,0,.437-1.183l-1.2-10.336a1.915,1.915,0,0,0,2.232-.269l1.857-1.717V52.776a1.46,1.46,0,0,0,1.458,1.458h1.327Z" transform="translate(-6.64 0)"/>
        <path id="Trazado_1016115" data-name="Trazado 1016115" d="M357.555,322.571c-.393-1.208-1.851-1.873-3.621-1.689-.372-1.74-1.455-2.922-2.726-2.922s-2.353,1.182-2.726,2.922c-1.77-.184-3.229.481-3.621,1.689s.4,2.6,1.937,3.5c-.722,1.627-.54,3.219.488,3.966a2.163,2.163,0,0,0,1.293.4,4.088,4.088,0,0,0,2.629-1.163c1.324,1.189,2.895,1.509,3.923.762s1.21-2.339.488-3.966C357.158,325.175,357.947,323.78,357.555,322.571Zm-3.046,2.189a1.254,1.254,0,0,0-.556,1.711c.537,1.013.533,1.958.193,2.205s-1.241-.041-2.038-.865a1.255,1.255,0,0,0-1.8,0c-.8.824-1.7,1.113-2.038.865s-.344-1.192.193-2.205a1.254,1.254,0,0,0-.556-1.711c-1.03-.5-1.582-1.271-1.452-1.671s1.028-.7,2.157-.5a1.255,1.255,0,0,0,1.456-1.058c.161-1.135.719-1.9,1.14-1.9s.979.762,1.14,1.9a1.254,1.254,0,0,0,1.456,1.058c1.129-.2,2.027.1,2.157.5S355.538,324.256,354.508,324.76Z" transform="translate(-306.983 -282.434)"/>
      </g>
    </g>
  </g>
</svg>
