<svg xmlns="http://www.w3.org/2000/svg" xmlns:xlink="http://www.w3.org/1999/xlink" width="110" height="110" viewBox="0 0 110 110">
  <defs>
    <filter id="Trazado_982547" x="0" y="0" width="110" height="110" filterUnits="userSpaceOnUse">
      <feOffset dy="3" input="SourceAlpha"/>
      <feGaussianBlur stdDeviation="3" result="blur"/>
      <feFlood flood-opacity="0.161"/>
      <feComposite operator="in" in2="blur"/>
      <feComposite in="SourceGraphic"/>
    </filter>
  </defs>
  <g id="Grupo_1171679" data-name="Grupo 1171679" transform="translate(-2365 -816)">
    <g id="Grupo_1171418" data-name="Grupo 1171418" transform="translate(1249.299 -6114)">
      <g id="Grupo_1163803" data-name="Grupo 1163803" transform="translate(-0.494 2285.316)">
        <g id="Grupo_1163015" data-name="Grupo 1163015" transform="translate(1.195 305.685)">
          <g id="Grupo_1157017" data-name="Grupo 1157017" transform="translate(0 3549)">
            <g id="Grupo_1155793" data-name="Grupo 1155793" transform="translate(-0.999 -3894)">
              <g id="Grupo_1154704" data-name="Grupo 1154704" transform="translate(0 1466)">
                <g id="Grupo_1150790" data-name="Grupo 1150790" transform="translate(3 2320)">
                  <g id="Grupo_1154214" data-name="Grupo 1154214" transform="translate(79 -5809)">
                    <g id="Grupo_1152583" data-name="Grupo 1152583" transform="translate(1043 6713)">
                      <g id="Grupo_1146973" data-name="Grupo 1146973" transform="translate(0 0)">
                        <g id="Grupo_1146954" data-name="Grupo 1146954">
                          <g transform="matrix(1, 0, 0, 1, -9, -6)" filter="url(#Trazado_982547)">
                            <g id="Trazado_982547-2" data-name="Trazado 982547" transform="translate(9 6)" fill="#e4f2f4">
                              <path d="M 46 90.49987030029297 C 39.99187850952148 90.49987030029297 34.16426849365234 89.32350921630859 28.67905426025391 87.00345611572266 C 23.38019943237305 84.76224517822266 18.62104034423828 81.55341339111328 14.53374671936035 77.46613311767578 C 10.44646644592285 73.37885284423828 7.237639904022217 68.61969757080078 4.996413230895996 63.32085418701172 C 2.676359891891479 57.83565521240234 1.5 52.008056640625 1.5 45.99993515014648 C 1.5 39.99181365966797 2.676359891891479 34.16421508789062 4.996413230895996 28.67901420593262 C 7.237639904022217 23.38017463684082 10.44646644592285 18.62101554870605 14.53374671936035 14.53373527526855 C 18.62104034423828 10.44645500183105 23.38019943237305 7.23762845993042 28.67905426025391 4.996415138244629 C 34.16426849365234 2.676361799240112 39.99187850952148 1.500001788139343 46 1.500001788139343 C 52.00812149047852 1.500001788139343 57.83573150634766 2.676361799240112 63.32094573974609 4.996415138244629 C 68.61979675292969 7.23762845993042 73.37895965576172 10.44645500183105 77.46625518798828 14.53373527526855 C 81.55353546142578 18.62101554870605 84.76235961914062 23.38017463684082 87.00358581542969 28.67901420593262 C 89.32363891601562 34.16421508789062 90.5 39.99181365966797 90.5 45.99993515014648 C 90.5 52.008056640625 89.32363891601562 57.83565521240234 87.00358581542969 63.32085418701172 C 84.76235961914062 68.61969757080078 81.55353546142578 73.37885284423828 77.46625518798828 77.46613311767578 C 73.37895965576172 81.55341339111328 68.61979675292969 84.76224517822266 63.32094573974609 87.00345611572266 C 57.83573150634766 89.32350921630859 52.00812149047852 90.49987030029297 46 90.49987030029297 Z" stroke="none"/>
                              <path d="M 46 2.999992370605469 C 40.1937141418457 2.999992370605469 34.56269836425781 4.136489868164062 29.26337051391602 6.377906799316406 C 24.14332580566406 8.543502807617188 19.54441070556641 11.64437866210938 15.59439849853516 15.59437561035156 C 11.64440155029297 19.54439544677734 8.54351806640625 24.14329528808594 6.377914428710938 29.26333618164062 C 4.136497497558594 34.56264877319336 3 40.19366455078125 3 45.99993515014648 C 3 51.80620574951172 4.136497497558594 57.43720626831055 6.377914428710938 62.73651885986328 C 8.54351806640625 67.8565673828125 11.64440155029297 72.45545959472656 15.59439849853516 76.40547943115234 C 19.54441070556641 80.35547637939453 24.14332580566406 83.45635223388672 29.26337051391602 85.6219482421875 C 34.56269836425781 87.86336517333984 40.1937141418457 88.99986267089844 46 88.99986267089844 C 51.8062858581543 88.99986267089844 57.43730163574219 87.86336517333984 62.73661422729492 85.6219482421875 C 67.85667419433594 83.45635223388672 72.45557403564453 80.35547637939453 76.40558624267578 76.40547943115234 C 80.35559844970703 72.45545959472656 83.45647430419922 67.8565673828125 85.6220703125 62.73651885986328 C 87.86350250244141 57.43720626831055 89 51.80620574951172 89 45.99993515014648 C 89 40.19366455078125 87.86350250244141 34.56264877319336 85.6220703125 29.26333618164062 C 83.45647430419922 24.14329528808594 80.35559844970703 19.54439544677734 76.40558624267578 15.59437561035156 C 72.45557403564453 11.64437866210938 67.85667419433594 8.543502807617188 62.73661422729492 6.377906799316406 C 57.43730163574219 4.136489868164062 51.8062858581543 2.999992370605469 46 2.999992370605469 M 46 -7.62939453125e-06 C 71.40509033203125 -7.62939453125e-06 92 20.59486389160156 92 45.99993515014648 C 92 71.40499114990234 71.40509033203125 91.99986267089844 46 91.99986267089844 C 20.59490203857422 91.99986267089844 0 71.40499114990234 0 45.99993515014648 C 0 20.59486389160156 20.59490203857422 -7.62939453125e-06 46 -7.62939453125e-06 Z" stroke="none" fill="#01899b"/>
                            </g>
                          </g>
                        </g>
                      </g>
                    </g>
                  </g>
                </g>
              </g>
            </g>
          </g>
        </g>
      </g>
    </g>
    <g id="message" transform="translate(2391 839)">
      <g id="Icons" transform="translate(0.963 0.963)">
        <path id="Trazado_1016126" data-name="Trazado 1016126" d="M38.336,12H51.09a5.78,5.78,0,0,1,5.78,5.78V44.751a5.78,5.78,0,0,1-5.78,5.78H37.44a1.932,1.932,0,0,0-1.368.568L30.293,56.7a1.9,1.9,0,0,1-2.716,0L21.8,51.1a1.932,1.932,0,0,0-1.368-.568H6.78A5.78,5.78,0,0,1,1,44.751V17.78A5.78,5.78,0,0,1,6.78,12Z" transform="translate(-1 -1.404)" fill="#ffdf00"/>
        <path id="Trazado_1016127" data-name="Trazado 1016127" d="M34.193,52.568,28.5,58.091l.087.084a1.9,1.9,0,0,0,2.716,0l5.78-5.606A1.932,1.932,0,0,1,38.45,52h-2.89A1.932,1.932,0,0,0,34.193,52.568Z" transform="translate(-2.01 -2.874)" fill="#fec108"/>
        <path id="Trazado_1016128" data-name="Trazado 1016128" d="M52.89,12H50a5.78,5.78,0,0,1,5.78,5.78V44.751A5.78,5.78,0,0,1,50,50.53h2.89a5.78,5.78,0,0,0,5.78-5.78V17.78A5.78,5.78,0,0,0,52.89,12Z" transform="translate(-2.8 -1.404)" fill="#fec108"/>
        <path id="Trazado_1016129" data-name="Trazado 1016129" d="M46.834,24.348,33.386,3.243a4.839,4.839,0,0,0-8.168,0l-13.447,21.1a4.861,4.861,0,0,0,4.084,7.477H42.749a4.861,4.861,0,0,0,4.084-7.477Z" transform="translate(-1.368 -1)" fill="#f44335"/>
        <path id="Trazado_1016130" data-name="Trazado 1016130" d="M47.476,24.349,34.029,3.244A4.826,4.826,0,0,0,28.5,1.227a4.775,4.775,0,0,1,2.639,2.016L44.586,24.349A4.86,4.86,0,0,1,40.5,31.824h2.89a4.86,4.86,0,0,0,4.084-7.476Z" transform="translate(-2.01 -1)" fill="#c81e1e"/>
        <g id="Grupo_1171678" data-name="Grupo 1171678" transform="translate(25.045 5.78)">
          <path id="Trazado_1016131" data-name="Trazado 1016131" d="M32.78,9.89c0,1.6-1.294,10.6-2.89,10.6S27,11.486,27,9.89a2.89,2.89,0,1,1,5.78,0Z" transform="translate(-27 -7)" fill="#ffdf00"/>
          <circle id="Elipse_11845" data-name="Elipse 11845" cx="1.927" cy="1.927" r="1.927" transform="translate(0.963 17.339)" fill="#ffdf00"/>
        </g>
      </g>
      <g id="Icons_copy" data-name="Icons copy" transform="translate(0 0)">
        <path id="Trazado_1016132" data-name="Trazado 1016132" d="M51.053,10.6H38.833L33.8,2.689a5.8,5.8,0,0,0-9.794,0L18.963,10.6H6.743A6.751,6.751,0,0,0,0,17.339V44.31a6.751,6.751,0,0,0,6.743,6.743H20.392a.975.975,0,0,1,.7.3l5.764,5.592a2.864,2.864,0,0,0,4.073.014l5.79-5.614a.963.963,0,0,1,.687-.289H51.053A6.751,6.751,0,0,0,57.8,44.31V17.339A6.751,6.751,0,0,0,51.053,10.6ZM25.623,3.724a3.875,3.875,0,0,1,6.542,0l13.447,21.1a3.9,3.9,0,0,1-3.267,6H15.451a3.9,3.9,0,0,1-3.275-6ZM55.869,44.31a4.822,4.822,0,0,1-4.816,4.816H37.4a2.867,2.867,0,0,0-2.038.84l-5.793,5.621a.952.952,0,0,1-1.36-.014l-5.768-5.6a2.875,2.875,0,0,0-2.052-.851H6.743A4.822,4.822,0,0,1,1.927,44.31V17.339a4.822,4.822,0,0,1,4.816-4.816H17.736l-7.182,11.27a5.825,5.825,0,0,0,4.9,8.958H42.345a5.825,5.825,0,0,0,4.9-8.958L40.06,12.522H51.053a4.822,4.822,0,0,1,4.816,4.816Z" transform="translate(0 0)"/>
        <path id="Trazado_1016133" data-name="Trazado 1016133" d="M29.853,21.412c3.019,0,3.853-11.444,3.853-11.559a3.853,3.853,0,1,0-7.706,0C26,9.969,26.834,21.412,29.853,21.412Zm0-13.486A1.927,1.927,0,0,1,31.78,9.853c0,1.668-1.012,7.727-1.927,9.367-.914-1.638-1.927-7.7-1.927-9.367a1.927,1.927,0,0,1,1.927-1.927Z" transform="translate(-0.955 -0.221)"/>
        <path id="Trazado_1016134" data-name="Trazado 1016134" d="M29.89,24a2.89,2.89,0,1,0,2.89,2.89A2.89,2.89,0,0,0,29.89,24Zm0,3.853a.963.963,0,1,1,.963-.963A.963.963,0,0,1,29.89,27.853Z" transform="translate(-0.992 -0.882)"/>
        <path id="Trazado_1016135" data-name="Trazado 1016135" d="M42.935,36H15.963a.963.963,0,1,0,0,1.927H42.935a.963.963,0,0,0,0-1.927Z" transform="translate(-0.551 -1.323)"/>
        <path id="Trazado_1016136" data-name="Trazado 1016136" d="M15.963,42.927H25.6A.963.963,0,1,0,25.6,41H15.963a.963.963,0,1,0,0,1.927Z" transform="translate(-0.551 -1.506)"/>
        <path id="Trazado_1016137" data-name="Trazado 1016137" d="M43.449,41H29.963a.963.963,0,1,0,0,1.927H43.449a.963.963,0,0,0,0-1.927Z" transform="translate(-1.065 -1.506)"/>
        <path id="Trazado_1016138" data-name="Trazado 1016138" d="M42.935,46H15.963a.963.963,0,0,0,0,1.927H42.935a.963.963,0,0,0,0-1.927Z" transform="translate(-0.551 -1.69)"/>
      </g>
    </g>
  </g>
</svg>
