<svg xmlns="http://www.w3.org/2000/svg" xmlns:xlink="http://www.w3.org/1999/xlink" width="110" height="110" viewBox="0 0 110 110">
  <defs>
    <filter id="Trazado_982547" x="0" y="0" width="110" height="110" filterUnits="userSpaceOnUse">
      <feOffset dy="3" input="SourceAlpha"/>
      <feGaussianBlur stdDeviation="3" result="blur"/>
      <feFlood flood-opacity="0.161"/>
      <feComposite operator="in" in2="blur"/>
      <feComposite in="SourceGraphic"/>
    </filter>
  </defs>
  <g id="Grupo_1171686" data-name="Grupo 1171686" transform="translate(-2050 -1256)">
    <g id="Grupo_1171421" data-name="Grupo 1171421" transform="translate(1249.299 -5673)">
      <g id="Grupo_1163801" data-name="Grupo 1163801" transform="translate(-0.299 2285)">
        <g id="Grupo_1163014" data-name="Grupo 1163014" transform="translate(1 306)">
          <g id="Grupo_1157015" data-name="Grupo 1157015" transform="translate(0 3549)">
            <g id="Grupo_1155792" data-name="Grupo 1155792" transform="translate(-1 -3894.666)">
              <g id="Grupo_1154703" data-name="Grupo 1154703" transform="translate(0 1465.666)">
                <g id="Grupo_1150789" data-name="Grupo 1150789" transform="translate(3 2320)">
                  <g id="Grupo_1154212" data-name="Grupo 1154212" transform="translate(-236 -5809)">
                    <g id="Grupo_1152583" data-name="Grupo 1152583" transform="translate(1043 6713)">
                      <g id="Grupo_1146973" data-name="Grupo 1146973" transform="translate(0 0)">
                        <g id="Grupo_1146954" data-name="Grupo 1146954">
                          <g transform="matrix(1, 0, 0, 1, -9, -6)" filter="url(#Trazado_982547)">
                            <g id="Trazado_982547-2" data-name="Trazado 982547" transform="translate(9 6)" fill="#e4f2f4">
                              <path d="M 46 90.49987030029297 C 39.99187850952148 90.49987030029297 34.16426849365234 89.32350921630859 28.67905426025391 87.00345611572266 C 23.38019943237305 84.76224517822266 18.62104034423828 81.55341339111328 14.53374671936035 77.46613311767578 C 10.44646644592285 73.37885284423828 7.237639904022217 68.61969757080078 4.996413230895996 63.32085418701172 C 2.676359891891479 57.83565521240234 1.5 52.008056640625 1.5 45.99993515014648 C 1.5 39.99181365966797 2.676359891891479 34.16421508789062 4.996413230895996 28.67901420593262 C 7.237639904022217 23.38017463684082 10.44646644592285 18.62101554870605 14.53374671936035 14.53373527526855 C 18.62104034423828 10.44645500183105 23.38019943237305 7.23762845993042 28.67905426025391 4.996415138244629 C 34.16426849365234 2.676361799240112 39.99187850952148 1.500001788139343 46 1.500001788139343 C 52.00812149047852 1.500001788139343 57.83573150634766 2.676361799240112 63.32094573974609 4.996415138244629 C 68.61979675292969 7.23762845993042 73.37895965576172 10.44645500183105 77.46625518798828 14.53373527526855 C 81.55353546142578 18.62101554870605 84.76235961914062 23.38017463684082 87.00358581542969 28.67901420593262 C 89.32363891601562 34.16421508789062 90.5 39.99181365966797 90.5 45.99993515014648 C 90.5 52.008056640625 89.32363891601562 57.83565521240234 87.00358581542969 63.32085418701172 C 84.76235961914062 68.61969757080078 81.55353546142578 73.37885284423828 77.46625518798828 77.46613311767578 C 73.37895965576172 81.55341339111328 68.61979675292969 84.76224517822266 63.32094573974609 87.00345611572266 C 57.83573150634766 89.32350921630859 52.00812149047852 90.49987030029297 46 90.49987030029297 Z" stroke="none"/>
                              <path d="M 46 2.999992370605469 C 40.1937141418457 2.999992370605469 34.56269836425781 4.136489868164062 29.26337051391602 6.377906799316406 C 24.14332580566406 8.543502807617188 19.54441070556641 11.64437866210938 15.59439849853516 15.59437561035156 C 11.64440155029297 19.54439544677734 8.54351806640625 24.14329528808594 6.377914428710938 29.26333618164062 C 4.136497497558594 34.56264877319336 3 40.19366455078125 3 45.99993515014648 C 3 51.80620574951172 4.136497497558594 57.43720626831055 6.377914428710938 62.73651885986328 C 8.54351806640625 67.8565673828125 11.64440155029297 72.45545959472656 15.59439849853516 76.40547943115234 C 19.54441070556641 80.35547637939453 24.14332580566406 83.45635223388672 29.26337051391602 85.6219482421875 C 34.56269836425781 87.86336517333984 40.1937141418457 88.99986267089844 46 88.99986267089844 C 51.8062858581543 88.99986267089844 57.43730163574219 87.86336517333984 62.73661422729492 85.6219482421875 C 67.85667419433594 83.45635223388672 72.45557403564453 80.35547637939453 76.40558624267578 76.40547943115234 C 80.35559844970703 72.45545959472656 83.45647430419922 67.8565673828125 85.6220703125 62.73651885986328 C 87.86350250244141 57.43720626831055 89 51.80620574951172 89 45.99993515014648 C 89 40.19366455078125 87.86350250244141 34.56264877319336 85.6220703125 29.26333618164062 C 83.45647430419922 24.14329528808594 80.35559844970703 19.54439544677734 76.40558624267578 15.59437561035156 C 72.45557403564453 11.64437866210938 67.85667419433594 8.543502807617188 62.73661422729492 6.377906799316406 C 57.43730163574219 4.136489868164062 51.8062858581543 2.999992370605469 46 2.999992370605469 M 46 -7.62939453125e-06 C 71.40509033203125 -7.62939453125e-06 92 20.59486389160156 92 45.99993515014648 C 92 71.40499114990234 71.40509033203125 91.99986267089844 46 91.99986267089844 C 20.59490203857422 91.99986267089844 0 71.40499114990234 0 45.99993515014648 C 0 20.59486389160156 20.59490203857422 -7.62939453125e-06 46 -7.62939453125e-06 Z" stroke="none" fill="#01899b"/>
                            </g>
                          </g>
                        </g>
                      </g>
                    </g>
                  </g>
                </g>
              </g>
            </g>
          </g>
        </g>
      </g>
    </g>
    <g id="customer-management" transform="translate(2065.998 1250.982)">
      <g id="Grupo_1171685" data-name="Grupo 1171685" transform="translate(7.957 32.976)">
        <g id="Grupo_1171680" data-name="Grupo 1171680" transform="translate(16.565 16.823)">
          <ellipse id="Elipse_11846" data-name="Elipse 11846" cx="17.493" cy="5.304" rx="17.493" ry="5.304" transform="translate(0)" fill="#a79ba7"/>
          <path id="Trazado_1016139" data-name="Trazado 1016139" d="M295.859,180.364q.3,0,.6,0c9.654,0,17.493,2.377,17.493,5.3s-7.838,5.3-17.493,5.3q-.3,0-.6,0c9.379-.1,16.9-2.434,16.9-5.3S305.238,180.459,295.859,180.364Z" transform="translate(-278.962 -180.361)" fill="#837683" fill-rule="evenodd"/>
        </g>
        <g id="Grupo_1171681" data-name="Grupo 1171681" transform="translate(0 28.696)">
          <path id="Trazado_1016140" data-name="Trazado 1016140" d="M44.106,287.478l10.333-5.986c1.94-1.124,3.911-1.922,6.045-1.23,2.376.772,6.257,2.426,10.215,3.139a2.871,2.871,0,0,1,1.987,3.438,2.782,2.782,0,0,1-3.441,1.987l1.386.221a6.423,6.423,0,0,0,4.428-.772l9.935-5.786c7.724-4.5,8.857,2.423,6.291,4L73.252,297.6a6.618,6.618,0,0,1-5.353.754l-13.077-3.5-4.846,2.8a1.957,1.957,0,0,1-2.666-.716l-3.918-6.783A1.959,1.959,0,0,1,44.106,287.478Z" transform="translate(-39.783 -280.005)" fill="#f6dccd" fill-rule="evenodd"/>
          <path id="Trazado_1016141" data-name="Trazado 1016141" d="M44.106,287.478l10.333-5.986c1.94-1.124,3.911-1.922,6.045-1.23,1.271.411,2.974,1.078,4.886,1.716l-20.019,11.56-1.959-3.395A1.959,1.959,0,0,1,44.106,287.478Z" transform="translate(-39.783 -280.005)" fill="#f1cbbc" fill-rule="evenodd"/>
          <path id="Trazado_1016142" data-name="Trazado 1016142" d="M20.537,312.254l8.2,14.481a1.469,1.469,0,0,1-.551,1.993l-2.79,1.579a1.469,1.469,0,0,1-1.993-.554l-8.194-14.481a1.463,1.463,0,0,1,.551-1.993l2.787-1.579A1.467,1.467,0,0,1,20.537,312.254Z" transform="translate(-15.015 -307.758)" fill="#d1d1d6" fill-rule="evenodd"/>
          <path id="Trazado_1016143" data-name="Trazado 1016143" d="M53.079,322.2l1.448,2.563,1.436,2.535a1.466,1.466,0,0,1-.548,1.99l1-.564a1.469,1.469,0,0,0,.551-1.993l-1.439-2.544-2.89-5.107-2.893-5.111-.975-1.719a1.468,1.468,0,0,0-1.7-.679l1.685,2.977,2.89,5.107,1.439,2.541Z" transform="translate(-43.244 -307.757)" fill="#b1b1b5" fill-rule="evenodd"/>
        </g>
        <g id="Grupo_1171682" data-name="Grupo 1171682" transform="translate(37.17 0)">
          <path id="Trazado_1016144" data-name="Trazado 1016144" d="M326.985,133.655a.415.415,0,0,0,.411.476c2.731,0,16.455,0,19.186,0a.416.416,0,0,0,.412-.477,10.126,10.126,0,0,0-20.008,0Z" transform="translate(-326.981 -114.858)" fill="#8ac9fe" fill-rule="evenodd"/>
          <path id="Trazado_1016145" data-name="Trazado 1016145" d="M414.173,134.131a.416.416,0,0,0,.412-.477,10.128,10.128,0,0,0-9.324-8.535q.337-.023.681-.023a10.127,10.127,0,0,1,10,8.558.416.416,0,0,1-.412.477Z" transform="translate(-395.934 -114.858)" fill="#60b7ff" fill-rule="evenodd"/>
          <path id="Trazado_1016146" data-name="Trazado 1016146" d="M373.147,49.4a5.119,5.119,0,1,0-5.117-5.119A5.128,5.128,0,0,0,373.147,49.4Z" transform="translate(-363.139 -39.164)" fill="#f6dccd" fill-rule="evenodd"/>
          <path id="Trazado_1016147" data-name="Trazado 1016147" d="M408.118,49.391a5.119,5.119,0,0,0,0-10.216q.169-.011.34-.011a5.119,5.119,0,1,1,0,10.239q-.171,0-.34-.011Z" transform="translate(-398.451 -39.164)" fill="#f1cbbc" fill-rule="evenodd"/>
        </g>
        <g id="Grupo_1171683" data-name="Grupo 1171683" transform="translate(10.929 0)">
          <path id="Trazado_1016148" data-name="Trazado 1016148" d="M106.742,133.655a.415.415,0,0,0,.411.476c2.731,0,16.455,0,19.186,0a.416.416,0,0,0,.412-.477,10.126,10.126,0,0,0-20.008,0Z" transform="translate(-106.738 -114.858)" fill="#8ac9fe" fill-rule="evenodd"/>
          <path id="Trazado_1016149" data-name="Trazado 1016149" d="M193.93,134.131a.416.416,0,0,0,.412-.477,10.128,10.128,0,0,0-9.324-8.535q.337-.023.681-.023a10.127,10.127,0,0,1,10,8.558.416.416,0,0,1-.412.477Z" transform="translate(-175.691 -114.858)" fill="#60b7ff" fill-rule="evenodd"/>
          <path id="Trazado_1016150" data-name="Trazado 1016150" d="M152.9,49.4a5.119,5.119,0,1,0-5.117-5.119A5.129,5.129,0,0,0,152.9,49.4Z" transform="translate(-142.897 -39.164)" fill="#f6dccd" fill-rule="evenodd"/>
          <path id="Trazado_1016151" data-name="Trazado 1016151" d="M187.875,49.391a5.119,5.119,0,0,0,0-10.216q.169-.011.34-.011a5.119,5.119,0,1,1,0,10.239q-.171,0-.34-.011Z" transform="translate(-178.208 -39.164)" fill="#f1cbbc" fill-rule="evenodd"/>
        </g>
        <g id="Grupo_1171684" data-name="Grupo 1171684" transform="translate(24.049 2.374)">
          <path id="Trazado_1016152" data-name="Trazado 1016152" d="M216.863,153.577a.415.415,0,0,0,.411.476c2.732,0,16.455,0,19.186,0a.416.416,0,0,0,.412-.477,10.126,10.126,0,0,0-20.008,0Z" transform="translate(-216.859 -134.78)" fill="#ffe177" fill-rule="evenodd"/>
          <path id="Trazado_1016153" data-name="Trazado 1016153" d="M304.052,154.053a.416.416,0,0,0,.412-.477,10.128,10.128,0,0,0-9.324-8.535q.337-.023.681-.023a10.127,10.127,0,0,1,10,8.558.416.416,0,0,1-.412.477Z" transform="translate(-285.813 -134.78)" fill="#ffd064" fill-rule="evenodd"/>
          <path id="Trazado_1016154" data-name="Trazado 1016154" d="M263.026,69.326a5.119,5.119,0,1,0-5.117-5.119A5.128,5.128,0,0,0,263.026,69.326Z" transform="translate(-253.018 -59.087)" fill="#f6dccd" fill-rule="evenodd"/>
          <path id="Trazado_1016155" data-name="Trazado 1016155" d="M298,69.314A5.119,5.119,0,0,0,298,59.1q.169-.011.34-.011a5.119,5.119,0,0,1,0,10.239Q298.166,69.326,298,69.314Z" transform="translate(-288.33 -59.087)" fill="#f1cbbc" fill-rule="evenodd"/>
        </g>
      </g>
      <path id="Trazado_1016156" data-name="Trazado 1016156" d="M21.656,78.651l.806,1.424v0a2.42,2.42,0,0,1-.913,3.284l-2.778,1.575,0,0a2.42,2.42,0,0,1-3.284-.913L7.315,69.588A2.416,2.416,0,0,1,8.223,66.3L11,64.726h0a2.422,2.422,0,0,1,3.285.91v0l.658,1.162,7.3-4.228c2.179-1.26,4.406-2.085,6.8-1.308,2.34.759,6.16,2.394,10.059,3.1a.948.948,0,0,1,.124.031,3.809,3.809,0,0,1,2.6,4.584,4.23,4.23,0,0,1-.36.917,5.413,5.413,0,0,0,1.328-.558l9.906-5.77c3.563-2.076,5.937-1.857,7.282-.955a4.079,4.079,0,0,1-.032,6.582L41.987,80.261a7.516,7.516,0,0,1-6.083.865h0L23.244,77.733ZM15.888,68.459l4.829,8.533,1.916-1.107a.953.953,0,0,1,.723-.1L36.4,79.284a5.67,5.67,0,0,0,4.591-.645h0L58.963,67.57a1.879,1.879,0,0,0,.77-1.477,1.941,1.941,0,0,0-1.5-2.184c-1.054-.221-2.538.128-4.558,1.3l-9.906,5.769a7.347,7.347,0,0,1-5.047.889h0l-1.228-.2h0l-.038-.007h0c-2.235-.459-4.308-1.134-6.608-1.752a.953.953,0,0,1,.495-1.841c2.248.6,4.275,1.267,6.458,1.718A1.844,1.844,0,0,0,40,68.483h0a1.906,1.906,0,0,0-1.3-2.257,74.432,74.432,0,0,1-10.239-3.149h0c-1.86-.6-3.563.166-5.256,1.145Zm-3.255-1.881h0a.51.51,0,0,0-.69-.192L9.162,67.959h0a.505.505,0,0,0-.188.688h0l8.17,14.437h0a.508.508,0,0,0,.69.19L20.61,81.7h0a.509.509,0,0,0,.19-.69Zm-1.07,1.534a1.153,1.153,0,1,1-.976,1.306,1.153,1.153,0,0,1,.976-1.306Zm12.795-14.9H18.885a.953.953,0,0,1-.948-1.055,11.037,11.037,0,0,1,7.259-9.2,6.043,6.043,0,1,1,7.4,0,11.032,11.032,0,0,1,4.422,2.934,10.937,10.937,0,0,1,1.3-.561,6.043,6.043,0,1,1,7.4,0,10.958,10.958,0,0,1,1.3.561,11.033,11.033,0,0,1,4.422-2.935,6.043,6.043,0,1,1,7.4,0,11.03,11.03,0,0,1,7.257,9.2.953.953,0,0,1-.948,1.054H59.672q.049.057.095.115a2.927,2.927,0,0,1,.694,1.84c0,1.143-.8,2.31-2.426,3.26-3,1.756-9.049,3-16.02,3S29,60.182,26,58.426c-1.624-.949-2.426-2.117-2.426-3.26a2.926,2.926,0,0,1,.694-1.84Q24.309,53.268,24.358,53.211Zm4.536-8.984A9.119,9.119,0,0,0,20.009,51.3h11.9a11.066,11.066,0,0,1,3.454-4.38A9.087,9.087,0,0,0,28.894,44.227Zm0-1.906a4.138,4.138,0,1,0-4.135-4.138A4.145,4.145,0,0,0,28.894,42.321ZM42.015,46.6a9.119,9.119,0,0,0-8.886,7.078H50.9A9.116,9.116,0,0,0,42.015,46.6Zm6.649.324a11.059,11.059,0,0,1,3.454,4.38h11.9a9.115,9.115,0,0,0-15.358-4.38Zm4.086,6.286a11,11,0,0,1,.223,1.319.953.953,0,0,1-.948,1.054H32.005a.953.953,0,0,1-.948-1.055,11,11,0,0,1,.223-1.319H27.6A6.1,6.1,0,0,0,25.949,54.3a1.29,1.29,0,0,0-.473.868,1.406,1.406,0,0,0,.581.971,7.68,7.68,0,0,0,2.207,1.28c3.1,1.283,8.109,2.1,13.751,2.1s10.65-.817,13.751-2.1a7.68,7.68,0,0,0,2.207-1.28,1.406,1.406,0,0,0,.581-.971,1.29,1.29,0,0,0-.473-.868,6.105,6.105,0,0,0-1.652-1.087ZM42.015,44.694a4.138,4.138,0,1,0-4.135-4.138A4.145,4.145,0,0,0,42.015,44.694Zm13.121-2.374A4.138,4.138,0,1,0,51,38.183,4.145,4.145,0,0,0,55.136,42.321Z" transform="translate(0)" fill-rule="evenodd"/>
    </g>
  </g>
</svg>
