<svg xmlns="http://www.w3.org/2000/svg" xmlns:xlink="http://www.w3.org/1999/xlink" width="295" height="273" viewBox="0 0 295 273">
  <defs>
    <clipPath id="clip-path">
      <rect id="Rectángulo_414365" data-name="Rectángulo 414365" width="295" height="273" transform="translate(914.514 6284)" fill="#fff" stroke="#707070" stroke-width="1" opacity="0.71"/>
    </clipPath>
  </defs>
  <g id="Enmascarar_grupo_1098796" data-name="Enmascarar grupo 1098796" transform="translate(-914.514 -6284)" clip-path="url(#clip-path)">
    <g id="OBJECTS" transform="translate(-801.961 5705.429)">
      <g id="Grupo_1171839" data-name="Grupo 1171839" transform="translate(1722.045 591.849)">
        <g id="Grupo_1171812" data-name="Grupo 1171812" transform="translate(110.798 9.638)">
          <path id="Trazado_1016689" data-name="Trazado 1016689" d="M218.51,199.96c4.312,11.359,11.979,21.939,22.939,27.182a36.824,36.824,0,0,0,32.157-.646c-.258,30.741-1.117,58.1-1.4,90.518q2.1.4,4.22.694l-.462,29.852h81.7c-.223-10.861-.586-22-1.018-33.269,1.607-.265,3.214-.555,4.819-.9q-.273-12.527-.777-25.048a64.15,64.15,0,0,0,17.982-41.173c.925-15.889-3.832-31.919-12.553-45.233a69.8,69.8,0,0,0-17.238-18.389,57.564,57.564,0,0,0-4.937-3.2,53.1,53.1,0,0,0-10.238-4.548l0-.012c-.115-.037-.23-.069-.345-.105-.183-.057-.367-.112-.55-.167q-.656-.2-1.316-.374A48.987,48.987,0,0,0,326.263,174c0,.006,0,.012,0,.018a46,46,0,0,0-7.835-.582q-.058-4.588-.117-9.176a19.092,19.092,0,0,0,10.138-4.866,17.568,17.568,0,0,0,4.129-6.686,10.119,10.119,0,0,0,5.993,2.054,2.46,2.46,0,0,0,.683,1.531,2.49,2.49,0,0,0,4.117-2.567A12.454,12.454,0,0,0,350.5,140.6a11.119,11.119,0,0,0-5-7.436,14.546,14.546,0,0,0,2.934-1.194,19.317,19.317,0,0,0,8.08-9.075,17.1,17.1,0,0,0,1.583-10.018,12.87,12.87,0,0,0-24.368-3.152,30.785,30.785,0,0,0-13-8.308c-6.033-2.052-12.839-2.485-18.681.06s-10.4,8.468-10.189,14.836a13.032,13.032,0,0,0-8.411,9.194,13.452,13.452,0,0,0,1.958,10.207,6.16,6.16,0,0,0-1.284.923,9.42,9.42,0,0,0-2.436,8.159,10.11,10.11,0,0,0,2.259,5.186,2.17,2.17,0,0,0-.26.229,2.5,2.5,0,0,0,3.546,3.519,2.536,2.536,0,0,0,.737-1.448,5.923,5.923,0,0,0,3.007-.249,18.034,18.034,0,0,0,6.935,9.379,22.453,22.453,0,0,0,10.606,3.229q-.053,4.256-.107,8.511a40.392,40.392,0,0,0-8.451.606.084.084,0,0,0,0-.013l-.167.029c-.41.075-.817.163-1.224.25l-.069.013-.027.006c-.465.1-.927.212-1.386.328-.137.034-.275.061-.41.1v.005a41.769,41.769,0,0,0-9.811,3.988c-1.207.679-2.379,1.414-3.531,2.181-3.885,2.589-7.536,5.548-11.506,8.013-5.148,3.194-11.174,6.168-17.172,5.311-6.886-.985-12.585-6.754-15.976-12.828s-5.227-14.727-6.236-19.823c-.313-1.585-.665-3.4-1.043-5.377-.856-4.478-1.845-9.76-2.822-14.956-.671-3.57-1.337-7.1-1.95-10.3-.139-.726-.416-1.6-1.14-1.743-.992-.2-1.538,1.107-1.657,2.111a47.973,47.973,0,0,0-.318,6.064l-11.829.756a189.4,189.4,0,0,0,3.862,24.158c-1.355.7-2.7,1.447-4.022,2.264C212.844,176.371,214.2,188.6,218.51,199.96Z" transform="translate(-206 -96.817)" fill="#2e2854" opacity="0.15"/>
          <g id="Grupo_1171801" data-name="Grupo 1171801" transform="translate(0 38.69)">
            <g id="Grupo_1171793" data-name="Grupo 1171793" transform="translate(69.208 34.967)">
              <path id="Trazado_1016690" data-name="Trazado 1016690" d="M358.139,206.01a49.966,49.966,0,0,0-5.953-1.42h0l-13.655,4.93-15.617-4.742c-.609.141-1.216.29-1.817.458L304.782,321.822a89.035,89.035,0,0,0,34.442,7.375c25.934,0,42.626-8,42.626-8Z" transform="translate(-304.782 -203.731)" fill="#fff"/>
              <path id="Trazado_1016691" data-name="Trazado 1016691" d="M360.607,204.191a45.053,45.053,0,0,0-13.812-.361,40.443,40.443,0,0,0-15.461.548c2.278,5.976,8.721,10.748,15.369,10.522A15.694,15.694,0,0,0,360.607,204.191Z" transform="translate(-313.202 -203.333)" fill="#e8614e"/>
              <g id="Grupo_1171792" data-name="Grupo 1171792" transform="translate(0.754 17.747)">
                <path id="Trazado_1016692" data-name="Trazado 1016692" d="M316.087,290.678l-1.274,9.107,60-1.3-1.861-9.039Z" transform="translate(-308.717 -248.388)" fill="#f2d3e8"/>
                <path id="Trazado_1016693" data-name="Trazado 1016693" d="M320.336,260.25l-1.276,9.119,52.808-1.442-1.859-9.034Z" transform="translate(-310.064 -238.7)" fill="#f2d3e8"/>
                <path id="Trazado_1016694" data-name="Trazado 1016694" d="M378,331.29l-1.858-9.026c-21.424.6-43.07.866-64.554.778l-1.269,9.069q4.686.022,9.383.023C339.139,332.134,358.662,331.844,378,331.29Z" transform="translate(-307.293 -258.797)" fill="#f2d3e8"/>
                <path id="Trazado_1016695" data-name="Trazado 1016695" d="M324.433,230.872l-1.278,9.138,45.853-1.664-1.858-9.024Z" transform="translate(-311.363 -229.322)" fill="#f2d3e8"/>
                <path id="Trazado_1016696" data-name="Trazado 1016696" d="M378.225,362.313a12.813,12.813,0,0,0,2.667-.326l-1.79-8.694a13.31,13.31,0,0,0-1.35-.05l-70.593,1.234-1.274,9.1Z" transform="translate(-305.886 -268.621)" fill="#f2d3e8"/>
              </g>
              <path id="Trazado_1016697" data-name="Trazado 1016697" d="M324.673,209.7l-4.418,3.176-15.472,110.57a88.816,88.816,0,0,0,23.436,6.584C327.7,296.028,326.5,230.489,324.673,209.7Z" transform="translate(-304.782 -205.351)" fill="#2e2854" opacity="0.15"/>
              <path id="Trazado_1016698" data-name="Trazado 1016698" d="M373.577,330.564c18.39-1.928,29.656-7.319,29.656-7.319L380.171,211.209l-7.893-.171C371.92,231.663,372.99,297.439,373.577,330.564Z" transform="translate(-326.164 -205.776)" fill="#2e2854" opacity="0.15"/>
            </g>
            <g id="Grupo_1171794" data-name="Grupo 1171794" transform="translate(67.36 152.435)">
              <path id="Trazado_1016699" data-name="Trazado 1016699" d="M383.895,434.972c-.622-19.221-1.76-39.414-2.9-59.618-26.874.97-52.221,1.2-78.874.582l-.042,59.036Z" transform="translate(-302.076 -375.354)" fill="#5767bf"/>
              <path id="Trazado_1016700" data-name="Trazado 1016700" d="M347.441,398.146q-.057,5.9-.113,11.8a5.051,5.051,0,0,0,.364,2.382,3.394,3.394,0,0,0,2.212,1.607c.908.236,1.862.214,2.742.4a226.029,226.029,0,0,0,1.1,27.859" transform="translate(-316.426 -382.582)" fill="none" stroke="#2e2854" stroke-linecap="round" stroke-linejoin="round" stroke-miterlimit="10" stroke-width="1"/>
              <path id="Trazado_1016701" data-name="Trazado 1016701" d="M403.816,375.355c-10.089.364-19.962.623-29.77.773.268,15.432.471,26,.471,26a107.388,107.388,0,0,0,30.758-.2C404.818,393.125,404.319,384.243,403.816,375.355Z" transform="translate(-324.9 -375.354)" fill="#2e2854" opacity="0.15"/>
              <path id="Trazado_1016702" data-name="Trazado 1016702" d="M302.106,406.483c4.224.24,15.481.486,25.554-2.731,0,0-.131-11.1-.388-27.219-8.312-.029-16.659-.13-25.145-.326Z" transform="translate(-302.086 -375.625)" fill="#2e2854" opacity="0.15"/>
            </g>
            <g id="Grupo_1171797" data-name="Grupo 1171797">
              <path id="Trazado_1016703" data-name="Trazado 1016703" d="M220.372,156.118c1.054,5.182,2.12,10.449,3.042,14.913l-14.762,10.287a189.42,189.42,0,0,1-5.219-28.061l14.366-1.13Z" transform="translate(-203.433 -152.127)" fill="#e8614e"/>
              <g id="Grupo_1171795" data-name="Grupo 1171795" transform="translate(0.23 18.905)">
                <path id="Trazado_1016704" data-name="Trazado 1016704" d="M275.812,203.748c-3.847,2.645-7.454,5.659-11.387,8.181-5.1,3.27-11.082,6.333-17.092,5.563-6.9-.884-12.683-6.568-16.163-12.591s-5.444-14.648-6.528-19.729c-.337-1.58-.716-3.393-1.122-5.361a77.372,77.372,0,0,0-19.751,8.646c1.5,12.057,3.031,24.266,7.509,35.56s12.3,21.76,23.337,26.841a36.686,36.686,0,0,0,37.453-4.606Z" transform="translate(-203.77 -179.811)" fill="#208da8"/>
                <path id="Trazado_1016705" data-name="Trazado 1016705" d="M236.975,253.747c-13.842-3.077-23.307-18.616-28.047-28.537a88.2,88.2,0,0,0,3.986,13.2c4.478,11.295,12.3,21.76,23.337,26.841A36.686,36.686,0,0,0,273.7,260.65l-5.46-11.8S257.634,258.339,236.975,253.747Z" transform="translate(-205.406 -194.208)" fill="#2e2854" opacity="0.15"/>
              </g>
              <g id="Grupo_1171796" data-name="Grupo 1171796" transform="translate(63.068 35.698)">
                <path id="Trazado_1016706" data-name="Trazado 1016706" d="M295.79,242.251c.512,37.269-.141,68.133.085,105.815a65.228,65.228,0,0,0,26.527-.322,1246.8,1246.8,0,0,0-.886-143.341l-.167.032a41.552,41.552,0,0,0-12.858,4.878c-1.2.7-2.358,1.449-3.5,2.233Z" transform="translate(-295.79 -204.403)" fill="#208da8"/>
                <path id="Trazado_1016707" data-name="Trazado 1016707" d="M295.79,242.251c.512,37.269-.141,68.133.085,105.815a65.228,65.228,0,0,0,26.527-.322,1246.8,1246.8,0,0,0-.886-143.341" transform="translate(-295.79 -204.403)" fill="none" stroke="#2e2854" stroke-linecap="round" stroke-linejoin="round" stroke-miterlimit="10" stroke-width="1"/>
                <path id="Trazado_1016708" data-name="Trazado 1016708" d="M330.492,312.012a763.143,763.143,0,0,1-13.409-82.368l4.49-8.256s-4.295-6.937-4.228-6.744a57.276,57.276,0,0,1,6.386-8.407" transform="translate(-302.543 -204.985)" fill="none" stroke="#2e2854" stroke-linecap="round" stroke-linejoin="round" stroke-miterlimit="10" stroke-width="1"/>
              </g>
            </g>
            <g id="Grupo_1171800" data-name="Grupo 1171800" transform="translate(115.097 35.566)">
              <g id="Grupo_1171798" data-name="Grupo 1171798" transform="translate(22.759 9.219)">
                <path id="Trazado_1016709" data-name="Trazado 1016709" d="M405.31,217.71a69.8,69.8,0,0,1,17.507,18.133c8.917,13.184,13.909,29.142,13.218,45.043s-7.234,31.631-18.64,42.733Z" transform="translate(-405.31 -217.71)" fill="#208da8"/>
                <path id="Trazado_1016710" data-name="Trazado 1016710" d="M413.714,255.054l-3.175,5.79,8.515,74.618c11.405-11.1,17.949-26.831,18.64-42.733.077-1.783.073-3.567.01-5.347-5.7,12.8-13.523,14.59-13.523,14.59Z" transform="translate(-406.968 -229.553)" fill="#2e2854" opacity="0.15"/>
              </g>
              <g id="Grupo_1171799" data-name="Grupo 1171799">
                <path id="Trazado_1016711" data-name="Trazado 1016711" d="M401.487,238.93q5.843,51.9,7.752,104.142a107.334,107.334,0,0,1-31.359,2.411c-1.356-46.846-3.619-94.057-5.9-141.274a51.837,51.837,0,0,1,17.775,6.086,57.73,57.73,0,0,1,4.984,3.132Z" transform="translate(-371.982 -204.21)" fill="#208da8"/>
                <path id="Trazado_1016712" data-name="Trazado 1016712" d="M401.487,238.93q5.843,51.9,7.752,104.142a107.334,107.334,0,0,1-31.359,2.411c-1.356-46.846-3.619-94.057-5.9-141.274" transform="translate(-371.982 -204.21)" fill="none" stroke="#2e2854" stroke-linecap="round" stroke-linejoin="round" stroke-miterlimit="10" stroke-width="1"/>
                <path id="Trazado_1016713" data-name="Trazado 1016713" d="M378.984,312.468a762.862,762.862,0,0,0,7.991-85.283l-5.052-7.925s3.8-7.219,3.75-7.021a57.233,57.233,0,0,0-5-6" transform="translate(-374.203 -204.853)" fill="none" stroke="#2e2854" stroke-linecap="round" stroke-linejoin="round" stroke-miterlimit="10" stroke-width="1"/>
              </g>
            </g>
          </g>
          <g id="Grupo_1171811" data-name="Grupo 1171811" transform="translate(69.96)">
            <g id="Grupo_1171802" data-name="Grupo 1171802" transform="translate(50.841)">
              <path id="Trazado_1016714" data-name="Trazado 1016714" d="M384.289,129.238a13.511,13.511,0,0,0,11.894-.839,19.322,19.322,0,0,0,7.946-9.193,17.1,17.1,0,0,0,1.435-10.04,13.33,13.33,0,0,0-11.812-10.429c-5.633-.39-11.3,3.362-13.418,9.558C381.572,115.366,382.808,122.438,384.289,129.238Z" transform="translate(-380.335 -96.497)" fill="#654687"/>
              <path id="Trazado_1016715" data-name="Trazado 1016715" d="M381.1,95.469a22.816,22.816,0,0,0,.591,10.673" transform="translate(-380.46 -95.469)" fill="none" stroke="#654687" stroke-linecap="round" stroke-linejoin="round" stroke-miterlimit="10" stroke-width="1"/>
              <path id="Trazado_1016716" data-name="Trazado 1016716" d="M390.607,143.847a15.261,15.261,0,0,0,11.16.8" transform="translate(-383.592 -110.811)" fill="none" stroke="#654687" stroke-linecap="round" stroke-linejoin="round" stroke-miterlimit="10" stroke-width="1"/>
              <path id="Trazado_1016717" data-name="Trazado 1016717" d="M382.136,107.492a15.008,15.008,0,0,0-1.8,3.588c1.237,7.071,2.473,14.142,3.955,20.943a12.943,12.943,0,0,0,8.863.432A35.528,35.528,0,0,0,382.136,107.492Z" transform="translate(-380.335 -99.282)" fill="#2e2854" opacity="0.15"/>
            </g>
            <g id="Grupo_1171803" data-name="Grupo 1171803" transform="translate(27.244 56.916)">
              <path id="Trazado_1016718" data-name="Trazado 1016718" d="M345.779,180.039q.019,9.289.04,18.579s10.223-.282,10.072-.661q-.263-9.57-.526-19.14Z" transform="translate(-345.779 -178.817)" fill="#e8614e"/>
              <path id="Trazado_1016719" data-name="Trazado 1016719" d="M355.651,189.209q-.142-5.2-.286-10.391l-9.586,1.222q.01,4.908.021,9.816A22.853,22.853,0,0,0,355.651,189.209Z" transform="translate(-345.779 -178.817)" fill="#d15046"/>
            </g>
            <path id="Trazado_1016720" data-name="Trazado 1016720" d="M362.044,138.771a38.078,38.078,0,0,0,3.033-15.86,27.792,27.792,0,0,0-5.048-15.221,29.679,29.679,0,0,0-14.977-10.365c-6.062-1.963-12.874-2.3-18.678.335s-10.279,8.621-9.97,14.984a13.03,13.03,0,0,0-8.274,9.317,13.533,13.533,0,0,0,3.439,11.843,66.232,66.232,0,0,0,18.765,7.512,49.206,49.206,0,0,0,15.008,1.3C350.366,142.215,355.351,140.807,362.044,138.771Z" transform="translate(-306.511 -95.565)" fill="#654687"/>
            <g id="Grupo_1171804" data-name="Grupo 1171804" transform="translate(0 35.709)">
              <path id="Trazado_1016721" data-name="Trazado 1016721" d="M316.362,149.014c-2.2-1.961-5.909-1.5-8.024.555a10.178,10.178,0,0,0,1.3,14.49,6.1,6.1,0,0,0,6.976.143Z" transform="translate(-305.883 -147.761)" fill="#e8614e"/>
              <path id="Trazado_1016722" data-name="Trazado 1016722" d="M312.309,169.659a2.5,2.5,0,1,0,.14,3.73A2.527,2.527,0,0,0,312.309,169.659Z" transform="translate(-306.634 -154.535)" fill="#fff"/>
            </g>
            <g id="Grupo_1171806" data-name="Grupo 1171806" transform="translate(50.159 31.74)">
              <path id="Trazado_1016723" data-name="Trazado 1016723" d="M379.986,146.093a9.765,9.765,0,0,1,10.5-3.816,10.921,10.921,0,0,1,7.568,8.435,12.407,12.407,0,0,1-3.59,10.9,11.944,11.944,0,0,1-7.474,3.433,10.019,10.019,0,0,1-7.656-2.793Z" transform="translate(-379.336 -141.949)" fill="#e8614e"/>
              <path id="Trazado_1016724" data-name="Trazado 1016724" d="M393.609,172.3a2.5,2.5,0,1,0,.14,3.73A2.528,2.528,0,0,0,393.609,172.3Z" transform="translate(-382.576 -151.402)" fill="#fff"/>
              <g id="Grupo_1171805" data-name="Grupo 1171805" transform="translate(5.951 7.499)">
                <path id="Trazado_1016725" data-name="Trazado 1016725" d="M388.051,152.948a9.236,9.236,0,0,1,7.548,3.238" transform="translate(-388.051 -152.93)" fill="none" stroke="#2e2854" stroke-linecap="round" stroke-linejoin="round" stroke-miterlimit="10" stroke-width="1"/>
                <path id="Trazado_1016726" data-name="Trazado 1016726" d="M389.171,160.3a10,10,0,0,0,3.995-5.858" transform="translate(-388.406 -153.411)" fill="none" stroke="#2e2854" stroke-linecap="round" stroke-linejoin="round" stroke-miterlimit="10" stroke-width="1"/>
              </g>
            </g>
            <g id="Grupo_1171810" data-name="Grupo 1171810" transform="translate(8.275 21.086)">
              <path id="Trazado_1016727" data-name="Trazado 1016727" d="M361.423,140.161a52.173,52.173,0,0,1,.555,13,19.867,19.867,0,0,1-5.145,11.725c-4.49,4.545-11.371,5.767-17.758,5.632-4.432-.093-9.007-.78-12.742-3.166a18.771,18.771,0,0,1-7.9-12.31,29.9,29.9,0,0,1,1.306-14.819,55.149,55.149,0,0,1,7.084-13.872,12.069,12.069,0,0,0,7.2,6.791,13.44,13.44,0,0,0,9.7-.583,14.354,14.354,0,0,0,7.159,6.174C353.866,139.9,357.259,140.015,361.423,140.161Z" transform="translate(-318.001 -126.347)" fill="#e8614e"/>
              <path id="Trazado_1016728" data-name="Trazado 1016728" d="M375.247,172.681a5.218,5.218,0,0,0-.6-1.2,5.567,5.567,0,1,0-6.372,8.45,5.23,5.23,0,0,0,1.256.244,15.615,15.615,0,0,0,2.053-1.733A17.121,17.121,0,0,0,375.247,172.681Z" transform="translate(-332.752 -139.911)" fill="#d15046"/>
              <path id="Trazado_1016729" data-name="Trazado 1016729" d="M328,176.661a5.567,5.567,0,0,0-6.1-8.668,5.553,5.553,0,0,0-2.68,1.89,19.2,19.2,0,0,0,5.266,8.871A5.656,5.656,0,0,0,328,176.661Z" transform="translate(-318.39 -139.48)" fill="#d15046"/>
              <g id="Grupo_1171809" data-name="Grupo 1171809" transform="translate(3.942 13.551)">
                <g id="Grupo_1171807" data-name="Grupo 1171807" transform="translate(0 0.602)">
                  <path id="Trazado_1016730" data-name="Trazado 1016730" d="M323.774,147.269a34.459,34.459,0,0,0,1.659,3.162,9.051,9.051,0,0,1,8.345.6" transform="translate(-323.774 -147.135)" fill="none" stroke="#2e2854" stroke-linecap="round" stroke-linejoin="round" stroke-miterlimit="10" stroke-width="1"/>
                  <path id="Trazado_1016731" data-name="Trazado 1016731" d="M328.976,149.769l-.3-2.7" transform="translate(-325.329 -147.073)" fill="none" stroke="#2e2854" stroke-linecap="round" stroke-linejoin="round" stroke-miterlimit="10" stroke-width="1"/>
                  <path id="Trazado_1016732" data-name="Trazado 1016732" d="M332.788,148.326c-.076.576-.152,1.159-.221,1.735" transform="translate(-326.563 -147.47)" fill="none" stroke="#2e2854" stroke-linecap="round" stroke-linejoin="round" stroke-miterlimit="10" stroke-width="1"/>
                </g>
                <g id="Grupo_1171808" data-name="Grupo 1171808" transform="translate(24.893)">
                  <path id="Trazado_1016733" data-name="Trazado 1016733" d="M370.231,146.388a34.62,34.62,0,0,1-1.659,3.161,9.054,9.054,0,0,0-8.345.6" transform="translate(-360.227 -146.253)" fill="none" stroke="#2e2854" stroke-linecap="round" stroke-linejoin="round" stroke-miterlimit="10" stroke-width="1"/>
                  <path id="Trazado_1016734" data-name="Trazado 1016734" d="M369.538,148.887c.1-.9.2-1.793.3-2.7" transform="translate(-363.18 -146.191)" fill="none" stroke="#2e2854" stroke-linecap="round" stroke-linejoin="round" stroke-miterlimit="10" stroke-width="1"/>
                  <path id="Trazado_1016735" data-name="Trazado 1016735" d="M365.76,147.445c.076.576.152,1.159.221,1.735" transform="translate(-361.982 -146.589)" fill="none" stroke="#2e2854" stroke-linecap="round" stroke-linejoin="round" stroke-miterlimit="10" stroke-width="1"/>
                </g>
                <path id="Trazado_1016736" data-name="Trazado 1016736" d="M343.021,151.908c-.518,1.517-1.035,3.032-1.626,4.747a21.39,21.39,0,0,0,3.774-.371" transform="translate(-329.362 -148.004)" fill="none" stroke="#2e2854" stroke-linecap="round" stroke-linejoin="round" stroke-miterlimit="10" stroke-width="1"/>
                <path id="Trazado_1016737" data-name="Trazado 1016737" d="M341.377,166.389a20.288,20.288,0,0,0,14.27-4.106" transform="translate(-329.356 -151.294)" fill="none" stroke="#2e2854" stroke-linecap="round" stroke-linejoin="round" stroke-miterlimit="10" stroke-width="1"/>
              </g>
            </g>
          </g>
        </g>
        <g id="Grupo_1171829" data-name="Grupo 1171829" transform="translate(28.532 0)">
          <path id="Trazado_1016738" data-name="Trazado 1016738" d="M120.891,392.434l19.422.716h54.628a44.924,44.924,0,0,0,14.9-7.742c11.138-9.014,16.264-23.815,16.883-38.13,1.217-28.165-14.185-56.433-38.291-70.2l9.142-29.836a2.694,2.694,0,0,0-1.259-2.816,6.855,6.855,0,0,0-3.34-.857,42.22,42.22,0,0,0-25.453,6.6c-2.419-.27-4.832-.567-7.229-.844-11.519-1.33-23.77-2.006-34.124,3.216a132.123,132.123,0,0,1,8.971,24.843c-13.506,3.679-25.132,13.039-32.734,24.793s-11.344,25.756-11.97,39.739c-.578,12.912,1.819,26.765,10.639,36.213A59.843,59.843,0,0,0,120.891,392.434Z" transform="translate(-85.308 -132.768)" fill="#2e2854" opacity="0.15"/>
          <g id="Grupo_1171816" data-name="Grupo 1171816" transform="translate(53.931 59.423)">
            <g id="Grupo_1171813" data-name="Grupo 1171813" transform="translate(0 11.538)">
              <path id="Trazado_1016739" data-name="Trazado 1016739" d="M162.227,185.27c9.861,13.347,15.733,30.622,14.872,47.057-8.131-2.923-13.438-12.3-14.628-20.862S162.5,194.173,162.227,185.27Z" transform="translate(-161.938 -185.27)" fill="#76c9bf"/>
              <path id="Trazado_1016740" data-name="Trazado 1016740" d="M169.681,212.273s1.375,17.23,9.873,28.618" transform="translate(-164.394 -193.833)" fill="none" stroke="#2e2854" stroke-linecap="round" stroke-linejoin="round" stroke-miterlimit="10" stroke-width="1"/>
              <path id="Trazado_1016741" data-name="Trazado 1016741" d="M180.927,252.053c.068-1.307.089-2.62.074-3.935-2.3-.134-4.654-.341-6.991-.648A18.5,18.5,0,0,0,180.927,252.053Z" transform="translate(-165.767 -204.995)" fill="#2e2854" opacity="0.15"/>
            </g>
            <path id="Trazado_1016742" data-name="Trazado 1016742" d="M182.709,234.744a37.731,37.731,0,0,1,52.055-37.3" transform="translate(-168.502 -176.717)" fill="none" stroke="#2e2854" stroke-linecap="round" stroke-linejoin="round" stroke-miterlimit="10" stroke-width="1"/>
            <g id="Grupo_1171815" data-name="Grupo 1171815" transform="translate(48.527)">
              <path id="Trazado_1016743" data-name="Trazado 1016743" d="M282.286,183.29a25.894,25.894,0,1,0,1.528,30.989A26.606,26.606,0,0,0,282.286,183.29Z" transform="translate(-234.096 -170.164)" fill="#2e2854" opacity="0.15"/>
              <path id="Trazado_1016744" data-name="Trazado 1016744" d="M278.837,177.646a25.894,25.894,0,1,0,1.528,30.989A26.606,26.606,0,0,0,278.837,177.646Z" transform="translate(-233.002 -168.374)" fill="#f7a145"/>
              <path id="Trazado_1016745" data-name="Trazado 1016745" d="M275.578,183.2a19.568,19.568,0,1,0,3.316,23.392A19.828,19.828,0,0,0,275.578,183.2Z" transform="translate(-235.932 -171.306)" fill="#ff8330"/>
              <g id="Grupo_1171814" data-name="Grupo 1171814" transform="translate(18.503 13.945)">
                <path id="Trazado_1016746" data-name="Trazado 1016746" d="M269.286,199.136q.6.223,1.205.477a10.827,10.827,0,0,1,1.153.57,7.029,7.029,0,0,1,1.021.71,4.058,4.058,0,0,1,.8.907,3.831,3.831,0,0,1,.492,1.156,4.656,4.656,0,0,1,.1,1.465,6.357,6.357,0,0,1-.569,2.262,5.631,5.631,0,0,1-1.34,1.816,6.215,6.215,0,0,1-2.045,1.211,7.907,7.907,0,0,1-2.686.451l-.266,1.581a1.043,1.043,0,0,1-1.118.863l-1.462-.1.441-2.626a11.219,11.219,0,0,1-2.759-1.049A8.386,8.386,0,0,1,260.1,207.2l1.354-1.7a1.27,1.27,0,0,1,.443-.337,1.126,1.126,0,0,1,.567-.109,1.4,1.4,0,0,1,.618.2c.208.122.431.267.673.434s.509.341.8.52a5,5,0,0,0,1,.464l.813-4.8q-.907-.321-1.8-.732a5.979,5.979,0,0,1-1.585-1.052,4.469,4.469,0,0,1-1.082-1.584,5.106,5.106,0,0,1-.3-2.316,4.969,4.969,0,0,1,.549-1.948,5.315,5.315,0,0,1,1.319-1.649,6.3,6.3,0,0,1,2.033-1.129,7.723,7.723,0,0,1,2.684-.386l.239-1.415a1.041,1.041,0,0,1,1.118-.864l1.462.1-.417,2.5a7.406,7.406,0,0,1,2.321,1,9.064,9.064,0,0,1,1.6,1.349l-1.075,1.357a1.662,1.662,0,0,1-.475.438.938.938,0,0,1-.543.11,1.344,1.344,0,0,1-.449-.128c-.171-.076-.356-.167-.555-.27s-.413-.214-.643-.328a6.651,6.651,0,0,0-.731-.315Zm-1.64-4.8a3.976,3.976,0,0,0-1.013.2,2.229,2.229,0,0,0-.686.378,1.558,1.558,0,0,0-.4.52,1.759,1.759,0,0,0-.159.627,1.632,1.632,0,0,0,.4,1.26,4.046,4.046,0,0,0,1.2.878Zm.324,12.583a2.192,2.192,0,0,0,2.279-2.176,1.524,1.524,0,0,0-.386-1.207,3.9,3.9,0,0,0-1.188-.811Z" transform="translate(-260.098 -188.795)" fill="#f7a145"/>
              </g>
              <path id="Trazado_1016747" data-name="Trazado 1016747" d="M282.556,219.326a26.217,26.217,0,0,0,4.16-17.239c-1.338,10.47-7.46,22.176-20.333,24.926-13.222,2.826-21.747-3.251-26.471-7.538a26.173,26.173,0,0,0,14.217,10.32A26.611,26.611,0,0,0,282.556,219.326Z" transform="translate(-235.194 -179.066)" fill="#2e2854" opacity="0.15"/>
              <path id="Trazado_1016748" data-name="Trazado 1016748" d="M250.2,170.025a26.579,26.579,0,0,0-15.049,15.91c2.548-5.016,7.677-12.675,19.133-15.024,7.941-1.628,16.093.477,23.253,4.652A26.7,26.7,0,0,0,250.2,170.025Z" transform="translate(-233.684 -168.376)" fill="#f5b878"/>
              <path id="Trazado_1016749" data-name="Trazado 1016749" d="M275.578,183.2a19.568,19.568,0,1,0,3.316,23.392A19.828,19.828,0,0,0,275.578,183.2Z" transform="translate(-235.932 -171.306)" fill="none" stroke="#2e2854" stroke-linecap="round" stroke-linejoin="round" stroke-miterlimit="10" stroke-width="1"/>
            </g>
          </g>
          <path id="Trazado_1016750" data-name="Trazado 1016750" d="M188.964,249.918a42.172,42.172,0,0,1,27.2-9.01,6.859,6.859,0,0,1,3.369.733,2.694,2.694,0,0,1,1.362,2.768,15.5,15.5,0,0,1-6.026,8.178C210.1,255.815,188.964,249.918,188.964,249.918Z" transform="translate(-116.578 -131.948)" fill="#58387a"/>
          <g id="Grupo_1171820" data-name="Grupo 1171820" transform="translate(0 38.68)">
            <g id="Grupo_1171817" data-name="Grupo 1171817" transform="translate(21.474 58.047)">
              <path id="Trazado_1016751" data-name="Trazado 1016751" d="M143.716,244.578a28.83,28.83,0,0,1-17.532-5.823c-4.993-3.793-8.681-9.273-11.775-15.334a25.218,25.218,0,0,1,18.931,4.09A25.573,25.573,0,0,1,143.716,244.578Z" transform="translate(-114.409 -223.003)" fill="#76c9bf"/>
              <path id="Trazado_1016752" data-name="Trazado 1016752" d="M128.925,230.806a141.275,141.275,0,0,0,18.926,16.16" transform="translate(-119.012 -225.477)" fill="none" stroke="#2e2854" stroke-linecap="round" stroke-linejoin="round" stroke-miterlimit="10" stroke-width="1"/>
              <path id="Trazado_1016753" data-name="Trazado 1016753" d="M150.844,251.865a27.508,27.508,0,0,0-1.629-5.884,40.841,40.841,0,0,0-12.329,2.364A28.86,28.86,0,0,0,150.844,251.865Z" transform="translate(-121.537 -230.29)" fill="#2e2854" opacity="0.15"/>
            </g>
            <path id="Trazado_1016754" data-name="Trazado 1016754" d="M134.527,194.467a83.293,83.293,0,0,1,20.681,44.384" transform="translate(-99.315 -155.906)" fill="none" stroke="#2e2854" stroke-linecap="round" stroke-linejoin="round" stroke-miterlimit="10" stroke-width="1"/>
            <g id="Grupo_1171819" data-name="Grupo 1171819">
              <path id="Trazado_1016755" data-name="Trazado 1016755" d="M130.391,145.51a25.894,25.894,0,1,0,9.744,29.457A26.6,26.6,0,0,0,130.391,145.51Z" transform="translate(-85.122 -138.955)" fill="#2e2854" opacity="0.15"/>
              <path id="Trazado_1016756" data-name="Trazado 1016756" d="M123.58,142.493a25.894,25.894,0,1,0,9.744,29.457A26.6,26.6,0,0,0,123.58,142.493Z" transform="translate(-82.962 -137.998)" fill="#f7a145"/>
              <path id="Trazado_1016757" data-name="Trazado 1016757" d="M121.241,149.584a19.568,19.568,0,1,0,9.44,21.659A19.829,19.829,0,0,0,121.241,149.584Z" transform="translate(-85.886 -140.913)" fill="#ff8330"/>
              <g id="Grupo_1171818" data-name="Grupo 1171818" transform="translate(18.859 13.485)">
                <path id="Trazado_1016758" data-name="Trazado 1016758" d="M118.861,168.068c.428.036.856.082,1.289.139a10.885,10.885,0,0,1,1.263.242,6.966,6.966,0,0,1,1.173.411,4.035,4.035,0,0,1,1.015.66,3.828,3.828,0,0,1,.783.983,4.64,4.64,0,0,1,.491,1.384,6.367,6.367,0,0,1,.056,2.331,5.619,5.619,0,0,1-.806,2.107,6.209,6.209,0,0,1-1.647,1.713,7.9,7.9,0,0,1-2.469,1.152l.166,1.595a1.043,1.043,0,0,1-.847,1.131l-1.436.292-.276-2.649a11.214,11.214,0,0,1-2.938-.274,8.4,8.4,0,0,1-2.518-.991l.852-2a1.272,1.272,0,0,1,.337-.443,1.131,1.131,0,0,1,.518-.256,1.393,1.393,0,0,1,.649.031c.233.063.486.143.764.239s.582.193.913.287a4.951,4.951,0,0,0,1.092.178l-.5-4.848q-.96-.068-1.93-.225a5.966,5.966,0,0,1-1.808-.591,4.465,4.465,0,0,1-1.465-1.238,5.118,5.118,0,0,1-.9-2.152,4.975,4.975,0,0,1,.009-2.023,5.323,5.323,0,0,1,.832-1.941,6.318,6.318,0,0,1,1.657-1.631,7.7,7.7,0,0,1,2.484-1.089l-.147-1.427a1.041,1.041,0,0,1,.847-1.13l1.436-.292.264,2.519a7.408,7.408,0,0,1,2.5.344,9.1,9.1,0,0,1,1.9.872l-.673,1.595a1.652,1.652,0,0,1-.341.549.948.948,0,0,1-.494.251,1.337,1.337,0,0,1-.466,0c-.185-.027-.387-.066-.606-.113s-.455-.1-.707-.145a6.626,6.626,0,0,0-.789-.109ZM116,163.883a3.941,3.941,0,0,0-.923.464,2.228,2.228,0,0,0-.559.548,1.545,1.545,0,0,0-.25.608,1.748,1.748,0,0,0,.014.647,1.63,1.63,0,0,0,.723,1.107,4.059,4.059,0,0,0,1.4.524Zm3.67,12.041a2.191,2.191,0,0,0,1.616-2.7,1.523,1.523,0,0,0-.694-1.061,3.892,3.892,0,0,0-1.362-.464Z" transform="translate(-110.579 -157.745)" fill="#f7a145"/>
              </g>
              <path id="Trazado_1016759" data-name="Trazado 1016759" d="M137.646,179.486a26.222,26.222,0,0,0-.592-17.725c1.505,10.447-1.27,23.362-12.942,29.449-11.989,6.252-21.826,2.671-27.522-.2a26.171,26.171,0,0,0,16.456,6.151A26.608,26.608,0,0,0,137.646,179.486Z" transform="translate(-87.284 -145.534)" fill="#2e2854" opacity="0.15"/>
              <path id="Trazado_1016760" data-name="Trazado 1016760" d="M93.328,142.978a26.578,26.578,0,0,0-10.257,19.349c1.117-5.514,4.015-14.264,14.429-19.585,7.218-3.689,15.636-3.836,23.651-1.724A26.7,26.7,0,0,0,93.328,142.978Z" transform="translate(-82.996 -138.003)" fill="#f5b878"/>
              <path id="Trazado_1016761" data-name="Trazado 1016761" d="M121.241,149.584a19.568,19.568,0,1,0,9.44,21.659A19.829,19.829,0,0,0,121.241,149.584Z" transform="translate(-85.886 -140.913)" fill="none" stroke="#2e2854" stroke-linecap="round" stroke-linejoin="round" stroke-miterlimit="10" stroke-width="1"/>
            </g>
          </g>
          <g id="Grupo_1171825" data-name="Grupo 1171825" transform="translate(58.747)">
            <g id="Grupo_1171821" data-name="Grupo 1171821" transform="translate(10.263 96.081)">
              <path id="Trazado_1016762" data-name="Trazado 1016762" d="M184.02,243.579c1.575-7.633,6.03-14.981,12.911-18.643a23.2,23.2,0,0,1,22.755.206c-4.695-.322-9.142,2.187-12.721,5.242s-6.625,6.731-10.432,9.5S188.446,244.967,184.02,243.579Z" transform="translate(-184.02 -222.056)" fill="#76c9bf"/>
              <path id="Trazado_1016763" data-name="Trazado 1016763" d="M202.959,230.806s-11.849,6.584-18.939,15.548" transform="translate(-184.02 -224.831)" fill="none" stroke="#2e2854" stroke-linecap="round" stroke-linejoin="round" stroke-miterlimit="10" stroke-width="1"/>
              <path id="Trazado_1016764" data-name="Trazado 1016764" d="M184.955,248.482a31.819,31.819,0,0,0-.935,3.478c4.26,1.336,8.384-.768,12.082-3.393C192.8,248.673,188.965,248.687,184.955,248.482Z" transform="translate(-184.02 -230.437)" fill="#2e2854" opacity="0.15"/>
            </g>
            <g id="Grupo_1171822" data-name="Grupo 1171822" transform="translate(8.31 60.405)">
              <path id="Trazado_1016765" data-name="Trazado 1016765" d="M181.16,196.8c.1-7.793,4.15-16.69,10.21-21.592a23.2,23.2,0,0,1,22.38-4.119c-4.67.575-8.56,3.883-11.494,7.562s-5.226,7.866-8.44,11.3S185.769,197.325,181.16,196.8Z" transform="translate(-181.16 -169.811)" fill="#76c9bf"/>
              <path id="Trazado_1016766" data-name="Trazado 1016766" d="M197.876,180.491s-11.457,9.551-16.716,19.7" transform="translate(-181.16 -173.198)" fill="none" stroke="#2e2854" stroke-linecap="round" stroke-linejoin="round" stroke-miterlimit="10" stroke-width="1"/>
            </g>
            <path id="Trazado_1016767" data-name="Trazado 1016767" d="M192.055,145.3a121.643,121.643,0,0,0-8.416,76.972" transform="translate(-172.746 -101.634)" fill="none" stroke="#2e2854" stroke-linecap="round" stroke-linejoin="round" stroke-miterlimit="10" stroke-width="1"/>
            <g id="Grupo_1171824" data-name="Grupo 1171824">
              <path id="Trazado_1016768" data-name="Trazado 1016768" d="M211.331,89.046a25.894,25.894,0,0,0-41.668,26.047,25.894,25.894,0,1,0,41.668-26.047Z" transform="translate(-168.991 -81.96)" fill="#2e2854" opacity="0.15"/>
              <path id="Trazado_1016769" data-name="Trazado 1016769" d="M215.6,87.137a25.894,25.894,0,0,0-41.668,26.047A25.894,25.894,0,1,0,215.6,87.137Z" transform="translate(-170.345 -81.354)" fill="#f7a145"/>
              <path id="Trazado_1016770" data-name="Trazado 1016770" d="M212.942,93.787a19.568,19.568,0,0,0-29.463,22.544,19.568,19.568,0,0,0,37.1-.184A19.831,19.831,0,0,0,212.942,93.787Z" transform="translate(-173.274 -84.273)" fill="#ff8330"/>
              <g id="Grupo_1171823" data-name="Grupo 1171823" transform="translate(22.116 13.547)">
                <path id="Trazado_1016771" data-name="Trazado 1016771" d="M209.5,111.572c.424.07.847.152,1.273.243a10.92,10.92,0,0,1,1.239.344,7.037,7.037,0,0,1,1.136.505,4.042,4.042,0,0,1,.957.741,3.833,3.833,0,0,1,.7,1.043,4.66,4.66,0,0,1,.376,1.42,6.379,6.379,0,0,1-.135,2.329,5.635,5.635,0,0,1-.976,2.034,6.205,6.205,0,0,1-1.782,1.573,7.9,7.9,0,0,1-2.555.946l.035,1.6a1.043,1.043,0,0,1-.936,1.058l-1.455.173-.058-2.663a11.19,11.19,0,0,1-2.906-.515,8.41,8.41,0,0,1-2.428-1.194L203,119.291a1.266,1.266,0,0,1,.372-.413,1.129,1.129,0,0,1,.537-.213,1.4,1.4,0,0,1,.645.084c.227.081.473.182.742.3s.564.24.886.361a4.968,4.968,0,0,0,1.073.267l-.1-4.872q-.951-.145-1.905-.382a5.979,5.979,0,0,1-1.754-.737,4.462,4.462,0,0,1-1.36-1.354,5.1,5.1,0,0,1-.725-2.219,4.966,4.966,0,0,1,.175-2.016,5.318,5.318,0,0,1,.987-1.867,6.3,6.3,0,0,1,1.785-1.49,7.716,7.716,0,0,1,2.565-.882l-.03-1.435a1.041,1.041,0,0,1,.937-1.057l1.455-.174.057,2.532a7.4,7.4,0,0,1,2.467.548,9.1,9.1,0,0,1,1.826,1.025l-.8,1.534a1.653,1.653,0,0,1-.385.519.944.944,0,0,1-.513.21,1.354,1.354,0,0,1-.465-.042c-.182-.042-.38-.1-.595-.162s-.446-.132-.692-.2a6.569,6.569,0,0,0-.778-.173Zm-2.508-4.4a3.947,3.947,0,0,0-.957.386,2.239,2.239,0,0,0-.6.5,1.553,1.553,0,0,0-.3.586,1.749,1.749,0,0,0-.039.646,1.629,1.629,0,0,0,.63,1.162,4.054,4.054,0,0,0,1.347.636Zm2.673,12.3A2.191,2.191,0,0,0,211.5,116.9a1.524,1.524,0,0,0-.605-1.114,3.87,3.87,0,0,0-1.319-.574Z" transform="translate(-201.378 -101.192)" fill="#f7a145"/>
              </g>
              <path id="Trazado_1016772" data-name="Trazado 1016772" d="M226.513,125.756a26.222,26.222,0,0,0,.861-17.714c.645,10.535-3.178,23.179-15.309,28.291-12.46,5.25-21.971.875-27.414-2.451a26.169,26.169,0,0,0,15.9,7.477A26.609,26.609,0,0,0,226.513,125.756Z" transform="translate(-173.957 -89.818)" fill="#2e2854" opacity="0.15"/>
              <path id="Trazado_1016773" data-name="Trazado 1016773" d="M185.519,85.139a26.582,26.582,0,0,0-11.807,18.444c1.564-5.4,5.169-13.888,15.984-18.338,7.5-3.085,15.9-2.543,23.713.218A26.7,26.7,0,0,0,185.519,85.139Z" transform="translate(-170.488 -81.358)" fill="#f5b878"/>
              <path id="Trazado_1016774" data-name="Trazado 1016774" d="M212.942,93.787a19.568,19.568,0,0,0-29.463,22.544,19.568,19.568,0,0,0,37.1-.184A19.831,19.831,0,0,0,212.942,93.787Z" transform="translate(-173.274 -84.273)" fill="none" stroke="#2e2854" stroke-linecap="round" stroke-linejoin="round" stroke-miterlimit="10" stroke-width="1"/>
            </g>
          </g>
          <g id="Grupo_1171827" data-name="Grupo 1171827" transform="translate(0.737 112.462)">
            <path id="Trazado_1016775" data-name="Trazado 1016775" d="M116.332,393.964h67.13c7.87-1.831,15.451-5.014,21.507-10.3,10.8-9.417,15.376-24.4,15.468-38.726.18-28.19-16.253-55.872-40.849-68.747l8.038-30.152a1.753,1.753,0,0,1-.053.174,3.776,3.776,0,0,1-2.619,1.935c-11.009,3.642-22.949,2.245-34.508,1.339s-23.828-1.13-33.982,4.47a132.161,132.161,0,0,1,9.88,24.5c-13.361,4.174-24.635,13.956-31.8,25.98s-10.389,26.156-10.5,40.153c-.1,12.925,2.8,26.68,11.965,35.8A59.823,59.823,0,0,0,116.332,393.964Z" transform="translate(-84.041 -246.044)" fill="#654687"/>
            <g id="Grupo_1171826" data-name="Grupo 1171826" transform="translate(46.886 52.047)">
              <path id="Trazado_1016776" data-name="Trazado 1016776" d="M178.46,355.387c1.347.259,2.689.553,4.042.879a34.668,34.668,0,0,1,3.924,1.2,22.433,22.433,0,0,1,3.582,1.7A12.923,12.923,0,0,1,193,361.61a12.246,12.246,0,0,1,2.149,3.385,14.837,14.837,0,0,1,1.085,4.559,20.291,20.291,0,0,1-.619,7.417,17.985,17.985,0,0,1-3.278,6.411,19.838,19.838,0,0,1-5.811,4.874,25.212,25.212,0,0,1-8.226,2.811l-.017,5.116a3.33,3.33,0,0,1-3.073,3.3l-4.657.437.029-8.5a35.716,35.716,0,0,1-9.229-1.876,26.8,26.8,0,0,1-7.65-4l3.386-6.049a4.041,4.041,0,0,1,1.222-1.289,3.6,3.6,0,0,1,1.732-.635,4.462,4.462,0,0,1,2.051.321c.718.279,1.494.618,2.344,1.018s1.78.809,2.8,1.221a15.927,15.927,0,0,0,3.4.939l.072-15.55q-3.021-.542-6.048-1.372a19.077,19.077,0,0,1-5.535-2.491,14.253,14.253,0,0,1-4.227-4.429,16.3,16.3,0,0,1-2.133-7.139,15.838,15.838,0,0,1,.72-6.416,17,17,0,0,1,3.3-5.877,20.125,20.125,0,0,1,5.815-4.609,24.608,24.608,0,0,1,8.252-2.606l.02-4.579a3.324,3.324,0,0,1,3.074-3.3l4.656-.437-.021,8.082a23.615,23.615,0,0,1,7.826,1.947,28.951,28.951,0,0,1,5.743,3.418l-2.681,4.829a5.287,5.287,0,0,1-1.27,1.626,3.018,3.018,0,0,1-1.653.628,4.315,4.315,0,0,1-1.479-.17c-.578-.15-1.207-.34-1.885-.565s-1.412-.458-2.193-.7a20.98,20.98,0,0,0-2.467-.614Zm-7.645-14.252a12.617,12.617,0,0,0-3.086,1.155,7.111,7.111,0,0,0-1.962,1.547,4.947,4.947,0,0,0-1,1.845,5.593,5.593,0,0,0-.176,2.057,5.2,5.2,0,0,0,1.917,3.759,12.941,12.941,0,0,0,4.247,2.139Zm7.532,39.456q6.643-1.734,6.052-8.03a4.861,4.861,0,0,0-1.841-3.6,12.4,12.4,0,0,0-4.161-1.939Z" transform="translate(-152.701 -322.262)" fill="#7d5aa3"/>
            </g>
            <path id="Trazado_1016777" data-name="Trazado 1016777" d="M221.1,370.678c-14.282,23.212-49.885,52.388-131.084,37.193A36.421,36.421,0,0,0,97.9,419.914a59.829,59.829,0,0,0,20.323,13.575h67.13c7.87-1.831,15.451-5.014,21.507-10.3,10.8-9.417,15.376-24.4,15.468-38.726A74.131,74.131,0,0,0,221.1,370.678Z" transform="translate(-85.937 -285.569)" fill="#2e2854" opacity="0.15"/>
            <path id="Trazado_1016778" data-name="Trazado 1016778" d="M146.869,287.489c18.707-.251,34.919-.275,53.848-.547" transform="translate(-103.966 -259.014)" fill="none" stroke="#2e2854" stroke-linecap="round" stroke-linejoin="round" stroke-miterlimit="10" stroke-width="1"/>
            <path id="Trazado_1016779" data-name="Trazado 1016779" d="M145.68,293.742l55.466-2.846" transform="translate(-103.589 -260.268)" fill="none" stroke="#2e2854" stroke-linecap="round" stroke-linejoin="round" stroke-miterlimit="10" stroke-width="1"/>
          </g>
          <g id="Grupo_1171828" data-name="Grupo 1171828" transform="translate(94.059 40.308)">
            <path id="Trazado_1016780" data-name="Trazado 1016780" d="M220.871,151.482a48,48,0,0,1,.084-8.948c.1-1.006.631-2.319,1.625-2.135.727.135,1.015,1,1.166,1.726.66,3.19,1.378,6.709,2.1,10.268" transform="translate(-220.702 -140.382)" fill="#e8614e"/>
            <path id="Trazado_1016781" data-name="Trazado 1016781" d="M220.871,151.482a48,48,0,0,1,.084-8.948c.1-1.006.631-2.319,1.625-2.135.727.135,1.015,1,1.166,1.726.66,3.19,1.378,6.709,2.1,10.268" transform="translate(-220.702 -140.382)" fill="none" stroke="#2e2854" stroke-linecap="round" stroke-linejoin="round" stroke-miterlimit="10" stroke-width="1"/>
          </g>
        </g>
        <g id="Grupo_1171838" data-name="Grupo 1171838" transform="translate(0 3.938)">
          <path id="Trazado_1016782" data-name="Trazado 1016782" d="M60.015,337.247a2.557,2.557,0,1,0-1.188,4.451C60.519,341.374,61.75,338.739,60.015,337.247Z" transform="translate(-45.818 -166.273)" fill="#fff"/>
          <path id="Trazado_1016783" data-name="Trazado 1016783" d="M316.992,64.82a2.557,2.557,0,1,0-1.187,4.45C317.5,68.947,318.726,66.312,316.992,64.82Z" transform="translate(-144.853 -48.697)" fill="#fff"/>
          <path id="Trazado_1016784" data-name="Trazado 1016784" d="M460.5,357.068a2.557,2.557,0,1,0-1.188,4.45C461.006,361.2,462.236,358.56,460.5,357.068Z" transform="translate(-172.825 -172.559)" fill="#f2d3e8"/>
          <path id="Trazado_1016785" data-name="Trazado 1016785" d="M60.521,186.467a2.557,2.557,0,1,0-1.188,4.451C61.025,190.594,62.255,187.959,60.521,186.467Z" transform="translate(-45.979 -118.456)" fill="#f2d3e8"/>
          <path id="Trazado_1016788" data-name="Trazado 1016788" d="M463.725,336.059a1.614,1.614,0,1,0-.75,2.81A1.663,1.663,0,0,0,463.725,336.059Z" transform="translate(-174.339 -165.959)" fill="#f2d3e8"/>
          <path id="Trazado_1016789" data-name="Trazado 1016789" d="M47.435,215.726a1.614,1.614,0,1,0-.749,2.81A1.663,1.663,0,0,0,47.435,215.726Z" transform="translate(-42.321 -127.798)" fill="#f2d3e8"/>
          <path id="Trazado_1016790" data-name="Trazado 1016790" d="M39.555,71.98a1.614,1.614,0,1,0-.749,2.81A1.664,1.664,0,0,0,39.555,71.98Z" transform="translate(-36.899 -63.698)" fill="#f2d3e8"/>
          <path id="Trazado_1016792" data-name="Trazado 1016792" d="M156.963,119.82a1.614,1.614,0,1,0-.75,2.81A1.663,1.663,0,0,0,156.963,119.82Z" transform="translate(-77.056 -97.383)" fill="#f2d3e8"/>
          <path id="Trazado_1016793" data-name="Trazado 1016793" d="M59.826,439.959a1.614,1.614,0,1,0-.749,2.81A1.663,1.663,0,0,0,59.826,439.959Z" transform="translate(-46.251 -198.909)" fill="#f2d3e8"/>
          <path id="Trazado_1016794" data-name="Trazado 1016794" d="M281.544,305.86a1.614,1.614,0,1,0-.75,2.81A1.663,1.663,0,0,0,281.544,305.86Z" transform="translate(-116.564 -156.382)" fill="#fff"/>
          <path id="Trazado_1016795" data-name="Trazado 1016795" d="M405.634,194.932a1.614,1.614,0,1,0-.749,2.81A1.664,1.664,0,0,0,405.634,194.932Z" transform="translate(-155.917 -121.203)" fill="#fff"/>
          <path id="Trazado_1016796" data-name="Trazado 1016796" d="M447.43,167.136a1.614,1.614,0,1,0-.75,2.81A1.663,1.663,0,0,0,447.43,167.136Z" transform="translate(-169.171 -112.388)" fill="#fff"/>
          <g id="Grupo_1171831" data-name="Grupo 1171831" transform="translate(25.556 21.337)">
            <path id="Trazado_1016797" data-name="Trazado 1016797" d="M184.541,61.088q.034,2.347.068,4.694" transform="translate(-182.359 -61.088)" fill="none" stroke="#2e2854" stroke-linecap="round" stroke-linejoin="round" stroke-miterlimit="10" stroke-width="1"/>
            <path id="Trazado_1016798" data-name="Trazado 1016798" d="M181.345,64.7l4.357-.1" transform="translate(-181.345 -62.202)" fill="none" stroke="#2e2854" stroke-linecap="round" stroke-linejoin="round" stroke-miterlimit="10" stroke-width="1"/>
          </g>
          <g id="Grupo_1171832" data-name="Grupo 1171832" transform="translate(265.376 74.56)">
            <path id="Trazado_1016799" data-name="Trazado 1016799" d="M432.994,196.307q.034,2.347.068,4.694" transform="translate(-430.812 -196.307)" fill="none" stroke="#2e2854" stroke-linecap="round" stroke-linejoin="round" stroke-miterlimit="10" stroke-width="1"/>
            <path id="Trazado_1016800" data-name="Trazado 1016800" d="M429.8,199.922l4.357-.1" transform="translate(-429.799 -197.422)" fill="none" stroke="#2e2854" stroke-linecap="round" stroke-linejoin="round" stroke-miterlimit="10" stroke-width="1"/>
          </g>
          <g id="Grupo_1171833" data-name="Grupo 1171833" transform="translate(152.596 0)">
            <path id="Trazado_1016801" data-name="Trazado 1016801" d="M267.839,87.121q.034,2.347.068,4.694" transform="translate(-265.657 -87.121)" fill="none" stroke="#2e2854" stroke-linecap="round" stroke-linejoin="round" stroke-miterlimit="10" stroke-width="1"/>
            <path id="Trazado_1016802" data-name="Trazado 1016802" d="M264.643,90.737l4.357-.1" transform="translate(-264.643 -88.236)" fill="none" stroke="#2e2854" stroke-linecap="round" stroke-linejoin="round" stroke-miterlimit="10" stroke-width="1"/>
          </g>
          <g id="Grupo_1171834" data-name="Grupo 1171834" transform="translate(12.857 203.33)">
            <path id="Trazado_1016803" data-name="Trazado 1016803" d="M63.2,384.879q.034,2.347.068,4.694" transform="translate(-61.022 -384.879)" fill="none" stroke="#2e2854" stroke-linecap="round" stroke-linejoin="round" stroke-miterlimit="10" stroke-width="1"/>
            <path id="Trazado_1016804" data-name="Trazado 1016804" d="M60.008,388.494l4.357-.1" transform="translate(-60.008 -385.993)" fill="none" stroke="#2e2854" stroke-linecap="round" stroke-linejoin="round" stroke-miterlimit="10" stroke-width="1"/>
          </g>
          <g id="Grupo_1171835" data-name="Grupo 1171835" transform="translate(31.004 107.842)">
            <path id="Trazado_1016805" data-name="Trazado 1016805" d="M89.778,245.045l.068,4.694" transform="translate(-87.596 -245.045)" fill="none" stroke="#2e2854" stroke-linecap="round" stroke-linejoin="round" stroke-miterlimit="10" stroke-width="1"/>
            <path id="Trazado_1016806" data-name="Trazado 1016806" d="M86.583,248.66l4.357-.1" transform="translate(-86.583 -246.159)" fill="none" stroke="#2e2854" stroke-linecap="round" stroke-linejoin="round" stroke-miterlimit="10" stroke-width="1"/>
          </g>
          <path id="Trazado_1016807" data-name="Trazado 1016807" d="M91.134,284.195a6.871,6.871,0,1,1-9.764,2.02A7.043,7.043,0,0,1,91.134,284.195Z" transform="translate(-53.624 -149.246)" fill="#fff"/>
          <path id="Trazado_1016808" data-name="Trazado 1016808" d="M222.445,46.1a6.871,6.871,0,1,1-9.764,2.02A7.043,7.043,0,0,1,222.445,46.1Z" transform="translate(-159.038 -44.927)" fill="#f2d3e8"/>
          <g id="Grupo_1171836" data-name="Grupo 1171836" transform="translate(153.73 116.191)">
            <path id="Trazado_1016809" data-name="Trazado 1016809" d="M269.5,257.272q.034,2.347.068,4.694" transform="translate(-267.316 -257.272)" fill="none" stroke="#2e2854" stroke-linecap="round" stroke-linejoin="round" stroke-miterlimit="10" stroke-width="1"/>
            <path id="Trazado_1016810" data-name="Trazado 1016810" d="M266.3,260.888l4.357-.1" transform="translate(-266.303 -258.387)" fill="none" stroke="#2e2854" stroke-linecap="round" stroke-linejoin="round" stroke-miterlimit="10" stroke-width="1"/>
          </g>
          <g id="Grupo_1171837" data-name="Grupo 1171837" transform="translate(140.419 45.339)">
            <path id="Trazado_1016811" data-name="Trazado 1016811" d="M250.005,153.515l.068,4.694" transform="translate(-247.823 -153.515)" fill="none" stroke="#2e2854" stroke-linecap="round" stroke-linejoin="round" stroke-miterlimit="10" stroke-width="1"/>
            <path id="Trazado_1016812" data-name="Trazado 1016812" d="M246.81,157.13l4.357-.1" transform="translate(-246.81 -154.63)" fill="none" stroke="#2e2854" stroke-linecap="round" stroke-linejoin="round" stroke-miterlimit="10" stroke-width="1"/>
          </g>
        </g>
      </g>
    </g>
  </g>
</svg>
