<svg xmlns="http://www.w3.org/2000/svg" xmlns:xlink="http://www.w3.org/1999/xlink" width="113" height="113" viewBox="0 0 113 113">
  <defs>
    <filter id="Trazado_982547" x="0" y="0" width="113" height="113" filterUnits="userSpaceOnUse">
      <feOffset dy="3" input="SourceAlpha"/>
      <feGaussianBlur stdDeviation="3" result="blur"/>
      <feFlood flood-opacity="0.161"/>
      <feComposite operator="in" in2="blur"/>
      <feComposite in="SourceGraphic"/>
    </filter>
  </defs>
  <g id="Grupo_1171694" data-name="Grupo 1171694" transform="translate(-192 -634.846)">
    <g id="Grupo_1171486" data-name="Grupo 1171486" transform="translate(160 -2557.154)">
      <g id="Grupo_1167519" data-name="Grupo 1167519" transform="translate(41 3198)">
        <g id="Grupo_1166845" data-name="Grupo 1166845" transform="translate(0)">
          <g id="Grupo_1166720" data-name="Grupo 1166720">
            <g id="Grupo_1164305" data-name="Grupo 1164305">
              <g id="Grupo_1163948" data-name="Grupo 1163948">
                <g id="Grupo_1158168" data-name="Grupo 1158168">
                  <g id="Grupo_1152576" data-name="Grupo 1152576">
                    <g id="Grupo_1148633" data-name="Grupo 1148633">
                      <g id="Grupo_1148525" data-name="Grupo 1148525">
                        <g transform="matrix(1, 0, 0, 1, -9, -6)" filter="url(#Trazado_982547)">
                          <g id="Trazado_982547-2" data-name="Trazado 982547" transform="translate(9 6)" fill="#fcf3f0">
                            <path d="M 47.5 93.5 C 41.28937149047852 93.5 35.26533508300781 92.28397369384766 29.59518623352051 89.88570404052734 C 24.11771965026855 87.56893157958984 19.19813346862793 84.25196075439453 14.97309303283691 80.02691650390625 C 10.74804019927979 75.80186462402344 7.431066513061523 70.88229370117188 5.114293098449707 65.40481567382812 C 2.716026782989502 59.73468017578125 1.5 53.71062850952148 1.5 47.5 C 1.5 41.28937149047852 2.716026782989502 35.26533508300781 5.114293098449707 29.59518623352051 C 7.431066513061523 24.11771965026855 10.74804019927979 19.19813346862793 14.97309303283691 14.97309303283691 C 19.19813346862793 10.74804019927979 24.11771965026855 7.431066513061523 29.59518623352051 5.114293098449707 C 35.26533508300781 2.716026782989502 41.28937149047852 1.5 47.5 1.5 C 53.71062850952148 1.5 59.73468017578125 2.716026782989502 65.40481567382812 5.114293098449707 C 70.88229370117188 7.431066513061523 75.80186462402344 10.74804019927979 80.02691650390625 14.97309303283691 C 84.25196075439453 19.19813346862793 87.56893157958984 24.11771965026855 89.88570404052734 29.59518623352051 C 92.28397369384766 35.26533508300781 93.5 41.28937149047852 93.5 47.5 C 93.5 53.71062850952148 92.28397369384766 59.73468017578125 89.88570404052734 65.40481567382812 C 87.56893157958984 70.88229370117188 84.25196075439453 75.80186462402344 80.02691650390625 80.02691650390625 C 75.80186462402344 84.25196075439453 70.88229370117188 87.56893157958984 65.40481567382812 89.88570404052734 C 59.73468017578125 92.28397369384766 53.71062850952148 93.5 47.5 93.5 Z" stroke="none"/>
                            <path d="M 47.5 3 C 41.49121475219727 3 35.66376876831055 4.176155090332031 30.17950439453125 6.495796203613281 C 24.88084411621094 8.736953735351562 20.12152099609375 11.94598388671875 16.03375244140625 16.03375244140625 C 11.94598388671875 20.12152099609375 8.736953735351562 24.88084411621094 6.495796203613281 30.17950439453125 C 4.176155090332031 35.66376876831055 3 41.49121475219727 3 47.5 C 3 53.50878524780273 4.176155090332031 59.33623123168945 6.495796203613281 64.82049560546875 C 8.736953735351562 70.11915588378906 11.94598388671875 74.87847900390625 16.03375244140625 78.96624755859375 C 20.12152099609375 83.05401611328125 24.88084411621094 86.26304626464844 30.17950439453125 88.50419616699219 C 35.66376876831055 90.82384490966797 41.49121475219727 92 47.5 92 C 53.50878524780273 92 59.33623123168945 90.82384490966797 64.82049560546875 88.50419616699219 C 70.11915588378906 86.26304626464844 74.87847900390625 83.05401611328125 78.96624755859375 78.96624755859375 C 83.05401611328125 74.87847900390625 86.26304626464844 70.11915588378906 88.50419616699219 64.82049560546875 C 90.82384490966797 59.33623123168945 92 53.50878524780273 92 47.5 C 92 41.49121475219727 90.82384490966797 35.66376876831055 88.50419616699219 30.17950439453125 C 86.26304626464844 24.88084411621094 83.05401611328125 20.12152099609375 78.96624755859375 16.03375244140625 C 74.87847900390625 11.94598388671875 70.11915588378906 8.736953735351562 64.82049560546875 6.495796203613281 C 59.33623123168945 4.176155090332031 53.50878524780273 3 47.5 3 M 47.5 0 C 73.7335205078125 0 95 21.2664794921875 95 47.5 C 95 73.7335205078125 73.7335205078125 95 47.5 95 C 21.2664794921875 95 0 73.7335205078125 0 47.5 C 0 21.2664794921875 21.2664794921875 0 47.5 0 Z" stroke="none" fill="#e89076"/>
                          </g>
                        </g>
                      </g>
                    </g>
                  </g>
                </g>
              </g>
            </g>
          </g>
        </g>
      </g>
    </g>
    <g id="Artboard11" transform="translate(208.419 633.683)">
      <g id="Grupo_1171693" data-name="Grupo 1171693" transform="translate(8 24.758)">
        <g id="Grupo_1171692" data-name="Grupo 1171692" transform="translate(0.736 11.034)">
          <path id="Trazado_1016180" data-name="Trazado 1016180" d="M32.7,143,22.593,155.917a.649.649,0,0,1-1.161-.4V143H17.886a4.232,4.232,0,0,1-4.222-4.222V113.932a4.232,4.232,0,0,1,4.222-4.222h45.1a4.232,4.232,0,0,1,4.222,4.222v24.847A4.232,4.232,0,0,1,62.991,143Z" transform="translate(-13.664 -109.71)" fill="#c6ea94" fill-rule="evenodd"/>
          <g id="Grupo_1171691" data-name="Grupo 1171691" transform="translate(24.799 3.658)">
            <path id="Trazado_1016181" data-name="Trazado 1016181" d="M204.6,139.851a1.976,1.976,0,0,1,3.952,0v14.788a1.976,1.976,0,1,1-3.952,0Z" transform="translate(-204.595 -137.875)" fill="#f76c82"/>
            <path id="Trazado_1016182" data-name="Trazado 1016182" d="M206.571,310.837a1.977,1.977,0,1,0-1.976-1.976A1.979,1.979,0,0,0,206.571,310.837Z" transform="translate(-204.595 -284.932)" fill="#f76c82" fill-rule="evenodd"/>
          </g>
        </g>
        <path id="Trazado_1016183" data-name="Trazado 1016183" d="M28.388,70.168,17.394,84.218a.909.909,0,0,1-1.625-.56V70.168H13.131A5.143,5.143,0,0,1,8,65.037V40.19a5.143,5.143,0,0,1,5.131-5.131h45.1a5.143,5.143,0,0,1,5.132,5.131V65.037a5.143,5.143,0,0,1-5.132,5.132Zm-.443-1.818H58.236a3.321,3.321,0,0,0,3.313-3.313V40.19a3.32,3.32,0,0,0-3.313-3.313h-45.1A3.32,3.32,0,0,0,9.818,40.19V65.037a3.32,3.32,0,0,0,3.313,3.313h3.546a.909.909,0,0,1,.909.909V81.02L27.229,68.7A.909.909,0,0,1,27.945,68.35ZM32.8,41.6a2.885,2.885,0,0,1,5.77,0V56.389a2.885,2.885,0,1,1-5.77,0Zm1.818,0V56.389a1.067,1.067,0,1,0,2.133,0V41.6a1.067,1.067,0,0,0-2.133,0Zm1.067,24.839a2.887,2.887,0,1,1,2.885-2.885,2.892,2.892,0,0,1-2.885,2.885Zm0-1.818a1.068,1.068,0,1,0-1.067-1.067A1.068,1.068,0,0,0,35.684,64.622ZM58.63,25.667a.909.909,0,0,1,1.818,0v5.71a.909.909,0,0,1-1.818,0Zm6.884,1.357a.909.909,0,0,1,1.575.909l-2.855,4.945a.909.909,0,0,1-1.575-.909ZM70.8,31.642a.909.909,0,1,1,.909,1.575l-4.945,2.855a.909.909,0,1,1-.909-1.575Z" transform="translate(-8 -24.758)" fill-rule="evenodd"/>
      </g>
    </g>
  </g>
</svg>
