<svg xmlns="http://www.w3.org/2000/svg" xmlns:xlink="http://www.w3.org/1999/xlink" width="505" height="400" viewBox="0 0 505 400">
  <defs>
    <clipPath id="clip-path">
      <rect id="Rectángulo_414360" data-name="Rectángulo 414360" width="505" height="400" transform="translate(914.514 517)" fill="#fff" stroke="#707070" stroke-width="1" opacity="0.59"/>
    </clipPath>
  </defs>
  <g id="Enmascarar_grupo_1098793" data-name="Enmascarar grupo 1098793" transform="translate(-914.514 -517)" clip-path="url(#clip-path)">
    <g id="Grupo_1171762" data-name="Grupo 1171762" transform="translate(-1924.861 638.739)">
      <path id="Trazado_1016184" data-name="Trazado 1016184" d="M62.312,150.138A549.024,549.024,0,0,0,29.5,309.3a89.171,89.171,0,0,0,75.785,92.722q5.126.77,10.274,1.427A131.2,131.2,0,0,0,260.8,299.58a657.582,657.582,0,0,0,12.841-107.972A108.409,108.409,0,0,0,191.956,82.74q-.874-.221-1.75-.436C136.58,69.051,81.3,98.264,62.312,150.138Z" transform="translate(2830.963 -140.259)" fill="#cfe3dc"/>
      <path id="Trazado_1016185" data-name="Trazado 1016185" d="M314.4,126.993a448.878,448.878,0,0,0-11.214,147.37A59.9,59.9,0,0,0,385.52,324.5a159.431,159.431,0,0,0,24.5-12.494c28.523-17.874,51.161-46.3,58.24-79.205,8.47-39.36-6.325-81.66-33.641-111.237a166.133,166.133,0,0,0-36.143-29.2C365.956,72.7,323.455,90.08,314.4,126.993Z" transform="translate(2829.56 -140.285)" fill="#cfe3dc"/>
      <g id="OBJECTS" transform="translate(2852.974 -117.264)">
        <path id="Trazado_1016186" data-name="Trazado 1016186" d="M64.38,252.376a2.607,2.607,0,1,0-2.607,2.607A2.607,2.607,0,0,0,64.38,252.376Z" transform="translate(-21.782 -26.526)" fill="#e4efff"/>
        <path id="Trazado_1016187" data-name="Trazado 1016187" d="M116.094,388.932a2.607,2.607,0,1,0-2.607,2.607A2.607,2.607,0,0,0,116.094,388.932Z" transform="translate(-21.236 -25.085)" fill="#e4efff"/>
        <g id="Grupo_1171695" data-name="Grupo 1171695" transform="translate(32.804 57.595)">
          <circle id="Elipse_11847" data-name="Elipse 11847" cx="2.607" cy="2.607" r="2.607" transform="translate(14.34)" fill="#c6d8ff"/>
          <path id="Trazado_1016188" data-name="Trazado 1016188" d="M58.492,100.022a1.929,1.929,0,1,0-1.929,1.929A1.93,1.93,0,0,0,58.492,100.022Z" transform="translate(-54.634 -85.721)" fill="none" stroke="#17014e" stroke-linecap="round" stroke-linejoin="round" stroke-miterlimit="10" stroke-width="1"/>
        </g>
        <g id="Grupo_1171696" data-name="Grupo 1171696" transform="translate(252.256 25.348)">
          <circle id="Elipse_11848" data-name="Elipse 11848" cx="2.607" cy="2.607" r="2.607" transform="translate(0 22.84)" fill="#c6d8ff"/>
          <path id="Trazado_1016189" data-name="Trazado 1016189" d="M285.424,55.869A1.929,1.929,0,1,0,283.5,57.8,1.929,1.929,0,0,0,285.424,55.869Z" transform="translate(-271.691 -53.94)" fill="none" stroke="#17014e" stroke-linecap="round" stroke-linejoin="round" stroke-miterlimit="10" stroke-width="1"/>
        </g>
        <path id="Trazado_1016190" data-name="Trazado 1016190" d="M458.972,213.812a1.929,1.929,0,1,0-1.929,1.929A1.93,1.93,0,0,0,458.972,213.812Z" transform="translate(-17.604 -26.925)" fill="none" stroke="#17014e" stroke-linecap="round" stroke-linejoin="round" stroke-miterlimit="10" stroke-width="1"/>
        <g id="Grupo_1171697" data-name="Grupo 1171697" transform="translate(32.126 382.043)">
          <path id="Trazado_1016191" data-name="Trazado 1016191" d="M59.177,409.517a2.607,2.607,0,1,0-2.607,2.607A2.607,2.607,0,0,0,59.177,409.517Z" transform="translate(-53.963 -406.91)" fill="#c6d8ff"/>
          <path id="Trazado_1016192" data-name="Trazado 1016192" d="M70.773,416.549a1.929,1.929,0,1,0-1.929,1.929A1.929,1.929,0,0,0,70.773,416.549Z" transform="translate(-53.826 -406.829)" fill="none" stroke="#17014e" stroke-linecap="round" stroke-linejoin="round" stroke-miterlimit="10" stroke-width="1"/>
        </g>
        <g id="Grupo_1171698" data-name="Grupo 1171698" transform="translate(346.844 374.964)">
          <path id="Trazado_1016193" data-name="Trazado 1016193" d="M370.608,402.512A2.607,2.607,0,1,0,368,405.12,2.607,2.607,0,0,0,370.608,402.512Z" transform="translate(-365.394 -399.905)" fill="#c6d8ff"/>
          <path id="Trazado_1016194" data-name="Trazado 1016194" d="M390.023,411.412a1.929,1.929,0,1,0-1.929,1.929A1.929,1.929,0,0,0,390.023,411.412Z" transform="translate(-365.175 -399.804)" fill="none" stroke="#17014e" stroke-linecap="round" stroke-linejoin="round" stroke-miterlimit="10" stroke-width="1"/>
        </g>
        <path id="Trazado_1016195" data-name="Trazado 1016195" d="M30.342,237.012a1.929,1.929,0,1,0-1.929,1.929A1.93,1.93,0,0,0,30.342,237.012Z" transform="translate(-22.127 -26.681)" fill="none" stroke="#17014e" stroke-linecap="round" stroke-linejoin="round" stroke-miterlimit="10" stroke-width="1"/>
        <g id="Grupo_1171700" data-name="Grupo 1171700" transform="translate(383.847 31.356)">
          <circle id="Elipse_11849" data-name="Elipse 11849" cx="2.607" cy="2.607" r="2.607" transform="translate(36.563 27.477)" fill="#c6d8ff"/>
          <g id="Grupo_1171699" data-name="Grupo 1171699">
            <line id="Línea_987" data-name="Línea 987" x1="0.003" y2="4.358" transform="translate(2.177)" fill="none" stroke="#fff" stroke-linecap="round" stroke-linejoin="round" stroke-miterlimit="10" stroke-width="1"/>
            <line id="Línea_988" data-name="Línea 988" x2="4.358" y2="0.003" transform="translate(0 2.177)" fill="none" stroke="#fff" stroke-linecap="round" stroke-linejoin="round" stroke-miterlimit="10" stroke-width="1"/>
          </g>
        </g>
        <g id="Grupo_1171701" data-name="Grupo 1171701" transform="translate(5.103 353.869)">
          <line id="Línea_989" data-name="Línea 989" x1="0.002" y2="4.358" transform="translate(2.178 0)" fill="none" stroke="#fff" stroke-linecap="round" stroke-linejoin="round" stroke-miterlimit="10" stroke-width="1"/>
          <line id="Línea_990" data-name="Línea 990" x2="4.358" y2="0.003" transform="translate(0 2.178)" fill="none" stroke="#fff" stroke-linecap="round" stroke-linejoin="round" stroke-miterlimit="10" stroke-width="1"/>
        </g>
        <g id="Grupo_1171703" data-name="Grupo 1171703" transform="translate(441.961 255.668)">
          <path id="Trazado_1016196" data-name="Trazado 1016196" d="M484.273,284.462a2.607,2.607,0,1,0-2.607,2.607A2.607,2.607,0,0,0,484.273,284.462Z" transform="translate(-459.312 -281.855)" fill="#c6d8ff"/>
          <g id="Grupo_1171702" data-name="Grupo 1171702" transform="translate(0 2.018)">
            <line id="Línea_991" data-name="Línea 991" x1="0.003" y2="4.358" transform="translate(2.177)" fill="none" stroke="#fff" stroke-linecap="round" stroke-linejoin="round" stroke-miterlimit="10" stroke-width="1"/>
            <line id="Línea_992" data-name="Línea 992" x2="4.358" y2="0.003" transform="translate(0 2.177)" fill="none" stroke="#fff" stroke-linecap="round" stroke-linejoin="round" stroke-miterlimit="10" stroke-width="1"/>
          </g>
        </g>
        <path id="Trazado_1016197" data-name="Trazado 1016197" d="M114.45,79.111l3.5-13.016-5.68-5.694a4.828,4.828,0,0,1-.694-5.973,54.631,54.631,0,0,1,6.124-7.962,4.821,4.821,0,0,1,5.946-.856l6.964,4.032L142.3,42.916l.01-8.046a4.823,4.823,0,0,1,3.727-4.712,54.686,54.686,0,0,1,9.961-1.3,4.827,4.827,0,0,1,4.817,3.6l2.072,7.771,13.016,3.5,5.694-5.68a4.827,4.827,0,0,1,5.973-.694,54.63,54.63,0,0,1,7.962,6.124,4.821,4.821,0,0,1,.856,5.946l-4.032,6.963,6.725,11.682,8.046.01a4.823,4.823,0,0,1,4.712,3.727,54.688,54.688,0,0,1,1.3,9.961,4.827,4.827,0,0,1-3.6,4.817l-7.771,2.072-3.5,13.016,5.68,5.694a4.828,4.828,0,0,1,.694,5.973,54.631,54.631,0,0,1-6.124,7.962,4.821,4.821,0,0,1-5.946.856l-6.964-4.032-11.682,6.725-.01,8.046a4.822,4.822,0,0,1-3.727,4.712,54.685,54.685,0,0,1-9.961,1.3,4.827,4.827,0,0,1-4.817-3.6l-2.072-7.771-13.016-3.5-5.694,5.68a4.827,4.827,0,0,1-5.973.694,54.684,54.684,0,0,1-7.962-6.124,4.823,4.823,0,0,1-.856-5.946l4.032-6.964L117.134,99.7l-8.046-.01a4.822,4.822,0,0,1-4.712-3.727,54.686,54.686,0,0,1-1.3-9.961,4.827,4.827,0,0,1,3.6-4.817Zm38.068,25.528A21.491,21.491,0,1,0,137.355,78.3,21.49,21.49,0,0,0,152.518,104.638Z" transform="translate(-21.318 -28.857)" fill="#88bba9"/>
        <path id="Trazado_1016198" data-name="Trazado 1016198" d="M40.947,196.427a56.7,56.7,0,0,0,15.761-.529" transform="translate(-21.974 -27.094)" fill="none" stroke="#17014e" stroke-linecap="round" stroke-linejoin="round" stroke-miterlimit="10" stroke-width="1"/>
        <g id="Grupo_1171704" data-name="Grupo 1171704" transform="translate(30.356 247.071)">
          <path id="Trazado_1016199" data-name="Trazado 1016199" d="M52.212,322.916l.553-39.715A9.992,9.992,0,0,1,62.9,273.349l24.512.342a9.992,9.992,0,0,1,9.853,10.13l-.553,39.715a9.992,9.992,0,0,1-10.131,9.853l-24.512-.342A9.992,9.992,0,0,1,52.212,322.916Z" transform="translate(-52.211 -273.348)" fill="none" stroke="#fff" stroke-linecap="round" stroke-linejoin="round" stroke-miterlimit="10" stroke-width="1"/>
          <path id="Trazado_1016200" data-name="Trazado 1016200" d="M61.88,286.923q13.7-.2,27.4-.4" transform="translate(-52.109 -273.209)" fill="none" stroke="#fff" stroke-linecap="round" stroke-linejoin="round" stroke-miterlimit="10" stroke-width="1"/>
          <path id="Trazado_1016201" data-name="Trazado 1016201" d="M61.745,296.61l27.4-.4" transform="translate(-52.11 -273.107)" fill="none" stroke="#fff" stroke-linecap="round" stroke-linejoin="round" stroke-miterlimit="10" stroke-width="1"/>
          <path id="Trazado_1016202" data-name="Trazado 1016202" d="M61.59,307.793l27.4-.4" transform="translate(-52.112 -272.989)" fill="none" stroke="#fff" stroke-linecap="round" stroke-linejoin="round" stroke-miterlimit="10" stroke-width="1"/>
          <path id="Trazado_1016203" data-name="Trazado 1016203" d="M61.434,318.976l27.4-.4" transform="translate(-52.114 -272.871)" fill="none" stroke="#fff" stroke-linecap="round" stroke-linejoin="round" stroke-miterlimit="10" stroke-width="1"/>
        </g>
        <g id="Grupo_1171705" data-name="Grupo 1171705" transform="translate(277.21 37.197)">
          <path id="Trazado_1016204" data-name="Trazado 1016204" d="M296.488,111.292,297,74.736a9.2,9.2,0,0,1,9.326-9.07l22.562.314a9.2,9.2,0,0,1,9.07,9.325l-.509,36.557a9.2,9.2,0,0,1-9.325,9.07l-22.562-.314A9.2,9.2,0,0,1,296.488,111.292Z" transform="translate(-296.487 -65.665)" fill="none" stroke="#fff" stroke-linecap="round" stroke-linejoin="round" stroke-miterlimit="10" stroke-width="1"/>
          <path id="Trazado_1016205" data-name="Trazado 1016205" d="M305.388,78.163l25.218-.366" transform="translate(-296.393 -65.537)" fill="none" stroke="#fff" stroke-linecap="round" stroke-linejoin="round" stroke-miterlimit="10" stroke-width="1"/>
          <path id="Trazado_1016206" data-name="Trazado 1016206" d="M305.264,87.079l25.218-.366" transform="translate(-296.395 -65.443)" fill="none" stroke="#fff" stroke-linecap="round" stroke-linejoin="round" stroke-miterlimit="10" stroke-width="1"/>
          <path id="Trazado_1016207" data-name="Trazado 1016207" d="M305.121,97.373l25.218-.366" transform="translate(-296.396 -65.334)" fill="none" stroke="#fff" stroke-linecap="round" stroke-linejoin="round" stroke-miterlimit="10" stroke-width="1"/>
          <path id="Trazado_1016208" data-name="Trazado 1016208" d="M304.977,107.667,330.2,107.3" transform="translate(-296.398 -65.226)" fill="none" stroke="#fff" stroke-linecap="round" stroke-linejoin="round" stroke-miterlimit="10" stroke-width="1"/>
        </g>
        <path id="Trazado_1016209" data-name="Trazado 1016209" d="M436.661,229.324l-5.329-4.188.574-4a2.427,2.427,0,0,0-1.518-2.615,27.439,27.439,0,0,0-4.864-1.364,2.424,2.424,0,0,0-2.653,1.445l-1.592,3.72-6.729.806-2.425-3.238a2.424,2.424,0,0,0-2.92-.776,27.57,27.57,0,0,0-4.4,2.475,2.429,2.429,0,0,0-.857,2.9l1.5,3.754-4.188,5.329-4-.574a2.427,2.427,0,0,0-2.615,1.518,27.523,27.523,0,0,0-1.364,4.864,2.424,2.424,0,0,0,1.445,2.653l3.72,1.592.806,6.729-3.238,2.425a2.426,2.426,0,0,0-.777,2.919,27.571,27.571,0,0,0,2.475,4.4,2.428,2.428,0,0,0,2.9.857l3.754-1.5,5.329,4.188-.574,4a2.427,2.427,0,0,0,1.518,2.615,27.525,27.525,0,0,0,4.864,1.364,2.424,2.424,0,0,0,2.653-1.445l1.592-3.72,6.729-.806,2.425,3.238a2.424,2.424,0,0,0,2.919.776,27.529,27.529,0,0,0,4.4-2.475,2.428,2.428,0,0,0,.857-2.9l-1.5-3.754,4.188-5.33,4,.574a2.427,2.427,0,0,0,2.615-1.519,27.444,27.444,0,0,0,1.364-4.864,2.424,2.424,0,0,0-1.445-2.653l-3.72-1.592-.807-6.729L445.013,236a2.426,2.426,0,0,0,.777-2.92,27.5,27.5,0,0,0-2.476-4.4,2.428,2.428,0,0,0-2.9-.857Zm-7.652,21.74a10.806,10.806,0,1,1-1.819-15.173A10.806,10.806,0,0,1,429.009,251.064Z" transform="translate(-18.257 -26.87)" fill="none" stroke="#fff" stroke-linecap="round" stroke-linejoin="round" stroke-miterlimit="10" stroke-width="1"/>
        <path id="Trazado_1016210" data-name="Trazado 1016210" d="M249.987,46.6,245.4,41.608l1.209-3.859a2.427,2.427,0,0,0-1.079-2.824,27.485,27.485,0,0,0-4.582-2.126,2.426,2.426,0,0,0-2.851,1l-2.167,3.417-6.772-.282-1.876-3.585a2.425,2.425,0,0,0-2.757-1.235,27.524,27.524,0,0,0-4.743,1.738,2.428,2.428,0,0,0-1.311,2.725l.883,3.946-4.988,4.589L210.507,43.9a2.428,2.428,0,0,0-2.824,1.079,27.486,27.486,0,0,0-2.126,4.582,2.426,2.426,0,0,0,1,2.851l3.417,2.167-.282,6.772-3.585,1.876a2.425,2.425,0,0,0-1.235,2.757,27.524,27.524,0,0,0,1.738,4.743,2.428,2.428,0,0,0,2.725,1.311l3.947-.883,4.589,4.988L216.662,80a2.427,2.427,0,0,0,1.079,2.824,27.488,27.488,0,0,0,4.582,2.126,2.424,2.424,0,0,0,2.85-1l2.167-3.417,6.772.282,1.876,3.585a2.425,2.425,0,0,0,2.757,1.235,27.523,27.523,0,0,0,4.743-1.738,2.428,2.428,0,0,0,1.311-2.725l-.883-3.946,4.988-4.589,3.859,1.209a2.427,2.427,0,0,0,2.824-1.079,27.566,27.566,0,0,0,2.126-4.582,2.425,2.425,0,0,0-1-2.851l-3.417-2.167.282-6.772,3.585-1.876a2.425,2.425,0,0,0,1.235-2.758,27.528,27.528,0,0,0-1.738-4.743,2.428,2.428,0,0,0-2.726-1.311ZM238.951,66.829a10.806,10.806,0,1,1,.636-15.269A10.806,10.806,0,0,1,238.951,66.829Z" transform="translate(-20.245 -28.823)" fill="none" stroke="#fff" stroke-linecap="round" stroke-linejoin="round" stroke-miterlimit="10" stroke-width="1"/>
        <g id="Grupo_1171710" data-name="Grupo 1171710" transform="translate(341.492 254.757)">
          <g id="Grupo_1171709" data-name="Grupo 1171709">
            <g id="Grupo_1171707" data-name="Grupo 1171707" transform="translate(36.215 36.177)">
              <g id="Grupo_1171706" data-name="Grupo 1171706" transform="translate(0 0)">
                <circle id="Elipse_11850" data-name="Elipse 11850" cx="18.23" cy="18.23" r="18.23" transform="translate(0 36.242) rotate(-83.697)" fill="#88bba9"/>
              </g>
            </g>
            <g id="Grupo_1171708" data-name="Grupo 1171708">
              <path id="Trazado_1016211" data-name="Trazado 1016211" d="M462.409,330.011l8.273-4.777a4.134,4.134,0,0,0,1.9-4.751,58.177,58.177,0,0,0-4.569-11.039,4.129,4.129,0,0,0-4.7-2.008l-9.233,2.474L443.8,299.628l2.474-9.233a4.129,4.129,0,0,0-2.008-4.7,58.305,58.305,0,0,0-11.039-4.569,4.135,4.135,0,0,0-4.751,1.9L423.7,291.3H409.157l-4.777-8.274a4.134,4.134,0,0,0-4.751-1.9,58.179,58.179,0,0,0-11.039,4.569,4.131,4.131,0,0,0-2.009,4.7l2.474,9.233L378.773,309.91l-9.233-2.474a4.128,4.128,0,0,0-4.7,2.009,58.276,58.276,0,0,0-4.569,11.039,4.135,4.135,0,0,0,1.9,4.751l8.274,4.777v14.542l-8.274,4.777a4.134,4.134,0,0,0-1.9,4.751,58.181,58.181,0,0,0,4.569,11.039,4.131,4.131,0,0,0,4.7,2.009l9.233-2.474,10.282,10.282-2.474,9.233a4.128,4.128,0,0,0,2.009,4.7,58.3,58.3,0,0,0,11.039,4.569,4.135,4.135,0,0,0,4.751-1.9l4.777-8.274H423.7l4.777,8.274a4.134,4.134,0,0,0,4.751,1.9,58.176,58.176,0,0,0,11.039-4.569,4.129,4.129,0,0,0,2.008-4.7l-2.474-9.233,10.282-10.282,9.233,2.474a4.128,4.128,0,0,0,4.7-2.009,58.309,58.309,0,0,0,4.569-11.039,4.135,4.135,0,0,0-1.9-4.751l-8.273-4.777V330.011Zm-43.776,41.138A33.938,33.938,0,1,1,450.3,339.486,33.942,33.942,0,0,1,418.633,371.149Z" transform="translate(-360.098 -280.953)" fill="#88bba9"/>
            </g>
          </g>
        </g>
        <g id="Grupo_1171745" data-name="Grupo 1171745" transform="translate(61.311 71.896)">
          <g id="Grupo_1171712" data-name="Grupo 1171712">
            <path id="Trazado_1016212" data-name="Trazado 1016212" d="M395.641,370.009l-284.262-.732a23.991,23.991,0,0,1-23.924-24.34c1.082-73.917,2.751-145.622,6.488-215.363a23.982,23.982,0,0,1,23.04-22.668c94.5-3.573,189.192-3.08,284.4,3.225a23.988,23.988,0,0,1,22.386,23.206c2.109,70.874,1.361,141.964-4.138,214.429A24.014,24.014,0,0,1,395.641,370.009Z" transform="translate(-82.794 -99.952)" fill="#17014e" opacity="0.09"/>
            <path id="Trazado_1016213" data-name="Trazado 1016213" d="M391.275,363.752,107.02,365.991A23.992,23.992,0,0,1,82.843,341.9c.309-73.924,1.229-145.642,4.237-215.418a23.981,23.981,0,0,1,22.8-22.907c94.454-4.561,189.15-5.057,284.414.253A23.988,23.988,0,0,1,416.923,126.8c2.85,70.848,2.845,141.942-1.9,214.46A24.013,24.013,0,0,1,391.275,363.752Z" transform="translate(-82.843 -100.002)" fill="#7f7aff"/>
            <path id="Trazado_1016214" data-name="Trazado 1016214" d="M400.894,350.442c-8.375,3.059-17.488,3.229-26.4,3.362L124.275,357.58c-8.668.13-17.446.251-25.868-1.8a44.277,44.277,0,0,1-12.971-5.422,23.981,23.981,0,0,0,21.558,13.094l284.254-2.239a24,24,0,0,0,23.54-20.623A31.1,31.1,0,0,1,400.894,350.442Z" transform="translate(-82.815 -97.463)" fill="#5247bf"/>
            <path id="Trazado_1016215" data-name="Trazado 1016215" d="M112.129,119.549h0a3.26,3.26,0,0,1,3.119-3.394l25.885-1.094a3.259,3.259,0,1,1,.276,6.512l-25.885,1.1A3.26,3.26,0,0,1,112.129,119.549Z" transform="translate(-82.534 -99.843)" fill="#d6ceff"/>
            <g id="Grupo_1171711" data-name="Grupo 1171711" transform="translate(266.909 15.202)">
              <path id="Trazado_1016216" data-name="Trazado 1016216" d="M351.789,115.407a3.293,3.293,0,1,0,1.248,4.6A3.379,3.379,0,0,0,351.789,115.407Z" transform="translate(-346.965 -115.045)" fill="#ffcf4e"/>
              <path id="Trazado_1016217" data-name="Trazado 1016217" d="M386.449,116.488a3.293,3.293,0,1,0,1.248,4.6A3.377,3.377,0,0,0,386.449,116.488Z" transform="translate(-346.599 -115.033)" fill="#d6ceff"/>
              <path id="Trazado_1016218" data-name="Trazado 1016218" d="M369.636,115.964a3.293,3.293,0,1,0,1.248,4.6A3.378,3.378,0,0,0,369.636,115.964Z" transform="translate(-346.777 -115.039)" fill="#9f9cff"/>
            </g>
          </g>
          <g id="Grupo_1171713" data-name="Grupo 1171713" transform="translate(23.915 31.644)">
            <path id="Trazado_1016219" data-name="Trazado 1016219" d="M387.933,321.215l-277.372.368a4.019,4.019,0,0,1-4.019-4.009c-.172-62.05.237-121.931,3.236-179.933a4.024,4.024,0,0,1,3.859-3.808c91.418-3.6,183.1-3.611,275.449,1.73a4.029,4.029,0,0,1,3.786,3.766c3.65,58.838,4.174,117.809-.936,178.208A4.024,4.024,0,0,1,387.933,321.215Z" transform="translate(-106.508 -131.316)" fill="#ffcf4e"/>
            <path id="Trazado_1016220" data-name="Trazado 1016220" d="M392.826,139.266a4.026,4.026,0,0,0-3.775-3.7c-92.352-5.341-184.032-5.327-275.449-1.73a4.021,4.021,0,0,0-3.853,3.769A2086.833,2086.833,0,0,1,392.826,139.266Z" transform="translate(-106.474 -131.316)" fill="#ffaa08"/>
            <path id="Trazado_1016221" data-name="Trazado 1016221" d="M312.7,132.376q34.649.978,69.412,2.9" transform="translate(-104.332 -131.305)" fill="none" stroke="#17014e" stroke-linecap="round" stroke-linejoin="round" stroke-miterlimit="10" stroke-width="1"/>
            <path id="Trazado_1016222" data-name="Trazado 1016222" d="M109.423,144.115q.156-3.241.323-6.474a4.024,4.024,0,0,1,3.859-3.808c63.1-2.483,126.317-3.258,189.8-1.744" transform="translate(-106.477 -131.316)" fill="none" stroke="#17014e" stroke-linecap="round" stroke-linejoin="round" stroke-miterlimit="10" stroke-width="1"/>
          </g>
          <g id="Grupo_1171724" data-name="Grupo 1171724" transform="translate(38.765 44.443)">
            <g id="Grupo_1171715" data-name="Grupo 1171715" transform="translate(1.909 137.906)">
              <g id="Grupo_1171714" data-name="Grupo 1171714">
                <path id="Trazado_1016223" data-name="Trazado 1016223" d="M165.369,286.513c.538,6.127.774,12.284.71,18.431a4.949,4.949,0,0,1-4.125,4.96,153.328,153.328,0,0,1-32.1,1.1,4.917,4.917,0,0,1-4.421-4.231,72.573,72.573,0,0,1-.8-18.517,4.894,4.894,0,0,1,4.115-4.514,233.438,233.438,0,0,1,31.906-1.867A4.935,4.935,0,0,1,165.369,286.513Z" transform="translate(-123.079 -280.432)" fill="#17014e" opacity="0.09"/>
                <path id="Trazado_1016224" data-name="Trazado 1016224" d="M164.5,285.714c.241,6.145.179,12.307-.183,18.444a4.95,4.95,0,0,1-4.361,4.755,153.334,153.334,0,0,1-32.112-.457,4.916,4.916,0,0,1-4.211-4.44,72.553,72.553,0,0,1,.1-18.535,4.895,4.895,0,0,1,4.329-4.31,233.418,233.418,0,0,1,31.96-.32A4.938,4.938,0,0,1,164.5,285.714Z" transform="translate(-123.092 -280.447)" fill="#fff"/>
                <path id="Trazado_1016225" data-name="Trazado 1016225" d="M161.07,305.95a17.837,17.837,0,0,1-5.708.853,203.076,203.076,0,0,1-21.9-.6,42.45,42.45,0,0,1-9.664-1.565,4.858,4.858,0,0,0,4.042,3.569,153.4,153.4,0,0,0,32.112.457,4.95,4.95,0,0,0,4.361-4.755c.005-.079.006-.158.011-.236A7.782,7.782,0,0,1,161.07,305.95Z" transform="translate(-123.085 -280.202)" fill="#7f7aff"/>
                <path id="Trazado_1016226" data-name="Trazado 1016226" d="M153.975,306.818c-6.86.167-13.724-.118-20.569-.633-1.376-.1-2.77-.225-4.149-.4" transform="translate(-123.027 -280.179)" fill="none" stroke="#17014e" stroke-linecap="round" stroke-linejoin="round" stroke-miterlimit="10" stroke-width="1"/>
              </g>
              <rect id="Rectángulo_414353" data-name="Rectángulo 414353" width="6.941" height="4.583" transform="translate(14.915 21.474) rotate(-89.043)" fill="#ef5e9c"/>
              <rect id="Rectángulo_414354" data-name="Rectángulo 414354" width="15.691" height="4.583" transform="translate(6.347 21.299) rotate(-89.043)" fill="#ef5e9c"/>
              <rect id="Rectángulo_414355" data-name="Rectángulo 414355" width="12.553" height="4.583" transform="translate(23.231 21.687) rotate(-89.043)" fill="#ef5e9c"/>
              <rect id="Rectángulo_414356" data-name="Rectángulo 414356" width="9.353" height="4.583" transform="translate(31.79 21.554) rotate(-89.043)" fill="#ef5e9c"/>
            </g>
            <path id="Trazado_1016227" data-name="Trazado 1016227" d="M123.575,149.125h0a4.97,4.97,0,0,1,4.959-4.979l82.637-.165a4.969,4.969,0,0,1,.02,9.938l-82.638.165A4.97,4.97,0,0,1,123.575,149.125Z" transform="translate(-121.178 -143.981)" fill="#34a5d1"/>
            <g id="Grupo_1171717" data-name="Grupo 1171717" transform="translate(51.74 138.567)">
              <g id="Grupo_1171716" data-name="Grupo 1171716">
                <path id="Trazado_1016228" data-name="Trazado 1016228" d="M215.372,287.34c.259,6.145.215,12.305-.128,18.445a4.951,4.951,0,0,1-4.347,4.768,153.407,153.407,0,0,1-32.118-.363,4.913,4.913,0,0,1-4.224-4.427,72.508,72.508,0,0,1,.042-18.535,4.894,4.894,0,0,1,4.316-4.323,233.223,233.223,0,0,1,31.963-.413A4.936,4.936,0,0,1,215.372,287.34Z" transform="translate(-172.386 -281.09)" fill="#17014e" opacity="0.09"/>
                <path id="Trazado_1016229" data-name="Trazado 1016229" d="M213.853,286.434c.218,6.146.134,12.307-.25,18.444a4.95,4.95,0,0,1-4.379,4.739,153.319,153.319,0,0,1-32.114-.575,4.915,4.915,0,0,1-4.2-4.456,72.484,72.484,0,0,1,.165-18.534,4.893,4.893,0,0,1,4.344-4.294,233.263,233.263,0,0,1,31.965-.2A4.937,4.937,0,0,1,213.853,286.434Z" transform="translate(-172.403 -281.101)" fill="#fff"/>
                <path id="Trazado_1016230" data-name="Trazado 1016230" d="M210.341,306.657a17.817,17.817,0,0,1-5.711.832,202.506,202.506,0,0,1-21.9-.675,42.479,42.479,0,0,1-9.661-1.6,4.854,4.854,0,0,0,4.028,3.582,153.383,153.383,0,0,0,32.114.575,4.95,4.95,0,0,0,4.379-4.739c.005-.08.007-.16.012-.241A7.762,7.762,0,0,1,210.341,306.657Z" transform="translate(-172.396 -280.855)" fill="#7f7aff"/>
                <path id="Trazado_1016231" data-name="Trazado 1016231" d="M200.665,307.537c-5.995.028-11.99-.269-17.969-.741-1.983-.157-4-.35-5.959-.7" transform="translate(-172.357 -280.837)" fill="none" stroke="#17014e" stroke-linecap="round" stroke-linejoin="round" stroke-miterlimit="10" stroke-width="1"/>
                <path id="Trazado_1016232" data-name="Trazado 1016232" d="M211.064,306.158a8.309,8.309,0,0,1-1.06.48,16.163,16.163,0,0,1-5.034.809" transform="translate(-172.059 -280.836)" fill="none" stroke="#17014e" stroke-linecap="round" stroke-linejoin="round" stroke-miterlimit="10" stroke-width="1"/>
              </g>
              <rect id="Rectángulo_414357" data-name="Rectángulo 414357" width="5.144" height="9.676" transform="matrix(1, -0.006, 0.006, 1, 17.879, 12.087)" fill="#ef5e9c"/>
              <rect id="Rectángulo_414358" data-name="Rectángulo 414358" width="5.144" height="4.184" transform="matrix(1, -0.006, 0.006, 1, 7.191, 17.645)" fill="#ef5e9c"/>
              <rect id="Rectángulo_414359" data-name="Rectángulo 414359" width="5.144" height="15.691" transform="matrix(1, -0.006, 0.006, 1, 29.447, 6)" fill="#ef5e9c"/>
            </g>
            <g id="Grupo_1171720" data-name="Grupo 1171720" transform="translate(2.44 105.559)">
              <g id="Grupo_1171718" data-name="Grupo 1171718">
                <path id="Trazado_1016233" data-name="Trazado 1016233" d="M209.694,275.705a767.091,767.091,0,0,1-79.14-2.2,6.208,6.208,0,0,1-5.7-6.222,77.014,77.014,0,0,1,.951-11.723,6.213,6.213,0,0,1,6.265-5.245c25.858.567,51.762,1.179,78.389,2.548a6.2,6.2,0,0,1,5.878,5.978,63.236,63.236,0,0,1-.676,11.626A6.2,6.2,0,0,1,209.694,275.705Z" transform="translate(-123.605 -248.418)" fill="#17014e" opacity="0.09"/>
                <path id="Trazado_1016234" data-name="Trazado 1016234" d="M208.566,272.753a766.73,766.73,0,0,1-79.163-1.107,6.207,6.207,0,0,1-5.782-6.142,77.018,77.018,0,0,1,.788-11.736,6.214,6.214,0,0,1,6.193-5.331c25.863.21,51.774.465,78.416,1.465a6.2,6.2,0,0,1,5.96,5.9,63.175,63.175,0,0,1-.515,11.634A6.2,6.2,0,0,1,208.566,272.753Z" transform="translate(-123.618 -248.438)" fill="#fff"/>
                <path id="Trazado_1016235" data-name="Trazado 1016235" d="M186.194,249.215q2.747.067,5.5.14a18.016,18.016,0,0,1,.962,13.021c-1.3,4.121-4.043,7.584-6.873,10.88q-9.242.076-18.483-.067c-.449-3.617,2.162-7.055,5.191-9.17,3.148-2.2,6.862-3.543,9.82-5.993C184.906,255.882,186.844,252.392,186.194,249.215Zm-36.957,11.477a17.027,17.027,0,0,1,7.42-12q-4.064-.05-8.121-.093a18.39,18.39,0,0,0-3.774,4.277,34.487,34.487,0,0,0-5.74,19.347c4.517.24,9.036.423,13.557.583A17.047,17.047,0,0,1,149.237,260.692Z" transform="translate(-123.456 -248.436)" fill="#ece8ff"/>
                <path id="Trazado_1016236" data-name="Trazado 1016236" d="M129.4,271.447a766.721,766.721,0,0,0,79.163,1.107,6.192,6.192,0,0,0,5.865-5.182c-8.588,4.158-18.76,4.025-28.4,3.754l-29.24-.825c-11.195-.315-22.553-.687-32.774-2.911A6.183,6.183,0,0,0,129.4,271.447Z" transform="translate(-123.614 -248.238)" fill="#7f7aff"/>
                <path id="Trazado_1016237" data-name="Trazado 1016237" d="M142.744,269.737a137.812,137.812,0,0,1-15.186-1.657" transform="translate(-123.577 -248.231)" fill="none" stroke="#17014e" stroke-linecap="round" stroke-linejoin="round" stroke-miterlimit="10" stroke-width="1"/>
                <path id="Trazado_1016238" data-name="Trazado 1016238" d="M206.477,269.955c-6.655,1.459-13.811,1.336-20.694,1.142l-29.24-.825c-3.148-.089-6.309-.182-9.454-.319" transform="translate(-123.371 -248.211)" fill="none" stroke="#17014e" stroke-linecap="round" stroke-linejoin="round" stroke-miterlimit="10" stroke-width="1"/>
              </g>
              <g id="Grupo_1171719" data-name="Grupo 1171719" transform="translate(8.324 8.418)">
                <path id="Trazado_1016239" data-name="Trazado 1016239" d="M135.77,257.232a2.464,2.464,0,1,0,.372,3.587A2.515,2.515,0,0,0,135.77,257.232Z" transform="translate(-131.856 -256.768)" fill="none" stroke="#17014e" stroke-linecap="round" stroke-linejoin="round" stroke-miterlimit="10" stroke-width="1"/>
                <path id="Trazado_1016240" data-name="Trazado 1016240" d="M153.456,258.655a2.464,2.464,0,1,0,.373,3.586A2.514,2.514,0,0,0,153.456,258.655Z" transform="translate(-131.669 -256.753)" fill="#17014e" stroke="#17014e" stroke-linecap="round" stroke-linejoin="round" stroke-miterlimit="10" stroke-width="1"/>
                <path id="Trazado_1016241" data-name="Trazado 1016241" d="M164.32,258.994a2.464,2.464,0,1,0,.373,3.586A2.514,2.514,0,0,0,164.32,258.994Z" transform="translate(-131.554 -256.75)" fill="none" stroke="#17014e" stroke-linecap="round" stroke-linejoin="round" stroke-miterlimit="10" stroke-width="1"/>
                <path id="Trazado_1016242" data-name="Trazado 1016242" d="M176.519,259.13a2.464,2.464,0,1,0,.373,3.587A2.515,2.515,0,0,0,176.519,259.13Z" transform="translate(-131.426 -256.748)" fill="#17014e" stroke="#17014e" stroke-linecap="round" stroke-linejoin="round" stroke-miterlimit="10" stroke-width="1"/>
                <path id="Trazado_1016243" data-name="Trazado 1016243" d="M192.839,259.011a2.464,2.464,0,1,0,.373,3.587A2.516,2.516,0,0,0,192.839,259.011Z" transform="translate(-131.253 -256.749)" fill="#17014e" stroke="#17014e" stroke-linecap="round" stroke-linejoin="round" stroke-miterlimit="10" stroke-width="1"/>
                <path id="Trazado_1016244" data-name="Trazado 1016244" d="M205.548,258.292a2.464,2.464,0,1,0,.373,3.587A2.515,2.515,0,0,0,205.548,258.292Z" transform="translate(-131.119 -256.757)" fill="none" stroke="#17014e" stroke-linecap="round" stroke-linejoin="round" stroke-miterlimit="10" stroke-width="1"/>
                <path id="Trazado_1016245" data-name="Trazado 1016245" d="M165.218,261.006q18.405.315,36.8-.709" transform="translate(-131.504 -256.731)" fill="none" stroke="#17014e" stroke-linecap="round" stroke-linejoin="round" stroke-miterlimit="10" stroke-width="1"/>
                <path id="Trazado_1016246" data-name="Trazado 1016246" d="M136.614,259.688q12.008.9,24.051,1.218" transform="translate(-131.805 -256.737)" fill="none" stroke="#17014e" stroke-linecap="round" stroke-linejoin="round" stroke-miterlimit="10" stroke-width="1"/>
              </g>
            </g>
            <g id="Grupo_1171723" data-name="Grupo 1171723" transform="translate(0 15.553)">
              <g id="Grupo_1171721" data-name="Grupo 1171721">
                <path id="Trazado_1016247" data-name="Trazado 1016247" d="M208.625,241.77a675.9,675.9,0,0,1-75.266-.97,9.451,9.451,0,0,1-8.775-8.438,280.813,280.813,0,0,1,.341-60.8,9.427,9.427,0,0,1,8.97-8.278c25.3-1.159,50.676-1.436,76.5-.526a9.453,9.453,0,0,1,9.135,8.912,353.631,353.631,0,0,1-1.9,61.822A9.46,9.46,0,0,1,208.625,241.77Z" transform="translate(-121.183 -159.341)" fill="#17014e" opacity="0.09"/>
                <path id="Trazado_1016248" data-name="Trazado 1016248" d="M207.1,238.682a675.691,675.691,0,0,1-75.271-.25,9.453,9.453,0,0,1-8.855-8.353,280.756,280.756,0,0,1-.242-60.8,9.426,9.426,0,0,1,8.89-8.364c25.285-1.4,50.66-1.921,76.49-1.258a9.453,9.453,0,0,1,9.22,8.824,353.556,353.556,0,0,1-1.312,61.837A9.461,9.461,0,0,1,207.1,238.682Z" transform="translate(-121.203 -159.371)" fill="#ece8ff"/>
                <path id="Trazado_1016249" data-name="Trazado 1016249" d="M216.024,230.31a9.46,9.46,0,0,1-8.92,8.364q-13.782.723-27.585.879A31.881,31.881,0,0,1,192.2,216.3c7.3-5.37,17-7.3,25.318-3.848C217.178,218.4,216.7,224.344,216.024,230.31Zm.38-65.354c-.619,8.053-5.648,15.4-12,20.505-6.791,5.455-15,8.772-23.061,12.083s-16.229,6.785-22.824,12.475a42.347,42.347,0,0,0-14.378,29.007q9.392.383,18.793.505a25.819,25.819,0,0,1,2.826-15.568,31.745,31.745,0,0,1,12.483-12.549c7.653-4.336,16.583-5.722,24.812-8.828,5.752-2.172,11.485-5.651,15.039-10.484q-.014-11.845-.76-23.629A9.349,9.349,0,0,0,216.4,164.956Zm-64.1-4.983q-3,.106-5.989.234a45.248,45.248,0,0,1-25.076,35.673q-.092,10.487.617,21.305A75.548,75.548,0,0,0,152.3,159.973Z" transform="translate(-121.203 -159.365)" fill="#fff"/>
                <path id="Trazado_1016250" data-name="Trazado 1016250" d="M131.8,237.663a675.691,675.691,0,0,0,75.271.25,9.478,9.478,0,0,0,8.149-5.576c-3.5,2.217-8.156,2.6-12.431,2.8-19.1.855-38.241,1.214-57.349.448-7.288-.292-14.8-.821-21.457-2.925A9.491,9.491,0,0,0,131.8,237.663Z" transform="translate(-121.174 -158.601)" fill="#7f7aff"/>
                <path id="Trazado_1016251" data-name="Trazado 1016251" d="M195.961,235.4c-16.848.643-33.716.842-50.561.166a101.42,101.42,0,0,1-17.241-1.813" transform="translate(-121.13 -158.586)" fill="none" stroke="#17014e" stroke-linecap="round" stroke-linejoin="round" stroke-miterlimit="10" stroke-width="1"/>
                <path id="Trazado_1016252" data-name="Trazado 1016252" d="M211.87,233.563a32.947,32.947,0,0,1-9.9,1.554" transform="translate(-120.351 -158.588)" fill="none" stroke="#17014e" stroke-linecap="round" stroke-linejoin="round" stroke-miterlimit="10" stroke-width="1"/>
              </g>
              <g id="Grupo_1171722" data-name="Grupo 1171722" transform="translate(26.158 17.14)">
                <path id="Trazado_1016253" data-name="Trazado 1016253" d="M179.628,178.576a22.6,22.6,0,1,0,12.263,23.731A23.224,23.224,0,0,0,179.628,178.576Z" transform="translate(-147.089 -176.332)" fill="#8237cc"/>
                <path id="Trazado_1016254" data-name="Trazado 1016254" d="M169.308,176.339a22.442,22.442,0,0,0-19.822,32.845c.3.574.625,1.128.972,1.669l19.934-13.785Z" transform="translate(-147.089 -176.332)" fill="#34a5d1"/>
                <path id="Trazado_1016255" data-name="Trazado 1016255" d="M165.941,176.644a22.668,22.668,0,0,0-12.48,6.307,23.271,23.271,0,0,0-6.155,19.261" transform="translate(-147.089 -176.329)" fill="none" stroke="#17014e" stroke-linecap="round" stroke-linejoin="round" stroke-miterlimit="10" stroke-width="1"/>
                <path id="Trazado_1016256" data-name="Trazado 1016256" d="M191.863,202.144a22.169,22.169,0,0,0-.9-10.312c-.41,14.352-6.451,25.964-20.594,26.016-9.366.034-16.613-4.84-20.672-8.419a22.588,22.588,0,0,0,42.17-7.285Z" transform="translate(-147.061 -176.169)" fill="#17014e"/>
              </g>
            </g>
          </g>
          <g id="Grupo_1171732" data-name="Grupo 1171732" transform="translate(146.789 44.674)">
            <path id="Trazado_1016257" data-name="Trazado 1016257" d="M228.264,149.314h0a4.969,4.969,0,0,1,4.959-4.979l63.287-.126a4.969,4.969,0,0,1,.02,9.938l-63.287.126A4.969,4.969,0,0,1,228.264,149.314Z" transform="translate(-228.098 -144.209)" fill="#ef5e9c"/>
            <g id="Grupo_1171731" data-name="Grupo 1171731" transform="translate(0 15.852)">
              <g id="Grupo_1171725" data-name="Grupo 1171725">
                <path id="Trazado_1016258" data-name="Trazado 1016258" d="M295.563,161.852a7.488,7.488,0,0,1,7.133,6.482c2.867,21.683,2.8,43.682,2.73,65.575l-.236,71.227a7.476,7.476,0,0,1-6.89,7.429,589.407,589.407,0,0,1-58.976,1.4A7.49,7.49,0,0,1,232,306.741c-1.579-46.356-2.071-91.55-2.208-137.084a7.478,7.478,0,0,1,7.245-7.492C256.551,161.544,276.07,161.063,295.563,161.852Z" transform="translate(-228.082 -159.88)" fill="#17014e" opacity="0.09"/>
                <path id="Trazado_1016259" data-name="Trazado 1016259" d="M294.359,160.678a7.489,7.489,0,0,1,7.044,6.58c2.567,21.721,2.2,43.716,1.824,65.606l-1.221,71.217a7.476,7.476,0,0,1-6.992,7.333,589.537,589.537,0,0,1-58.99.581,7.488,7.488,0,0,1-7.23-7.319c-.939-46.373-.8-91.57-.312-137.1a7.477,7.477,0,0,1,7.347-7.391C255.357,159.83,274.879,159.62,294.359,160.678Z" transform="translate(-228.099 -159.896)" fill="#fff"/>
                <path id="Trazado_1016260" data-name="Trazado 1016260" d="M302.006,304.08a7.475,7.475,0,0,1-6.992,7.333c-6.648.435-13.35.711-20.083.873a13.82,13.82,0,0,1,5.706-12.457c2.929-2.016,6.722-2.931,8.887-5.751,1.922-2.507,2.072-5.906,3.157-8.874a13.947,13.947,0,0,1,9.8-8.642ZM228.482,167.572q-.089,8.248-.161,16.483c6.27,1,13.333-1.89,17.937-7.1a23.651,23.651,0,0,0,5.7-17q-8.064.077-16.132.23A7.478,7.478,0,0,0,228.482,167.572Zm56.211,49.637c1.267-8.226,1.866-16.932,6.379-23.926a28,28,0,0,1,11.737-9.924q-.327-5.519-.863-11.022c-5.666.2-11.3,1.321-15.367,5.091-3.178,2.95-4.919,7.144-5.967,11.351s-1.5,8.549-2.592,12.744a42.422,42.422,0,0,1-49.913,30.77q0,12.022.074,24.09a26.738,26.738,0,0,0,10.771-3.459c4.29-2.293,8.312-5.142,12.865-6.856,7.326-2.759,15.858-2.528,22.263-7.027C280.891,234.257,283.425,225.434,284.693,217.209Z" transform="translate(-228.099 -159.895)" fill="#ece8ff"/>
                <path id="Trazado_1016261" data-name="Trazado 1016261" d="M295,309.945a7.476,7.476,0,0,0,6.992-7.333l.06-3.466c-1.646,3.643-5.307,6.383-9.2,7.65-4.886,1.591-10.147,1.358-15.285,1.335-14.058-.063-28.246,1.557-42.1-.854a21.683,21.683,0,0,1-6.333-1.942,7.5,7.5,0,0,0,6.875,5.191A589.875,589.875,0,0,0,295,309.945Z" transform="translate(-228.088 -158.426)" fill="#7f7aff"/>
                <path id="Trazado_1016262" data-name="Trazado 1016262" d="M285.627,307.968c-2.686.165-5.411.1-8.1.084-14.058-.063-28.246,1.557-42.1-.854-.829-.145-1.67-.314-2.5-.526" transform="translate(-228.048 -158.347)" fill="none" stroke="#17014e" stroke-linecap="round" stroke-linejoin="round" stroke-miterlimit="10" stroke-width="1"/>
                <path id="Trazado_1016263" data-name="Trazado 1016263" d="M299.977,301.479a16.323,16.323,0,0,1-7.772,5.291c-.61.2-1.227.369-1.847.514" transform="translate(-227.442 -158.402)" fill="none" stroke="#17014e" stroke-linecap="round" stroke-linejoin="round" stroke-miterlimit="10" stroke-width="1"/>
              </g>
              <g id="Grupo_1171728" data-name="Grupo 1171728" transform="translate(7.22 93.43)">
                <g id="Grupo_1171727" data-name="Grupo 1171727">
                  <path id="Trazado_1016264" data-name="Trazado 1016264" d="M236.933,257.348c.278,9.579.556,19.156,1.951,28.735,17.819.884,35.683.9,53.581.581a238.162,238.162,0,0,0-.1-34.314" transform="translate(-235.227 -252.35)" fill="none" stroke="#17014e" stroke-linecap="round" stroke-linejoin="round" stroke-miterlimit="10" stroke-width="1"/>
                  <g id="Grupo_1171726" data-name="Grupo 1171726" transform="translate(0 1.406)">
                    <path id="Trazado_1016265" data-name="Trazado 1016265" d="M238.891,268.131a2.427,2.427,0,1,0,.7,3.518A2.462,2.462,0,0,0,238.891,268.131Z" transform="translate(-235.244 -253.593)" fill="none" stroke="#17014e" stroke-linecap="round" stroke-linejoin="round" stroke-miterlimit="10" stroke-width="1"/>
                    <path id="Trazado_1016266" data-name="Trazado 1016266" d="M250.3,259.326a2.426,2.426,0,1,0,.7,3.517A2.463,2.463,0,0,0,250.3,259.326Z" transform="translate(-235.124 -253.686)" fill="none" stroke="#17014e" stroke-linecap="round" stroke-linejoin="round" stroke-miterlimit="10" stroke-width="1"/>
                    <path id="Trazado_1016267" data-name="Trazado 1016267" d="M262.162,271.231a2.426,2.426,0,1,0,.7,3.518A2.461,2.461,0,0,0,262.162,271.231Z" transform="translate(-234.999 -253.56)" fill="none" stroke="#17014e" stroke-linecap="round" stroke-linejoin="round" stroke-miterlimit="10" stroke-width="1"/>
                    <path id="Trazado_1016268" data-name="Trazado 1016268" d="M275.643,254.06a2.426,2.426,0,1,0,.7,3.518A2.462,2.462,0,0,0,275.643,254.06Z" transform="translate(-234.857 -253.741)" fill="none" stroke="#17014e" stroke-linecap="round" stroke-linejoin="round" stroke-miterlimit="10" stroke-width="1"/>
                    <path id="Trazado_1016269" data-name="Trazado 1016269" d="M293.718,267.465a2.427,2.427,0,1,0,.7,3.518A2.464,2.464,0,0,0,293.718,267.465Z" transform="translate(-234.666 -253.6)" fill="none" stroke="#17014e" stroke-linecap="round" stroke-linejoin="round" stroke-miterlimit="10" stroke-width="1"/>
                    <line id="Línea_993" data-name="Línea 993" x2="14.369" y2="10.673" transform="translate(41.555 3.742)" fill="none" stroke="#17014e" stroke-linecap="round" stroke-linejoin="round" stroke-miterlimit="10" stroke-width="1"/>
                    <line id="Línea_994" data-name="Línea 994" y1="13.594" x2="10.579" transform="translate(27.591 4.404)" fill="none" stroke="#17014e" stroke-linecap="round" stroke-linejoin="round" stroke-miterlimit="10" stroke-width="1"/>
                    <line id="Línea_995" data-name="Línea 995" x2="8.7" y2="8.495" transform="translate(15.579 9.485)" fill="none" stroke="#17014e" stroke-linecap="round" stroke-linejoin="round" stroke-miterlimit="10" stroke-width="1"/>
                    <path id="Trazado_1016270" data-name="Trazado 1016270" d="M239.632,268.953l7.6-6.106" transform="translate(-235.198 -253.645)" fill="none" stroke="#17014e" stroke-linecap="round" stroke-linejoin="round" stroke-miterlimit="10" stroke-width="1"/>
                  </g>
                </g>
                <path id="Trazado_1016271" data-name="Trazado 1016271" d="M238.744,291.6h0a1.621,1.621,0,0,1,1.67-1.569l21.428.668a1.621,1.621,0,0,1-.1,3.24l-21.428-.668A1.622,1.622,0,0,1,238.744,291.6Z" transform="translate(-235.208 -251.952)" fill="#7f7aff"/>
              </g>
              <g id="Grupo_1171730" data-name="Grupo 1171730" transform="translate(6.215 18.585)">
                <path id="Trazado_1016272" data-name="Trazado 1016272" d="M234.9,222.277h0a1.62,1.62,0,0,1,1.67-1.568l21.428.668a1.62,1.62,0,0,1-.1,3.238l-21.428-.668A1.62,1.62,0,0,1,234.9,222.277Z" transform="translate(-234.243 -177.839)" fill="#7f7aff"/>
                <g id="Grupo_1171729" data-name="Grupo 1171729">
                  <path id="Trazado_1016273" data-name="Trazado 1016273" d="M296.547,195.068q.186,10.537.371,21.072c-21.613.274-41.985.421-62.667-.14,0-8.2,0-16.4.462-24.778a6.4,6.4,0,0,1,7.56-1.754c1.795.871,3.612,2.671,5.436,1.859,1.689-.751,1.718-3.042,1.926-4.864a9.43,9.43,0,0,1,5.164-7.573c2.933-1.315,6.853-.448,8.535,2.271,1.348,2.18,1.1,4.949.638,7.463s-1.091,5.127-.371,7.58,3.4,4.567,5.814,3.651a9.69,9.69,0,0,0,2.818-2.2,12.276,12.276,0,0,1,10.658-2.832c2.335.508,4.48,1.7,6.822,2.172A7.214,7.214,0,0,0,296.547,195.068Z" transform="translate(-234.25 -178.287)" fill="#ef5e9c"/>
                  <path id="Trazado_1016274" data-name="Trazado 1016274" d="M234.939,186.6l-.227,4.538c-.462,8.38-.463,16.579-.462,24.778,20.681.562,41.054.414,62.667.14q-.185-10.537-.371-21.072l-.031-4.146" transform="translate(-234.25 -178.199)" fill="none" stroke="#17014e" stroke-linecap="round" stroke-linejoin="round" stroke-miterlimit="10" stroke-width="1"/>
                </g>
              </g>
            </g>
          </g>
          <g id="Grupo_1171744" data-name="Grupo 1171744" transform="translate(233.463 44.527)">
            <path id="Trazado_1016275" data-name="Trazado 1016275" d="M313.868,149.153h0a4.969,4.969,0,0,1,4.959-4.979l54.917-.11a4.969,4.969,0,1,1,.02,9.938l-54.918.11A4.968,4.968,0,0,1,313.868,149.153Z" transform="translate(-313.868 -144.064)" fill="#8237cc"/>
            <g id="Grupo_1171737" data-name="Grupo 1171737" transform="translate(0.581 15.635)">
              <g id="Grupo_1171733" data-name="Grupo 1171733">
                <path id="Trazado_1016276" data-name="Trazado 1016276" d="M377.389,238.292c-17.755.372-35.589.219-54.127-.9a5.55,5.55,0,0,1-5.2-5.572c.1-21.735.161-43.444-.382-64.78a5.554,5.554,0,0,1,5.41-5.7,502.865,502.865,0,0,1,54.123,1.133,5.569,5.569,0,0,1,5.147,5.539c.009,21.6.046,43.182.44,64.626A5.543,5.543,0,0,1,377.389,238.292Z" transform="translate(-314.408 -159.52)" fill="#17014e" opacity="0.09"/>
                <path id="Trazado_1016277" data-name="Trazado 1016277" d="M375.714,236.037c-17.743.765-35.574,1.007-54.134.293a5.551,5.551,0,0,1-5.318-5.456c-.378-21.732-.8-43.437-1.813-64.756a5.554,5.554,0,0,1,5.283-5.817,502.857,502.857,0,0,1,54.135-.064,5.57,5.57,0,0,1,5.268,5.425c.486,21.59,1,43.171,1.867,64.6A5.543,5.543,0,0,1,375.714,236.037Z" transform="translate(-314.443 -159.536)" fill="#fff"/>
                <path id="Trazado_1016278" data-name="Trazado 1016278" d="M314.45,166.117a5.554,5.554,0,0,1,5.283-5.817c8.414-.419,16.859-.689,25.424-.747a9.423,9.423,0,0,1-.22,2.528A22.365,22.365,0,0,1,332.3,177.421c-5.612,2.46-12.252,2.38-17.434-1.064C314.735,172.94,314.612,169.516,314.45,166.117Zm64.822,5.405c-4.353,1.715-8.028,5.339-10.863,9.192-3.746,5.093-6.643,10.883-11.217,15.248-6.377,6.088-15.2,8.684-23.382,11.964-6.833,2.741-13.836,6.532-17.745,12.16q.1,5.392.2,10.787a5.549,5.549,0,0,0,5.318,5.456c11.172.43,22.076.508,32.859.34a19.058,19.058,0,0,0,2.707-4.9c1.754-4.677,1.947-9.766,2.256-14.752s.786-10.1,3.029-14.566c3.675-7.317,11.426-11.7,17.16-17.5Q379.426,178.237,379.272,171.522Z" transform="translate(-314.442 -159.536)" fill="#ece8ff"/>
                <path id="Trazado_1016279" data-name="Trazado 1016279" d="M380.9,227.432a16.612,16.612,0,0,1-8.076,4.607,45.823,45.823,0,0,1-11.7.968l-37.267-.119a29.06,29.06,0,0,1-7.176-.656,5.539,5.539,0,0,0,4.878,3.381c18.56.713,36.391.472,54.134-.293a5.544,5.544,0,0,0,5.29-5.774C380.952,228.843,380.931,228.135,380.9,227.432Z" transform="translate(-314.419 -158.82)" fill="#7f7aff"/>
                <path id="Trazado_1016280" data-name="Trazado 1016280" d="M372.785,231.991a45.826,45.826,0,0,1-11.7.968l-37.267-.119c-1.05,0-2.127-.017-3.189-.079" transform="translate(-314.377 -158.772)" fill="none" stroke="#17014e" stroke-linecap="round" stroke-linejoin="round" stroke-miterlimit="10" stroke-width="1"/>
              </g>
              <g id="Grupo_1171736" data-name="Grupo 1171736" transform="translate(14.732 18.313)">
                <path id="Trazado_1016281" data-name="Trazado 1016281" d="M357.451,179.618a19.746,19.746,0,1,0,10.716,20.736A20.293,20.293,0,0,0,357.451,179.618Z" transform="translate(-329.021 -177.658)" fill="#ffcf4e"/>
                <g id="Grupo_1171734" data-name="Grupo 1171734" transform="translate(7.071 7.068)">
                  <path id="Trazado_1016282" data-name="Trazado 1016282" d="M354.236,185.909A12.653,12.653,0,1,0,361.1,199.2,13,13,0,0,0,354.236,185.909Z" transform="translate(-336.018 -184.653)" fill="none" stroke="#17014e" stroke-linecap="round" stroke-linejoin="round" stroke-miterlimit="10" stroke-width="1"/>
                  <path id="Trazado_1016283" data-name="Trazado 1016283" d="M343.269,185.808a12.16,12.16,0,0,0-3.683,2.54,12.653,12.653,0,0,0,11.041,21.367,12.58,12.58,0,0,0,6.338-3.1" transform="translate(-336.018 -184.64)" fill="none" stroke="#8237cc" stroke-miterlimit="10" stroke-width="5"/>
                </g>
                <g id="Grupo_1171735" data-name="Grupo 1171735" transform="translate(15.492 15.252)">
                  <path id="Trazado_1016284" data-name="Trazado 1016284" d="M346.388,200.787a2.85,2.85,0,0,1-.866-.117,1.607,1.607,0,0,1-.586-.316,1.423,1.423,0,0,1-.357-.516,2.6,2.6,0,0,1-.181-.664,6.117,6.117,0,0,1-.048-.811H345.9a2.787,2.787,0,0,0,.117.971.418.418,0,0,0,.427.258h.042a.6.6,0,0,0,.169-.03.278.278,0,0,0,.129-.094,1.371,1.371,0,0,0,.092-.129.557.557,0,0,0,.061-.19c.016-.086.028-.161.037-.225a2.586,2.586,0,0,0,.019-.282c0-.123.005-.226.007-.309s0-.2,0-.359q0-.314-.021-.531a2.184,2.184,0,0,0-.08-.413.568.568,0,0,0-.185-.3.5.5,0,0,0-.314-.1q-.5,0-.609.708H344.4l.136-4.476h3.645v1.346h-2.345l-.094,1.6a.883.883,0,0,1,.373-.232,2.207,2.207,0,0,1,.579-.129q.108-.009.206-.009a1.337,1.337,0,0,1,1.149.572,3.269,3.269,0,0,1,.469,1.91q0,.446-.033.79a4.976,4.976,0,0,1-.115.685,1.957,1.957,0,0,1-.234.582,1.807,1.807,0,0,1-.385.432,1.542,1.542,0,0,1-.575.284A2.936,2.936,0,0,1,346.388,200.787Z" transform="translate(-344.351 -192.75)" fill="#17014e"/>
                  <path id="Trazado_1016285" data-name="Trazado 1016285" d="M351.413,200.788a2.02,2.02,0,0,1-1.576-.605,2.324,2.324,0,0,1-.549-1.623v-3.528a2.455,2.455,0,0,1,.533-1.67,2.368,2.368,0,0,1,3.176,0,2.456,2.456,0,0,1,.533,1.667v3.528a2.32,2.32,0,0,1-.554,1.619A2,2,0,0,1,351.413,200.788Zm0-1.426q.479,0,.478-.845v-3.439c0-.075,0-.135,0-.181s-.006-.109-.014-.19a.689.689,0,0,0-.044-.2,1.426,1.426,0,0,0-.082-.16.308.308,0,0,0-.136-.122.477.477,0,0,0-.2-.039.575.575,0,0,0-.162.021.268.268,0,0,0-.122.075c-.033.035-.061.069-.085.1a.344.344,0,0,0-.057.133c-.014.06-.025.105-.032.136a.844.844,0,0,0-.016.155c0,.072-.005.118-.005.138v3.572Q350.934,199.362,351.413,199.362Z" transform="translate(-344.299 -192.751)" fill="#17014e"/>
                </g>
              </g>
            </g>
            <g id="Grupo_1171743" data-name="Grupo 1171743" transform="translate(3.248 100.563)">
              <g id="Grupo_1171738" data-name="Grupo 1171738">
                <path id="Trazado_1016286" data-name="Trazado 1016286" d="M382.921,251.889q1.238,29.146-.346,58.32a5.557,5.557,0,0,1-5.81,5.228c-17.407-.8-34.439-1.563-51.391-2.9a5.55,5.55,0,0,1-5.1-5.271c-.9-19.717-.877-38.374-.941-56.4a5.565,5.565,0,0,1,5.375-5.572,430.956,430.956,0,0,1,53.15,1.3A5.551,5.551,0,0,1,382.921,251.889Z" transform="translate(-317.059 -243.562)" fill="#17014e" opacity="0.09"/>
                <path id="Trazado_1016287" data-name="Trazado 1016287" d="M380.678,249.468q2.036,29.1,1.253,58.308a5.557,5.557,0,0,1-5.664,5.385c-17.423-.32-34.469-.619-51.45-1.488a5.55,5.55,0,0,1-5.245-5.13c-1.44-19.685-1.929-38.335-2.486-56.351a5.564,5.564,0,0,1,5.221-5.717,430.825,430.825,0,0,1,53.166-.153A5.549,5.549,0,0,1,380.678,249.468Z" transform="translate(-317.082 -243.577)" fill="#fff"/>
                <path id="Trazado_1016288" data-name="Trazado 1016288" d="M381.4,261.748q1.138,22.992.529,46.026a5.557,5.557,0,0,1-5.664,5.385c-2.2-.04-4.378-.083-6.566-.124a18.057,18.057,0,0,1-7.734-7.616A13.868,13.868,0,0,1,360.92,294.5c1.088-2.989,3.387-5.354,5.059-8.062a21.74,21.74,0,0,0-1.132-23.925c-1.608-2.124-3.6-3.926-5.3-5.971a13.124,13.124,0,0,1-3.369-7.1,6.856,6.856,0,0,1,2.3-5.762q6,.118,12.071.4c1.4,1.947,1.656,4.725,2.3,7.149A17.13,17.13,0,0,0,381.4,261.748Zm-46.149-13.011a6.627,6.627,0,0,0-1.06-4.865q-5.959.221-11.887.6a5.564,5.564,0,0,0-5.22,5.717q.259,8.361.531,16.925a20.354,20.354,0,0,0,17.637-18.378Zm9.42,54.745c.893-4.323.354-9.121-2.338-12.618-2.921-3.794-7.993-5.505-12.773-5.225a26.4,26.4,0,0,0-11.047,3.517c.288,5.714.626,11.5,1.057,17.387a5.55,5.55,0,0,0,5.245,5.13c5.145.263,10.3.463,15.466.638A19,19,0,0,0,344.673,303.482Z" transform="translate(-317.082 -243.576)" fill="#ece8ff"/>
                <path id="Trazado_1016289" data-name="Trazado 1016289" d="M381.982,303.368a24.186,24.186,0,0,1-10.12,3.474c-4.693.607-9.448.283-14.179.281-12.744-.008-25.807,2.269-38.084-.882a5.538,5.538,0,0,0,5.189,4.8c16.981.868,34.028,1.167,51.45,1.488a5.557,5.557,0,0,0,5.664-5.385C381.938,305.885,381.957,304.627,381.982,303.368Z" transform="translate(-317.056 -242.946)" fill="#7f7aff"/>
                <path id="Trazado_1016290" data-name="Trazado 1016290" d="M357.65,307.086c-11.627-.007-23.519,1.887-34.838-.174" transform="translate(-317.022 -242.909)" fill="none" stroke="#17014e" stroke-linecap="round" stroke-linejoin="round" stroke-miterlimit="10" stroke-width="1"/>
                <path id="Trazado_1016291" data-name="Trazado 1016291" d="M378.975,304.74a26.433,26.433,0,0,1-7.6,2.088,48.879,48.879,0,0,1-5.557.361" transform="translate(-316.568 -242.932)" fill="none" stroke="#17014e" stroke-linecap="round" stroke-linejoin="round" stroke-miterlimit="10" stroke-width="1"/>
              </g>
              <g id="Grupo_1171742" data-name="Grupo 1171742" transform="translate(12.491 12.735)">
                <path id="Trazado_1016292" data-name="Trazado 1016292" d="M357.873,258.14a19.746,19.746,0,1,0,10.716,20.736A20.29,20.29,0,0,0,357.873,258.14Z" transform="translate(-329.443 -256.179)" fill="#ffcf4e"/>
                <g id="Grupo_1171740" data-name="Grupo 1171740" transform="translate(7.071 7.068)">
                  <path id="Trazado_1016293" data-name="Trazado 1016293" d="M354.658,264.43a12.653,12.653,0,1,0,6.866,13.287A13,13,0,0,0,354.658,264.43Z" transform="translate(-336.44 -263.174)" fill="none" stroke="#17014e" stroke-linecap="round" stroke-linejoin="round" stroke-miterlimit="10" stroke-width="1"/>
                  <g id="Grupo_1171739" data-name="Grupo 1171739" transform="translate(0 1.668)">
                    <path id="Trazado_1016294" data-name="Trazado 1016294" d="M342.7,264.824a11.978,11.978,0,0,0-2.689,2.04,13.006,13.006,0,0,0-2.225,14.686" transform="translate(-336.44 -264.824)" fill="none" stroke="#8237cc" stroke-miterlimit="10" stroke-width="5"/>
                  </g>
                </g>
                <g id="Grupo_1171741" data-name="Grupo 1171741" transform="translate(15.028 15.654)">
                  <path id="Trazado_1016295" data-name="Trazado 1016295" d="M344.319,279.584v-1.137l1.847-2.872c.031-.051.092-.142.183-.277s.158-.236.2-.305.1-.167.169-.294a2.566,2.566,0,0,0,.158-.326,2.654,2.654,0,0,0,.094-.312,1.455,1.455,0,0,0,.042-.341.8.8,0,0,0-.16-.545.409.409,0,0,0-.329-.136.782.782,0,0,0-.113.009.508.508,0,0,0-.406.3,1.8,1.8,0,0,0-.129.775v.376h-1.56v-.4a3.5,3.5,0,0,1,.122-.961,2.287,2.287,0,0,1,.376-.764,1.636,1.636,0,0,1,.679-.514,2.535,2.535,0,0,1,.994-.181,2.137,2.137,0,0,1,1.58.543,2.065,2.065,0,0,1,.541,1.525,2.23,2.23,0,0,1-.019.294c-.012.1-.026.188-.04.268a1.732,1.732,0,0,1-.075.27c-.036.1-.065.181-.087.243a1.975,1.975,0,0,1-.117.25l-.12.225c-.023.045-.071.123-.143.235l-.141.216-.158.232c-.083.122-.134.2-.153.221l-1.424,2.129h2.261v1.264h-4.07Z" transform="translate(-344.314 -271.67)" fill="#17014e"/>
                  <path id="Trazado_1016296" data-name="Trazado 1016296" d="M351.428,279.724a2.852,2.852,0,0,1-.867-.117,1.6,1.6,0,0,1-.587-.317,1.417,1.417,0,0,1-.357-.517,2.608,2.608,0,0,1-.181-.665,6.159,6.159,0,0,1-.046-.813h1.555a2.8,2.8,0,0,0,.117.973.417.417,0,0,0,.427.259h.042a.6.6,0,0,0,.169-.03.279.279,0,0,0,.129-.094,1.366,1.366,0,0,0,.092-.129.577.577,0,0,0,.062-.19c.016-.086.028-.162.037-.225a2.6,2.6,0,0,0,.019-.282c0-.123.005-.227.007-.31s0-.2,0-.36c0-.21-.007-.387-.021-.532a2.171,2.171,0,0,0-.08-.413.566.566,0,0,0-.186-.3.5.5,0,0,0-.315-.1q-.5,0-.611.709h-1.4l.136-4.484h3.652v1.349h-2.351l-.094,1.6a.879.879,0,0,1,.374-.232,2.174,2.174,0,0,1,.58-.129c.072-.006.14-.009.207-.009a1.341,1.341,0,0,1,1.152.573,3.271,3.271,0,0,1,.47,1.913q0,.447-.033.792a4.984,4.984,0,0,1-.115.686,1.928,1.928,0,0,1-.236.583,1.809,1.809,0,0,1-.385.432,1.523,1.523,0,0,1-.576.284A3.06,3.06,0,0,1,351.428,279.724Z" transform="translate(-344.26 -271.669)" fill="#17014e"/>
                </g>
              </g>
            </g>
          </g>
        </g>
        <g id="Grupo_1171749" data-name="Grupo 1171749" transform="translate(128.942 267.181)">
          <g id="Grupo_1171746" data-name="Grupo 1171746">
            <path id="Trazado_1016297" data-name="Trazado 1016297" d="M209.894,404.919l-4.686-111.166c-.8-1.319-7.151,9.013-7.151,9.013-12.577-.2-25.166.3-37.788,1.08a10.444,10.444,0,0,0-9.8,10.8c1.089,30.765,3.308,61.609,6.678,93.559a10.42,10.42,0,0,0,9.706,9.34,145.248,145.248,0,0,0,34.393-1.918A10.457,10.457,0,0,0,209.894,404.919Z" transform="translate(-149.76 -293.243)" fill="#17014e" opacity="0.09"/>
            <path id="Trazado_1016298" data-name="Trazado 1016298" d="M204.642,404.634l1.019-111.26c-.735-1.358-7.6,8.635-7.6,8.635-12.55-.848-25.148-.989-37.794-.858a10.444,10.444,0,0,0-10.336,10.285c-.489,30.78.146,61.7,1.874,93.778a10.421,10.421,0,0,0,9.214,9.825,145.214,145.214,0,0,0,34.447-.153A10.458,10.458,0,0,0,204.642,404.634Z" transform="translate(-149.768 -293.248)" fill="#fff"/>
            <path id="Trazado_1016299" data-name="Trazado 1016299" d="M196.348,408.6c-4.452,1.513-9.262,1.468-13.963,1.407-9.84-.128-19.724-.27-29.451-1.678a10.358,10.358,0,0,0,8.047,5.556,145.215,145.215,0,0,0,34.447-.153,10.458,10.458,0,0,0,9.18-10.253l0-.3A20.672,20.672,0,0,1,196.348,408.6Z" transform="translate(-149.734 -292.087)" fill="#7f7aff"/>
            <path id="Trazado_1016300" data-name="Trazado 1016300" d="M191.635,409.607a63.511,63.511,0,0,1-9.277.338,248.548,248.548,0,0,1-26.792-1.324" transform="translate(-149.707 -292.03)" fill="none" stroke="#17014e" stroke-linecap="round" stroke-linejoin="round" stroke-miterlimit="10" stroke-width="1"/>
            <path id="Trazado_1016301" data-name="Trazado 1016301" d="M202.584,404.688a20.445,20.445,0,0,1-6.684,3.893q-.265.089-.533.173" transform="translate(-149.287 -292.072)" fill="none" stroke="#17014e" stroke-linecap="round" stroke-linejoin="round" stroke-miterlimit="10" stroke-width="1"/>
          </g>
          <g id="Grupo_1171748" data-name="Grupo 1171748" transform="translate(7.107 35.463)">
            <path id="Trazado_1016302" data-name="Trazado 1016302" d="M196.3,348.114a330.975,330.975,0,0,1-36.509.2,3.11,3.11,0,0,1-2.946-3.583l.006-.034a4.384,4.384,0,0,1,1.767-2.873,2.619,2.619,0,0,1,3.236.168,21.361,21.361,0,0,1,2.191-8.048,8.851,8.851,0,0,1,6.543-4.728c3.359-.317,6.385,1.862,8.669,3.839a8.513,8.513,0,0,1,3.814-3.98,6.753,6.753,0,0,1,5.442-.289,6.163,6.163,0,0,1,3.755,5.1,8.777,8.777,0,0,1-2.518,6.219,6.248,6.248,0,0,1,7.316.434,6.934,6.934,0,0,1,2.124,3.71A3.159,3.159,0,0,1,196.3,348.114Z" transform="translate(-156.8 -328.34)" fill="#c6d8ff"/>
            <g id="Grupo_1171747" data-name="Grupo 1171747" transform="translate(16.398 9.823)">
              <path id="Trazado_1016303" data-name="Trazado 1016303" d="M182.177,344.713l-4.463-6.489a.378.378,0,0,0-.636.018q-2,3.283-4,6.568a.379.379,0,0,0,.327.576l2.055-.02a.38.38,0,0,1,.383.383l-.106,8.821a.38.38,0,0,0,.374.384l2.938.037a.379.379,0,0,0,.384-.374l.107-8.911a.378.378,0,0,1,.374-.374l1.95-.025A.38.38,0,0,0,182.177,344.713Z" transform="translate(-173.027 -338.06)" fill="#7f7aff"/>
              <path id="Trazado_1016304" data-name="Trazado 1016304" d="M179.395,353.515l.094-7.82a.378.378,0,0,1,.374-.374l1.95-.025a.378.378,0,0,0,.307-.593l-3.826-5.563" transform="translate(-172.971 -338.049)" fill="none" stroke="#17014e" stroke-linecap="round" stroke-linejoin="round" stroke-miterlimit="10" stroke-width="1"/>
            </g>
          </g>
          <path id="Trazado_1016305" data-name="Trazado 1016305" d="M205.509,307.836l.132-14.461c-.735-1.358-7.6,8.635-7.6,8.635-12.55-.848-25.148-.989-37.794-.858a10.435,10.435,0,0,0-8.7,4.822" transform="translate(-149.749 -293.247)" fill="none" stroke="#17014e" stroke-linecap="round" stroke-linejoin="round" stroke-miterlimit="10" stroke-width="1"/>
          <line id="Línea_996" data-name="Línea 996" x2="36.658" transform="translate(9.925 83.066)" fill="none" stroke="#17014e" stroke-linecap="round" stroke-linejoin="round" stroke-miterlimit="10" stroke-width="1"/>
          <line id="Línea_997" data-name="Línea 997" x2="36.658" transform="translate(9.925 89.867)" fill="none" stroke="#17014e" stroke-linecap="round" stroke-linejoin="round" stroke-miterlimit="10" stroke-width="1"/>
          <line id="Línea_998" data-name="Línea 998" x2="19.114" transform="translate(9.925 96.667)" fill="none" stroke="#17014e" stroke-linecap="round" stroke-linejoin="round" stroke-miterlimit="10" stroke-width="1"/>
        </g>
        <g id="Grupo_1171753" data-name="Grupo 1171753" transform="translate(0 102.212)">
          <g id="Grupo_1171750" data-name="Grupo 1171750">
            <path id="Trazado_1016306" data-name="Trazado 1016306" d="M107.2,193.39c7.939-4.073,15.877-8.145,22.911-12.5a2.522,2.522,0,0,0-.541-4.546c-8.059-2.618-16.118-5.346-24.173-8.7-6.429-11.762-15.622-22.91-28.314-27.221-10.966-3.724-23.479-1.713-33.362,4.323a45.72,45.72,0,0,0-21.491,35.846A44.966,44.966,0,0,0,39.86,218.415a44.236,44.236,0,0,0,41.258,5.9C94.678,219.209,105.253,206.79,107.2,193.39Z" transform="translate(-22.172 -129.911)" fill="#17014e" opacity="0.09"/>
            <path id="Trazado_1016307" data-name="Trazado 1016307" d="M106.654,189.786c8.372-3.083,16.745-6.167,24.254-9.646a2.521,2.521,0,0,0,.012-4.578c-7.684-3.572-15.354-7.254-22.946-11.562-4.961-12.453-12.739-24.63-24.817-30.443-10.436-5.021-23.1-4.537-33.64.261a45.721,45.721,0,0,0-25.666,32.987,44.966,44.966,0,0,0,12.925,39.684,44.236,44.236,0,0,0,40.242,10.841C91.1,213.9,103.1,202.853,106.654,189.786Z" transform="translate(-22.161 -130.001)" fill="#fff"/>
            <path id="Trazado_1016308" data-name="Trazado 1016308" d="M132.283,177.648c-11.893,2.829-26.668,6.757-26.668,6.757s-4.087,23.013-32.2,27.71-45.018-17.246-45.018-17.246a43.062,43.062,0,0,0,8.329,11.119,44.236,44.236,0,0,0,40.242,10.841c14.08-3.429,26.077-14.479,29.634-27.546,8.372-3.083,16.745-6.167,24.254-9.646A2.471,2.471,0,0,0,132.283,177.648Z" transform="translate(-22.106 -129.498)" fill="#7f7aff"/>
            <path id="Trazado_1016309" data-name="Trazado 1016309" d="M95.571,201.347c-4.831,4.612-11.911,8.8-22.224,10.523-18.022,3.011-31.436-4.923-38.746-11.009" transform="translate(-22.041 -129.253)" fill="none" stroke="#17014e" stroke-linecap="round" stroke-linejoin="round" stroke-miterlimit="10" stroke-width="1"/>
            <path id="Trazado_1016310" data-name="Trazado 1016310" d="M129.293,178.175c-11.432,2.764-24.447,6.224-24.447,6.224a31.22,31.22,0,0,1-3.659,9.15" transform="translate(-21.338 -129.493)" fill="none" stroke="#17014e" stroke-linecap="round" stroke-linejoin="round" stroke-miterlimit="10" stroke-width="1"/>
          </g>
          <g id="Grupo_1171752" data-name="Grupo 1171752" transform="translate(23.935 18.157)">
            <path id="Trazado_1016311" data-name="Trazado 1016311" d="M74.184,181.355q.23,6.892-.15,13.787a7.1,7.1,0,0,1-7.024,6.76h-.133A7.1,7.1,0,0,1,60,195.288c-.344-4.738-.5-9.527-.729-14.31a17.887,17.887,0,0,1-13.052-13.124,16.628,16.628,0,0,1,6.747-17.063c4.3-2.849,9.847-3.4,14.884-2.287a20.039,20.039,0,0,1,12.122,7.6,17.34,17.34,0,0,1,2.639,13.629A18.644,18.644,0,0,1,74.184,181.355Z" transform="translate(-45.857 -147.968)" fill="#ffaa08"/>
            <g id="Grupo_1171751" data-name="Grupo 1171751" transform="translate(13.75 16.031)">
              <path id="Trazado_1016312" data-name="Trazado 1016312" d="M60.107,184.639a87.546,87.546,0,0,1,13.254-.247" transform="translate(-59.457 -163.616)" fill="none" stroke="#17014e" stroke-linecap="round" stroke-linejoin="round" stroke-miterlimit="10" stroke-width="1"/>
              <path id="Trazado_1016313" data-name="Trazado 1016313" d="M60.561,190.1l12.553-.539" transform="translate(-59.452 -163.56)" fill="none" stroke="#17014e" stroke-linecap="round" stroke-linejoin="round" stroke-miterlimit="10" stroke-width="1"/>
              <path id="Trazado_1016314" data-name="Trazado 1016314" d="M61.961,184.7a162.452,162.452,0,0,1-2.433-16.938,5.992,5.992,0,0,1,.111-2.379,2.091,2.091,0,0,1,1.675-1.52c1.215-.1,2.053,1.181,2.472,2.327a16.686,16.686,0,0,1,.953,4.339,2.4,2.4,0,0,1-.134,1.253.914.914,0,0,1-1.036.536c-.459-.154-.608-.719-.663-1.2a13.7,13.7,0,0,1,.192-4.308,3.73,3.73,0,0,1,1.7-2.778c1.339-.641,3,.343,3.628,1.688a8.52,8.52,0,0,1,.378,4.382,3.1,3.1,0,0,1-.406,1.523,1.067,1.067,0,0,1-1.382.4,1.518,1.518,0,0,1-.417-1.449,17.935,17.935,0,0,1,.805-3.946c.3-.932.829-1.966,1.793-2.14a2.032,2.032,0,0,1,2.074,1.368,5.917,5.917,0,0,1,.207,2.659q-.593,7.987-1.184,15.974" transform="translate(-59.464 -163.832)" fill="none" stroke="#17014e" stroke-linecap="round" stroke-linejoin="round" stroke-miterlimit="10" stroke-width="1"/>
            </g>
          </g>
        </g>
        <g id="Grupo_1171758" data-name="Grupo 1171758" transform="translate(237.101 275.742)">
          <g id="Grupo_1171754" data-name="Grupo 1171754" transform="translate(0 0)">
            <path id="Trazado_1016315" data-name="Trazado 1016315" d="M309.614,323.019l-15.43-18.908a2.284,2.284,0,0,0-4.033,1.139c-1.017,7.762-1.617,15.671-1.967,24.068a45.7,45.7,0,1,0,47.195,78.2,51.028,51.028,0,0,0,18.178-21.653c7.311-16.1,6.054-36.748-6.055-49.627C338.063,326.2,323.538,322.157,309.614,323.019Z" transform="translate(-256.715 -301.703)" fill="#17014e" opacity="0.09"/>
            <path id="Trazado_1016316" data-name="Trazado 1016316" d="M305.7,322.872l-13.761-20.155a2.284,2.284,0,0,0-4.116.791c-1.674,7.647-2.947,15.476-4.012,23.814a45.7,45.7,0,1,0,40.354,81.941,51.041,51.041,0,0,0,19.958-20.024c8.657-15.413,9.165-36.1-1.8-49.963C333.769,328.465,319.641,323.2,305.7,322.872Z" transform="translate(-256.798 -301.719)" fill="#fff"/>
            <path id="Trazado_1016317" data-name="Trazado 1016317" d="M341.053,337.5c7.907,13.047,9.434,29.985,3.352,44.042-7.382,17.06-25.526,28.869-44.114,28.711-13.983-.119-27.6-7.008-36.4-17.326a45.211,45.211,0,0,0,13.58,14.018,46.67,46.67,0,0,0,46.619,1.942,51.04,51.04,0,0,0,19.958-20.024c8.657-15.413,9.165-36.1-1.8-49.963C341.861,338.414,341.456,337.956,341.053,337.5Z" transform="translate(-256.723 -301.342)" fill="#7f7aff"/>
            <path id="Trazado_1016318" data-name="Trazado 1016318" d="M346.671,374.241a44.473,44.473,0,0,1-2.331,6.908c-7.382,17.06-25.526,28.869-44.114,28.711a49.019,49.019,0,0,1-30.186-11.248" transform="translate(-256.658 -300.954)" fill="none" stroke="#17014e" stroke-linecap="round" stroke-linejoin="round" stroke-miterlimit="10" stroke-width="1"/>
            <path id="Trazado_1016319" data-name="Trazado 1016319" d="M342.452,341.578a50.02,50.02,0,0,1,4.748,24.688" transform="translate(-255.894 -301.299)" fill="none" stroke="#17014e" stroke-linecap="round" stroke-linejoin="round" stroke-miterlimit="10" stroke-width="1"/>
          </g>
          <g id="Grupo_1171757" data-name="Grupo 1171757" transform="translate(21.515 37.674)">
            <g id="Grupo_1171755" data-name="Grupo 1171755" transform="translate(23.046 26.817)">
              <path id="Trazado_1016320" data-name="Trazado 1016320" d="M300.894,370.3a133.066,133.066,0,0,0,14,20.468,3.478,3.478,0,0,0,4.553.676l.083-.053a3.5,3.5,0,0,0,1-4.9c-4.749-7.014-9.507-14.02-14.365-20.959C306.117,365.535,306.067,365.534,300.894,370.3Z" transform="translate(-300.894 -365.537)" fill="#ffcf4e"/>
              <path id="Trazado_1016321" data-name="Trazado 1016321" d="M314.824,390.665a3.478,3.478,0,0,0,4.553.676l.083-.053a3.5,3.5,0,0,0,1-4.9q-3.636-5.372-7.294-10.728a13.869,13.869,0,0,0-6.048,4.759Q310.725,385.721,314.824,390.665Z" transform="translate(-300.828 -365.43)" fill="#17014e"/>
            </g>
            <g id="Grupo_1171756" data-name="Grupo 1171756">
              <path id="Trazado_1016322" data-name="Trazado 1016322" d="M298.444,339.226a17.545,17.545,0,1,1-18.57,9.4A18.033,18.033,0,0,1,298.444,339.226Z" transform="translate(-278.089 -339)" fill="#ef5e9c"/>
              <path id="Trazado_1016323" data-name="Trazado 1016323" d="M297.82,342.719a13.956,13.956,0,1,1-14.773,7.479A14.344,14.344,0,0,1,297.82,342.719Z" transform="translate(-278.051 -338.962)" fill="#d6ceff"/>
              <path id="Trazado_1016324" data-name="Trazado 1016324" d="M293.211,346.713c-2.162-2.668-8.391,2.456-8.186,6.754S297.576,352.1,293.211,346.713Z" transform="translate(-278.015 -338.926)" fill="#fff"/>
              <path id="Trazado_1016325" data-name="Trazado 1016325" d="M308.979,367.081a17.067,17.067,0,0,1-5.751,4.805,16.232,16.232,0,0,1-2.529,1.022" transform="translate(-277.85 -338.703)" fill="none" stroke="#17014e" stroke-linecap="round" stroke-linejoin="round" stroke-miterlimit="10" stroke-width="1"/>
              <path id="Trazado_1016326" data-name="Trazado 1016326" d="M282.549,361.474a13.879,13.879,0,0,1,15.271-18.756" transform="translate(-278.051 -338.962)" fill="none" stroke="#17014e" stroke-linecap="round" stroke-linejoin="round" stroke-miterlimit="10" stroke-width="1"/>
              <path id="Trazado_1016327" data-name="Trazado 1016327" d="M289.469,368.982a13.892,13.892,0,0,0,19.756-14.654,13.815,13.815,0,0,0-3.1-6.727C306.847,353.809,306.321,366.991,289.469,368.982Z" transform="translate(-277.969 -338.909)" fill="#17014e" opacity="0.09"/>
            </g>
          </g>
        </g>
        <g id="Grupo_1171761" data-name="Grupo 1171761" transform="translate(352.773 98.187)">
          <g id="Grupo_1171759" data-name="Grupo 1171759">
            <path id="Trazado_1016328" data-name="Trazado 1016328" d="M479.448,187.52c-35.786-1.154-71.516-3.213-106.7-6.257a1.133,1.133,0,0,1-.505-2.086c3.432-2.186,7.08-4.351,11.3-7.062a286.346,286.346,0,0,1,6.242-37.014,8.352,8.352,0,0,1,8.081-6.389c29.125-.187,58.258,1.15,87.233,5.157a8.316,8.316,0,0,1,7.2,8.435,212.654,212.654,0,0,1-4.436,38.583A8.355,8.355,0,0,1,479.448,187.52Z" transform="translate(-371.257 -125.99)" fill="#17014e" opacity="0.09"/>
            <path id="Trazado_1016329" data-name="Trazado 1016329" d="M479.234,181.726c-35.8.749-71.585.592-106.88-.578a1.134,1.134,0,0,1-.615-2.056c3.312-2.366,6.838-4.721,10.909-7.652a286.466,286.466,0,0,1,4.267-37.293,8.351,8.351,0,0,1,7.731-6.809c29.074-1.734,58.237-1.948,87.384.514a8.316,8.316,0,0,1,7.638,8.04,212.651,212.651,0,0,1-2.38,38.764A8.358,8.358,0,0,1,479.234,181.726Z" transform="translate(-371.262 -126.018)" fill="#fff"/>
            <path id="Trazado_1016330" data-name="Trazado 1016330" d="M482.8,176.558a25.233,25.233,0,0,1-8.6,1.062q-51.2.379-102.3.862l-.165.117a1.134,1.134,0,0,0,.621,2.052c35.294,1.17,71.082,1.327,106.878.578a8.355,8.355,0,0,0,8.052-7.072c.061-.378.108-.759.166-1.138A9.666,9.666,0,0,1,482.8,176.558Z" transform="translate(-371.262 -125.522)" fill="#6560d6"/>
            <path id="Trazado_1016331" data-name="Trazado 1016331" d="M392.652,178.222q-8.881.083-17.755.173" transform="translate(-371.224 -125.467)" fill="none" stroke="#17014e" stroke-linecap="round" stroke-linejoin="round" stroke-miterlimit="10" stroke-width="1"/>
            <path id="Trazado_1016332" data-name="Trazado 1016332" d="M482.5,176.521a25.231,25.231,0,0,1-8.6,1.062q-37.015.274-73.995.589" transform="translate(-370.96 -125.485)" fill="none" stroke="#17014e" stroke-linecap="round" stroke-linejoin="round" stroke-miterlimit="10" stroke-width="1"/>
          </g>
          <g id="Grupo_1171760" data-name="Grupo 1171760" transform="translate(28.464 23.506)">
            <path id="Trazado_1016333" data-name="Trazado 1016333" d="M399.429,149.279l72.356.253" transform="translate(-399.429 -149.279)" fill="none" stroke="#17014e" stroke-linecap="round" stroke-linejoin="round" stroke-miterlimit="10" stroke-width="1"/>
            <path id="Trazado_1016334" data-name="Trazado 1016334" d="M399.429,158.987s47.781.19,71.954-.031" transform="translate(-399.429 -149.177)" fill="none" stroke="#17014e" stroke-linecap="round" stroke-linejoin="round" stroke-miterlimit="10" stroke-width="1"/>
            <path id="Trazado_1016335" data-name="Trazado 1016335" d="M399.429,167.87q9.163.068,18.326.139" transform="translate(-399.429 -149.083)" fill="none" stroke="#17014e" stroke-linecap="round" stroke-linejoin="round" stroke-miterlimit="10" stroke-width="1"/>
          </g>
          <path id="Trazado_1016336" data-name="Trazado 1016336" d="M426.541,140.982h-25.61a2.456,2.456,0,0,1-2.456-2.456h0a2.456,2.456,0,0,1,2.456-2.456h25.61A2.456,2.456,0,0,1,429,138.527h0A2.456,2.456,0,0,1,426.541,140.982Z" transform="translate(-370.975 -125.912)" fill="#ff96c3"/>
        </g>
      </g>
    </g>
  </g>
</svg>
