<svg xmlns="http://www.w3.org/2000/svg" xmlns:xlink="http://www.w3.org/1999/xlink" width="113" height="113" viewBox="0 0 113 113">
  <defs>
    <filter id="Trazado_982547" x="0" y="0" width="113" height="113" filterUnits="userSpaceOnUse">
      <feOffset dy="3" input="SourceAlpha"/>
      <feGaussianBlur stdDeviation="3" result="blur"/>
      <feFlood flood-opacity="0.161"/>
      <feComposite operator="in" in2="blur"/>
      <feComposite in="SourceGraphic"/>
    </filter>
  </defs>
  <g id="Grupo_1171789" data-name="Grupo 1171789" transform="translate(-820.514 -4024)">
    <g id="Grupo_1171494" data-name="Grupo 1171494" transform="translate(829.514 4030)">
      <g id="Grupo_1167464" data-name="Grupo 1167464">
        <g id="Grupo_1164308" data-name="Grupo 1164308" transform="translate(0)">
          <g id="Grupo_1163948" data-name="Grupo 1163948">
            <g id="Grupo_1158168" data-name="Grupo 1158168">
              <g id="Grupo_1152576" data-name="Grupo 1152576">
                <g id="Grupo_1148633" data-name="Grupo 1148633">
                  <g id="Grupo_1148525" data-name="Grupo 1148525">
                    <g transform="matrix(1, 0, 0, 1, -9, -6)" filter="url(#Trazado_982547)">
                      <g id="Trazado_982547-2" data-name="Trazado 982547" transform="translate(9 6)" fill="#f2f7f5">
                        <path d="M 47.5 93.5 C 41.28937149047852 93.5 35.26533508300781 92.28397369384766 29.59518623352051 89.88570404052734 C 24.11771965026855 87.56893157958984 19.19813346862793 84.25196075439453 14.97309303283691 80.02691650390625 C 10.74804019927979 75.80186462402344 7.431066513061523 70.88229370117188 5.114293098449707 65.40481567382812 C 2.716026782989502 59.73468017578125 1.5 53.71062850952148 1.5 47.5 C 1.5 41.28937149047852 2.716026782989502 35.26533508300781 5.114293098449707 29.59518623352051 C 7.431066513061523 24.11771965026855 10.74804019927979 19.19813346862793 14.97309303283691 14.97309303283691 C 19.19813346862793 10.74804019927979 24.11771965026855 7.431066513061523 29.59518623352051 5.114293098449707 C 35.26533508300781 2.716026782989502 41.28937149047852 1.5 47.5 1.5 C 53.71062850952148 1.5 59.73468017578125 2.716026782989502 65.40481567382812 5.114293098449707 C 70.88229370117188 7.431066513061523 75.80186462402344 10.74804019927979 80.02691650390625 14.97309303283691 C 84.25196075439453 19.19813346862793 87.56893157958984 24.11771965026855 89.88570404052734 29.59518623352051 C 92.28397369384766 35.26533508300781 93.5 41.28937149047852 93.5 47.5 C 93.5 53.71062850952148 92.28397369384766 59.73468017578125 89.88570404052734 65.40481567382812 C 87.56893157958984 70.88229370117188 84.25196075439453 75.80186462402344 80.02691650390625 80.02691650390625 C 75.80186462402344 84.25196075439453 70.88229370117188 87.56893157958984 65.40481567382812 89.88570404052734 C 59.73468017578125 92.28397369384766 53.71062850952148 93.5 47.5 93.5 Z" stroke="none"/>
                        <path d="M 47.5 3 C 41.49121475219727 3 35.66376876831055 4.176155090332031 30.17950439453125 6.495796203613281 C 24.88084411621094 8.736953735351562 20.12152099609375 11.94598388671875 16.03375244140625 16.03375244140625 C 11.94598388671875 20.12152099609375 8.736953735351562 24.88084411621094 6.495796203613281 30.17950439453125 C 4.176155090332031 35.66376876831055 3 41.49121475219727 3 47.5 C 3 53.50878524780273 4.176155090332031 59.33623123168945 6.495796203613281 64.82049560546875 C 8.736953735351562 70.11915588378906 11.94598388671875 74.87847900390625 16.03375244140625 78.96624755859375 C 20.12152099609375 83.05401611328125 24.88084411621094 86.26304626464844 30.17950439453125 88.50419616699219 C 35.66376876831055 90.82384490966797 41.49121475219727 92 47.5 92 C 53.50878524780273 92 59.33623123168945 90.82384490966797 64.82049560546875 88.50419616699219 C 70.11915588378906 86.26304626464844 74.87847900390625 83.05401611328125 78.96624755859375 78.96624755859375 C 83.05401611328125 74.87847900390625 86.26304626464844 70.11915588378906 88.50419616699219 64.82049560546875 C 90.82384490966797 59.33623123168945 92 53.50878524780273 92 47.5 C 92 41.49121475219727 90.82384490966797 35.66376876831055 88.50419616699219 30.17950439453125 C 86.26304626464844 24.88084411621094 83.05401611328125 20.12152099609375 78.96624755859375 16.03375244140625 C 74.87847900390625 11.94598388671875 70.11915588378906 8.736953735351562 64.82049560546875 6.495796203613281 C 59.33623123168945 4.176155090332031 53.50878524780273 3 47.5 3 M 47.5 0 C 73.7335205078125 0 95 21.2664794921875 95 47.5 C 95 73.7335205078125 73.7335205078125 95 47.5 95 C 21.2664794921875 95 0 73.7335205078125 0 47.5 C 0 21.2664794921875 21.2664794921875 0 47.5 0 Z" stroke="none" fill="#4a665c"/>
                      </g>
                    </g>
                  </g>
                </g>
              </g>
            </g>
          </g>
        </g>
      </g>
    </g>
    <g id="Layer_19" data-name="Layer 19" transform="translate(852.514 4049)">
      <path id="Trazado_1016654" data-name="Trazado 1016654" d="M37.3,54.953H2V2H29.359L37.3,9.943Z" transform="translate(-0.117 -0.117)" fill="#e2e7f6"/>
      <path id="Trazado_1016655" data-name="Trazado 1016655" d="M2,52.305H34.654V7.3L29.359,2H2Z" transform="translate(-0.117 -0.117)" fill="#f2f2f2"/>
      <g id="Grupo_1171788" data-name="Grupo 1171788" transform="translate(4.53 1.883)">
        <path id="Trazado_1016656" data-name="Trazado 1016656" d="M33,2V9.943h7.943" transform="translate(-8.289 -2)" fill="#c8cded"/>
        <path id="Trazado_1016657" data-name="Trazado 1016657" d="M9,7H22.238V8.765H9Z" transform="translate(-5.47 -2.587)" fill="#c8cded"/>
        <path id="Trazado_1016658" data-name="Trazado 1016658" d="M26,7h3.53V8.765H26Z" transform="translate(-7.466 -2.587)" fill="#c8cded"/>
        <path id="Trazado_1016659" data-name="Trazado 1016659" d="M5,11H27.064v1.765H5Z" transform="translate(-5 -3.057)" fill="#c8cded"/>
        <path id="Trazado_1016660" data-name="Trazado 1016660" d="M5,15H35.007v1.765H5Z" transform="translate(-5 -3.527)" fill="#c8cded"/>
        <path id="Trazado_1016661" data-name="Trazado 1016661" d="M5,49H17.356v1.765H5Z" transform="translate(-5 -7.52)" fill="#c8cded"/>
        <path id="Trazado_1016662" data-name="Trazado 1016662" d="M5,45H17.356v1.765H5Z" transform="translate(-5 -7.05)" fill="#c8cded"/>
        <path id="Trazado_1016663" data-name="Trazado 1016663" d="M5,53H17.356v1.765H5Z" transform="translate(-5 -7.99)" fill="#c8cded"/>
      </g>
      <path id="Trazado_1016664" data-name="Trazado 1016664" d="M6,21h7.06v7.06H6Z" transform="translate(-0.587 -2.349)" fill="#4d8c28"/>
      <path id="Trazado_1016665" data-name="Trazado 1016665" d="M6,21h5.3v5.3H6Z" transform="translate(-0.587 -2.349)" fill="#559b2d"/>
      <path id="Trazado_1016666" data-name="Trazado 1016666" d="M9.682,25.977a.882.882,0,0,1-.624-.258L7.293,23.954l1.248-1.248,1.141,1.141,5.554-5.554,1.248,1.248-6.178,6.178a.883.883,0,0,1-.624.259Z" transform="translate(-0.739 -2.031)" fill="#474747"/>
      <path id="Trazado_1016667" data-name="Trazado 1016667" d="M6,33h7.06v7.06H6Z" transform="translate(-0.587 -3.758)" fill="#4d8c28"/>
      <path id="Trazado_1016668" data-name="Trazado 1016668" d="M6,33h5.3v5.3H6Z" transform="translate(-0.587 -3.758)" fill="#559b2d"/>
      <path id="Trazado_1016669" data-name="Trazado 1016669" d="M9.682,37.977a.882.882,0,0,1-.624-.258L7.293,35.954l1.248-1.248,1.141,1.141,5.554-5.554,1.248,1.248-6.178,6.178a.883.883,0,0,1-.624.259Z" transform="translate(-0.739 -3.441)" fill="#474747"/>
      <path id="Trazado_1016670" data-name="Trazado 1016670" d="M57.537,40.3v-7.06h-3.11a14.032,14.032,0,0,0-1.5-3.632l2.2-2.2-4.992-4.992-2.2,2.2a14.033,14.033,0,0,0-3.635-1.5V20h-7.06v3.11a14.033,14.033,0,0,0-3.632,1.5l-2.2-2.2L26.416,27.4l2.2,2.2a14.033,14.033,0,0,0-1.5,3.635H24V40.3h3.11a14.033,14.033,0,0,0,1.5,3.632l-2.2,2.2L31.4,51.121l2.2-2.2a14.033,14.033,0,0,0,3.635,1.5v3.11H44.3v-3.11a14.032,14.032,0,0,0,3.632-1.5l2.2,2.2,4.992-4.992-2.2-2.2a14.032,14.032,0,0,0,1.5-3.635Z" transform="translate(-2.701 -2.232)" fill="#686868"/>
      <ellipse id="Elipse_11851" data-name="Elipse 11851" cx="8.5" cy="9" rx="8.5" ry="9" transform="translate(29.718 25.718)" fill="#b5b5b5"/>
      <path id="Trazado_1016671" data-name="Trazado 1016671" d="M48.885,36.943a8.812,8.812,0,0,0-4.011-7.39,8.818,8.818,0,0,0-7.866,15.663,8.8,8.8,0,0,0,11.876-8.272Z" transform="translate(-3.758 -3.289)" fill="#ccc"/>
      <path id="Trazado_1016672" data-name="Trazado 1016672" d="M42,34h1.765v3.53H42Z" transform="translate(-4.816 -3.876)" fill="#b52f28"/>
      <path id="Trazado_1016673" data-name="Trazado 1016673" d="M0,0H1.765V6.24H0Z" transform="translate(37.435 35.161) rotate(-45)" fill="#f2f2f2"/>
      <path id="Trazado_1016674" data-name="Trazado 1016674" d="M42.765,40.53a1.765,1.765,0,1,1,1.765-1.765A1.765,1.765,0,0,1,42.765,40.53Z" transform="translate(-4.698 -4.228)" fill="#4d8c28"/>
      <path id="Trazado_1016675" data-name="Trazado 1016675" d="M9,7H22.238V8.765H9Z" transform="translate(-0.94 -0.705)"/>
      <path id="Trazado_1016676" data-name="Trazado 1016676" d="M26,7h3.53V8.765H26Z" transform="translate(-2.936 -0.705)"/>
      <path id="Trazado_1016677" data-name="Trazado 1016677" d="M5,11H27.064v1.765H5Z" transform="translate(-0.47 -1.175)"/>
      <path id="Trazado_1016678" data-name="Trazado 1016678" d="M5,15H35.007v1.765H5Z" transform="translate(-0.47 -1.644)"/>
      <path id="Trazado_1016679" data-name="Trazado 1016679" d="M5,49H17.356v1.765H5Z" transform="translate(-0.47 -5.638)"/>
      <path id="Trazado_1016680" data-name="Trazado 1016680" d="M5,45H17.356v1.765H5Z" transform="translate(-0.47 -5.168)"/>
      <path id="Trazado_1016681" data-name="Trazado 1016681" d="M5,53H17.356v1.765H5Z" transform="translate(-0.47 -6.107)"/>
      <path id="Trazado_1016682" data-name="Trazado 1016682" d="M5.883,28.625h7.06a.883.883,0,0,0,.883-.883V21.93l2.389-2.389-1.248-1.248-1.618,1.618a.86.86,0,0,0-.406-.111H5.883A.883.883,0,0,0,5,20.682v7.06a.883.883,0,0,0,.883.883Zm.883-7.06H11.7L9.413,23.847,8.272,22.706,7.024,23.954l1.765,1.765a.883.883,0,0,0,1.248,0L12.06,23.7V26.86h-5.3Z" transform="translate(-0.47 -2.031)"/>
      <path id="Trazado_1016683" data-name="Trazado 1016683" d="M5.883,40.625h7.06a.883.883,0,0,0,.883-.883V33.93l2.389-2.389-1.248-1.248-1.618,1.618a.86.86,0,0,0-.406-.111H5.883A.883.883,0,0,0,5,32.682v7.06a.883.883,0,0,0,.883.883Zm.883-7.06H11.7L9.413,35.847,8.272,34.706,7.024,35.954l1.765,1.765a.883.883,0,0,0,1.248,0L12.06,35.7V38.86h-5.3Z" transform="translate(-0.47 -3.441)"/>
      <path id="Trazado_1016684" data-name="Trazado 1016684" d="M54.835,30.124H52.392a14.915,14.915,0,0,0-1.073-2.6L53.045,25.8a.883.883,0,0,0,0-1.248l-4.993-4.993a.908.908,0,0,0-1.248,0l-1.726,1.727a14.853,14.853,0,0,0-2.6-1.074V17.768a.883.883,0,0,0-.883-.883h-3.53V9.825a.882.882,0,0,0-.258-.624l-7.82-7.82A.883.883,0,0,0,29.262,1H1.883A.883.883,0,0,0,1,1.883V54.835a.883.883,0,0,0,.883.883H38.067a.883.883,0,0,0,.883-.883V52.188H41.6a.883.883,0,0,0,.883-.883V48.861a14.915,14.915,0,0,0,2.6-1.073L46.8,49.515a.883.883,0,0,0,1.248,0l4.993-4.993a.883.883,0,0,0,0-1.248l-1.726-1.726a14.916,14.916,0,0,0,1.072-2.6h2.444a.883.883,0,0,0,.883-.883v-7.06a.883.883,0,0,0-.883-.883ZM30.124,4.013l4.93,4.93h-4.93Zm7.06,49.94H2.765V2.765H28.359v7.06a.883.883,0,0,0,.883.883H36.3v6.178H34.537a.883.883,0,0,0-.883.883v2.443a14.853,14.853,0,0,0-2.6,1.075L29.33,19.559a.883.883,0,0,0-1.248,0l-4.993,4.993a.883.883,0,0,0,0,1.248l1.726,1.726a14.915,14.915,0,0,0-1.072,2.6H21.3a.883.883,0,0,0-.883.883v7.06a.883.883,0,0,0,.883.883h2.444a14.915,14.915,0,0,0,1.073,2.6l-1.726,1.727a.883.883,0,0,0,0,1.248l4.993,4.993a.883.883,0,0,0,1.248,0l1.726-1.726a14.915,14.915,0,0,0,2.6,1.072v2.444a.883.883,0,0,0,.883.883h2.648ZM53.953,37.184H51.725a.883.883,0,0,0-.854.662,13.187,13.187,0,0,1-1.412,3.4.883.883,0,0,0,.136,1.073L51.17,43.9l-3.743,3.746-1.574-1.575a.883.883,0,0,0-1.073-.136,13.187,13.187,0,0,1-3.4,1.412.883.883,0,0,0-.662.854v2.225h-5.3V48.2a.882.882,0,0,0-.662-.854,13.187,13.187,0,0,1-3.4-1.412.888.888,0,0,0-1.073.136l-1.574,1.578L24.961,43.9l1.575-1.574a.883.883,0,0,0,.136-1.073,13.187,13.187,0,0,1-1.412-3.4.883.883,0,0,0-.854-.662H22.181v-5.3h2.228a.883.883,0,0,0,.854-.662,13.192,13.192,0,0,1,1.412-3.4.883.883,0,0,0-.136-1.072l-1.578-1.574,3.746-3.746,1.574,1.575a.883.883,0,0,0,1.073.136,13.118,13.118,0,0,1,3.4-1.412.883.883,0,0,0,.662-.855V18.651h5.3v2.228a.883.883,0,0,0,.662.855,13.118,13.118,0,0,1,3.4,1.412.883.883,0,0,0,1.073-.136l1.574-1.575,3.746,3.746L49.6,26.755a.883.883,0,0,0-.136,1.072,13.192,13.192,0,0,1,1.412,3.4.883.883,0,0,0,.854.662h2.225Z"/>
      <path id="Trazado_1016685" data-name="Trazado 1016685" d="M41.708,28a9.708,9.708,0,1,0,9.708,9.708A9.708,9.708,0,0,0,41.708,28Zm0,17.651a7.943,7.943,0,1,1,7.943-7.943,7.943,7.943,0,0,1-7.943,7.943Z" transform="translate(-3.641 -3.171)"/>
      <path id="Trazado_1016686" data-name="Trazado 1016686" d="M44.53,38.413a1.759,1.759,0,0,0-.883-1.52V34H41.883v2.893a1.76,1.76,0,0,0,.883,3.285,1.73,1.73,0,0,0,.451-.066l3.338,3.338L47.8,42.2l-3.338-3.338a1.73,1.73,0,0,0,.066-.451Z" transform="translate(-4.698 -3.876)"/>
    </g>
  </g>
</svg>
