<svg xmlns="http://www.w3.org/2000/svg" xmlns:xlink="http://www.w3.org/1999/xlink" width="113" height="113" viewBox="0 0 113 113">
  <defs>
    <filter id="Trazado_982547" x="0" y="0" width="113" height="113" filterUnits="userSpaceOnUse">
      <feOffset dy="3" input="SourceAlpha"/>
      <feGaussianBlur stdDeviation="3" result="blur"/>
      <feFlood flood-opacity="0.161"/>
      <feComposite operator="in" in2="blur"/>
      <feComposite in="SourceGraphic"/>
    </filter>
    <clipPath id="clip-path">
      <path id="path3312" d="M0-682.665H58.77v58.77H0Z" transform="translate(0 682.665)"/>
    </clipPath>
  </defs>
  <g id="Grupo_1171790" data-name="Grupo 1171790" transform="translate(-190.514 -4182)">
    <g id="Grupo_1171495" data-name="Grupo 1171495" transform="translate(199.514 4188)">
      <g id="Grupo_1167464" data-name="Grupo 1167464">
        <g id="Grupo_1164308" data-name="Grupo 1164308" transform="translate(0)">
          <g id="Grupo_1163948" data-name="Grupo 1163948">
            <g id="Grupo_1158168" data-name="Grupo 1158168">
              <g id="Grupo_1152576" data-name="Grupo 1152576">
                <g id="Grupo_1148633" data-name="Grupo 1148633">
                  <g id="Grupo_1148525" data-name="Grupo 1148525">
                    <g transform="matrix(1, 0, 0, 1, -9, -6)" filter="url(#Trazado_982547)">
                      <g id="Trazado_982547-2" data-name="Trazado 982547" transform="translate(9 6)" fill="#f2f7f5">
                        <path d="M 47.5 93.5 C 41.28937149047852 93.5 35.26533508300781 92.28397369384766 29.59518623352051 89.88570404052734 C 24.11771965026855 87.56893157958984 19.19813346862793 84.25196075439453 14.97309303283691 80.02691650390625 C 10.74804019927979 75.80186462402344 7.431066513061523 70.88229370117188 5.114293098449707 65.40481567382812 C 2.716026782989502 59.73468017578125 1.5 53.71062850952148 1.5 47.5 C 1.5 41.28937149047852 2.716026782989502 35.26533508300781 5.114293098449707 29.59518623352051 C 7.431066513061523 24.11771965026855 10.74804019927979 19.19813346862793 14.97309303283691 14.97309303283691 C 19.19813346862793 10.74804019927979 24.11771965026855 7.431066513061523 29.59518623352051 5.114293098449707 C 35.26533508300781 2.716026782989502 41.28937149047852 1.5 47.5 1.5 C 53.71062850952148 1.5 59.73468017578125 2.716026782989502 65.40481567382812 5.114293098449707 C 70.88229370117188 7.431066513061523 75.80186462402344 10.74804019927979 80.02691650390625 14.97309303283691 C 84.25196075439453 19.19813346862793 87.56893157958984 24.11771965026855 89.88570404052734 29.59518623352051 C 92.28397369384766 35.26533508300781 93.5 41.28937149047852 93.5 47.5 C 93.5 53.71062850952148 92.28397369384766 59.73468017578125 89.88570404052734 65.40481567382812 C 87.56893157958984 70.88229370117188 84.25196075439453 75.80186462402344 80.02691650390625 80.02691650390625 C 75.80186462402344 84.25196075439453 70.88229370117188 87.56893157958984 65.40481567382812 89.88570404052734 C 59.73468017578125 92.28397369384766 53.71062850952148 93.5 47.5 93.5 Z" stroke="none"/>
                        <path d="M 47.5 3 C 41.49121475219727 3 35.66376876831055 4.176155090332031 30.17950439453125 6.495796203613281 C 24.88084411621094 8.736953735351562 20.12152099609375 11.94598388671875 16.03375244140625 16.03375244140625 C 11.94598388671875 20.12152099609375 8.736953735351562 24.88084411621094 6.495796203613281 30.17950439453125 C 4.176155090332031 35.66376876831055 3 41.49121475219727 3 47.5 C 3 53.50878524780273 4.176155090332031 59.33623123168945 6.495796203613281 64.82049560546875 C 8.736953735351562 70.11915588378906 11.94598388671875 74.87847900390625 16.03375244140625 78.96624755859375 C 20.12152099609375 83.05401611328125 24.88084411621094 86.26304626464844 30.17950439453125 88.50419616699219 C 35.66376876831055 90.82384490966797 41.49121475219727 92 47.5 92 C 53.50878524780273 92 59.33623123168945 90.82384490966797 64.82049560546875 88.50419616699219 C 70.11915588378906 86.26304626464844 74.87847900390625 83.05401611328125 78.96624755859375 78.96624755859375 C 83.05401611328125 74.87847900390625 86.26304626464844 70.11915588378906 88.50419616699219 64.82049560546875 C 90.82384490966797 59.33623123168945 92 53.50878524780273 92 47.5 C 92 41.49121475219727 90.82384490966797 35.66376876831055 88.50419616699219 30.17950439453125 C 86.26304626464844 24.88084411621094 83.05401611328125 20.12152099609375 78.96624755859375 16.03375244140625 C 74.87847900390625 11.94598388671875 70.11915588378906 8.736953735351562 64.82049560546875 6.495796203613281 C 59.33623123168945 4.176155090332031 53.50878524780273 3 47.5 3 M 47.5 0 C 73.7335205078125 0 95 21.2664794921875 95 47.5 C 95 73.7335205078125 73.7335205078125 95 47.5 95 C 21.2664794921875 95 0 73.7335205078125 0 47.5 C 0 21.2664794921875 21.2664794921875 0 47.5 0 Z" stroke="none" fill="#4a665c"/>
                      </g>
                    </g>
                  </g>
                </g>
              </g>
            </g>
          </g>
        </g>
      </g>
    </g>
    <g id="g3306" transform="translate(217.514 4888.665)">
      <g id="g3308" transform="translate(0 -682.665)">
        <g id="g3310" clip-path="url(#clip-path)">
          <g id="g3316" transform="translate(11.992 0.861)">
            <path id="path3318" d="M-369.279-201.873v-3.247l-3.684-.768a13.807,13.807,0,0,0-.639-2.395l2.8-2.505-1.623-2.812L-376-212.42a14,14,0,0,0-1.75-1.751l1.178-3.576-2.812-1.623-2.5,2.8a13.812,13.812,0,0,0-2.395-.64l-.767-3.684H-388.3l-.767,3.684a13.813,13.813,0,0,0-2.395.64l-2.5-2.8-2.812,1.623,1.178,3.576a13.99,13.99,0,0,0-1.75,1.751l-3.576-1.178-1.623,2.812,2.8,2.505a13.807,13.807,0,0,0-.639,2.395l-3.684.768v3.247l3.684.768a13.81,13.81,0,0,0,.639,2.395l-2.8,2.505,1.623,2.812,3.576-1.178a13.989,13.989,0,0,0,1.75,1.75l-1.178,3.576,2.812,1.623,2.5-2.8a13.823,13.823,0,0,0,2.395.64l.767,3.684h3.247l.767-3.684a13.822,13.822,0,0,0,2.395-.64l2.5,2.8,2.812-1.623-1.178-3.576a14,14,0,0,0,1.75-1.75l3.576,1.178,1.623-2.812-2.8-2.505a13.813,13.813,0,0,0,.639-2.395Z" transform="translate(404.064 220.889)" fill="#62a4fb"/>
          </g>
          <g id="g3320" transform="translate(19.283 8.151)">
            <path id="path3322" d="M-291.883-124.477v-3.247l-3.684-.768a13.81,13.81,0,0,0-.639-2.395l2.8-2.505-1.623-2.812-2.916.961a18.1,18.1,0,0,1,.2,2.706,17.972,17.972,0,0,1-17.972,17.972,18.119,18.119,0,0,1-2.706-.2l-.961,2.916,2.812,1.623,2.5-2.8a13.823,13.823,0,0,0,2.395.64l.767,3.684h3.247l.767-3.684a13.822,13.822,0,0,0,2.395-.64l2.5,2.8,2.812-1.623-1.178-3.576a13.994,13.994,0,0,0,1.751-1.75l3.576,1.178,1.623-2.812-2.8-2.505a13.81,13.81,0,0,0,.639-2.395Z" transform="translate(319.378 136.202)" fill="#5392f9"/>
          </g>
          <g id="g3324" transform="translate(19.181 8.05)">
            <path id="path3326" d="M-216.644-108.323a10.2,10.2,0,0,1-10.2,10.2,10.2,10.2,0,0,1-10.2-10.2,10.2,10.2,0,0,1,10.2-10.2,10.2,10.2,0,0,1,10.2,10.2" transform="translate(237.051 118.526)" fill="#e6f7fe"/>
          </g>
          <g id="g3328" transform="translate(22.196 21.036)">
            <path id="path3330" d="M-152.635-44.314a4.174,4.174,0,0,0-4.174-4.174h-6.03a4.174,4.174,0,0,0-4.174,4.174v.284a10.171,10.171,0,0,0,7.189,2.963,10.171,10.171,0,0,0,7.189-2.963Z" transform="translate(167.013 48.488)" fill="#a2f5c3"/>
          </g>
          <g id="g3332" transform="translate(29.385 21.036)">
            <path id="path3334" d="M-32.005,0H-35.02a4.174,4.174,0,0,1,4.174,4.174V6.53a10.221,10.221,0,0,0,3.015-2.073V4.174A4.174,4.174,0,0,0-32.005,0" transform="translate(35.02)" fill="#88f2a9"/>
          </g>
          <g id="g3336" transform="translate(24.747 11.76)">
            <path id="path3338" d="M-98.474-49.238a4.638,4.638,0,0,1-4.638,4.638,4.638,4.638,0,0,1-4.638-4.638,4.638,4.638,0,0,1,4.638-4.638,4.638,4.638,0,0,1,4.638,4.638" transform="translate(107.75 53.876)" fill="#fed2a4"/>
          </g>
          <g id="g3340" transform="translate(25.291 12.305)">
            <path id="path3342" d="M-66.607,0a4.618,4.618,0,0,1,.544,2.181A4.638,4.638,0,0,1-70.7,6.819a4.615,4.615,0,0,1-2.18-.544,4.637,4.637,0,0,0,4.094,2.458A4.638,4.638,0,0,0-64.15,4.094,4.637,4.637,0,0,0-66.607,0" transform="translate(72.881)" fill="#ffbd86"/>
          </g>
          <g id="g3344" transform="translate(43.995 41.676)">
            <path id="path3346" d="M-135.4-172.33H-147a1.159,1.159,0,0,1-1.159-1.16V-187.4a1.159,1.159,0,0,1,1.159-1.16h8.564a1.16,1.16,0,0,1,.82.34l3.031,3.031a1.16,1.16,0,0,1,.34.82v10.883a1.16,1.16,0,0,1-1.16,1.16" transform="translate(148.157 188.564)" fill="#f7e365"/>
          </g>
          <g id="g3348" transform="translate(54.43 43.067)">
            <path id="path3350" d="M-33.322-21.014-35.3-22.993V-9.311a1.159,1.159,0,0,1-1.16,1.159h2.319a1.159,1.159,0,0,0,1.16-1.159V-20.194a1.159,1.159,0,0,0-.34-.82" transform="translate(36.461 22.993)" fill="#f3d332"/>
          </g>
          <g id="g3352" transform="translate(22.428 41.676)">
            <path id="path3354" d="M-135.4-172.33H-147a1.159,1.159,0,0,1-1.159-1.16V-187.4a1.159,1.159,0,0,1,1.159-1.16h8.564a1.16,1.16,0,0,1,.82.34l3.031,3.031a1.16,1.16,0,0,1,.34.82v10.883a1.16,1.16,0,0,1-1.16,1.16" transform="translate(148.156 188.564)" fill="#f7e365"/>
          </g>
          <g id="g3356" transform="translate(32.863 43.067)">
            <path id="path3358" d="M-33.324-21.014-35.3-22.993V-9.311a1.159,1.159,0,0,1-1.16,1.159h2.319a1.159,1.159,0,0,0,1.16-1.159V-20.194a1.159,1.159,0,0,0-.34-.82" transform="translate(36.463 22.993)" fill="#f3d332"/>
          </g>
          <g id="g3360" transform="translate(0.861 41.676)">
            <path id="path3362" d="M-135.4-172.33H-147a1.159,1.159,0,0,1-1.159-1.16V-187.4a1.159,1.159,0,0,1,1.159-1.16h8.564a1.159,1.159,0,0,1,.82.34l3.031,3.031a1.16,1.16,0,0,1,.34.82v10.883a1.16,1.16,0,0,1-1.16,1.16" transform="translate(148.157 188.564)" fill="#f7e365"/>
          </g>
          <g id="g3364" transform="translate(11.296 43.067)">
            <path id="path3366" d="M-33.322-21.014-35.3-22.993V-9.311a1.16,1.16,0,0,1-1.16,1.159h2.319a1.159,1.159,0,0,0,1.16-1.159V-20.194a1.159,1.159,0,0,0-.34-.82" transform="translate(36.461 22.993)" fill="#f3d332"/>
          </g>
          <g id="g3368" transform="translate(54.198 41.781)">
            <path id="path3370" d="M0-25.96A1.16,1.16,0,0,0,1.16-24.8H3.6a1.158,1.158,0,0,0-.234-.34L.34-28.171A1.159,1.159,0,0,0,0-28.405Z" transform="translate(0 28.405)"/>
          </g>
          <g id="g3372" transform="translate(32.631 41.781)">
            <path id="path3374" d="M0-25.96A1.16,1.16,0,0,0,1.16-24.8H3.6a1.158,1.158,0,0,0-.234-.34L.34-28.171A1.156,1.156,0,0,0,0-28.405Z" transform="translate(0 28.405)"/>
          </g>
          <g id="g3376" transform="translate(11.065 41.781)">
            <path id="path3378" d="M0-25.96A1.16,1.16,0,0,0,1.16-24.8H3.6a1.156,1.156,0,0,0-.234-.34L.34-28.171A1.159,1.159,0,0,0,0-28.405Z" transform="translate(0 28.405)"/>
          </g>
          <g id="g3380" transform="translate(11.992 0.861)">
            <path id="path3382" d="M-369.279-201.873v-3.247l-3.684-.768a13.807,13.807,0,0,0-.639-2.395l2.8-2.505-1.623-2.812L-376-212.42a14,14,0,0,0-1.75-1.751l1.178-3.576-2.812-1.623-2.5,2.8a13.812,13.812,0,0,0-2.395-.64l-.767-3.684H-388.3l-.767,3.684a13.813,13.813,0,0,0-2.395.64l-2.5-2.8-2.812,1.623,1.178,3.576a13.99,13.99,0,0,0-1.75,1.751l-3.576-1.178-1.623,2.812,2.8,2.505a13.807,13.807,0,0,0-.639,2.395l-3.684.768v3.247l3.684.768a13.81,13.81,0,0,0,.639,2.395l-2.8,2.505,1.623,2.812,3.576-1.178a13.989,13.989,0,0,0,1.75,1.75l-1.178,3.576,2.812,1.623,2.5-2.8a13.823,13.823,0,0,0,2.395.64l.767,3.684h3.247l.767-3.684a13.822,13.822,0,0,0,2.395-.64l2.5,2.8,2.812-1.623-1.178-3.576a14,14,0,0,0,1.75-1.75l3.576,1.178,1.623-2.812-2.8-2.505a13.813,13.813,0,0,0,.639-2.395Z" transform="translate(404.064 220.889)" fill="none" stroke="#000" stroke-linecap="round" stroke-linejoin="round" stroke-miterlimit="10" stroke-width="1.5"/>
          </g>
          <g id="g3384" transform="translate(19.182 8.05)">
            <path id="path3386" d="M-198.44-48.218a10.156,10.156,0,0,1,1.714,5.661,10.2,10.2,0,0,1-10.2,10.2,10.2,10.2,0,0,1-10.2-10.2,10.2,10.2,0,0,1,10.2-10.2,10.156,10.156,0,0,1,5.661,1.714" transform="translate(217.133 52.76)" fill="none" stroke="#000" stroke-linecap="round" stroke-linejoin="round" stroke-miterlimit="10" stroke-width="1.5"/>
          </g>
          <g id="g3388" transform="translate(22.196 21.036)">
            <path id="path3390" d="M0-45.544v-.116a4.174,4.174,0,0,1,4.174-4.174H10.2a4.174,4.174,0,0,1,4.174,4.174v.116" transform="translate(0 49.835)" fill="none" stroke="#000" stroke-linecap="round" stroke-linejoin="round" stroke-miterlimit="10" stroke-width="1.5"/>
          </g>
          <g id="g3392" transform="translate(24.747 11.76)">
            <path id="path3394" d="M-98.474-49.238a4.638,4.638,0,0,1-4.638,4.638,4.638,4.638,0,0,1-4.638-4.638,4.638,4.638,0,0,1,4.638-4.638A4.638,4.638,0,0,1-98.474-49.238Z" transform="translate(107.75 53.876)" fill="none" stroke="#000" stroke-linecap="round" stroke-linejoin="round" stroke-miterlimit="10" stroke-width="1.5"/>
          </g>
          <g id="g3396" transform="translate(7.818 18.253)">
            <path id="path3398" d="M-44.314,0h-4.174V23.422" transform="translate(48.488)" fill="none" stroke="#000" stroke-linecap="round" stroke-linejoin="round" stroke-miterlimit="10" stroke-width="1.5"/>
          </g>
          <g id="g3400" transform="translate(46.777 18.253)">
            <path id="path3402" d="M0,0H4.174V23.422" fill="none" stroke="#000" stroke-linecap="round" stroke-linejoin="round" stroke-miterlimit="10" stroke-width="1.5"/>
          </g>
          <g id="g3404" transform="translate(29.385 35.646)">
            <path id="path3406" d="M0,0V6.029" fill="none" stroke="#000" stroke-linecap="round" stroke-linejoin="round" stroke-miterlimit="10" stroke-width="1.5"/>
          </g>
          <g id="g3408" transform="translate(47.705 45.386)">
            <path id="path3410" d="M0,0H2.783" fill="none" stroke="#000" stroke-linecap="round" stroke-linejoin="round" stroke-miterlimit="10" stroke-width="1.5"/>
          </g>
          <g id="g3412" transform="translate(47.705 49.096)">
            <path id="path3414" d="M-68.932,0h-6.493" transform="translate(75.425)" fill="none" stroke="#000" stroke-linecap="round" stroke-linejoin="round" stroke-miterlimit="10" stroke-width="1.5"/>
          </g>
          <g id="g3416" transform="translate(47.705 52.807)">
            <path id="path3418" d="M-68.932,0h-6.493" transform="translate(75.425)" fill="none" stroke="#000" stroke-linecap="round" stroke-linejoin="round" stroke-miterlimit="10" stroke-width="1.5"/>
          </g>
          <g id="g3420" transform="translate(43.995 41.676)">
            <path id="path3422" d="M0-93.731v6.244a1.159,1.159,0,0,0,1.159,1.159h11.6a1.159,1.159,0,0,0,1.159-1.159V-98.369a1.16,1.16,0,0,0-.34-.821l-3.031-3.03a1.155,1.155,0,0,0-.82-.34H1.159A1.159,1.159,0,0,0,0-101.4v3.652" transform="translate(0 102.56)" fill="none" stroke="#000" stroke-linecap="round" stroke-linejoin="round" stroke-miterlimit="10" stroke-width="1.5"/>
          </g>
          <g id="g3424" transform="translate(54.198 41.781)">
            <path id="path3426" d="M0,0V2.445A1.16,1.16,0,0,0,1.16,3.6H3.6" fill="none" stroke="#000" stroke-linecap="round" stroke-linejoin="round" stroke-miterlimit="10" stroke-width="1.5"/>
          </g>
          <g id="g3428" transform="translate(26.138 45.386)">
            <path id="path3430" d="M0,0H2.783" fill="none" stroke="#000" stroke-linecap="round" stroke-linejoin="round" stroke-miterlimit="10" stroke-width="1.5"/>
          </g>
          <g id="g3432" transform="translate(26.138 49.096)">
            <path id="path3434" d="M-68.931,0h-6.493" transform="translate(75.424)" fill="none" stroke="#000" stroke-linecap="round" stroke-linejoin="round" stroke-miterlimit="10" stroke-width="1.5"/>
          </g>
          <g id="g3436" transform="translate(26.138 52.807)">
            <path id="path3438" d="M-68.931,0h-6.493" transform="translate(75.424)" fill="none" stroke="#000" stroke-linecap="round" stroke-linejoin="round" stroke-miterlimit="10" stroke-width="1.5"/>
          </g>
          <g id="g3440" transform="translate(22.428 41.676)">
            <path id="path3442" d="M-135.4-172.33H-147a1.159,1.159,0,0,1-1.159-1.16V-187.4a1.159,1.159,0,0,1,1.159-1.16h8.564a1.16,1.16,0,0,1,.82.34l3.031,3.031a1.16,1.16,0,0,1,.34.82v10.883A1.16,1.16,0,0,1-135.4-172.33Z" transform="translate(148.156 188.564)" fill="none" stroke="#000" stroke-linecap="round" stroke-linejoin="round" stroke-miterlimit="10" stroke-width="1.5"/>
          </g>
          <g id="g3444" transform="translate(32.631 41.781)">
            <path id="path3446" d="M0,0V2.445A1.16,1.16,0,0,0,1.16,3.6H3.6" fill="none" stroke="#000" stroke-linecap="round" stroke-linejoin="round" stroke-miterlimit="10" stroke-width="1.5"/>
          </g>
          <g id="g3448" transform="translate(4.571 45.386)">
            <path id="path3450" d="M0,0H2.783" fill="none" stroke="#000" stroke-linecap="round" stroke-linejoin="round" stroke-miterlimit="10" stroke-width="1.5"/>
          </g>
          <g id="g3452" transform="translate(4.571 49.096)">
            <path id="path3454" d="M-68.932,0h-6.493" transform="translate(75.425)" fill="none" stroke="#000" stroke-linecap="round" stroke-linejoin="round" stroke-miterlimit="10" stroke-width="1.5"/>
          </g>
          <g id="g3456" transform="translate(4.571 52.807)">
            <path id="path3458" d="M-68.932,0h-6.493" transform="translate(75.425)" fill="none" stroke="#000" stroke-linecap="round" stroke-linejoin="round" stroke-miterlimit="10" stroke-width="1.5"/>
          </g>
          <g id="g3460" transform="translate(0.861 41.676)">
            <path id="path3462" d="M-147.712-121.428v3.635a1.159,1.159,0,0,1-1.159,1.159h-11.6a1.159,1.159,0,0,1-1.159-1.159v-13.914a1.159,1.159,0,0,1,1.159-1.159h8.564a1.155,1.155,0,0,1,.82.34l3.031,3.03a1.16,1.16,0,0,1,.34.821v3.23" transform="translate(161.626 132.866)" fill="none" stroke="#000" stroke-linecap="round" stroke-linejoin="round" stroke-miterlimit="10" stroke-width="1.5"/>
          </g>
          <g id="g3464" transform="translate(11.065 41.781)">
            <path id="path3466" d="M0,0V2.445A1.16,1.16,0,0,0,1.16,3.6H3.6" fill="none" stroke="#000" stroke-linecap="round" stroke-linejoin="round" stroke-miterlimit="10" stroke-width="1.5"/>
          </g>
        </g>
      </g>
    </g>
  </g>
</svg>
