<svg xmlns="http://www.w3.org/2000/svg" xmlns:xlink="http://www.w3.org/1999/xlink" width="113" height="113" viewBox="0 0 113 113">
  <defs>
    <filter id="Trazado_982547" x="0" y="0" width="113" height="113" filterUnits="userSpaceOnUse">
      <feOffset dy="3" input="SourceAlpha"/>
      <feGaussianBlur stdDeviation="3" result="blur"/>
      <feFlood flood-opacity="0.161"/>
      <feComposite operator="in" in2="blur"/>
      <feComposite in="SourceGraphic"/>
    </filter>
  </defs>
  <g id="Grupo_1171764" data-name="Grupo 1171764" transform="translate(-820.514 -4182)">
    <g id="Grupo_1171496" data-name="Grupo 1171496" transform="translate(829.514 4188)">
      <g id="Grupo_1167464" data-name="Grupo 1167464">
        <g id="Grupo_1164308" data-name="Grupo 1164308" transform="translate(0)">
          <g id="Grupo_1163948" data-name="Grupo 1163948">
            <g id="Grupo_1158168" data-name="Grupo 1158168">
              <g id="Grupo_1152576" data-name="Grupo 1152576">
                <g id="Grupo_1148633" data-name="Grupo 1148633">
                  <g id="Grupo_1148525" data-name="Grupo 1148525">
                    <g transform="matrix(1, 0, 0, 1, -9, -6)" filter="url(#Trazado_982547)">
                      <g id="Trazado_982547-2" data-name="Trazado 982547" transform="translate(9 6)" fill="#f2f7f5">
                        <path d="M 47.5 93.5 C 41.28937149047852 93.5 35.26533508300781 92.28397369384766 29.59518623352051 89.88570404052734 C 24.11771965026855 87.56893157958984 19.19813346862793 84.25196075439453 14.97309303283691 80.02691650390625 C 10.74804019927979 75.80186462402344 7.431066513061523 70.88229370117188 5.114293098449707 65.40481567382812 C 2.716026782989502 59.73468017578125 1.5 53.71062850952148 1.5 47.5 C 1.5 41.28937149047852 2.716026782989502 35.26533508300781 5.114293098449707 29.59518623352051 C 7.431066513061523 24.11771965026855 10.74804019927979 19.19813346862793 14.97309303283691 14.97309303283691 C 19.19813346862793 10.74804019927979 24.11771965026855 7.431066513061523 29.59518623352051 5.114293098449707 C 35.26533508300781 2.716026782989502 41.28937149047852 1.5 47.5 1.5 C 53.71062850952148 1.5 59.73468017578125 2.716026782989502 65.40481567382812 5.114293098449707 C 70.88229370117188 7.431066513061523 75.80186462402344 10.74804019927979 80.02691650390625 14.97309303283691 C 84.25196075439453 19.19813346862793 87.56893157958984 24.11771965026855 89.88570404052734 29.59518623352051 C 92.28397369384766 35.26533508300781 93.5 41.28937149047852 93.5 47.5 C 93.5 53.71062850952148 92.28397369384766 59.73468017578125 89.88570404052734 65.40481567382812 C 87.56893157958984 70.88229370117188 84.25196075439453 75.80186462402344 80.02691650390625 80.02691650390625 C 75.80186462402344 84.25196075439453 70.88229370117188 87.56893157958984 65.40481567382812 89.88570404052734 C 59.73468017578125 92.28397369384766 53.71062850952148 93.5 47.5 93.5 Z" stroke="none"/>
                        <path d="M 47.5 3 C 41.49121475219727 3 35.66376876831055 4.176155090332031 30.17950439453125 6.495796203613281 C 24.88084411621094 8.736953735351562 20.12152099609375 11.94598388671875 16.03375244140625 16.03375244140625 C 11.94598388671875 20.12152099609375 8.736953735351562 24.88084411621094 6.495796203613281 30.17950439453125 C 4.176155090332031 35.66376876831055 3 41.49121475219727 3 47.5 C 3 53.50878524780273 4.176155090332031 59.33623123168945 6.495796203613281 64.82049560546875 C 8.736953735351562 70.11915588378906 11.94598388671875 74.87847900390625 16.03375244140625 78.96624755859375 C 20.12152099609375 83.05401611328125 24.88084411621094 86.26304626464844 30.17950439453125 88.50419616699219 C 35.66376876831055 90.82384490966797 41.49121475219727 92 47.5 92 C 53.50878524780273 92 59.33623123168945 90.82384490966797 64.82049560546875 88.50419616699219 C 70.11915588378906 86.26304626464844 74.87847900390625 83.05401611328125 78.96624755859375 78.96624755859375 C 83.05401611328125 74.87847900390625 86.26304626464844 70.11915588378906 88.50419616699219 64.82049560546875 C 90.82384490966797 59.33623123168945 92 53.50878524780273 92 47.5 C 92 41.49121475219727 90.82384490966797 35.66376876831055 88.50419616699219 30.17950439453125 C 86.26304626464844 24.88084411621094 83.05401611328125 20.12152099609375 78.96624755859375 16.03375244140625 C 74.87847900390625 11.94598388671875 70.11915588378906 8.736953735351562 64.82049560546875 6.495796203613281 C 59.33623123168945 4.176155090332031 53.50878524780273 3 47.5 3 M 47.5 0 C 73.7335205078125 0 95 21.2664794921875 95 47.5 C 95 73.7335205078125 73.7335205078125 95 47.5 95 C 21.2664794921875 95 0 73.7335205078125 0 47.5 C 0 21.2664794921875 21.2664794921875 0 47.5 0 Z" stroke="none" fill="#4a665c"/>
                      </g>
                    </g>
                  </g>
                </g>
              </g>
            </g>
          </g>
        </g>
      </g>
    </g>
    <g id="human-resources_1332001" transform="translate(850.514 4208.5)">
      <path id="Trazado_1016595" data-name="Trazado 1016595" d="M43.193,355.226a3,3,0,0,1-3,3H10.38a3,3,0,0,1-3-3,13.7,13.7,0,0,1,13.7-13.7H29.5a13.7,13.7,0,0,1,13.7,13.7Zm0,0" transform="translate(-6.625 -306.033)" fill="#d2d2d7"/>
      <path id="Trazado_1016596" data-name="Trazado 1016596" d="M67.57,355.226a3,3,0,0,1-3,3H37.544a3,3,0,0,1-3-3,13.7,13.7,0,0,1,13.7-13.7h5.629a13.7,13.7,0,0,1,13.7,13.7Zm0,0" transform="translate(-31.002 -306.033)" fill="#ebebf0"/>
      <path id="Trazado_1016597" data-name="Trazado 1016597" d="M156.06,270.648l-3.333,5.656-3.333-5.656v-8.089h6.665Zm0,0" transform="translate(-134.065 -235.167)" fill="#e3a76f"/>
      <path id="Trazado_1016598" data-name="Trazado 1016598" d="M153.767,448.688h-3.35l-1.765,5.7h6.938Zm0,0" transform="translate(-133.398 -402.196)" fill="#6990d7"/>
      <path id="Trazado_1016599" data-name="Trazado 1016599" d="M160.365,407.083H157.33a1.118,1.118,0,0,1-1.115-1.115v-2.686a1.118,1.118,0,0,1,1.115-1.115h3.035a1.118,1.118,0,0,1,1.115,1.115v2.686A1.119,1.119,0,0,1,160.365,407.083Zm0,0" transform="translate(-140.185 -360.45)" fill="#91aee2"/>
      <g id="Grupo_1171763" data-name="Grupo 1171763" transform="translate(5.034 3.384)">
        <path id="Trazado_1016600" data-name="Trazado 1016600" d="M56.852,176.567a3.895,3.895,0,1,1-3.895-3.895,3.895,3.895,0,0,1,3.895,3.895Zm0,0" transform="translate(-49.063 -157.889)" fill="#e3a76f"/>
        <path id="Trazado_1016601" data-name="Trazado 1016601" d="M246.9,176.575A3.895,3.895,0,1,1,243,172.68,3.895,3.895,0,0,1,246.9,176.575Zm0,0" transform="translate(-219.608 -157.896)" fill="#e3a76f"/>
        <path id="Trazado_1016602" data-name="Trazado 1016602" d="M100.036,31.952v18.11c0,4.71-5.512,8.668-8.78,9.8a5.049,5.049,0,0,1-1.551.324c-1.28,0-3.863-1.133-6.125-2.966s-4.206-4.364-4.206-7.16V31.952a3.342,3.342,0,0,1,3.342-3.343H96.693a3.342,3.342,0,0,1,3.343,3.343Zm0,0" transform="translate(-76.265 -28.609)" fill="#e3a76f"/>
      </g>
      <path id="Trazado_1016603" data-name="Trazado 1016603" d="M127.157,31.952v18.11c0,4.075-4.127,7.588-7.356,9.195a3.189,3.189,0,0,1-2.84,0,17.443,17.443,0,0,1-3.158-2.039c-2.263-1.832-4.206-4.364-4.206-7.16V31.952a3.343,3.343,0,0,1,3.343-3.343h10.874a3.343,3.343,0,0,1,3.343,3.343Zm0,0" transform="translate(-98.352 -25.225)" fill="#f2bb88"/>
      <path id="Trazado_1016604" data-name="Trazado 1016604" d="M240.651,35.018h-3.18a3.084,3.084,0,0,1-3.084-3.084V26.291a3.084,3.084,0,0,1,3.084-3.084h.668a3.084,3.084,0,0,1,3.084,3.084v8.155A.573.573,0,0,1,240.651,35.018Zm0,0" transform="translate(-210.335 -20.377)" fill="#ae583e"/>
      <path id="Trazado_1016605" data-name="Trazado 1016605" d="M78.286,8.622V9.66c0,4.2-8.4,12.436-19.507,12.364H56.862c-1.077,0-1.952-.6-1.952-1.347v-8.4c0-2.329,2.744-4.219,6.127-4.219H77.464a1.123,1.123,0,0,1,.346.053.6.6,0,0,1,.477.515Zm0,0" transform="translate(-49.276 -6.779)" fill="#c0694e"/>
      <path id="Trazado_1016606" data-name="Trazado 1016606" d="M77.81,8.107c-1.923,4.376-9.476,10.463-19.031,10.4H56.862c-1.077,0-1.952-.6-1.952-1.347V12.273c0-2.329,2.744-4.219,6.127-4.219H77.464a1.123,1.123,0,0,1,.346.053Zm0,0" transform="translate(-49.276 -6.779)" fill="#c97e67"/>
      <path id="Trazado_1016607" data-name="Trazado 1016607" d="M100.888,318.108l-2.557,2.667a.812.812,0,0,0-.188.807l2.321,7.311a1.352,1.352,0,0,0,1.894.429l4.584-2.969-4.77-8.1a.811.811,0,0,0-1.285-.15Zm0,0" transform="translate(-88.039 -284.792)" fill="#aec2e9"/>
      <path id="Trazado_1016608" data-name="Trazado 1016608" d="M185.574,318.108l2.557,2.667a.813.813,0,0,1,.188.807L186,328.893a1.352,1.352,0,0,1-1.894.429l-4.585-2.969,4.77-8.1A.811.811,0,0,1,185.574,318.108Zm0,0" transform="translate(-161.098 -284.792)" fill="#aec2e9"/>
      <path id="Trazado_1016609" data-name="Trazado 1016609" d="M337.937,67.366l-.377-2.141a.471.471,0,0,0-.545-.382l-2.634.465a6.53,6.53,0,0,0-.7-1.21l1.72-2.05a.47.47,0,0,0-.058-.663l-1.665-1.4a.471.471,0,0,0-.663.058L331.3,62.1a6.445,6.445,0,0,0-1.314-.478V58.943a.471.471,0,0,0-.471-.471h-2.173a.471.471,0,0,0-.471.471v2.674a6.446,6.446,0,0,0-1.314.478l-1.719-2.049a.47.47,0,0,0-.663-.058l-1.665,1.4a.47.47,0,0,0-.058.663l1.72,2.05a6.529,6.529,0,0,0-.7,1.21l-2.634-.464a.47.47,0,0,0-.545.382l-.378,2.141a.47.47,0,0,0,.382.545l2.635.465a6.478,6.478,0,0,0,.241,1.377l-2.316,1.337a.471.471,0,0,0-.172.643l1.087,1.882a.471.471,0,0,0,.643.172l2.317-1.338a6.567,6.567,0,0,0,1.07.9l-.915,2.514a.471.471,0,0,0,.281.6l2.042.743a.47.47,0,0,0,.6-.281l.915-2.514a6.5,6.5,0,0,0,1.4,0l.915,2.514a.47.47,0,0,0,.6.281l2.043-.743a.47.47,0,0,0,.281-.6l-.915-2.514a6.546,6.546,0,0,0,1.07-.9l2.317,1.338a.47.47,0,0,0,.643-.172l1.087-1.882a.471.471,0,0,0-.172-.643l-2.316-1.337a6.5,6.5,0,0,0,.241-1.377l2.635-.465A.47.47,0,0,0,337.937,67.366Zm0,0" transform="translate(-286.18 -52.024)" fill="#4172cc"/>
      <path id="Trazado_1016610" data-name="Trazado 1016610" d="M376.275,109.926a4.571,4.571,0,1,1-4.571-4.571A4.571,4.571,0,0,1,376.275,109.926Zm0,0" transform="translate(-329.459 -94.095)" fill="#2e5aac"/>
      <path id="Trazado_1016611" data-name="Trazado 1016611" d="M392.659,133.051a2.176,2.176,0,1,1,1.538-.637A2.162,2.162,0,0,1,392.659,133.051Zm0,0" transform="translate(-350.415 -115.044)" fill="#203e76"/>
      <path id="Trazado_1016612" data-name="Trazado 1016612" d="M304.039,270.642l-.455-2.576a.566.566,0,0,0-.656-.459l-3.17.559a7.826,7.826,0,0,0-.843-1.456l2.07-2.467a.566.566,0,0,0-.07-.8l-2-1.682a.566.566,0,0,0-.8.07l-2.069,2.466a7.78,7.78,0,0,0-1.581-.576V260.5a.566.566,0,0,0-.566-.566h-2.616a.566.566,0,0,0-.566.566v3.219a7.8,7.8,0,0,0-1.581.576l-2.069-2.466a.566.566,0,0,0-.8-.07l-2,1.682a.566.566,0,0,0-.07.8l2.07,2.467a7.8,7.8,0,0,0-.842,1.456l-3.17-.559a.567.567,0,0,0-.656.459l-.454,2.576a.566.566,0,0,0,.459.656l3.172.559a7.849,7.849,0,0,0,.29,1.657l-2.787,1.609a.566.566,0,0,0-.207.774l1.308,2.266a.567.567,0,0,0,.774.207l2.789-1.61a7.863,7.863,0,0,0,1.288,1.081l-1.1,3.026a.566.566,0,0,0,.339.726l2.458.895a.566.566,0,0,0,.726-.338l1.1-3.026a7.826,7.826,0,0,0,1.682,0l1.1,3.026a.566.566,0,0,0,.726.338l2.458-.895a.566.566,0,0,0,.338-.726l-1.1-3.026a7.884,7.884,0,0,0,1.288-1.081l2.789,1.61a.567.567,0,0,0,.774-.207l1.308-2.266a.566.566,0,0,0-.207-.774l-2.787-1.609a7.793,7.793,0,0,0,.29-1.657l3.172-.559A.567.567,0,0,0,304.039,270.642Zm0,0" transform="translate(-252.284 -232.815)" fill="#4172cc"/>
      <path id="Trazado_1016613" data-name="Trazado 1016613" d="M350.175,321.868a5.5,5.5,0,1,1-5.5-5.5A5.5,5.5,0,0,1,350.175,321.868Zm0,0" transform="translate(-304.367 -283.454)" fill="#2e5aac"/>
      <path id="Trazado_1016614" data-name="Trazado 1016614" d="M369.894,349.7a2.618,2.618,0,1,1,1.852-.767A2.6,2.6,0,0,1,369.894,349.7Zm0,0" transform="translate(-329.588 -308.665)" fill="#203e76"/>
      <path id="Trazado_1016615" data-name="Trazado 1016615" d="M312.378,61.9l2.063.364c.016.111.036.222.058.332l-1.813,1.047a1.248,1.248,0,0,0-.456,1.7l1.087,1.883a1.247,1.247,0,0,0,1.7.456l1.815-1.047c.085.075.17.147.258.217l-.716,1.967a1.248,1.248,0,0,0,.744,1.6c2.04.718,2.093.819,2.47.819a1.245,1.245,0,0,0,1.169-.82l.716-1.969c.113,0,.224,0,.337,0l.717,1.969a1.246,1.246,0,0,0,1.6.744l2.042-.744a1.246,1.246,0,0,0,.745-1.6l-.716-1.967c.087-.07.174-.143.257-.217l1.815,1.047a1.247,1.247,0,0,0,1.7-.456l1.087-1.883a1.246,1.246,0,0,0-.457-1.7l-1.812-1.047c.022-.11.041-.221.058-.332l2.063-.364a1.248,1.248,0,0,0,1.029-1.227,1.279,1.279,0,0,0-.018-.216l-.377-2.14A1.246,1.246,0,0,0,330.1,57.3l-2.062.364c-.055-.1-.111-.2-.17-.293l1.346-1.6a1.246,1.246,0,0,0-.153-1.755l-1.665-1.4a1.247,1.247,0,0,0-1.755.154l-1.345,1.6c-.105-.041-.211-.079-.318-.116V52.164a1.247,1.247,0,0,0-1.246-1.246h-2.173a1.248,1.248,0,0,0-1.246,1.246v2.093c-.107.036-.213.075-.317.116l-1.346-1.6a1.247,1.247,0,0,0-1.755-.154l-1.665,1.4a1.245,1.245,0,0,0-.153,1.755l1.345,1.6c-.058.1-.115.193-.169.293l-2.062-.364a1.246,1.246,0,0,0-1.443,1.011l-.377,2.14a1.246,1.246,0,0,0,1.011,1.443Zm.841-3.015,2.334.411a.773.773,0,0,0,.843-.45,5.727,5.727,0,0,1,.617-1.065.775.775,0,0,0-.032-.956l-1.524-1.817,1.2-1,1.523,1.815a.775.775,0,0,0,.937.2,5.736,5.736,0,0,1,1.156-.42.776.776,0,0,0,.59-.753v-2.37h1.563v2.37a.775.775,0,0,0,.591.753,5.757,5.757,0,0,1,1.156.42.776.776,0,0,0,.937-.2L326.631,54l1.2,1-1.523,1.817a.776.776,0,0,0-.032.956,5.747,5.747,0,0,1,.616,1.065.774.774,0,0,0,.843.45l2.334-.411.272,1.54L328,60.833a.777.777,0,0,0-.639.713,5.722,5.722,0,0,1-.212,1.213.776.776,0,0,0,.357.887l2.052,1.185-.782,1.353L326.726,65a.775.775,0,0,0-.947.135,5.773,5.773,0,0,1-.943.792.775.775,0,0,0-.3.909l.811,2.227-1.469.536-.811-2.228a.775.775,0,0,0-.811-.505,5.874,5.874,0,0,1-1.233,0,.773.773,0,0,0-.811.505l-.811,2.228-1.47-.536.811-2.227a.775.775,0,0,0-.3-.909,5.707,5.707,0,0,1-.943-.792A.775.775,0,0,0,316.56,65l-2.053,1.185-.782-1.353,2.051-1.185a.775.775,0,0,0,.357-.887,5.845,5.845,0,0,1-.212-1.213.776.776,0,0,0-.639-.713l-2.335-.411Zm0,0" transform="translate(-279.398 -45.245)"/>
      <path id="Trazado_1016616" data-name="Trazado 1016616" d="M364.92,108.5a5.346,5.346,0,1,0-5.346-5.346A5.351,5.351,0,0,0,364.92,108.5Zm0-9.141a3.795,3.795,0,1,1-3.8,3.794,3.8,3.8,0,0,1,3.8-3.794Zm0,0" transform="translate(-322.676 -87.32)"/>
      <path id="Trazado_1016617" data-name="Trazado 1016617" d="M385.876,127.042A2.951,2.951,0,1,0,383.789,122a2.947,2.947,0,0,0,2.086,5.038Zm0-4.352a1.4,1.4,0,1,1-.989,2.39,1.4,1.4,0,0,1,.989-2.39Zm0,0" transform="translate(-343.632 -108.26)"/>
      <path id="Trazado_1016618" data-name="Trazado 1016618" d="M52.519,37.693l-.455-2.577a1.34,1.34,0,0,0-1.554-1.089l-2.594.457q-.147-.276-.313-.541L49.3,31.926a1.345,1.345,0,0,0-.166-1.891l-2-1.681a1.345,1.345,0,0,0-1.891.166l-1.692,2.017q-.29-.118-.588-.214V27.689a1.343,1.343,0,0,0-1.341-1.342H39a1.344,1.344,0,0,0-1.342,1.342v2.633c-.2.064-.394.135-.587.214l-1.694-2.017a1.343,1.343,0,0,0-1.89-.166l-2,1.681a1.341,1.341,0,0,0-.166,1.891l1.694,2.018q-.167.265-.313.541L30.1,34.027a1.341,1.341,0,0,0-1.555,1.089l-.12.678q-.366-.152-.741-.282l-2.708-2.824a12.188,12.188,0,0,0,4.366-6.044,4.67,4.67,0,0,0,.236-9.106V15.416h.734a1.349,1.349,0,0,0,1.348-1.347V5.914A3.86,3.86,0,0,0,29.786,2.6V1.843A1.47,1.47,0,0,0,28.189.5H11.761A8.47,8.47,0,0,0,6.99,1.872,4.429,4.429,0,0,0,4.859,5.494v8.4a2.4,2.4,0,0,0,2.511,2.116v1.648a4.67,4.67,0,0,0,.209,8.872,8.327,8.327,0,0,0,.558,1.56.775.775,0,1,0,1.4-.661c-.958-2.028-.5-2.632-.619-8.489V16.021A24.246,24.246,0,0,0,23.28,11.73a3.863,3.863,0,0,0,3.855,3.686h.894c0,10.294.113,9.994-.314,11.263a11.478,11.478,0,0,1-4.07,5.082h0a16.561,16.561,0,0,1-2.408,1.52,6.435,6.435,0,0,1-2.761.908c-1.528,0-5.068-1.869-7.322-4.385A.775.775,0,0,0,10,30.838a16.494,16.494,0,0,0,2.208,2.033L9.659,35.528A14.5,14.5,0,0,0,0,49.178a3.777,3.777,0,0,0,3.773,3.772H33.587a3.781,3.781,0,0,0,3.593-2.62l.192.071a1.344,1.344,0,0,0,1.72-.8l.9-2.476c.209.008.416.008.625,0l.9,2.476a1.341,1.341,0,0,0,1.719.8l2.459-.894a1.344,1.344,0,0,0,.8-1.72l-.9-2.476q.247-.192.479-.4l2.282,1.317a1.341,1.341,0,0,0,1.833-.491L51.5,43.47a1.34,1.34,0,0,0-.491-1.833L48.728,40.32c.044-.2.08-.41.108-.615l2.595-.458a1.341,1.341,0,0,0,1.089-1.554ZM7.369,24.762a3.116,3.116,0,0,1,0-5.4Zm24.18-2.7a3.122,3.122,0,0,1-1.969,2.9c0-.065,0,.256,0-5.8A3.122,3.122,0,0,1,31.55,22.063ZM9.508,14.47c-2.034,0-1.984.005-2.139-.012-.6-.063-.96-.379-.96-.56v-8.4c0-1.866,2.452-3.443,5.351-3.443,17.206,0,16.417,0,16.474,0v.828c0,3.645-7.914,11.668-18.727,11.589Zm17.628-.6a2.31,2.31,0,0,1-2.308-2.309v-1c1.894-1.569,3.982-3.841,4.707-6.169a2.3,2.3,0,0,1,.578,1.526v7.951ZM23.9,33.8l2.6,2.716c-.02.067-2.266,7.141-2.3,7.239a.594.594,0,0,1-.763.105L19.484,41.3,23.9,33.8ZM20.537,43.829V45.5a.344.344,0,0,1-.339.339H17.162a.344.344,0,0,1-.339-.339V43.829l1.857-1.2Zm.928-8.945c-.633,1.073-.677,1.146-2.785,4.726-2.181-3.7-2.106-3.575-2.641-4.481,2.027.825,3.066.871,5.426-.245Zm-9-.039h0l1-1.039L14.9,36.257h0s0,0,0,0,0,0,0,0,0,0,0,.007l.016.025h0l.01.018L17.876,41.3c-4.366,2.828-4.118,2.719-4.439,2.637a.505.505,0,0,1-.284-.178c-.546-1.718-2.042-6.433-2.3-7.239ZM14.7,51.4H8.9V46.287a.775.775,0,0,0-1.551,0V51.4H3.773a2.224,2.224,0,0,1-2.222-2.221A12.943,12.943,0,0,1,9.464,37.266c2.378,7.471,2.228,7.059,2.3,7.193a2.127,2.127,0,0,0,3,.708l.514-.333a2.366,2.366,0,0,0,.78,2.2Zm1.622,0,1.242-4.006h2.3L21.147,51.4Zm17.265,0H30.013V46.287a.775.775,0,0,0-1.55,0V51.4H22.775l-1.411-4.411a1.885,1.885,0,0,0,.724-1.486v-.67l.514.333a2.106,2.106,0,0,0,3.054-.846L27.9,37.256c.085.035.168.072.252.109l-.058.328a1.343,1.343,0,0,0,1.089,1.554l2.47.437c.047.042.094.086.14.13.026.17.056.339.092.507L29.6,41.637a1.342,1.342,0,0,0-.491,1.833l1.309,2.265a1.342,1.342,0,0,0,1.832.491l2.283-1.317c.154.139.314.273.478.4l-.9,2.476a1.342,1.342,0,0,0,.8,1.72l.807.293a2.226,2.226,0,0,1-2.133,1.6Zm14.4-13.121a.775.775,0,0,0-.639.712,7.127,7.127,0,0,1-.262,1.493.775.775,0,0,0,.357.886l2.606,1.505-1.1,1.9-2.608-1.506a.775.775,0,0,0-.947.135,7.175,7.175,0,0,1-1.161.975.776.776,0,0,0-.3.909l1.03,2.829-2.064.752-1.03-2.829a.776.776,0,0,0-.812-.507,7,7,0,0,1-1.517,0,.779.779,0,0,0-.811.507l-1.03,2.829-2.066-.752.1-.275c.87-2.54,1.077-2.618.941-3.051-.15-.483-.521-.4-1.468-1.387a.772.772,0,0,0-.854-.18c-.075.029.077-.051-2.7,1.551l-1.1-1.9,2.606-1.505a.774.774,0,0,0,.358-.886,7.079,7.079,0,0,1-.262-1.493c-.05-.746-.847-.733-.9-.759l-2.7-.477,0-.02,0,.018,0-.024v0l.378-2.141L33,36.114a.776.776,0,0,0,.845-.45,7.011,7.011,0,0,1,.758-1.312.775.775,0,0,0-.031-.956l-1.935-2.306,1.683-1.413,1.935,2.306a.773.773,0,0,0,.936.2,6.977,6.977,0,0,1,1.423-.518.774.774,0,0,0,.59-.754V27.9h2.2v3.01a.775.775,0,0,0,.59.754,6.963,6.963,0,0,1,1.424.518.775.775,0,0,0,.937-.2l1.934-2.306,1.684,1.413L46.039,33.4a.775.775,0,0,0-.032.956,6.971,6.971,0,0,1,.759,1.312.777.777,0,0,0,.844.45l2.964-.523.382,2.165Zm0,0" transform="translate(0 0)"/>
      <path id="Trazado_1016619" data-name="Trazado 1016619" d="M337.89,308.809a6.277,6.277,0,1,0,6.278,6.277A6.285,6.285,0,0,0,337.89,308.809Zm0,11a4.726,4.726,0,1,1,4.727-4.727A4.732,4.732,0,0,1,337.89,319.813Zm0,0" transform="translate(-297.584 -276.671)"/>
      <path id="Trazado_1016620" data-name="Trazado 1016620" d="M359.723,340.286a3.393,3.393,0,1,0,5.793-2.4A3.375,3.375,0,0,0,359.723,340.286Zm3.392,1.843a1.843,1.843,0,1,1,1.3-3.146A1.846,1.846,0,0,1,363.115,342.13Zm0,0" transform="translate(-322.81 -301.872)"/>
      <path id="Trazado_1016621" data-name="Trazado 1016621" d="M221.7,200.153a1.224,1.224,0,1,0,1.224-1.223A1.224,1.224,0,0,0,221.7,200.153Zm0,0" transform="translate(-198.953 -178.068)"/>
      <path id="Trazado_1016622" data-name="Trazado 1016622" d="M214.389,163.426a.776.776,0,0,0,.826-1.313c-1.651-1.038-4.3-.525-4.6-.463a.775.775,0,0,0,.316,1.518,7.348,7.348,0,0,1,2.722-.027,2.36,2.36,0,0,1,.733.285Zm0,0" transform="translate(-188.451 -144.451)"/>
      <path id="Trazado_1016623" data-name="Trazado 1016623" d="M119.746,198.93a1.238,1.238,0,1,0,.058,0,.565.565,0,0,0-.058,0Zm0,0" transform="translate(-106.361 -178.068)"/>
      <path id="Trazado_1016624" data-name="Trazado 1016624" d="M104.689,161.649c-.3-.062-2.948-.575-4.6.463a.776.776,0,0,0,.413,1.432c.413,0,.392-.232,1.147-.405a7.356,7.356,0,0,1,2.721.028.775.775,0,0,0,.317-1.518Zm0,0" transform="translate(-89.495 -144.45)"/>
      <path id="Trazado_1016625" data-name="Trazado 1016625" d="M156.224,251.291a1.579,1.579,0,0,1-3.157,0,.776.776,0,0,0-.775-.775c-1.633,0-.624,3.905,2.354,3.905,2.442,0,3.454-2.578,3.062-3.445A.776.776,0,0,0,156.224,251.291Zm0,0" transform="translate(-135.965 -224.36)"/>
    </g>
  </g>
</svg>
