<svg xmlns="http://www.w3.org/2000/svg" xmlns:xlink="http://www.w3.org/1999/xlink" width="110" height="110" viewBox="0 0 110 110">
  <defs>
    <filter id="Trazado_982547" x="0" y="0" width="110" height="110" filterUnits="userSpaceOnUse">
      <feOffset dy="3" input="SourceAlpha"/>
      <feGaussianBlur stdDeviation="3" result="blur"/>
      <feFlood flood-opacity="0.161"/>
      <feComposite operator="in" in2="blur"/>
      <feComposite in="SourceGraphic"/>
    </filter>
  </defs>
  <g id="Grupo_1171951" data-name="Grupo 1171951" transform="translate(-377.136 -5143)">
    <g id="Grupo_1171563" data-name="Grupo 1171563" transform="translate(386.136 5149)">
      <g id="Grupo_1163801" data-name="Grupo 1163801" transform="translate(0)">
        <g id="Grupo_1163014" data-name="Grupo 1163014">
          <g id="Grupo_1157015" data-name="Grupo 1157015" transform="translate(0 0)">
            <g id="Grupo_1155792" data-name="Grupo 1155792">
              <g id="Grupo_1154703" data-name="Grupo 1154703">
                <g id="Grupo_1150789" data-name="Grupo 1150789">
                  <g id="Grupo_1154212" data-name="Grupo 1154212">
                    <g id="Grupo_1152583" data-name="Grupo 1152583">
                      <g id="Grupo_1146973" data-name="Grupo 1146973" transform="translate(0 0)">
                        <g id="Grupo_1146954" data-name="Grupo 1146954">
                          <g transform="matrix(1, 0, 0, 1, -9, -6)" filter="url(#Trazado_982547)">
                            <g id="Trazado_982547-2" data-name="Trazado 982547" transform="translate(9 6)" fill="#f2f7f5">
                              <path d="M 46 90.49987030029297 C 39.99187850952148 90.49987030029297 34.16426849365234 89.32350921630859 28.67905426025391 87.00345611572266 C 23.38019943237305 84.76224517822266 18.62104034423828 81.55341339111328 14.53374671936035 77.46613311767578 C 10.44646644592285 73.37885284423828 7.237639904022217 68.61969757080078 4.996413230895996 63.32085418701172 C 2.676359891891479 57.83565521240234 1.5 52.008056640625 1.5 45.99993515014648 C 1.5 39.99181365966797 2.676359891891479 34.16421508789062 4.996413230895996 28.67901420593262 C 7.237639904022217 23.38017463684082 10.44646644592285 18.62101554870605 14.53374671936035 14.53373527526855 C 18.62104034423828 10.44645500183105 23.38019943237305 7.23762845993042 28.67905426025391 4.996415138244629 C 34.16426849365234 2.676361799240112 39.99187850952148 1.500001788139343 46 1.500001788139343 C 52.00812149047852 1.500001788139343 57.83573150634766 2.676361799240112 63.32094573974609 4.996415138244629 C 68.61979675292969 7.23762845993042 73.37895965576172 10.44645500183105 77.46625518798828 14.53373527526855 C 81.55353546142578 18.62101554870605 84.76235961914062 23.38017463684082 87.00358581542969 28.67901420593262 C 89.32363891601562 34.16421508789062 90.5 39.99181365966797 90.5 45.99993515014648 C 90.5 52.008056640625 89.32363891601562 57.83565521240234 87.00358581542969 63.32085418701172 C 84.76235961914062 68.61969757080078 81.55353546142578 73.37885284423828 77.46625518798828 77.46613311767578 C 73.37895965576172 81.55341339111328 68.61979675292969 84.76224517822266 63.32094573974609 87.00345611572266 C 57.83573150634766 89.32350921630859 52.00812149047852 90.49987030029297 46 90.49987030029297 Z" stroke="none"/>
                              <path d="M 46 2.999992370605469 C 40.1937141418457 2.999992370605469 34.56269836425781 4.136489868164062 29.26337051391602 6.377906799316406 C 24.14332580566406 8.543502807617188 19.54441070556641 11.64437866210938 15.59439849853516 15.59437561035156 C 11.64440155029297 19.54439544677734 8.54351806640625 24.14329528808594 6.377914428710938 29.26333618164062 C 4.136497497558594 34.56264877319336 3 40.19366455078125 3 45.99993515014648 C 3 51.80620574951172 4.136497497558594 57.43720626831055 6.377914428710938 62.73651885986328 C 8.54351806640625 67.8565673828125 11.64440155029297 72.45545959472656 15.59439849853516 76.40547943115234 C 19.54441070556641 80.35547637939453 24.14332580566406 83.45635223388672 29.26337051391602 85.6219482421875 C 34.56269836425781 87.86336517333984 40.1937141418457 88.99986267089844 46 88.99986267089844 C 51.8062858581543 88.99986267089844 57.43730163574219 87.86336517333984 62.73661422729492 85.6219482421875 C 67.85667419433594 83.45635223388672 72.45557403564453 80.35547637939453 76.40558624267578 76.40547943115234 C 80.35559844970703 72.45545959472656 83.45647430419922 67.8565673828125 85.6220703125 62.73651885986328 C 87.86350250244141 57.43720626831055 89 51.80620574951172 89 45.99993515014648 C 89 40.19366455078125 87.86350250244141 34.56264877319336 85.6220703125 29.26333618164062 C 83.45647430419922 24.14329528808594 80.35559844970703 19.54439544677734 76.40558624267578 15.59437561035156 C 72.45557403564453 11.64437866210938 67.85667419433594 8.543502807617188 62.73661422729492 6.377906799316406 C 57.43730163574219 4.136489868164062 51.8062858581543 2.999992370605469 46 2.999992370605469 M 46 -7.62939453125e-06 C 71.40509033203125 -7.62939453125e-06 92 20.59486389160156 92 45.99993515014648 C 92 71.40499114990234 71.40509033203125 91.99986267089844 46 91.99986267089844 C 20.59490203857422 91.99986267089844 0 71.40499114990234 0 45.99993515014648 C 0 20.59486389160156 20.59490203857422 -7.62939453125e-06 46 -7.62939453125e-06 Z" stroke="none" fill="#01899b"/>
                            </g>
                          </g>
                        </g>
                      </g>
                    </g>
                  </g>
                </g>
              </g>
            </g>
          </g>
        </g>
      </g>
    </g>
    <g id="customer-service" transform="translate(367.326 5165)">
      <path id="Trazado_1017001" data-name="Trazado 1017001" d="M261.043,261.412v4.518l-5.057,3.808-5.057-3.808v-4.518Z" transform="translate(-187.672 -231.284)" fill="#fed2a4"/>
      <path id="Trazado_1017002" data-name="Trazado 1017002" d="M253.233,265.93v-4.518h-2.305v4.518l5.057,3.808,1.152-.868Z" transform="translate(-187.671 -231.284)" fill="#ffbd86"/>
      <path id="Trazado_1017003" data-name="Trazado 1017003" d="M55.321,145.444H48.039a1.729,1.729,0,0,1-1.729-1.729V132.771a1.729,1.729,0,0,1,1.729-1.729h7.282a1.729,1.729,0,0,1,1.729,1.729v5.472l3.58,3.621H57.05v1.851a1.729,1.729,0,0,1-1.729,1.729Z" transform="translate(-6.636 -115.939)" fill="#75cc77"/>
      <path id="Trazado_1017004" data-name="Trazado 1017004" d="M69.606,306.21h3.58V302.4a1.79,1.79,0,1,0-3.58,0Z" transform="translate(-27.247 -265.966)" fill="#fed2a4"/>
      <path id="Trazado_1017005" data-name="Trazado 1017005" d="M72.262,300.835a1.791,1.791,0,0,0-2.656,1.567v3.808h1.729V302.4A1.79,1.79,0,0,1,72.262,300.835Z" transform="translate(-27.247 -265.966)" fill="#ffbd86"/>
      <path id="Trazado_1017006" data-name="Trazado 1017006" d="M65.482,316.95a1.729,1.729,0,0,0,1.729-1.729V313.37l6.557-8.512A3.457,3.457,0,0,1,75.3,303.73l8.341-3.118,5.054,3.808,5.054-3.808,11.3,3.559a4.838,4.838,0,0,1,3.339,4.6v15.334H74.371V315.16l-6.133,7.41a3.458,3.458,0,0,1-2.877,1.54H65.3a3.457,3.457,0,0,1-3.458-3.458v-3.7Z" transform="translate(-20.377 -265.966)" fill="#42a5f5"/>
      <g id="Grupo_1171949" data-name="Grupo 1171949" transform="translate(41.464 34.646)">
        <path id="Trazado_1017007" data-name="Trazado 1017007" d="M305.961,304.42l4.374-3.3-1.626-.512-3.9,2.939Z" transform="translate(-276.807 -300.612)" fill="#0593fc"/>
        <path id="Trazado_1017008" data-name="Trazado 1017008" d="M170.559,411.017h2.305v10.77h-2.305Z" transform="translate(-158.029 -398.293)" fill="#0593fc"/>
        <path id="Trazado_1017009" data-name="Trazado 1017009" d="M64.147,320.653v-3.7h3.641a1.729,1.729,0,0,0,1.729-1.729V313.37l6.557-8.512A3.458,3.458,0,0,1,77.6,303.73l6.8-2.542-.764-.576L75.3,303.73a3.457,3.457,0,0,0-1.528,1.129l-6.557,8.512v1.851a1.729,1.729,0,0,1-1.729,1.729H61.842v3.7A3.458,3.458,0,0,0,65.3,324.11h.062a3.46,3.46,0,0,0,1.121-.187A3.461,3.461,0,0,1,64.147,320.653Z" transform="translate(-61.842 -300.612)" fill="#0593fc"/>
      </g>
      <path id="Trazado_1017010" data-name="Trazado 1017010" d="M170.559,411.017h26.85v7.194h-26.85Z" transform="translate(-116.565 -363.647)" fill="#ffca28"/>
      <path id="Trazado_1017011" data-name="Trazado 1017011" d="M170.559,411.017h2.305v7.194h-2.305Z" transform="translate(-116.565 -363.647)" fill="#f9b916"/>
      <path id="Trazado_1017012" data-name="Trazado 1017012" d="M187.745,131.752h-1.736a2.408,2.408,0,0,0-2.408,2.408v1.8a2.408,2.408,0,0,0,2.408,2.408h1.736Z" transform="translate(-128.104 -116.567)" fill="#fed2a4"/>
      <path id="Trazado_1017013" data-name="Trazado 1017013" d="M370.056,131.752h1.736a2.408,2.408,0,0,1,2.408,2.408v1.8a2.408,2.408,0,0,1-2.408,2.408h-1.736Z" transform="translate(-293.069 -116.567)" fill="#fed2a4"/>
      <path id="Trazado_1017014" data-name="Trazado 1017014" d="M219.559,103.646v8.328a8.011,8.011,0,0,0,8.011,8.011h1.323a8.011,8.011,0,0,0,8.011-8.011v-8.246l-8.673-3.651Z" transform="translate(-159.917 -88.543)" fill="#fff3de"/>
      <path id="Trazado_1017015" data-name="Trazado 1017015" d="M221.864,111.974v-8.328l7.507-3.089-1.139-.48-8.673,3.569v8.328a8.011,8.011,0,0,0,8.011,8.011h1.323c.165,0,.328-.007.491-.016A8.01,8.01,0,0,1,221.864,111.974Z" transform="translate(-159.917 -88.543)" fill="#ffe5c2"/>
      <path id="Trazado_1017016" data-name="Trazado 1017016" d="M191.469,49.3h3.977a3.457,3.457,0,0,0,3.458-3.458V38.562h-2.249a5.186,5.186,0,0,0-5.186,5.186Z" transform="translate(-135.065 -34.118)" fill="#546e7a"/>
      <path id="Trazado_1017017" data-name="Trazado 1017017" d="M198.9,38.563h-2.249a5.186,5.186,0,0,0-5.186,5.186V49.3h2.305V43.748A5.186,5.186,0,0,1,198.9,38.563Z" transform="translate(-135.064 -34.118)" fill="#435860"/>
      <path id="Trazado_1017018" data-name="Trazado 1017018" d="M265.3,7.5a7.1,7.1,0,0,1,7.1,7.1v7.223H259.437a3.457,3.457,0,0,1-3.458-3.458v-7.4A3.457,3.457,0,0,1,259.437,7.5Z" transform="translate(-192.14 -6.637)" fill="#546e7a"/>
      <path id="Trazado_1017019" data-name="Trazado 1017019" d="M258.284,18.363v-7.4A3.458,3.458,0,0,1,261.742,7.5h-2.305a3.458,3.458,0,0,0-3.458,3.458v7.4a3.457,3.457,0,0,0,3.458,3.458h2.305A3.458,3.458,0,0,1,258.284,18.363Z" transform="translate(-192.14 -6.636)" fill="#435860"/>
      <path id="Trazado_1017020" data-name="Trazado 1017020" d="M48.039,359.927h3.7A1.729,1.729,0,0,0,53.47,358.2v-7.282a1.729,1.729,0,0,0-1.729-1.729h-3.7a1.729,1.729,0,0,0-1.729,1.729V358.2A1.729,1.729,0,0,0,48.039,359.927Z" transform="translate(-6.636 -308.943)" fill="#fff3de"/>
      <path id="Trazado_1017021" data-name="Trazado 1017021" d="M48.616,358.2v-7.282a1.729,1.729,0,0,1,1.729-1.729H48.04a1.729,1.729,0,0,0-1.729,1.729V358.2a1.729,1.729,0,0,0,1.729,1.729h2.305A1.729,1.729,0,0,1,48.616,358.2Z" transform="translate(-6.637 -308.943)" fill="#ffe5c2"/>
      <g id="Grupo_1171950" data-name="Grupo 1171950" transform="translate(38.81 0)">
        <path id="Trazado_1017022" data-name="Trazado 1017022" d="M320.555,154.46a.864.864,0,0,0,.864-.864v-1.135a.864.864,0,0,0-1.729,0V153.6A.864.864,0,0,0,320.555,154.46Z" transform="translate(-287.319 -134.125)"/>
        <path id="Trazado_1017023" data-name="Trazado 1017023" d="M255.937,154.46a.864.864,0,0,0,.864-.864v-1.135a.864.864,0,1,0-1.729,0V153.6A.864.864,0,0,0,255.937,154.46Z" transform="translate(-230.148 -134.125)"/>
        <path id="Trazado_1017024" data-name="Trazado 1017024" d="M271.532,206.12a3.036,3.036,0,0,0,3.032-3.032.864.864,0,1,0-1.729,0,1.3,1.3,0,1,1-2.607,0,.864.864,0,0,0-1.729,0A3.036,3.036,0,0,0,271.532,206.12Z" transform="translate(-242.028 -178.917)"/>
        <path id="Trazado_1017025" data-name="Trazado 1017025" d="M88,46.351a.864.864,0,0,0,.864-.864V42.806a5.693,5.693,0,0,0-3.943-5.425L74.236,34.013V30.574a9.321,9.321,0,0,0,3.615-7.9C79.834,22.823,82,21.647,82,19.4v-1.8a3.26,3.26,0,0,0-.887-2.237c.011-.056.017-2.466.017-2.466a.864.864,0,0,0-1.729,0V14.32H67.3A2.6,2.6,0,0,1,64.7,11.727v-7.4A2.6,2.6,0,0,1,67.3,1.729h5.867A6.24,6.24,0,0,1,79.4,7.962V9.123a.864.864,0,0,0,1.729,0V7.962A7.97,7.97,0,0,0,73.164,0H67.3A4.328,4.328,0,0,0,63.04,3.58H61.59A6.058,6.058,0,0,0,55.54,9.631s0,5.647.012,5.692a3.261,3.261,0,0,0-.919,2.27v1.8c0,2.215,2.151,3.443,4.144,3.273a9.189,9.189,0,0,0,3.615,7.9v3.473l-7.776,2.907a4.325,4.325,0,0,0-1.909,1.411l-5.008,6.5V41.973a2.587,2.587,0,0,0-.9-1.957v-3.58a2.654,2.654,0,1,0-5.309,0V39.38a2.386,2.386,0,0,0-2.685,2.593v7.283A2.6,2.6,0,0,0,40.6,51.72v2.966a4.365,4.365,0,0,0,7.954,2.436l4.577-5.529V58.14a.864.864,0,0,0,.864.864H88a.864.864,0,0,0,.864-.864V49.254a.864.864,0,1,0-1.729,0v8.021H81.708V45.806a.864.864,0,0,0-1.729,0v.7H54.859v-.892a.864.864,0,1,0-1.729,0v3.269l-5.935,7.171c-1.415,1.708-4.866,1.76-4.866-1.367V51.849h2.746v.926a.864.864,0,1,0,1.729,0V51.213a2.588,2.588,0,0,0,.9-1.958V47.7l6.377-8.278a2.6,2.6,0,0,1,1.146-.847l7.894-2.951,4.677,3.522a.9.9,0,0,0,1.1-.041l4.646-3.5L84.4,39.026a3.965,3.965,0,0,1,2.742,3.779v2.681a.864.864,0,0,0,.864.865ZM79.98,48.235V53.7H65.14a.864.864,0,0,0,0,1.729H79.98v1.846H54.859V55.429h6.515a.864.864,0,0,0,0-1.729H54.859V48.235Zm-36.756-11.8a.926.926,0,1,1,1.851,0V39.38H43.224Zm-2.685,5.537a.865.865,0,0,1,.864-.864h3.7a.865.865,0,0,1,.864.864v.987H43.254a.864.864,0,1,0,0,1.729H45.97V46.54H43.254a.864.864,0,1,0,0,1.729H45.97v.987c0,.576-.35.825-.864.864H41.4a.865.865,0,0,1-.864-.864ZM80.266,19.4a1.546,1.546,0,0,1-1.544,1.544h-.871V16.049h.871a1.546,1.546,0,0,1,1.544,1.544Zm-23-9.767A4.327,4.327,0,0,1,61.59,5.309h1.384v6.418h0a2.6,2.6,0,0,1-2.593,2.593H57.269Zm.637,11.311A1.546,1.546,0,0,1,56.362,19.4v-1.8a1.546,1.546,0,0,1,1.544-1.544h.871v4.893h-.871Zm2.6,2.489V16.046a4.318,4.318,0,0,0,3.333-1.729A4.318,4.318,0,0,0,67.3,16.049h8.826v7.382c0,9.5-15.617,9.487-15.617,0Zm12,8.141v2.641l-4.193,3.159-4.193-3.159v-2.64c2.061,1.237,6.172,1.16,8.386,0Z" transform="translate(-38.81 0)"/>
        <path id="Trazado_1017026" data-name="Trazado 1017026" d="M64.15,175.545a.865.865,0,0,0,1.222,0l3.58-3.58a.864.864,0,0,0-1.222-1.222l-2.969,2.969-1.179-1.179a.864.864,0,0,0-1.222,1.222Z" transform="translate(-59.422 -150.84)"/>
        <path id="Trazado_1017027" data-name="Trazado 1017027" d="M41.4,139.672h7.282a2.6,2.6,0,0,0,2.593-2.593v-.987H54c.913-.007,1.316-.7.615-1.472l-3.33-3.368v-5.117a2.6,2.6,0,0,0-2.593-2.593H41.4a2.6,2.6,0,0,0-2.593,2.593v10.944A2.6,2.6,0,0,0,41.4,139.672Zm-.864-13.537a.865.865,0,0,1,.864-.864h7.282a.865.865,0,0,1,.864.864v5.472a.864.864,0,0,0,.25.608l2.125,2.149h-1.51a.864.864,0,0,0-.864.864v1.851a.865.865,0,0,1-.864.864H41.4a.865.865,0,0,1-.864-.864Z" transform="translate(-38.811 -109.304)"/>
      </g>
    </g>
  </g>
</svg>
