<svg xmlns="http://www.w3.org/2000/svg" xmlns:xlink="http://www.w3.org/1999/xlink" width="400" height="275" viewBox="0 0 400 275">
  <defs>
    <clipPath id="clip-path">
      <rect id="Rectángulo_414363" data-name="Rectángulo 414363" width="400" height="275" transform="translate(284.514 6009)" fill="#fff" stroke="#707070" stroke-width="1" opacity="0.66"/>
    </clipPath>
  </defs>
  <g id="Enmascarar_grupo_1098795" data-name="Enmascarar grupo 1098795" transform="translate(-284.514 -6009)" clip-path="url(#clip-path)">
    <g id="Grupo_1171791" data-name="Grupo 1171791" transform="translate(-1043.76 -169.514)">
      <g id="Grupo_1160545" data-name="Grupo 1160545" transform="translate(1373.348 6205.094)">
        <g id="Grupo_1160542" data-name="Grupo 1160542" transform="translate(16.366)">
          <path id="Trazado_1013110" data-name="Trazado 1013110" d="M184.854,184.731a295.706,295.706,0,0,0,9.924,33.8c3.993,11.106,8.909,22.344,17.655,30.268a41.147,41.147,0,0,0,49.849,4.17q2.725,4.039,5.7,7.913a58.127,58.127,0,0,0,12.613-8.137c-1.025,18.852-2.259,37.611-4.048,56.122,1.313.2,2.63.389,3.944.58q-2.413,18.875-3,37.923h95.891q-.3-16.117-1.356-32.209c.987-.012,1.974-.02,2.962-.036q.374-23.906-.842-47.8a66.089,66.089,0,0,0,11.378,13.957c8.325,7.507,20.187,12.061,30.928,8.854,5.276-1.575,9.867-4.858,14.095-8.386a115.058,115.058,0,0,0,30.979-40.983,34.9,34.9,0,0,0,4.342-6.885,3.325,3.325,0,0,0,.389-1.217,1.218,1.218,0,0,0-.5-1.117c-.649-.4-1.457.127-2.021.639a49.61,49.61,0,0,0-3.745,3.788,83.906,83.906,0,0,0,5.924-10.347,2.453,2.453,0,0,0,.233-2.369,1.673,1.673,0,0,0-2.1-.363,4.886,4.886,0,0,0-1.627,1.63l-1.676,2.324a49.414,49.414,0,0,0,2.018-5.059,4.705,4.705,0,0,0,.348-1.991,1.714,1.714,0,0,0-1.165-1.517c-1-.242-1.839.732-2.406,1.588-1.253,1.891-2.5,3.783-3.776,5.654A73.881,73.881,0,0,0,458,217.719c.265-1.158.313-2.712-.784-3.167a1.764,1.764,0,0,0-1.8.434,5.208,5.208,0,0,0-1.065,1.62q-2.956,6.04-5.914,12.08l-.306-.178a38.916,38.916,0,0,0-1.783-8.228c-.283-.752-.8-1.609-1.6-1.577a1.386,1.386,0,0,0-1.128.869,4.1,4.1,0,0,0-.262,1.468q-.255,4.771-.511,9.544a49.109,49.109,0,0,1-17.8,25.027c-3.834,2.809-8.474,5.122-13.171,4.4-3.847-.591-7.167-3.187-9.417-6.363a36.742,36.742,0,0,1-4.7-10.631q-.242-.789-.476-1.58c-2.969-10.051-5.029-20.381-8.689-30.2-2.85-7.647-6.826-15.1-12.39-20.982A30.19,30.19,0,0,0,381.73,176.5c.819-6.929-1.635-14.406-6.71-19.017a2.9,2.9,0,0,0-.15-.641,13.155,13.155,0,0,0,9.85-9.641,12.144,12.144,0,0,0-5.682-12.943,10.718,10.718,0,0,0-4.411-1.285,31.107,31.107,0,0,0-48.358-35.222c-3.047-1.439-8.413-.154-12.22,2.862s-6.2,7.531-7.505,12.212a58.3,58.3,0,0,0-1.726,11.629A11.086,11.086,0,0,0,298,123.9a12.143,12.143,0,0,0-8.815,11.049A13.152,13.152,0,0,0,296.23,146.8a3.231,3.231,0,0,0-.408,2.646c-4.608,5.952-9.888,11.624-11.185,18.891a19.353,19.353,0,0,0,4.652,15.791,71.18,71.18,0,0,0-17.384,13.559c-4.779,5.126-8.8,10.928-13.688,15.95a38.464,38.464,0,0,1-12.146,8.773,23.9,23.9,0,0,1-5.689,1.651c-8.077,1.257-16.466-2.219-22.2-8.041s-9.566-15.817-10.372-21.8a22.222,22.222,0,0,1-.182-2.61c-.072-4.733,1.053-11.324,4.432-15.33a6.168,6.168,0,0,0,1.181-1.705,1.739,1.739,0,0,0-.344-1.923c-.747-.631-1.884-.2-2.725.3a26.943,26.943,0,0,0-6.135,5.407,38.706,38.706,0,0,0-5.534-7.325,4.324,4.324,0,0,0-1.38-1.072,1.586,1.586,0,0,0-1.656.185c-.683.626-.412,1.744-.069,2.6a55.713,55.713,0,0,0,3.11,6.707c-2.338-3.405-4.464-6.5-7.889-8.5a3.656,3.656,0,0,0-1.769-.609,1.526,1.526,0,0,0-1.492.945,2.293,2.293,0,0,0,.507,1.821,54.565,54.565,0,0,0,5.02,6.992,34.476,34.476,0,0,0-4.675-4.359,14.178,14.178,0,0,0-6.238-2.846c-.605-.094-1.361-.065-1.651.475-.315.584.165,1.266.614,1.753l4.328,4.7-.008.01a26.338,26.338,0,0,0-5.656-3.131,2.907,2.907,0,0,0-1.061-.269,1.056,1.056,0,0,0-.932.476c-.308.559.16,1.213.6,1.677A61.787,61.787,0,0,0,184.854,184.731Z" transform="translate(-171.604 -83.422)" fill="#2e2854" opacity="0.15"/>
          <g id="Grupo_1160541" data-name="Grupo 1160541">
            <g id="Grupo_1160525" data-name="Grupo 1160525" transform="translate(106.682)">
              <path id="Trazado_1013111" data-name="Trazado 1013111" d="M337.69,179.6c-8.792-2.458-14.966-12.022-13.588-21.046,1.885-12.347,15.285-20.413,17.428-32.719,0,0,1.735-7.763,1.531-8.861a69.518,69.518,0,0,1,1.545-14.464c1.185-4.711,3.464-9.285,7.2-12.4s9.063-4.53,12.145-3.168a31.133,31.133,0,0,1,46.569,39.895s-.4,15.219-.295,16.013c7.767,3.637,11.939,12.882,11.146,21.423s-5.823,16.252-12.244,21.939Z" transform="translate(-323.91 -79.904)" fill="#5767bf"/>
              <g id="Grupo_1160514" data-name="Grupo 1160514" transform="translate(42.948 70.714)">
                <path id="Trazado_1013112" data-name="Trazado 1013112" d="M387.15,183.96q-.424,8.317-.848,16.636s12.338-.114,12.558-.039q.238-8.962.475-17.926Z" transform="translate(-386.302 -182.631)" fill="#d17162"/>
                <path id="Trazado_1013113" data-name="Trazado 1013113" d="M387.157,189.049a29.318,29.318,0,0,0,12.26.517q.092-3.468.184-6.935l-12.185,1.329Q387.287,186.5,387.157,189.049Z" transform="translate(-386.569 -182.631)" fill="#c45d4d"/>
              </g>
              <g id="Grupo_1160524" data-name="Grupo 1160524" transform="translate(3.9 21.525)">
                <g id="Grupo_1160519" data-name="Grupo 1160519" transform="translate(19.546)">
                  <path id="Trazado_1013114" data-name="Trazado 1013114" d="M415.895,128.369a33.606,33.606,0,0,1-8.6,26.088,30.237,30.237,0,0,1-25.625,9.31A27.5,27.5,0,0,1,360.2,147.329c-2.326-5.769-2.488-12.185-2.022-18.492,7.182-3.316,12.585-10.239,13.57-17.663a21.636,21.636,0,0,0,14.291,10.69c6,1.283,12.537-.185,18.279-3.788A15.267,15.267,0,0,0,415.895,128.369Z" transform="translate(-357.971 -111.173)" fill="#d17162"/>
                  <g id="Grupo_1160515" data-name="Grupo 1160515" transform="translate(3.405 34.295)">
                    <path id="Trazado_1013115" data-name="Trazado 1013115" d="M426.982,168.3a6.312,6.312,0,0,0-2.27-2.974A6.837,6.837,0,0,0,414.292,173a6.872,6.872,0,0,0,3,3.721,29.778,29.778,0,0,0,9.687-8.421Z" transform="translate(-378.834 -161.978)" fill="#c45d4d"/>
                    <path id="Trazado_1013116" data-name="Trazado 1013116" d="M370.907,174.311a6.938,6.938,0,0,0,4.667-4.376,6.727,6.727,0,0,0-10.383-7.652,6.786,6.786,0,0,0-2.273,3.029A26.886,26.886,0,0,0,370.907,174.311Z" transform="translate(-362.918 -160.995)" fill="#c45d4d"/>
                  </g>
                  <g id="Grupo_1160518" data-name="Grupo 1160518" transform="translate(6.515 15.395)">
                    <g id="Grupo_1160516" data-name="Grupo 1160516">
                      <path id="Trazado_1013117" data-name="Trazado 1013117" d="M367.436,133.538c.447,1.37.895,2.739,1.287,3.95a11.644,11.644,0,0,1,9.02.85" transform="translate(-367.436 -133.538)" fill="none" stroke="#2e2854" stroke-linecap="round" stroke-linejoin="round" stroke-miterlimit="10" stroke-width="1"/>
                      <path id="Trazado_1013118" data-name="Trazado 1013118" d="M372.417,134.09c.017,1.039.027,2.073.037,3.106" transform="translate(-368.988 -133.71)" fill="none" stroke="#2e2854" stroke-linecap="round" stroke-linejoin="round" stroke-miterlimit="10" stroke-width="1"/>
                      <path id="Trazado_1013119" data-name="Trazado 1013119" d="M376.55,135.525c-.079.708-.159,1.416-.232,2.117" transform="translate(-370.204 -134.157)" fill="none" stroke="#2e2854" stroke-linecap="round" stroke-linejoin="round" stroke-miterlimit="10" stroke-width="1"/>
                    </g>
                    <g id="Grupo_1160517" data-name="Grupo 1160517" transform="translate(30.623 2.482)">
                      <path id="Trazado_1013120" data-name="Trazado 1013120" d="M422.936,137.509c-.691,1.265-1.382,2.529-1.99,3.648a11.648,11.648,0,0,0-9.024-.814" transform="translate(-411.922 -137.257)" fill="none" stroke="#2e2854" stroke-linecap="round" stroke-linejoin="round" stroke-miterlimit="10" stroke-width="1"/>
                      <path id="Trazado_1013121" data-name="Trazado 1013121" d="M422.65,137.143c-.207,1.019-.406,2.032-.605,3.046" transform="translate(-415.077 -137.143)" fill="none" stroke="#2e2854" stroke-linecap="round" stroke-linejoin="round" stroke-miterlimit="10" stroke-width="1"/>
                      <path id="Trazado_1013122" data-name="Trazado 1013122" d="M418.422,137.778c-.052.71-.1,1.422-.16,2.123" transform="translate(-413.898 -137.341)" fill="none" stroke="#2e2854" stroke-linecap="round" stroke-linejoin="round" stroke-miterlimit="10" stroke-width="1"/>
                    </g>
                    <path id="Trazado_1013123" data-name="Trazado 1013123" d="M392.544,140.435l-2.908,3.577a2.957,2.957,0,0,0-.5.769,1,1,0,0,0,.039.888,1.3,1.3,0,0,0,.774.479,4.793,4.793,0,0,0,2.559.021" transform="translate(-374.171 -135.687)" fill="none" stroke="#2e2854" stroke-linecap="round" stroke-linejoin="round" stroke-miterlimit="10" stroke-width="1"/>
                    <path id="Trazado_1013124" data-name="Trazado 1013124" d="M387.329,156.973a26,26,0,0,0,18.57-2.866" transform="translate(-373.635 -139.948)" fill="none" stroke="#2e2854" stroke-linecap="round" stroke-linejoin="round" stroke-miterlimit="10" stroke-width="1"/>
                  </g>
                </g>
                <g id="Grupo_1160521" data-name="Grupo 1160521" transform="translate(0 12.003)">
                  <path id="Trazado_1013125" data-name="Trazado 1013125" d="M350.9,134.6a11.275,11.275,0,0,0-12.79-5.614,12.143,12.143,0,0,0-8.536,11.266,13.159,13.159,0,0,0,7.878,11.923,14.377,14.377,0,0,0,14.289-2.035Z" transform="translate(-329.576 -128.61)" fill="#d17162"/>
                  <path id="Trazado_1013126" data-name="Trazado 1013126" d="M344.477,161.134a3.092,3.092,0,1,0,.245,4.659A3.111,3.111,0,0,0,344.477,161.134Z" transform="translate(-332.675 -138.553)" fill="#fff"/>
                  <g id="Grupo_1160520" data-name="Grupo 1160520" transform="translate(6.177 8.956)">
                    <path id="Trazado_1013127" data-name="Trazado 1013127" d="M338.549,144.437a8.671,8.671,0,0,1,9.34-2.287" transform="translate(-338.549 -141.62)" fill="none" stroke="#2e2854" stroke-linecap="round" stroke-linejoin="round" stroke-miterlimit="10" stroke-width="1"/>
                    <path id="Trazado_1013128" data-name="Trazado 1013128" d="M347.514,147.715a10.034,10.034,0,0,1-2.447-5.777" transform="translate(-340.58 -141.719)" fill="none" stroke="#2e2854" stroke-linecap="round" stroke-linejoin="round" stroke-miterlimit="10" stroke-width="1"/>
                  </g>
                </g>
                <g id="Grupo_1160523" data-name="Grupo 1160523" transform="translate(72.072 19.503)">
                  <path id="Trazado_1013129" data-name="Trazado 1013129" d="M438.333,143.526a11.276,11.276,0,0,1,13.678-2.831,12.142,12.142,0,0,1,6.005,12.8,13.162,13.162,0,0,1-10.186,10.023,14.38,14.38,0,0,1-13.553-4.963Z" transform="translate(-434.277 -139.505)" fill="#d17162"/>
                  <path id="Trazado_1013130" data-name="Trazado 1013130" d="M447.911,171.673a3.093,3.093,0,1,1-1.209,4.506A3.111,3.111,0,0,1,447.911,171.673Z" transform="translate(-437.99 -149.441)" fill="#fff"/>
                  <g id="Grupo_1160522" data-name="Grupo 1160522" transform="translate(9.013 8.556)">
                    <path id="Trazado_1013131" data-name="Trazado 1013131" d="M456.03,156.209a8.671,8.671,0,0,0-8.66-4.18" transform="translate(-447.37 -151.934)" fill="none" stroke="#2e2854" stroke-linecap="round" stroke-linejoin="round" stroke-miterlimit="10" stroke-width="1"/>
                    <path id="Trazado_1013132" data-name="Trazado 1013132" d="M449.136,158.24a10.035,10.035,0,0,0,3.6-5.141" transform="translate(-447.92 -152.297)" fill="none" stroke="#2e2854" stroke-linecap="round" stroke-linejoin="round" stroke-miterlimit="10" stroke-width="1"/>
                  </g>
                </g>
              </g>
            </g>
            <g id="Grupo_1160526" data-name="Grupo 1160526" transform="translate(104.203 212.046)">
              <path id="Trazado_1013133" data-name="Trazado 1013133" d="M416.51,439.85q-.8-26.009-3.606-51.9l-90.151,4.125a394.942,394.942,0,0,0-2.424,47.778Z" transform="translate(-320.309 -387.946)" fill="#5767bf"/>
              <path id="Trazado_1013134" data-name="Trazado 1013134" d="M415.581,410.348q-.837-11.217-2.044-22.4l-90.151,4.125q-.6,5.353-1.044,10.721C339.506,406.151,385.84,414.253,415.581,410.348Z" transform="translate(-320.943 -387.946)" fill="#2e2854" opacity="0.15"/>
            </g>
            <g id="Grupo_1160540" data-name="Grupo 1160540" transform="translate(0 82.348)">
              <g id="Grupo_1160532" data-name="Grupo 1160532">
                <g id="Grupo_1160530" data-name="Grupo 1160530">
                  <g id="Grupo_1160528" data-name="Grupo 1160528">
                    <path id="Trazado_1013135" data-name="Trazado 1013135" d="M260.964,276.707a41.215,41.215,0,0,1-55.326,1.383c-8.942-7.7-14.138-18.814-18.408-29.816a295.691,295.691,0,0,1-10.768-33.542,61.765,61.765,0,0,1-6.8-5.97c-.453-.452-.936-1.095-.643-1.661a1.053,1.053,0,0,1,.92-.5,2.9,2.9,0,0,1,1.068.242,26.332,26.332,0,0,1,5.732,2.988l.007-.01-4.445-4.587c-.462-.476-.959-1.146-.658-1.737.277-.547,1.032-.6,1.639-.516a14.174,14.174,0,0,1,6.307,2.689,34.435,34.435,0,0,1,4.783,4.24,54.575,54.575,0,0,1-5.194-6.864,2.294,2.294,0,0,1-.552-1.808,1.526,1.526,0,0,1,1.468-.982,3.653,3.653,0,0,1,1.784.564c3.473,1.913,5.677,4.955,8.1,8.3a55.684,55.684,0,0,1-3.277-6.627c-.364-.852-.664-1.963,0-2.605a1.586,1.586,0,0,1,1.651-.226,4.319,4.319,0,0,1,1.406,1.037,38.679,38.679,0,0,1,6.543,8.58l3.095,11.761a22.238,22.238,0,0,0,.247,2.6c.955,5.958,5.033,15.854,10.915,21.53s14.355,8.941,22.4,7.481a23.919,23.919,0,0,0,5.646-1.793Z" transform="translate(-168.932 -199.532)" fill="#d17162"/>
                    <path id="Trazado_1013136" data-name="Trazado 1013136" d="M264.289,292.093c-32.1,17.7-59.735-12.294-70.831-27.169q.7,1.869,1.415,3.728c4.271,11,9.466,22.113,18.408,29.816a41.215,41.215,0,0,0,55.326-1.383Z" transform="translate(-176.575 -219.91)" fill="#c45d4d"/>
                    <g id="Grupo_1160527" data-name="Grupo 1160527">
                      <path id="Trazado_1013137" data-name="Trazado 1013137" d="M182.794,216.5a20.168,20.168,0,0,0-2.517-2.009" transform="translate(-172.467 -204.194)" fill="none" stroke="#2e2854" stroke-linecap="round" stroke-linejoin="round" stroke-miterlimit="10" stroke-width="1"/>
                      <path id="Trazado_1013138" data-name="Trazado 1013138" d="M233.568,288.065a41.648,41.648,0,0,1-27.93-9.976c-8.942-7.7-14.138-18.814-18.408-29.816a295.691,295.691,0,0,1-10.768-33.542,61.765,61.765,0,0,1-6.8-5.97c-.453-.452-.936-1.095-.643-1.661a1.053,1.053,0,0,1,.92-.5,2.9,2.9,0,0,1,1.068.242,26.332,26.332,0,0,1,5.732,2.988l.007-.01-4.445-4.587c-.462-.476-.959-1.146-.658-1.737.277-.547,1.032-.6,1.639-.516a14.174,14.174,0,0,1,6.307,2.689,34.435,34.435,0,0,1,4.783,4.24,54.575,54.575,0,0,1-5.194-6.864,2.294,2.294,0,0,1-.552-1.808,1.526,1.526,0,0,1,1.468-.982,3.653,3.653,0,0,1,1.784.564c3.473,1.913,5.677,4.955,8.1,8.3a55.684,55.684,0,0,1-3.277-6.627c-.364-.852-.664-1.963,0-2.605a1.586,1.586,0,0,1,1.651-.226,4.319,4.319,0,0,1,1.406,1.037,38.679,38.679,0,0,1,6.543,8.58" transform="translate(-168.932 -199.532)" fill="none" stroke="#2e2854" stroke-linecap="round" stroke-linejoin="round" stroke-miterlimit="10" stroke-width="1"/>
                      <path id="Trazado_1013139" data-name="Trazado 1013139" d="M181.489,217.294c3.336-2.723,10.208-4.435,16.816-3.71" transform="translate(-172.845 -203.859)" fill="none" stroke="#2e2854" stroke-linecap="round" stroke-linejoin="round" stroke-miterlimit="10" stroke-width="1"/>
                    </g>
                  </g>
                  <g id="Grupo_1160529" data-name="Grupo 1160529" transform="translate(25.46 2.13)">
                    <path id="Trazado_1013140" data-name="Trazado 1013140" d="M205.918,210.221A29.106,29.106,0,0,1,213,203.286c.828-.52,1.954-.98,2.716-.367a1.74,1.74,0,0,1,.392,1.914,6.176,6.176,0,0,1-1.138,1.734c-3.278,4.089-4.237,10.706-4.047,15.436" transform="translate(-205.918 -202.626)" fill="#d17162"/>
                    <path id="Trazado_1013141" data-name="Trazado 1013141" d="M205.918,210.221A29.106,29.106,0,0,1,213,203.286c.828-.52,1.954-.98,2.716-.367a1.74,1.74,0,0,1,.392,1.914,6.176,6.176,0,0,1-1.138,1.734c-3.278,4.089-4.237,10.706-4.047,15.436" transform="translate(-205.918 -202.626)" fill="none" stroke="#2e2854" stroke-linecap="round" stroke-linejoin="round" stroke-miterlimit="10" stroke-width="1"/>
                  </g>
                </g>
                <g id="Grupo_1160531" data-name="Grupo 1160531" transform="translate(69.676 11.816)">
                  <path id="Trazado_1013142" data-name="Trazado 1013142" d="M312.658,216.7a71.209,71.209,0,0,0-17.3,14.151c-4.649,5.244-8.523,11.145-13.284,16.288a38.464,38.464,0,0,1-11.922,9.075,163.814,163.814,0,0,0,22.865,37.915,58.145,58.145,0,0,0,16.9-12.885Z" transform="translate(-270.151 -216.697)" fill="#7b478f"/>
                  <path id="Trazado_1013143" data-name="Trazado 1013143" d="M294.853,254.818a7.583,7.583,0,0,0-4.5-.907c-1.316,1.645-2.663,3.263-4.094,4.81-.856.925-1.75,1.828-2.679,2.694a7.332,7.332,0,0,0,.54,2.868,7.567,7.567,0,0,0,14.286-.874A7.6,7.6,0,0,0,294.853,254.818Z" transform="translate(-274.335 -228.281)" fill="#9a59b3"/>
                  <path id="Trazado_1013144" data-name="Trazado 1013144" d="M289.207,298.041a156.29,156.29,0,0,0,9.748,13.423,58.147,58.147,0,0,0,16.9-12.886l1.115-26.245C311.846,279.083,302.158,290.254,289.207,298.041Z" transform="translate(-276.09 -234.035)" fill="#2e2854" opacity="0.15"/>
                </g>
              </g>
              <g id="Grupo_1160538" data-name="Grupo 1160538" transform="translate(188.25 8.222)">
                <g id="Grupo_1160536" data-name="Grupo 1160536" transform="translate(2.596 29.871)">
                  <g id="Grupo_1160534" data-name="Grupo 1160534">
                    <path id="Trazado_1013145" data-name="Trazado 1013145" d="M540.85,287.516a115.059,115.059,0,0,1-29.942,41.747c-4.138,3.633-8.646,7.03-13.88,8.737-10.657,3.476-22.629-.779-31.14-8.075s-14.233-17.241-19.709-27.022l30.47-13.107q.254.786.515,1.568a36.737,36.737,0,0,0,4.968,10.51c2.328,3.119,5.713,5.63,9.573,6.124,4.715.6,9.294-1.826,13.057-4.729a49.109,49.109,0,0,0,17.168-25.465l5.232-2.209,7.708,4.231Z" transform="translate(-446.178 -261.328)" fill="#d17162"/>
                    <path id="Trazado_1013146" data-name="Trazado 1013146" d="M485.223,338.375c-13.341-.7-23.04-15.32-29.283-29.209l-9.762,4.2c5.477,9.781,11.2,19.727,19.709,27.022s20.483,11.551,31.14,8.075c5.234-1.707,9.742-5.1,13.88-8.737a113.044,113.044,0,0,0,20.482-23.841C520.5,325.545,501.959,339.255,485.223,338.375Z" transform="translate(-446.178 -271.79)" fill="#c45d4d"/>
                    <path id="Trazado_1013147" data-name="Trazado 1013147" d="M577.173,281.057a34.907,34.907,0,0,0,4.167-6.992,3.327,3.327,0,0,0,.359-1.227,1.217,1.217,0,0,0-.528-1.1c-.659-.382-1.454.164-2,.689a49.671,49.671,0,0,0-3.65,3.881,83.817,83.817,0,0,0,5.662-10.493,2.454,2.454,0,0,0,.174-2.374,1.673,1.673,0,0,0-2.107-.31,4.883,4.883,0,0,0-1.586,1.671l-1.618,2.365a49.432,49.432,0,0,0,1.891-5.108,4.709,4.709,0,0,0,.3-2,1.714,1.714,0,0,0-1.2-1.488c-1-.216-1.819.778-2.365,1.648-1.2,1.922-2.41,3.844-3.633,5.746a74.008,74.008,0,0,0,2.045-7.86c.236-1.164.245-2.719-.863-3.147a1.763,1.763,0,0,0-1.784.478,5.2,5.2,0,0,0-1.024,1.647q-3.334,7.268-6.67,14.536Z" transform="translate(-482.501 -254.869)" fill="#d17162"/>
                    <g id="Grupo_1160533" data-name="Grupo 1160533" transform="translate(19.709)">
                      <path id="Trazado_1013148" data-name="Trazado 1013148" d="M573.155,270.987c-1.178,1.832-2.373,3.647-3.6,5.426" transform="translate(-504.335 -259.892)" fill="none" stroke="#2e2854" stroke-linecap="round" stroke-linejoin="round" stroke-miterlimit="10" stroke-width="1"/>
                      <path id="Trazado_1013149" data-name="Trazado 1013149" d="M575.491,279.351l4.527-6.621" transform="translate(-506.186 -260.435)" fill="none" stroke="#2e2854" stroke-linecap="round" stroke-linejoin="round" stroke-miterlimit="10" stroke-width="1"/>
                      <path id="Trazado_1013150" data-name="Trazado 1013150" d="M580.626,286.57q.231-.282.467-.561" transform="translate(-507.786 -264.573)" fill="none" stroke="#2e2854" stroke-linecap="round" stroke-linejoin="round" stroke-miterlimit="10" stroke-width="1"/>
                      <path id="Trazado_1013151" data-name="Trazado 1013151" d="M567.553,278.013a25.157,25.157,0,0,1,10.281,7.525" transform="translate(-503.712 -262.082)" fill="none" stroke="#2e2854" stroke-linecap="round" stroke-linejoin="round" stroke-miterlimit="10" stroke-width="1"/>
                      <path id="Trazado_1013152" data-name="Trazado 1013152" d="M577.173,281.057a34.907,34.907,0,0,0,4.167-6.992,3.327,3.327,0,0,0,.359-1.227,1.217,1.217,0,0,0-.528-1.1c-.659-.382-1.454.164-2,.689a49.671,49.671,0,0,0-3.65,3.881,83.817,83.817,0,0,0,5.662-10.493,2.454,2.454,0,0,0,.174-2.374,1.673,1.673,0,0,0-2.107-.31,4.883,4.883,0,0,0-1.586,1.671l-1.618,2.365a49.432,49.432,0,0,0,1.891-5.108,4.709,4.709,0,0,0,.3-2,1.714,1.714,0,0,0-1.2-1.488c-1-.216-1.819.778-2.365,1.648-1.2,1.922-2.41,3.844-3.633,5.746a74.008,74.008,0,0,0,2.045-7.86c.236-1.164.245-2.719-.863-3.147a1.763,1.763,0,0,0-1.784.478,5.2,5.2,0,0,0-1.024,1.647q-3.334,7.268-6.67,14.536" transform="translate(-502.21 -254.869)" fill="none" stroke="#2e2854" stroke-linecap="round" stroke-linejoin="round" stroke-miterlimit="10" stroke-width="1"/>
                      <path id="Trazado_1013153" data-name="Trazado 1013153" d="M549.772,292.913a115.06,115.06,0,0,1-29.942,41.747c-4.138,3.633-8.646,7.03-13.88,8.737-10.657,3.476-22.629-.779-31.14-8.075" transform="translate(-474.81 -266.725)" fill="none" stroke="#2e2854" stroke-linecap="round" stroke-linejoin="round" stroke-miterlimit="10" stroke-width="1"/>
                    </g>
                  </g>
                  <g id="Grupo_1160535" data-name="Grupo 1160535" transform="translate(75.751 4.549)">
                    <path id="Trazado_1013154" data-name="Trazado 1013154" d="M556.223,273.4q.136-4.777.272-9.554a4.085,4.085,0,0,1,.225-1.474,1.386,1.386,0,0,1,1.106-.9c.8-.052,1.339.792,1.64,1.536a38.872,38.872,0,0,1,1.989,8.181,12.3,12.3,0,0,1,3.773,11.084" transform="translate(-556.223 -261.477)" fill="#d17162"/>
                    <path id="Trazado_1013155" data-name="Trazado 1013155" d="M556.223,273.4q.136-4.777.272-9.554a4.085,4.085,0,0,1,.225-1.474,1.386,1.386,0,0,1,1.106-.9c.8-.052,1.339.792,1.64,1.536a38.872,38.872,0,0,1,1.989,8.181,12.3,12.3,0,0,1,3.773,11.084" transform="translate(-556.223 -261.477)" fill="none" stroke="#2e2854" stroke-linecap="round" stroke-linejoin="round" stroke-miterlimit="10" stroke-width="1"/>
                  </g>
                </g>
                <g id="Grupo_1160537" data-name="Grupo 1160537">
                  <path id="Trazado_1013156" data-name="Trazado 1013156" d="M442.406,211.475a39.332,39.332,0,0,1,4.1,2.307c9.265,5.983,15.413,15.824,19.523,26.059,3.9,9.725,6.224,20,9.443,29.974a124.166,124.166,0,0,1-29.3,25.589Z" transform="translate(-442.406 -211.475)" fill="#7b478f"/>
                  <path id="Trazado_1013157" data-name="Trazado 1013157" d="M479.694,270.812a7.628,7.628,0,0,0-4.575,1.829,7.566,7.566,0,0,0,5.466,13.227,7.393,7.393,0,0,0,3.224-.992C482.39,280.2,481.1,275.487,479.694,270.812Z" transform="translate(-451.812 -229.967)" fill="#9a59b3"/>
                  <path id="Trazado_1013158" data-name="Trazado 1013158" d="M445.18,273.141l1.854,41.351a123.623,123.623,0,0,0,12.446-8.934c-8.38-15.178-12.446-32.828-12.446-32.828S446.331,272.884,445.18,273.141Z" transform="translate(-443.271 -230.564)" fill="#2e2854" opacity="0.15"/>
                  <path id="Trazado_1013159" data-name="Trazado 1013159" d="M454.188,230.205a7.761,7.761,0,0,0,5.512-2.962,44.976,44.976,0,0,0-10.344-10.754,6.879,6.879,0,0,0-.633.489,7.566,7.566,0,0,0,5.466,13.227Z" transform="translate(-443.586 -213.038)" fill="#9a59b3"/>
                </g>
              </g>
              <g id="Grupo_1160539" data-name="Grupo 1160539" transform="translate(102.307 1.632)">
                <path id="Trazado_1013160" data-name="Trazado 1013160" d="M408.714,245.215,403.5,209.091a55.218,55.218,0,0,0-14.91-4.545h0l-17.871,6.835-19.758-7.557h0a74.632,74.632,0,0,0-23.528,8.862l-6.376,34.02c-.68,30.591-1.36,61.183-3.5,91.164a583.261,583.261,0,0,0,98.565,3.787A720.569,720.569,0,0,0,408.714,245.215Z" transform="translate(-317.555 -202.501)" fill="#7b478f"/>
                <path id="Trazado_1013161" data-name="Trazado 1013161" d="M378.777,299.614a7.566,7.566,0,1,0,12.3,7.69,7.6,7.6,0,0,0-3.55-8.591A7.772,7.772,0,0,0,378.777,299.614Z" transform="translate(-335.845 -231.776)" fill="#9a59b3"/>
                <path id="Trazado_1013162" data-name="Trazado 1013162" d="M327.588,296.818a7.773,7.773,0,0,0,6.831-5.537,7.6,7.6,0,0,0-3.551-8.591,7.773,7.773,0,0,0-8.747.9c-.007.006-.012.012-.019.019q-.128,5.51-.266,11.015A7.748,7.748,0,0,0,327.588,296.818Z" transform="translate(-318.889 -226.783)" fill="#9a59b3"/>
                <path id="Trazado_1013163" data-name="Trazado 1013163" d="M420.808,261.941a7.566,7.566,0,1,0,12.3,7.69,7.6,7.6,0,0,0-3.55-8.591A7.771,7.771,0,0,0,420.808,261.941Z" transform="translate(-348.944 -220.036)" fill="#9a59b3"/>
                <path id="Trazado_1013164" data-name="Trazado 1013164" d="M391.46,216.363a7.566,7.566,0,1,0,12.3,7.69,7.6,7.6,0,0,0-3.55-8.591A7.771,7.771,0,0,0,391.46,216.363Z" transform="translate(-339.798 -205.832)" fill="#9a59b3"/>
                <path id="Trazado_1013165" data-name="Trazado 1013165" d="M349.25,357a7.566,7.566,0,1,0,3.551,8.591A7.6,7.6,0,0,0,349.25,357Z" transform="translate(-323.918 -249.94)" fill="#9a59b3"/>
                <path id="Trazado_1013166" data-name="Trazado 1013166" d="M350.511,235.985a7.566,7.566,0,1,0,3.551,8.591A7.6,7.6,0,0,0,350.511,235.985Z" transform="translate(-324.311 -212.228)" fill="#9a59b3"/>
                <path id="Trazado_1013167" data-name="Trazado 1013167" d="M428.163,376.942a7.6,7.6,0,0,0-3.551-8.591,7.566,7.566,0,1,0,3.551,8.591Z" transform="translate(-347.404 -253.478)" fill="#9a59b3"/>
                <path id="Trazado_1013168" data-name="Trazado 1013168" d="M321.054,265.444c-.68,30.591-1.36,61.183-3.5,91.164a583.262,583.262,0,0,0,98.565,3.787,720.452,720.452,0,0,0-7.406-96.441" transform="translate(-317.555 -221.239)" fill="none" stroke="#2e2854" stroke-linecap="round" stroke-linejoin="round" stroke-miterlimit="10" stroke-width="1"/>
                <path id="Trazado_1013169" data-name="Trazado 1013169" d="M386.233,202.2a71.475,71.475,0,0,0-20.151,1.026c1.878,3.124,3.852,6.436,10.888,9.742,5.084,2.389,11.032,3.272,16.333,1.415a16.848,16.848,0,0,0,10.408-10.434A161.166,161.166,0,0,0,386.233,202.2Z" transform="translate(-332.678 -201.902)" fill="#d17162"/>
              </g>
            </g>
          </g>
        </g>
        <g id="Grupo_1160544" data-name="Grupo 1160544" transform="translate(0 0.543)">
          <path id="Trazado_1013170" data-name="Trazado 1013170" d="M212.263,96.851c-11.75-9.718-29.806-10.914-42.736-2.83s-19.768,24.838-16.179,39.659,17.327,26.6,32.525,27.871,30.707-8.048,36.713-22.062S225.005,107.387,212.263,96.851Z" transform="translate(-147.413 -83.18)" fill="#2e2854" opacity="0.15"/>
          <path id="Trazado_1013171" data-name="Trazado 1013171" d="M205.023,88.869c-11.75-9.718-29.806-10.914-42.737-2.83s-19.768,24.838-16.179,39.659,17.327,26.6,32.525,27.871,30.707-8.048,36.713-22.062S217.765,99.406,205.023,88.869Z" transform="translate(-145.157 -80.692)" fill="#f7a145"/>
          <path id="Trazado_1013172" data-name="Trazado 1013172" d="M201.158,98.167A27.668,27.668,0,0,0,159.5,130.043a27.668,27.668,0,0,0,52.455-.261A28.039,28.039,0,0,0,201.158,98.167Z" transform="translate(-149.194 -84.716)" fill="#ff8330"/>
          <g id="Grupo_1160543" data-name="Grupo 1160543" transform="translate(27.149 19.156)">
            <path id="Trazado_1013173" data-name="Trazado 1013173" d="M196.085,123.2c.6.1,1.2.215,1.8.344a15.413,15.413,0,0,1,1.752.487,9.964,9.964,0,0,1,1.606.715,5.722,5.722,0,0,1,1.354,1.048,5.428,5.428,0,0,1,.99,1.475,6.569,6.569,0,0,1,.531,2.007,8.99,8.99,0,0,1-.191,3.292,7.964,7.964,0,0,1-1.38,2.877,8.785,8.785,0,0,1-2.519,2.224A11.177,11.177,0,0,1,196.415,139l.05,2.266a1.475,1.475,0,0,1-1.324,1.5l-2.058.246L193,139.244a15.839,15.839,0,0,1-4.109-.728,11.882,11.882,0,0,1-3.434-1.688l1.432-2.718a1.787,1.787,0,0,1,.527-.584,1.6,1.6,0,0,1,.76-.3,1.975,1.975,0,0,1,.912.119c.321.115.669.257,1.05.425s.8.339,1.254.509a7.073,7.073,0,0,0,1.519.378l-.142-6.888q-1.344-.207-2.694-.54a8.46,8.46,0,0,1-2.48-1.041,6.313,6.313,0,0,1-1.922-1.914,7.219,7.219,0,0,1-1.024-3.138,7.022,7.022,0,0,1,.247-2.85,7.529,7.529,0,0,1,1.4-2.64,8.922,8.922,0,0,1,2.524-2.107,10.893,10.893,0,0,1,3.626-1.247l-.042-2.029a1.473,1.473,0,0,1,1.324-1.5l2.058-.246.081,3.58a10.45,10.45,0,0,1,3.489.775,12.838,12.838,0,0,1,2.582,1.45L200.8,116.5a2.333,2.333,0,0,1-.545.734,1.332,1.332,0,0,1-.725.3,1.92,1.92,0,0,1-.657-.058c-.257-.06-.538-.137-.841-.229s-.631-.187-.98-.286a9.219,9.219,0,0,0-1.1-.244Zm-3.546-6.227a5.587,5.587,0,0,0-1.354.547,3.155,3.155,0,0,0-.852.707,2.187,2.187,0,0,0-.423.829,2.489,2.489,0,0,0-.055.913,2.307,2.307,0,0,0,.891,1.644,5.741,5.741,0,0,0,1.905.9Zm3.778,17.393q2.923-.843,2.591-3.625a2.156,2.156,0,0,0-.856-1.575,5.486,5.486,0,0,0-1.865-.812Z" transform="translate(-184.597 -108.521)" fill="#f7a145"/>
          </g>
          <path id="Trazado_1013174" data-name="Trazado 1013174" d="M220.323,143.173a37.076,37.076,0,0,0,1.218-25.045c.912,14.9-4.494,32.774-21.647,40-17.619,7.423-31.066,1.238-38.761-3.467a37,37,0,0,0,22.478,10.573C198.807,166.509,214.317,157.188,220.323,143.173Z" transform="translate(-150.135 -92.358)" fill="#2e2854" opacity="0.15"/>
          <path id="Trazado_1013175" data-name="Trazado 1013175" d="M162.484,86.044c-9.051,5.658-15.1,15.563-16.694,26.079,2.212-7.641,7.309-19.636,22.6-25.93,10.6-4.363,22.479-3.6,33.528.308C190.275,79.041,174.26,78.681,162.484,86.044Z" transform="translate(-145.354 -80.698)" fill="#f5b878"/>
          <path id="Trazado_1013176" data-name="Trazado 1013176" d="M201.158,98.167A27.668,27.668,0,0,0,159.5,130.043a27.668,27.668,0,0,0,52.455-.261A28.039,28.039,0,0,0,201.158,98.167Z" transform="translate(-149.194 -84.716)" fill="none" stroke="#2e2854" stroke-linecap="round" stroke-linejoin="round" stroke-miterlimit="10" stroke-width="1"/>
        </g>
      </g>
      <g id="Grupo_1160557" data-name="Grupo 1160557" transform="translate(1414.778 6221.643)">
        <g id="Grupo_1160547" data-name="Grupo 1160547" transform="translate(0 173.056)">
          <g id="Grupo_1160546" data-name="Grupo 1160546">
            <path id="Trazado_1013177" data-name="Trazado 1013177" d="M107.49,330.351a165.562,165.562,0,0,1-30.778-.529,6.447,6.447,0,0,1-5.689-6.049,145.347,145.347,0,0,1,.295-21.259,6.461,6.461,0,0,1,5.9-5.87,147,147,0,0,1,31.107.379,6.478,6.478,0,0,1,5.671,5.989,100.8,100.8,0,0,1-.656,21.947A6.4,6.4,0,0,1,107.49,330.351Z" transform="translate(-67.953 -293.286)" fill="#2e2854" opacity="0.15"/>
            <path id="Trazado_1013178" data-name="Trazado 1013178" d="M103.4,326.406a165.562,165.562,0,0,1-30.778-.529,6.447,6.447,0,0,1-5.689-6.049,145.346,145.346,0,0,1,.295-21.259,6.461,6.461,0,0,1,5.9-5.87,147,147,0,0,1,31.107.379,6.478,6.478,0,0,1,5.671,5.99,100.8,100.8,0,0,1-.656,21.947A6.406,6.406,0,0,1,103.4,326.406Z" transform="translate(-66.68 -292.056)" fill="#fff"/>
            <path id="Trazado_1013179" data-name="Trazado 1013179" d="M103.4,326.406a165.562,165.562,0,0,1-30.778-.529,6.447,6.447,0,0,1-5.689-6.049,145.346,145.346,0,0,1,.295-21.259,6.461,6.461,0,0,1,5.9-5.87,147,147,0,0,1,31.107.379,6.478,6.478,0,0,1,5.671,5.99,100.8,100.8,0,0,1-.656,21.947A6.406,6.406,0,0,1,103.4,326.406Z" transform="translate(-66.68 -292.056)" fill="none" stroke="#2e2854" stroke-linecap="round" stroke-linejoin="round" stroke-miterlimit="10" stroke-width="1"/>
          </g>
          <path id="Trazado_1013180" data-name="Trazado 1013180" d="M107.143,309.808l-2-8.427c-.008-.031-.023-.059-.032-.089a1.718,1.718,0,0,0-.077-.217c-.019-.043-.043-.084-.065-.125a1.689,1.689,0,0,0-.114-.18c-.028-.039-.058-.076-.089-.112a1.727,1.727,0,0,0-.15-.152c-.036-.032-.072-.064-.111-.093a1.8,1.8,0,0,0-.18-.116c-.03-.017-.054-.04-.085-.055-.016-.008-.033-.011-.049-.018s-.034-.021-.053-.029c-.049-.021-.1-.03-.149-.046s-.092-.032-.138-.043a1.7,1.7,0,0,0-.247-.034c-.034,0-.069-.01-.1-.01a1.73,1.73,0,0,0-.339.027h-.016a1.737,1.737,0,0,0-.341.1l-.017.006-8.51,3.671a1.721,1.721,0,0,0,1.364,3.161l4.569-1.971q-1.078,2.537-2.165,5.09c-.92,2.162-1.841,4.323-2.749,6.464-2.68-3.212-7.379-8.85-7.443-8.927a1.721,1.721,0,0,0-2.807.232,86.129,86.129,0,0,0-5.691,11.668,1.721,1.721,0,1,0,3.2,1.271A82.922,82.922,0,0,1,86.8,311.8c2.557,3.067,7.3,8.759,7.664,9.188a1.721,1.721,0,0,0,2.9-.441c1.259-2.979,2.552-6.015,3.845-9.052q.9-2.114,1.8-4.22l.79,3.327a1.721,1.721,0,1,0,3.348-.8Z" transform="translate(-70.59 -294.551)" fill="#76c9bf"/>
        </g>
        <g id="Grupo_1160553" data-name="Grupo 1160553" transform="translate(247.447 0)">
          <g id="Grupo_1160551" data-name="Grupo 1160551">
            <path id="Trazado_1013184" data-name="Trazado 1013184" d="M98.515,139.246a165.566,165.566,0,0,1-30.778-.529,6.447,6.447,0,0,1-5.689-6.049,145.447,145.447,0,0,1,.294-21.259,6.463,6.463,0,0,1,5.9-5.87,147.007,147.007,0,0,1,31.107.379,6.476,6.476,0,0,1,5.671,5.989,100.758,100.758,0,0,1-.655,21.947A6.406,6.406,0,0,1,98.515,139.246Z" transform="translate(-58.433 -102.717)" fill="#2e2854" opacity="0.15"/>
            <path id="Trazado_1013185" data-name="Trazado 1013185" d="M93.636,136.081a165.566,165.566,0,0,1-30.778-.529,6.447,6.447,0,0,1-5.689-6.049,145.448,145.448,0,0,1,.294-21.259,6.463,6.463,0,0,1,5.9-5.87,147.007,147.007,0,0,1,31.107.379,6.476,6.476,0,0,1,5.671,5.989,100.759,100.759,0,0,1-.655,21.947A6.406,6.406,0,0,1,93.636,136.081Z" transform="translate(-56.913 -101.731)" fill="#fff"/>
            <path id="Trazado_1013186" data-name="Trazado 1013186" d="M93.636,136.081a165.566,165.566,0,0,1-30.778-.529,6.447,6.447,0,0,1-5.689-6.049,145.448,145.448,0,0,1,.294-21.259,6.463,6.463,0,0,1,5.9-5.87,147.007,147.007,0,0,1,31.107.379,6.476,6.476,0,0,1,5.671,5.989,100.759,100.759,0,0,1-.655,21.947A6.406,6.406,0,0,1,93.636,136.081Z" transform="translate(-56.913 -101.731)" fill="none" stroke="#2e2854" stroke-linecap="round" stroke-linejoin="round" stroke-miterlimit="10" stroke-width="1"/>
          </g>
          <g id="Grupo_1160552" data-name="Grupo 1160552" transform="translate(8.323 6.872)">
            <rect id="Rectángulo_409795" data-name="Rectángulo 409795" width="4.91" height="21.083" fill="#76c9bf"/>
            <rect id="Rectángulo_409796" data-name="Rectángulo 409796" width="4.91" height="17.112" transform="translate(7.324 3.971)" fill="#2e2854"/>
            <rect id="Rectángulo_409797" data-name="Rectángulo 409797" width="4.91" height="13.141" transform="translate(14.647 7.942)" fill="#2e2854"/>
            <rect id="Rectángulo_409798" data-name="Rectángulo 409798" width="4.91" height="9.17" transform="translate(21.971 11.914)" fill="#2e2854"/>
          </g>
        </g>
      </g>
      <g id="Grupo_1160586" data-name="Grupo 1160586" transform="translate(1328.273 6180.908)">
        <g id="Grupo_1160581" data-name="Grupo 1160581" transform="translate(168.99 42.991)">
          <path id="Trazado_1013244" data-name="Trazado 1013244" d="M307.2,107.22q.04,2.832.081,5.664" transform="translate(-304.572 -107.22)" fill="none" stroke="#2e2854" stroke-linecap="round" stroke-linejoin="round" stroke-miterlimit="10" stroke-width="1"/>
          <path id="Trazado_1013245" data-name="Trazado 1013245" d="M303.38,111.548l5.257-.122" transform="translate(-303.38 -108.531)" fill="none" stroke="#2e2854" stroke-linecap="round" stroke-linejoin="round" stroke-miterlimit="10" stroke-width="1"/>
        </g>
        <g id="Grupo_1160582" data-name="Grupo 1160582" transform="translate(308.3 247.855)">
          <path id="Trazado_1013246" data-name="Trazado 1013246" d="M628.853,414.388q.04,2.832.081,5.664" transform="translate(-626.22 -414.388)" fill="none" stroke="#2e2854" stroke-linecap="round" stroke-linejoin="round" stroke-miterlimit="10" stroke-width="1"/>
          <path id="Trazado_1013247" data-name="Trazado 1013247" d="M625.028,418.717l5.257-.122" transform="translate(-625.028 -415.699)" fill="none" stroke="#2e2854" stroke-linecap="round" stroke-linejoin="round" stroke-miterlimit="10" stroke-width="1"/>
        </g>
        <g id="Grupo_1160583" data-name="Grupo 1160583" transform="translate(339.127 96.495)">
          <path id="Trazado_1013248" data-name="Trazado 1013248" d="M580.618,65.611q.04,2.832.081,5.664" transform="translate(-577.986 -65.611)" fill="none" stroke="#2e2854" stroke-linecap="round" stroke-linejoin="round" stroke-miterlimit="10" stroke-width="1"/>
          <path id="Trazado_1013249" data-name="Trazado 1013249" d="M576.794,69.94l5.257-.122" transform="translate(-576.794 -66.922)" fill="none" stroke="#2e2854" stroke-linecap="round" stroke-linejoin="round" stroke-miterlimit="10" stroke-width="1"/>
        </g>
        <g id="Grupo_1160584" data-name="Grupo 1160584" transform="translate(64.085 130.773)">
          <path id="Trazado_1013250" data-name="Trazado 1013250" d="M76.178,60.732q.04,2.832.081,5.664" transform="translate(-73.545 -60.732)" fill="none" stroke="#2e2854" stroke-linecap="round" stroke-linejoin="round" stroke-miterlimit="10" stroke-width="1"/>
          <path id="Trazado_1013251" data-name="Trazado 1013251" d="M72.353,65.061l5.257-.122" transform="translate(-72.353 -62.043)" fill="none" stroke="#2e2854" stroke-linecap="round" stroke-linejoin="round" stroke-miterlimit="10" stroke-width="1"/>
        </g>
        <g id="Grupo_1160585" data-name="Grupo 1160585" transform="translate(64.085 254.185)">
          <path id="Trazado_1013252" data-name="Trazado 1013252" d="M98.3,434.838q.04,2.832.081,5.664" transform="translate(-95.663 -434.838)" fill="none" stroke="#2e2854" stroke-linecap="round" stroke-linejoin="round" stroke-miterlimit="10" stroke-width="1"/>
          <path id="Trazado_1013253" data-name="Trazado 1013253" d="M94.471,439.167l5.257-.122" transform="translate(-94.471 -436.149)" fill="none" stroke="#2e2854" stroke-linecap="round" stroke-linejoin="round" stroke-miterlimit="10" stroke-width="1"/>
        </g>
        <path id="Trazado_1013254" data-name="Trazado 1013254" d="M120.58,216.5a3.064,3.064,0,1,0,.624,4.344A3.182,3.182,0,0,0,120.58,216.5Z" transform="translate(-75.919 -98.115)" fill="#fff"/>
        <path id="Trazado_1013255" data-name="Trazado 1013255" d="M518.856,225.281a3.064,3.064,0,1,0,.623,4.344A3.182,3.182,0,0,0,518.856,225.281Z" transform="translate(-200.036 -100.851)" fill="#fff"/>
        <path id="Trazado_1013256" data-name="Trazado 1013256" d="M710.492,325.613a3.064,3.064,0,1,0,.623,4.344A3.182,3.182,0,0,0,710.492,325.613Z" transform="translate(-333.866 -109.795)" fill="#c2e2f2"/>
        <path id="Trazado_1013257" data-name="Trazado 1013257" d="M259.309,45.314a3.064,3.064,0,1,0,.623,4.344A3.182,3.182,0,0,0,259.309,45.314Z" transform="translate(-119.152 -44.767)" fill="#c2e2f2"/>
        <path id="Trazado_1013258" data-name="Trazado 1013258" d="M107.211,388.832a3.064,3.064,0,1,0,.624,4.344A3.182,3.182,0,0,0,107.211,388.832Z" transform="translate(-51.507 -191.107)" fill="#c2e2f2"/>
        <path id="Trazado_1013259" data-name="Trazado 1013259" d="M55.488,246.579a3.064,3.064,0,1,0,.624,4.344A3.182,3.182,0,0,0,55.488,246.579Z" transform="translate(-5.832 -95.368)" fill="#c2e2f2"/>
        <path id="Trazado_1013260" data-name="Trazado 1013260" d="M651.933,287.113a3.064,3.064,0,1,0,.623,4.344A3.182,3.182,0,0,0,651.933,287.113Z" transform="translate(-278.333 -104.941)" fill="#fff"/>
        <path id="Trazado_1013261" data-name="Trazado 1013261" d="M699.174,179.564a3.064,3.064,0,1,0,.624,4.344A3.182,3.182,0,0,0,699.174,179.564Z" transform="translate(-325.572 -62.385)" fill="#c2e2f2"/>
        <path id="Trazado_1013262" data-name="Trazado 1013262" d="M231.133,62.649a1.751,1.751,0,1,0,.357,2.483A1.819,1.819,0,0,0,231.133,62.649Z" transform="translate(-111.016 -50.242)" fill="#c2e2f2"/>
        <path id="Trazado_1013263" data-name="Trazado 1013263" d="M62.99,272.731a1.751,1.751,0,1,0,.357,2.483A1.819,1.819,0,0,0,62.99,272.731Z" transform="translate(-58.617 -115.711)" fill="#c2e2f2"/>
        <path id="Trazado_1013264" data-name="Trazado 1013264" d="M60.645,364.814A1.751,1.751,0,1,0,61,367.3,1.819,1.819,0,0,0,60.645,364.814Z" transform="translate(-57.886 -144.407)" fill="#c2e2f2"/>
        <path id="Trazado_1013265" data-name="Trazado 1013265" d="M453.764,46.96a1.751,1.751,0,1,0,.357,2.483A1.819,1.819,0,0,0,453.764,46.96Z" transform="translate(-180.395 -45.353)" fill="#c2e2f2"/>
        <path id="Trazado_1013266" data-name="Trazado 1013266" d="M127.651,81.307a1.751,1.751,0,1,0,.357,2.483A1.819,1.819,0,0,0,127.651,81.307Z" transform="translate(-78.767 -56.057)" fill="#c2e2f2"/>
        <path id="Trazado_1013267" data-name="Trazado 1013267" d="M287.746,168.47a1.751,1.751,0,1,0,.357,2.483A1.819,1.819,0,0,0,287.746,168.47Z" transform="translate(-128.658 -83.22)" fill="#fff"/>
        <path id="Trazado_1013268" data-name="Trazado 1013268" d="M528.786,209.494a1.751,1.751,0,1,0,.357,2.483A1.819,1.819,0,0,0,528.786,209.494Z" transform="translate(-203.775 -96.004)" fill="#fff"/>
        <path id="Trazado_1013269" data-name="Trazado 1013269" d="M497.281,133.328a1.751,1.751,0,1,0,.357,2.483A1.819,1.819,0,0,0,497.281,133.328Z" transform="translate(-193.957 -72.268)" fill="#fff"/>
        <path id="Trazado_1013270" data-name="Trazado 1013270" d="M332.487,78.8a1.751,1.751,0,1,0,.357,2.483A1.819,1.819,0,0,0,332.487,78.8Z" transform="translate(-142.601 -55.275)" fill="#fff"/>
        <path id="Trazado_1013271" data-name="Trazado 1013271" d="M161.38,279.039a1.751,1.751,0,1,0,.357,2.483A1.819,1.819,0,0,0,161.38,279.039Z" transform="translate(-89.278 -117.677)" fill="#fff"/>
        <path id="Trazado_1013272" data-name="Trazado 1013272" d="M593.207,89a1.751,1.751,0,1,0,.357,2.483A1.819,1.819,0,0,0,593.207,89Z" transform="translate(-223.851 -58.454)" fill="#c2e2f2"/>
        <path id="Trazado_1013273" data-name="Trazado 1013273" d="M658.891,436.307a1.751,1.751,0,1,0,.357,2.483A1.819,1.819,0,0,0,658.891,436.307Z" transform="translate(-313.966 -180.081)" fill="#c2e2f2"/>
        <path id="Trazado_1013274" data-name="Trazado 1013274" d="M662.113,413.37a1.751,1.751,0,1,0,.357,2.483A1.819,1.819,0,0,0,662.113,413.37Z" transform="translate(-314.97 -172.933)" fill="#c2e2f2"/>
        <path id="Trazado_1013275" data-name="Trazado 1013275" d="M681.781,433.8a1.751,1.751,0,1,0,.357,2.483A1.819,1.819,0,0,0,681.781,433.8Z" transform="translate(-321.099 -179.299)" fill="#c2e2f2"/>
        <path id="Trazado_1013276" data-name="Trazado 1013276" d="M118.3,411.829a1.751,1.751,0,1,0,.357,2.483A1.819,1.819,0,0,0,118.3,411.829Z" transform="translate(-75.852 -159.059)" fill="#c2e2f2"/>
      </g>
    </g>
  </g>
</svg>
