<svg xmlns="http://www.w3.org/2000/svg" xmlns:xlink="http://www.w3.org/1999/xlink" width="110" height="110" viewBox="0 0 110 110">
  <defs>
    <filter id="Trazado_982547" x="0" y="0" width="110" height="110" filterUnits="userSpaceOnUse">
      <feOffset dy="3" input="SourceAlpha"/>
      <feGaussianBlur stdDeviation="3" result="blur"/>
      <feFlood flood-opacity="0.161"/>
      <feComposite operator="in" in2="blur"/>
      <feComposite in="SourceGraphic"/>
    </filter>
  </defs>
  <g id="Grupo_1171953" data-name="Grupo 1171953" transform="translate(-691.637 -5143.743)">
    <g id="Grupo_1171564" data-name="Grupo 1171564" transform="translate(700.637 5149.743)">
      <g id="Grupo_1163803" data-name="Grupo 1163803" transform="translate(0)">
        <g id="Grupo_1163015" data-name="Grupo 1163015">
          <g id="Grupo_1157017" data-name="Grupo 1157017" transform="translate(0 0)">
            <g id="Grupo_1155793" data-name="Grupo 1155793">
              <g id="Grupo_1154704" data-name="Grupo 1154704">
                <g id="Grupo_1150790" data-name="Grupo 1150790">
                  <g id="Grupo_1154214" data-name="Grupo 1154214">
                    <g id="Grupo_1152583" data-name="Grupo 1152583">
                      <g id="Grupo_1146973" data-name="Grupo 1146973" transform="translate(0 0)">
                        <g id="Grupo_1146954" data-name="Grupo 1146954">
                          <g transform="matrix(1, 0, 0, 1, -9, -6)" filter="url(#Trazado_982547)">
                            <g id="Trazado_982547-2" data-name="Trazado 982547" transform="translate(9 6)" fill="#f2f7f5">
                              <path d="M 46 90.49987030029297 C 39.99187850952148 90.49987030029297 34.16426849365234 89.32350921630859 28.67905426025391 87.00345611572266 C 23.38019943237305 84.76224517822266 18.62104034423828 81.55341339111328 14.53374671936035 77.46613311767578 C 10.44646644592285 73.37885284423828 7.237639904022217 68.61969757080078 4.996413230895996 63.32085418701172 C 2.676359891891479 57.83565521240234 1.5 52.008056640625 1.5 45.99993515014648 C 1.5 39.99181365966797 2.676359891891479 34.16421508789062 4.996413230895996 28.67901420593262 C 7.237639904022217 23.38017463684082 10.44646644592285 18.62101554870605 14.53374671936035 14.53373527526855 C 18.62104034423828 10.44645500183105 23.38019943237305 7.23762845993042 28.67905426025391 4.996415138244629 C 34.16426849365234 2.676361799240112 39.99187850952148 1.500001788139343 46 1.500001788139343 C 52.00812149047852 1.500001788139343 57.83573150634766 2.676361799240112 63.32094573974609 4.996415138244629 C 68.61979675292969 7.23762845993042 73.37895965576172 10.44645500183105 77.46625518798828 14.53373527526855 C 81.55353546142578 18.62101554870605 84.76235961914062 23.38017463684082 87.00358581542969 28.67901420593262 C 89.32363891601562 34.16421508789062 90.5 39.99181365966797 90.5 45.99993515014648 C 90.5 52.008056640625 89.32363891601562 57.83565521240234 87.00358581542969 63.32085418701172 C 84.76235961914062 68.61969757080078 81.55353546142578 73.37885284423828 77.46625518798828 77.46613311767578 C 73.37895965576172 81.55341339111328 68.61979675292969 84.76224517822266 63.32094573974609 87.00345611572266 C 57.83573150634766 89.32350921630859 52.00812149047852 90.49987030029297 46 90.49987030029297 Z" stroke="none"/>
                              <path d="M 46 2.999992370605469 C 40.1937141418457 2.999992370605469 34.56269836425781 4.136489868164062 29.26337051391602 6.377906799316406 C 24.14332580566406 8.543502807617188 19.54441070556641 11.64437866210938 15.59439849853516 15.59437561035156 C 11.64440155029297 19.54439544677734 8.54351806640625 24.14329528808594 6.377914428710938 29.26333618164062 C 4.136497497558594 34.56264877319336 3 40.19366455078125 3 45.99993515014648 C 3 51.80620574951172 4.136497497558594 57.43720626831055 6.377914428710938 62.73651885986328 C 8.54351806640625 67.8565673828125 11.64440155029297 72.45545959472656 15.59439849853516 76.40547943115234 C 19.54441070556641 80.35547637939453 24.14332580566406 83.45635223388672 29.26337051391602 85.6219482421875 C 34.56269836425781 87.86336517333984 40.1937141418457 88.99986267089844 46 88.99986267089844 C 51.8062858581543 88.99986267089844 57.43730163574219 87.86336517333984 62.73661422729492 85.6219482421875 C 67.85667419433594 83.45635223388672 72.45557403564453 80.35547637939453 76.40558624267578 76.40547943115234 C 80.35559844970703 72.45545959472656 83.45647430419922 67.8565673828125 85.6220703125 62.73651885986328 C 87.86350250244141 57.43720626831055 89 51.80620574951172 89 45.99993515014648 C 89 40.19366455078125 87.86350250244141 34.56264877319336 85.6220703125 29.26333618164062 C 83.45647430419922 24.14329528808594 80.35559844970703 19.54439544677734 76.40558624267578 15.59437561035156 C 72.45557403564453 11.64437866210938 67.85667419433594 8.543502807617188 62.73661422729492 6.377906799316406 C 57.43730163574219 4.136489868164062 51.8062858581543 2.999992370605469 46 2.999992370605469 M 46 -7.62939453125e-06 C 71.40509033203125 -7.62939453125e-06 92 20.59486389160156 92 45.99993515014648 C 92 71.40499114990234 71.40509033203125 91.99986267089844 46 91.99986267089844 C 20.59490203857422 91.99986267089844 0 71.40499114990234 0 45.99993515014648 C 0 20.59486389160156 20.59490203857422 -7.62939453125e-06 46 -7.62939453125e-06 Z" stroke="none" fill="#01899b"/>
                            </g>
                          </g>
                        </g>
                      </g>
                    </g>
                  </g>
                </g>
              </g>
            </g>
          </g>
        </g>
      </g>
    </g>
    <g id="data" transform="translate(700.712 5163.033)">
      <path id="Trazado_1017028" data-name="Trazado 1017028" d="M143.2,127.321v-6.97l-4.443-.694a15.4,15.4,0,0,0-1.415-3.413l2.652-3.634-4.929-4.929-3.634,2.652a15.394,15.394,0,0,0-3.413-1.415l-.694-4.443h-6.97l-.694,4.443a15.389,15.389,0,0,0-3.413,1.415l-3.634-2.652-4.929,4.929,2.652,3.634a15.389,15.389,0,0,0-1.415,3.413l-4.443.694v6.97l4.443.694a15.4,15.4,0,0,0,1.415,3.413l-2.652,3.634,4.929,4.929,3.634-2.652a15.4,15.4,0,0,0,3.413,1.415l.694,4.443h6.97l.694-4.443a15.389,15.389,0,0,0,3.413-1.415l3.634,2.652,4.929-4.929-2.652-3.634a15.388,15.388,0,0,0,1.415-3.413Z" transform="translate(-77.913 -91.126)" fill="#c5d3dd"/>
      <path id="Trazado_1017029" data-name="Trazado 1017029" d="M169.08,156.109v-6.97l-4.443-.694a15.4,15.4,0,0,0-1.415-3.413l2.652-3.634-3.918-3.918a24.05,24.05,0,0,1-27.806,26.955l4.343,4.343,3.634-2.652a15.4,15.4,0,0,0,3.413,1.415l.694,4.443h6.97l.694-4.443a15.389,15.389,0,0,0,3.413-1.415l3.634,2.652,4.929-4.929-2.652-3.634a15.389,15.389,0,0,0,1.415-3.413Z" transform="translate(-103.795 -119.913)" fill="#b6c4cf"/>
      <path id="Trazado_1017030" data-name="Trazado 1017030" d="M57.158,10.971,52.1,7.6a.595.595,0,0,0-.924.495V9.466a29.815,29.815,0,0,0-19.792,50.87L34.123,57.6A25.944,25.944,0,0,1,51.177,13.34v1.31a.595.595,0,0,0,.924.495l5.057-3.371a.482.482,0,0,0,0-.8Z" transform="translate(-6.543 -6.542)" fill="#bbec6c"/>
      <path id="Trazado_1017031" data-name="Trazado 1017031" d="M217.829,140.362l5.057,3.371a.595.595,0,0,0,.924-.495v-1.371A29.815,29.815,0,0,0,243.6,91l-2.738,2.738a25.944,25.944,0,0,1-17.054,44.257v-1.31a.595.595,0,0,0-.924-.495l-5.057,3.371a.482.482,0,0,0,0,.8Z" transform="translate(-176.594 -79.371)" fill="#a2e62e"/>
      <path id="Trazado_1017032" data-name="Trazado 1017032" d="M209.588,199.6H196.681a1.291,1.291,0,0,1-1.291-1.291v-16.78a1.291,1.291,0,0,1,1.291-1.291h12.907a1.291,1.291,0,0,1,1.291,1.291v16.78A1.291,1.291,0,0,1,209.588,199.6Z" transform="translate(-157.21 -157.207)" fill="#f8f6f6"/>
      <g id="Grupo_1171952" data-name="Grupo 1171952" transform="translate(15.15 0)">
        <path id="Trazado_1017033" data-name="Trazado 1017033" d="M112.867,136.809a.958.958,0,0,0,.947.81h6.969a.958.958,0,0,0,.947-.81l.6-3.847a16.4,16.4,0,0,0,2.482-1.03l3.146,2.3a.958.958,0,0,0,1.243-.1l4.928-4.928a.958.958,0,0,0,.1-1.243l-2.3-3.146a16.411,16.411,0,0,0,1.03-2.482l3.847-.6a.958.958,0,0,0,.81-.947v-6.969a.958.958,0,0,0-.81-.947l-3.847-.6a16.406,16.406,0,0,0-1.03-2.482l2.3-3.146a.958.958,0,0,0-.1-1.243l-.9-.9a.958.958,0,1,0-1.355,1.355l.318.318-2.169,2.971a.958.958,0,0,0-.061,1.035,14.483,14.483,0,0,1,1.328,3.2.958.958,0,0,0,.775.689l3.633.568v5.329l-3.633.568a.958.958,0,0,0-.775.689,14.48,14.48,0,0,1-1.328,3.2.958.958,0,0,0,.061,1.035l2.169,2.971-3.768,3.768-2.971-2.169a.958.958,0,0,0-1.035-.061,14.484,14.484,0,0,1-3.2,1.328.958.958,0,0,0-.689.775l-.568,3.633h-5.329l-.568-3.633a.958.958,0,0,0-.689-.775,14.481,14.481,0,0,1-3.2-1.328.958.958,0,0,0-1.035.061L106.17,132.2l-3.768-3.768,2.169-2.971a.958.958,0,0,0,.061-1.035,14.484,14.484,0,0,1-1.328-3.2.958.958,0,0,0-.775-.689l-3.633-.568v-5.329l3.633-.568a.958.958,0,0,0,.775-.689,14.481,14.481,0,0,1,1.328-3.2.958.958,0,0,0-.061-1.035l-2.169-2.971,3.768-3.768,2.971,2.169a.958.958,0,0,0,1.035.061,14.484,14.484,0,0,1,3.2-1.328.958.958,0,0,0,.689-.775l.568-3.633h5.329l.568,3.633a.958.958,0,0,0,.689.775,14.481,14.481,0,0,1,3.2,1.328.958.958,0,0,0,1.035-.061l2.971-2.169.287.287a.958.958,0,1,0,1.355-1.355l-.868-.868a.958.958,0,0,0-1.243-.1l-3.146,2.3a16.41,16.41,0,0,0-2.482-1.03l-.6-3.847a.958.958,0,0,0-.947-.81h-6.969a.958.958,0,0,0-.947.81l-.6,3.847a16.4,16.4,0,0,0-2.482,1.03l-3.146-2.3a.958.958,0,0,0-1.243.1l-4.928,4.928a.958.958,0,0,0-.1,1.243l2.3,3.146a16.41,16.41,0,0,0-1.03,2.482l-3.847.6a.958.958,0,0,0-.81.947v6.969a.958.958,0,0,0,.81.947l3.847.6a16.405,16.405,0,0,0,1.03,2.482l-2.3,3.146a.958.958,0,0,0,.1,1.243l4.928,4.928a.958.958,0,0,0,1.243.1l3.146-2.3a16.41,16.41,0,0,0,2.482,1.03Z" transform="translate(-86.524 -84.59)"/>
        <path id="Trazado_1017034" data-name="Trazado 1017034" d="M20.939,32.71A24.987,24.987,0,0,1,43.676,7.825v.283A1.553,1.553,0,0,0,46.089,9.4L51.147,6.03a1.442,1.442,0,0,0,0-2.4L46.092.262a1.553,1.553,0,0,0-2.416,1.29v.467a30.773,30.773,0,0,0-24.462,15.4.958.958,0,0,0,1.662.954,28.855,28.855,0,0,1,23.8-14.49.958.958,0,0,0,.917-.957V2.233l3.9,2.6-3.9,2.6V6.8a.958.958,0,0,0-1.005-.957,26.9,26.9,0,0,0-18.351,45.2l-1.384,1.384a28.9,28.9,0,0,1-5.841-30.154.958.958,0,1,0-1.787-.693,30.81,30.81,0,0,0,6.939,32.891.958.958,0,0,0,1.355,0l2.738-2.738a.958.958,0,0,0,0-1.355A24.817,24.817,0,0,1,20.939,32.71Z" transform="translate(-15.15 0)"/>
        <path id="Trazado_1017035" data-name="Trazado 1017035" d="M237.734,83.781a.958.958,0,0,0-1.355,0l-2.738,2.738a.958.958,0,0,0,0,1.355,24.992,24.992,0,0,1,3.306,31.251.958.958,0,0,0,1.608,1.044,26.91,26.91,0,0,0-2.892-32.961l1.384-1.384a28.857,28.857,0,0,1-19.822,48.546.958.958,0,0,0-.917.957v.691l-3.9-2.6,3.9-2.6v.63a.958.958,0,0,0,1.005.957,26.727,26.727,0,0,0,18.4-8.587.958.958,0,1,0-1.406-1.3,24.815,24.815,0,0,1-16.079,7.906v-.283a1.553,1.553,0,0,0-2.414-1.292l-5.058,3.371a1.442,1.442,0,0,0,0,2.4l5.055,3.369a1.553,1.553,0,0,0,2.416-1.29v-.466a30.773,30.773,0,0,0,19.511-52.452Z" transform="translate(-185.199 -72.831)"/>
        <path id="Trazado_1017036" data-name="Trazado 1017036" d="M223.89,203.042h-8.777a.958.958,0,0,0,0,1.917h8.777a.958.958,0,0,0,0-1.917Z" transform="translate(-188.727 -177.098)"/>
        <path id="Trazado_1017037" data-name="Trazado 1017037" d="M223.89,233.348h-8.777a.958.958,0,0,0,0,1.917h8.777a.958.958,0,0,0,0-1.917Z" transform="translate(-188.727 -203.532)"/>
        <path id="Trazado_1017038" data-name="Trazado 1017038" d="M219.5,293.958h-4.389a.958.958,0,1,0,0,1.917H219.5a.958.958,0,1,0,0-1.917Z" transform="translate(-188.726 -256.398)"/>
        <path id="Trazado_1017039" data-name="Trazado 1017039" d="M223.89,263.652h-8.777a.958.958,0,1,0,0,1.917h8.777a.958.958,0,1,0,0-1.917Z" transform="translate(-188.727 -229.964)"/>
        <path id="Trazado_1017040" data-name="Trazado 1017040" d="M203.046,172.738H190.139a2.252,2.252,0,0,0-2.249,2.249v16.78a2.252,2.252,0,0,0,2.249,2.249h12.907a2.252,2.252,0,0,0,2.249-2.249v-16.78A2.252,2.252,0,0,0,203.046,172.738Zm.332,19.029a.333.333,0,0,1-.332.332H190.139a.333.333,0,0,1-.332-.332v-16.78a.333.333,0,0,1,.332-.332h12.907a.333.333,0,0,1,.332.332v16.78Z" transform="translate(-165.818 -150.666)"/>
      </g>
    </g>
  </g>
</svg>
