<svg xmlns="http://www.w3.org/2000/svg" xmlns:xlink="http://www.w3.org/1999/xlink" width="110" height="110" viewBox="0 0 110 110">
  <defs>
    <filter id="Trazado_982547" x="0" y="0" width="110" height="110" filterUnits="userSpaceOnUse">
      <feOffset dy="3" input="SourceAlpha"/>
      <feGaussianBlur stdDeviation="3" result="blur"/>
      <feFlood flood-opacity="0.161"/>
      <feComposite operator="in" in2="blur"/>
      <feComposite in="SourceGraphic"/>
    </filter>
  </defs>
  <g id="Grupo_1171982" data-name="Grupo 1171982" transform="translate(-8710.746 -5079)">
    <g id="Grupo_1171567" data-name="Grupo 1171567" transform="translate(8719.746 5085)">
      <g id="Grupo_1163803" data-name="Grupo 1163803" transform="translate(0)">
        <g id="Grupo_1163015" data-name="Grupo 1163015">
          <g id="Grupo_1157017" data-name="Grupo 1157017" transform="translate(0 0)">
            <g id="Grupo_1155793" data-name="Grupo 1155793">
              <g id="Grupo_1154704" data-name="Grupo 1154704">
                <g id="Grupo_1150790" data-name="Grupo 1150790">
                  <g id="Grupo_1154214" data-name="Grupo 1154214">
                    <g id="Grupo_1152583" data-name="Grupo 1152583">
                      <g id="Grupo_1146973" data-name="Grupo 1146973" transform="translate(0 0)">
                        <g id="Grupo_1146954" data-name="Grupo 1146954">
                          <g transform="matrix(1, 0, 0, 1, -9, -6)" filter="url(#Trazado_982547)">
                            <g id="Trazado_982547-2" data-name="Trazado 982547" transform="translate(9 6)" fill="#f2f7f5">
                              <path d="M 46 90.49987030029297 C 39.99187850952148 90.49987030029297 34.16426849365234 89.32350921630859 28.67905426025391 87.00345611572266 C 23.38019943237305 84.76224517822266 18.62104034423828 81.55341339111328 14.53374671936035 77.46613311767578 C 10.44646644592285 73.37885284423828 7.237639904022217 68.61969757080078 4.996413230895996 63.32085418701172 C 2.676359891891479 57.83565521240234 1.5 52.008056640625 1.5 45.99993515014648 C 1.5 39.99181365966797 2.676359891891479 34.16421508789062 4.996413230895996 28.67901420593262 C 7.237639904022217 23.38017463684082 10.44646644592285 18.62101554870605 14.53374671936035 14.53373527526855 C 18.62104034423828 10.44645500183105 23.38019943237305 7.23762845993042 28.67905426025391 4.996415138244629 C 34.16426849365234 2.676361799240112 39.99187850952148 1.500001788139343 46 1.500001788139343 C 52.00812149047852 1.500001788139343 57.83573150634766 2.676361799240112 63.32094573974609 4.996415138244629 C 68.61979675292969 7.23762845993042 73.37895965576172 10.44645500183105 77.46625518798828 14.53373527526855 C 81.55353546142578 18.62101554870605 84.76235961914062 23.38017463684082 87.00358581542969 28.67901420593262 C 89.32363891601562 34.16421508789062 90.5 39.99181365966797 90.5 45.99993515014648 C 90.5 52.008056640625 89.32363891601562 57.83565521240234 87.00358581542969 63.32085418701172 C 84.76235961914062 68.61969757080078 81.55353546142578 73.37885284423828 77.46625518798828 77.46613311767578 C 73.37895965576172 81.55341339111328 68.61979675292969 84.76224517822266 63.32094573974609 87.00345611572266 C 57.83573150634766 89.32350921630859 52.00812149047852 90.49987030029297 46 90.49987030029297 Z" stroke="none"/>
                              <path d="M 46 2.999992370605469 C 40.1937141418457 2.999992370605469 34.56269836425781 4.136489868164062 29.26337051391602 6.377906799316406 C 24.14332580566406 8.543502807617188 19.54441070556641 11.64437866210938 15.59439849853516 15.59437561035156 C 11.64440155029297 19.54439544677734 8.54351806640625 24.14329528808594 6.377914428710938 29.26333618164062 C 4.136497497558594 34.56264877319336 3 40.19366455078125 3 45.99993515014648 C 3 51.80620574951172 4.136497497558594 57.43720626831055 6.377914428710938 62.73651885986328 C 8.54351806640625 67.8565673828125 11.64440155029297 72.45545959472656 15.59439849853516 76.40547943115234 C 19.54441070556641 80.35547637939453 24.14332580566406 83.45635223388672 29.26337051391602 85.6219482421875 C 34.56269836425781 87.86336517333984 40.1937141418457 88.99986267089844 46 88.99986267089844 C 51.8062858581543 88.99986267089844 57.43730163574219 87.86336517333984 62.73661422729492 85.6219482421875 C 67.85667419433594 83.45635223388672 72.45557403564453 80.35547637939453 76.40558624267578 76.40547943115234 C 80.35559844970703 72.45545959472656 83.45647430419922 67.8565673828125 85.6220703125 62.73651885986328 C 87.86350250244141 57.43720626831055 89 51.80620574951172 89 45.99993515014648 C 89 40.19366455078125 87.86350250244141 34.56264877319336 85.6220703125 29.26333618164062 C 83.45647430419922 24.14329528808594 80.35559844970703 19.54439544677734 76.40558624267578 15.59437561035156 C 72.45557403564453 11.64437866210938 67.85667419433594 8.543502807617188 62.73661422729492 6.377906799316406 C 57.43730163574219 4.136489868164062 51.8062858581543 2.999992370605469 46 2.999992370605469 M 46 -7.62939453125e-06 C 71.40509033203125 -7.62939453125e-06 92 20.59486389160156 92 45.99993515014648 C 92 71.40499114990234 71.40509033203125 91.99986267089844 46 91.99986267089844 C 20.59490203857422 91.99986267089844 0 71.40499114990234 0 45.99993515014648 C 0 20.59486389160156 20.59490203857422 -7.62939453125e-06 46 -7.62939453125e-06 Z" stroke="none" fill="#01899b"/>
                            </g>
                          </g>
                        </g>
                      </g>
                    </g>
                  </g>
                </g>
              </g>
            </g>
          </g>
        </g>
      </g>
    </g>
    <g id="Team-Corporation-Worldwide-Management-Business" transform="translate(8733.746 5099.101)">
      <path id="Trazado_1017067" data-name="Trazado 1017067" d="M40,11H25a1,1,0,0,1-1-1V4a1,1,0,0,1,1-1H41a1,1,0,0,1,1,1v6a1,1,0,0,1-1,1Z" fill="#3d9ae2"/>
      <path id="Trazado_1017068" data-name="Trazado 1017068" d="M42,37a2,2,0,1,1-4,0v2a2,2,0,1,1-4,0v2a2,2,0,1,1-4,0V39a2,2,0,1,1-4,0V29H25a3,3,0,0,1-3-3V20.83a2.006,2.006,0,0,1,.59-1.42l2.82-2.82A2.006,2.006,0,0,0,26,15.17V11H40v2.17a2.006,2.006,0,0,0,.59,1.42l.82.82A2.006,2.006,0,0,1,42,16.83Z" fill="#ffa733"/>
      <path id="Trazado_1017069" data-name="Trazado 1017069" d="M19.88,54.85a1,1,0,0,1,0,1.41l-4.24,4.25a1.008,1.008,0,0,1-1.42,0L2.91,49.19a1,1,0,0,1,0-1.41l4.24-4.24a.978.978,0,0,1,1.41,0l.8.8,9.8,9.8h.01Z" fill="#3d9ae2"/>
      <path id="Trazado_1017070" data-name="Trazado 1017070" d="M36.14,29.52a2,2,0,0,1,1.42,3.41l-1.23,1.23a2,2,0,0,1,2.64,2.99L24.71,51.41a2.006,2.006,0,0,1-1.42.59H22.12a1.966,1.966,0,0,0-1.41.59l-1.54,1.55h-.01l-9.8-9.8,3.05-3.05A1.966,1.966,0,0,0,13,39.88v-4a2.006,2.006,0,0,1,.59-1.42l3.65-3.65a3.012,3.012,0,0,1,4.25,0l.61.61,6.97-6.98a2,2,0,1,1,2.83,2.83l1.41-1.41a2,2,0,1,1,2.83,2.83L34.73,30.1a1.983,1.983,0,0,1,1.41-.58Z" fill="#ffb655"/>
      <path id="Trazado_1017071" data-name="Trazado 1017071" d="M44.84,54.14l9.8-9.8.8-.8a.978.978,0,0,1,1.41,0l4.24,4.24a1,1,0,0,1,0,1.41L49.78,60.51a1.008,1.008,0,0,1-1.42,0l-4.24-4.25a1,1,0,0,1,0-1.41Z" fill="#3d9ae2"/>
      <path id="Trazado_1017072" data-name="Trazado 1017072" d="M27.86,25.86a2,2,0,0,1,2.83,0l1.41,1.41a1.992,1.992,0,0,1-.1-2.71,1.06,1.06,0,0,1,.1-.12,2.016,2.016,0,0,1,2.83,0l6.97,6.98.1-.1.51-.51a3.012,3.012,0,0,1,4.25,0l3.65,3.65A2.006,2.006,0,0,1,51,35.88v4a1.966,1.966,0,0,0,.59,1.41l3.05,3.05-9.8,9.8-1.55-1.55A1.966,1.966,0,0,0,41.88,52H40.71a2.006,2.006,0,0,1-1.42-.59L32,44.12l-6.97-6.97a2,2,0,0,1,2.64-2.99l4.32,4.32.01.01.01-.01L32,38.46l-4.14-4.14a1.462,1.462,0,0,0-.19-.16l-1.23-1.23a2,2,0,0,1,2.83-2.83l-1.41-1.41a2,2,0,0,1,0-2.83Z" fill="#ffc477"/>
      <path id="Trazado_1017073" data-name="Trazado 1017073" d="M27,6h2V8H27Z"/>
      <path id="Trazado_1017074" data-name="Trazado 1017074" d="M6.857,47.485h2v2h-2Z" transform="translate(-31.983 19.757) rotate(-45)"/>
      <path id="Trazado_1017075" data-name="Trazado 1017075" d="M61.8,47.07l-4.24-4.24a2.041,2.041,0,0,0-2.83,0l-.09.09-2.35-2.35a.928.928,0,0,1-.29-.69v-4a3,3,0,0,0-.88-2.13L47.47,30.1A4.011,4.011,0,0,0,43,29.3V16.83a3,3,0,0,0-.88-2.13l-.82-.82a1,1,0,0,1-.3-.71V12a2.006,2.006,0,0,0,2-2V4a2.006,2.006,0,0,0-2-2H25a2.006,2.006,0,0,0-2,2v6a2.006,2.006,0,0,0,2,2v3.17a1,1,0,0,1-.3.71L21.88,18.7A3,3,0,0,0,21,20.83V26a4,4,0,0,0,1.79,3.31l-.7.7a4.027,4.027,0,0,0-5.56.09l-3.65,3.65A3,3,0,0,0,12,35.88v4a.938.938,0,0,1-.3.7L9.36,42.92l-.09-.09a2.041,2.041,0,0,0-2.83,0L2.2,47.07a2,2,0,0,0,0,2.83L13.51,61.21a1.992,1.992,0,0,0,2.83,0l4.24-4.24a1.992,1.992,0,0,0,0-2.83l.85-.85a.928.928,0,0,1,.69-.29h1.17a3,3,0,0,0,2.13-.88L32,45.53l6.58,6.59a3,3,0,0,0,2.13.88h1.17a.938.938,0,0,1,.7.3l.84.84a1.992,1.992,0,0,0,0,2.83l4.24,4.24a1.992,1.992,0,0,0,2.83,0L61.8,49.9a2,2,0,0,0,0-2.83ZM25,4H41v6H25ZM23,20.83a1,1,0,0,1,.3-.71l2.82-2.82A3,3,0,0,0,27,15.17V12H39v1.17a3,3,0,0,0,.88,2.13l.82.82a1,1,0,0,1,.3.71V29.1l-5.36-5.37A3.1,3.1,0,0,0,32,23.29a3.1,3.1,0,0,0-3.64.44L27,25.1V23H25v4.1l-.75.75A2.012,2.012,0,0,1,23,26ZM14.93,59.8,3.61,48.48l4.25-4.24L19.17,55.56ZM24,50.7a1,1,0,0,1-.71.3H22.12a3.022,3.022,0,0,0-2.12.88l-.84.84-8.38-8.38,2.33-2.33A3.03,3.03,0,0,0,14,39.88v-4a1,1,0,0,1,.3-.71l3.65-3.65a1.994,1.994,0,0,1,2.72-.09l-3.62,3.62,1.42,1.42,8.04-8.05a3.592,3.592,0,0,0,.17.34,2.878,2.878,0,0,0-.94.63,2.993,2.993,0,0,0-.48,3.6,3.073,3.073,0,0,0-.94.62,3.012,3.012,0,0,0,0,4.25l6.27,6.26Zm17.88.3H40.71a1,1,0,0,1-.71-.3L25.74,36.44a1,1,0,0,1,0-1.41,1.028,1.028,0,0,1,1.31-.09l8.59,8.6,1.41-1.42-.01-.01.01-.01-9.9-9.88a1,1,0,1,1,1.41-1.42l9.9,9.91h.01l1.41-1.42-9.9-9.9c-.01,0-.01-.01-.02-.01l-1.39-1.39a.99.99,0,0,1,0-1.42.923.923,0,0,1,1.06-.23.857.857,0,0,1,.35.23l1.41,1.41,9.9,9.9,1.41-1.43-9.89-9.89a1.013,1.013,0,0,1,0-1.41.972.972,0,0,1,.71-.29.951.951,0,0,1,.7.29L45.53,36.47l1.42-1.42-3.62-3.62a1.994,1.994,0,0,1,2.72.09l3.65,3.65a1,1,0,0,1,.3.71v4A3.022,3.022,0,0,0,50.88,42l2.34,2.34-8.38,8.38-.83-.83A3.03,3.03,0,0,0,41.88,51Zm7.19,8.8-4.24-4.24L56.14,44.24l4.25,4.24Z"/>
      <path id="Trazado_1017076" data-name="Trazado 1017076" d="M55.143,47.485h2v2h-2Z" transform="translate(-17.84 53.9) rotate(-45)"/>
      <path id="Trazado_1017077" data-name="Trazado 1017077" d="M31,56h2v2H31Z"/>
      <path id="Trazado_1017078" data-name="Trazado 1017078" d="M34.911,55.692h2v2h-2Z" transform="matrix(0.988, -0.157, 0.157, 0.988, -8.441, 6.328)"/>
      <path id="Trazado_1017079" data-name="Trazado 1017079" d="M38.725,54.776h2v2h-2Z" transform="translate(-15.293 15.007) rotate(-18)"/>
      <path id="Trazado_1017080" data-name="Trazado 1017080" d="M54.776,38.725h2v2h-2Z" transform="translate(0.758 80.495) rotate(-72)"/>
      <path id="Trazado_1017081" data-name="Trazado 1017081" d="M55.692,34.911h2v2h-2Z" transform="matrix(0.157, -0.988, 0.988, 0.157, 12.34, 86.275)"/>
      <path id="Trazado_1017082" data-name="Trazado 1017082" d="M56,31h2v2H56Z"/>
      <path id="Trazado_1017083" data-name="Trazado 1017083" d="M55.692,27.089h2v2h-2Z" transform="matrix(0.988, -0.157, 0.157, 0.988, -3.701, 9.232)"/>
      <path id="Trazado_1017084" data-name="Trazado 1017084" d="M54.776,23.275h2v2h-2Z" transform="translate(-4.772 18.426) rotate(-18)"/>
      <path id="Trazado_1017085" data-name="Trazado 1017085" d="M53.275,19.65h2v2h-2Z" transform="matrix(0.891, -0.454, 0.454, 0.891, -3.459, 26.894)"/>
      <path id="Trazado_1017086" data-name="Trazado 1017086" d="M51.225,16.306h2v2h-2Z" transform="translate(-0.197 34.005) rotate(-36.011)"/>
      <path id="Trazado_1017087" data-name="Trazado 1017087" d="M48.678,13.322h2v2h-2Z" transform="translate(4.423 39.322) rotate(-45)"/>
      <path id="Trazado_1017088" data-name="Trazado 1017088" d="M45.694,10.775h2v2h-2Z" transform="translate(9.723 42.631) rotate(-53.989)"/>
      <path id="Trazado_1017089" data-name="Trazado 1017089" d="M19.65,8.725h2v2h-2Z" transform="matrix(0.891, -0.454, 0.454, 0.891, -2.164, 10.436)"/>
      <path id="Trazado_1017090" data-name="Trazado 1017090" d="M16.306,10.775h2v2h-2Z" transform="translate(-3.616 12.422) rotate(-36.011)"/>
      <path id="Trazado_1017091" data-name="Trazado 1017091" d="M13.322,13.322h2v2h-2Z" transform="translate(-5.932 14.322) rotate(-45)"/>
      <path id="Trazado_1017092" data-name="Trazado 1017092" d="M10.775,16.305h2v2h-2Z" transform="translate(-9.147 16.658) rotate(-53.989)"/>
      <path id="Trazado_1017093" data-name="Trazado 1017093" d="M8.725,19.65h2v2h-2Z" transform="matrix(0.454, -0.891, 0.891, 0.454, -13.09, 19.939)"/>
      <path id="Trazado_1017094" data-name="Trazado 1017094" d="M7.224,23.275h2v2h-2Z" transform="translate(-17.404 24.594) rotate(-72)"/>
      <path id="Trazado_1017095" data-name="Trazado 1017095" d="M6.308,27.089h2v2h-2Z" transform="matrix(0.157, -0.988, 0.988, 0.157, -21.579, 30.905)"/>
      <path id="Trazado_1017096" data-name="Trazado 1017096" d="M6,31H8v2H6Z"/>
      <path id="Trazado_1017097" data-name="Trazado 1017097" d="M6.308,34.911h2v2h-2Z" transform="matrix(0.988, -0.157, 0.157, 0.988, -5.531, 1.586)"/>
      <path id="Trazado_1017098" data-name="Trazado 1017098" d="M7.224,38.725h2v2h-2Z" transform="translate(-11.877 4.488) rotate(-18)"/>
      <path id="Trazado_1017099" data-name="Trazado 1017099" d="M23.275,54.776h2v2h-2Z" transform="translate(-36.274 61.621) rotate(-72)"/>
      <path id="Trazado_1017100" data-name="Trazado 1017100" d="M27.089,55.692h2v2h-2Z" transform="matrix(0.157, -0.988, 0.988, 0.157, -32.301, 75.562)"/>
    </g>
  </g>
</svg>
