<svg xmlns="http://www.w3.org/2000/svg" xmlns:xlink="http://www.w3.org/1999/xlink" width="113" height="113" viewBox="0 0 113 113">
  <defs>
    <filter id="Trazado_982547" x="0" y="0" width="113" height="113" filterUnits="userSpaceOnUse">
      <feOffset dy="3" input="SourceAlpha"/>
      <feGaussianBlur stdDeviation="3" result="blur"/>
      <feFlood flood-opacity="0.161"/>
      <feComposite operator="in" in2="blur"/>
      <feComposite in="SourceGraphic"/>
    </filter>
  </defs>
  <g id="Grupo_1171840" data-name="Grupo 1171840" transform="translate(-192.136 -969)">
    <g id="Grupo_1171504" data-name="Grupo 1171504" transform="translate(160.136 -2223)">
      <g id="Grupo_1167519" data-name="Grupo 1167519" transform="translate(41 3198)">
        <g id="Grupo_1166845" data-name="Grupo 1166845" transform="translate(0)">
          <g id="Grupo_1166720" data-name="Grupo 1166720">
            <g id="Grupo_1164305" data-name="Grupo 1164305">
              <g id="Grupo_1163948" data-name="Grupo 1163948">
                <g id="Grupo_1158168" data-name="Grupo 1158168">
                  <g id="Grupo_1152576" data-name="Grupo 1152576">
                    <g id="Grupo_1148633" data-name="Grupo 1148633">
                      <g id="Grupo_1148525" data-name="Grupo 1148525">
                        <g transform="matrix(1, 0, 0, 1, -9, -6)" filter="url(#Trazado_982547)">
                          <g id="Trazado_982547-2" data-name="Trazado 982547" transform="translate(9 6)" fill="#f2f7f5">
                            <path d="M 47.5 93.5 C 41.28937149047852 93.5 35.26533508300781 92.28397369384766 29.59518623352051 89.88570404052734 C 24.11771965026855 87.56893157958984 19.19813346862793 84.25196075439453 14.97309303283691 80.02691650390625 C 10.74804019927979 75.80186462402344 7.431066513061523 70.88229370117188 5.114293098449707 65.40481567382812 C 2.716026782989502 59.73468017578125 1.5 53.71062850952148 1.5 47.5 C 1.5 41.28937149047852 2.716026782989502 35.26533508300781 5.114293098449707 29.59518623352051 C 7.431066513061523 24.11771965026855 10.74804019927979 19.19813346862793 14.97309303283691 14.97309303283691 C 19.19813346862793 10.74804019927979 24.11771965026855 7.431066513061523 29.59518623352051 5.114293098449707 C 35.26533508300781 2.716026782989502 41.28937149047852 1.5 47.5 1.5 C 53.71062850952148 1.5 59.73468017578125 2.716026782989502 65.40481567382812 5.114293098449707 C 70.88229370117188 7.431066513061523 75.80186462402344 10.74804019927979 80.02691650390625 14.97309303283691 C 84.25196075439453 19.19813346862793 87.56893157958984 24.11771965026855 89.88570404052734 29.59518623352051 C 92.28397369384766 35.26533508300781 93.5 41.28937149047852 93.5 47.5 C 93.5 53.71062850952148 92.28397369384766 59.73468017578125 89.88570404052734 65.40481567382812 C 87.56893157958984 70.88229370117188 84.25196075439453 75.80186462402344 80.02691650390625 80.02691650390625 C 75.80186462402344 84.25196075439453 70.88229370117188 87.56893157958984 65.40481567382812 89.88570404052734 C 59.73468017578125 92.28397369384766 53.71062850952148 93.5 47.5 93.5 Z" stroke="none"/>
                            <path d="M 47.5 3 C 41.49121475219727 3 35.66376876831055 4.176155090332031 30.17950439453125 6.495796203613281 C 24.88084411621094 8.736953735351562 20.12152099609375 11.94598388671875 16.03375244140625 16.03375244140625 C 11.94598388671875 20.12152099609375 8.736953735351562 24.88084411621094 6.495796203613281 30.17950439453125 C 4.176155090332031 35.66376876831055 3 41.49121475219727 3 47.5 C 3 53.50878524780273 4.176155090332031 59.33623123168945 6.495796203613281 64.82049560546875 C 8.736953735351562 70.11915588378906 11.94598388671875 74.87847900390625 16.03375244140625 78.96624755859375 C 20.12152099609375 83.05401611328125 24.88084411621094 86.26304626464844 30.17950439453125 88.50419616699219 C 35.66376876831055 90.82384490966797 41.49121475219727 92 47.5 92 C 53.50878524780273 92 59.33623123168945 90.82384490966797 64.82049560546875 88.50419616699219 C 70.11915588378906 86.26304626464844 74.87847900390625 83.05401611328125 78.96624755859375 78.96624755859375 C 83.05401611328125 74.87847900390625 86.26304626464844 70.11915588378906 88.50419616699219 64.82049560546875 C 90.82384490966797 59.33623123168945 92 53.50878524780273 92 47.5 C 92 41.49121475219727 90.82384490966797 35.66376876831055 88.50419616699219 30.17950439453125 C 86.26304626464844 24.88084411621094 83.05401611328125 20.12152099609375 78.96624755859375 16.03375244140625 C 74.87847900390625 11.94598388671875 70.11915588378906 8.736953735351562 64.82049560546875 6.495796203613281 C 59.33623123168945 4.176155090332031 53.50878524780273 3 47.5 3 M 47.5 0 C 73.7335205078125 0 95 21.2664794921875 95 47.5 C 95 73.7335205078125 73.7335205078125 95 47.5 95 C 21.2664794921875 95 0 73.7335205078125 0 47.5 C 0 21.2664794921875 21.2664794921875 0 47.5 0 Z" stroke="none" fill="#4a665c"/>
                          </g>
                        </g>
                      </g>
                    </g>
                  </g>
                </g>
              </g>
            </g>
          </g>
        </g>
      </g>
    </g>
    <g id="Fill_Outline" data-name="Fill Outline" transform="translate(218.136 992)">
      <g id="Color" transform="translate(2.958 2.958)">
        <path id="Trazado_1016813" data-name="Trazado 1016813" d="M22,7H59.343V22.32H22Z" transform="translate(-3.807 -3.17)" fill="#48cae4"/>
        <path id="Trazado_1016814" data-name="Trazado 1016814" d="M59.343,14.66v7.66H22V7h6.76a8.611,8.611,0,0,0,8.56,7.66Z" transform="translate(-3.807 -3.17)" fill="#00b4d8"/>
        <path id="Trazado_1016815" data-name="Trazado 1016815" d="M11,31H45.471V46.32H11Z" transform="translate(-3.34 -4.189)" fill="#ef5350"/>
        <path id="Trazado_1016816" data-name="Trazado 1016816" d="M25.981,17.363V11.618H23.625a10.023,10.023,0,0,0-.651-1.551L24.65,8.4,20.58,4.331,18.914,6.007a10.023,10.023,0,0,0-1.551-.651V3H11.618V5.356a10.023,10.023,0,0,0-1.551.651L8.4,4.331,4.331,8.4l1.676,1.666a10.023,10.023,0,0,0-.651,1.551H3v5.745H5.356a10.023,10.023,0,0,0,.651,1.551L4.331,20.58,8.4,24.65l1.666-1.676a10.024,10.024,0,0,0,1.551.651v2.356h5.745V23.625a10.023,10.023,0,0,0,1.551-.651L20.58,24.65,24.65,20.58l-1.676-1.666a10.023,10.023,0,0,0,.651-1.551ZM14.49,19.278a4.788,4.788,0,1,1,4.788-4.788A4.788,4.788,0,0,1,14.49,19.278Z" transform="translate(-3 -3)" fill="#e9f1f2"/>
        <path id="Trazado_1016817" data-name="Trazado 1016817" d="M19.278,22.238A12.448,12.448,0,0,1,7.768,5.05L4.331,8.488l1.676,1.666A10.024,10.024,0,0,0,5.356,11.7H3V17.45H5.356A10.023,10.023,0,0,0,6.007,19L4.331,20.667,8.4,24.737l1.666-1.676a10.024,10.024,0,0,0,1.551.651v2.356h5.745V23.712a10.023,10.023,0,0,0,1.551-.651l1.666,1.676L24.018,21.3a12.38,12.38,0,0,1-4.74.938Z" transform="translate(-3 -3.087)" fill="#d0d8da"/>
        <path id="Trazado_1016818" data-name="Trazado 1016818" d="M14.7,8a6.7,6.7,0,1,0,4.741,1.962A6.7,6.7,0,0,0,14.7,8Zm0,11.49A4.788,4.788,0,1,1,19.49,14.7,4.788,4.788,0,0,1,14.7,19.49Z" transform="translate(-3.212 -3.212)" fill="#d0d8da"/>
        <path id="Trazado_1016819" data-name="Trazado 1016819" d="M8,15.01A6.7,6.7,0,0,0,14.693,21.7,12.517,12.517,0,0,1,8,15.01Z" transform="translate(-3.212 -3.51)" fill="#93999a"/>
        <path id="Trazado_1016820" data-name="Trazado 1016820" d="M45.471,38.66v7.66H11V31h6.76a8.611,8.611,0,0,0,8.56,7.66Z" transform="translate(-3.34 -4.189)" fill="#e53935"/>
        <path id="Trazado_1016821" data-name="Trazado 1016821" d="M24,45H58.471V60.32H24Z" transform="translate(-3.892 -4.784)" fill="#ffea00"/>
        <path id="Trazado_1016822" data-name="Trazado 1016822" d="M58.471,52.66v7.66H24V45h6.76a8.611,8.611,0,0,0,8.56,7.66Z" transform="translate(-3.892 -4.784)" fill="#ffd000"/>
      </g>
      <g id="Outline_copy" data-name="Outline copy" transform="translate(2 2)">
        <path id="Trazado_1016823" data-name="Trazado 1016823" d="M60.235,6H51.618a.958.958,0,0,0,0,1.915h7.66V21.32H43.958a.958.958,0,1,0,0,1.915H60.235a.958.958,0,0,0,.958-.958V6.958A.958.958,0,0,0,60.235,6Z" transform="translate(-3.742 -2.17)" fill="#323232"/>
        <path id="Trazado_1016824" data-name="Trazado 1016824" d="M19.575,45.32h-7.66V31.915H44.471v8.618a.958.958,0,0,0,1.915,0V30.958A.958.958,0,0,0,45.428,30H10.958a.958.958,0,0,0-.958.958v15.32a.958.958,0,0,0,.958.958h8.618a.958.958,0,1,0,0-1.915Z" transform="translate(-2.34 -3.189)" fill="#323232"/>
        <path id="Trazado_1016825" data-name="Trazado 1016825" d="M58.428,44H23.958a.958.958,0,0,0-.958.958v15.32a.958.958,0,0,0,.958.958h9.575a.958.958,0,1,0,0-1.915H24.915V45.915H57.471V59.32H37.363a.958.958,0,1,0,0,1.915H58.428a.958.958,0,0,0,.958-.958V44.958A.958.958,0,0,0,58.428,44Z" transform="translate(-2.892 -3.784)" fill="#323232"/>
        <path id="Trazado_1016826" data-name="Trazado 1016826" d="M6.81,18.428a8.555,8.555,0,0,1-.584-1.4.958.958,0,0,0-.913-.67H2.958a.958.958,0,1,0,0,1.915H4.636c.054.133.109.265.168.4L3.615,19.864a.958.958,0,0,0,0,1.354L7.677,25.28a.958.958,0,0,0,1.354,0l1.188-1.188c.133.058.265.114.4.168v1.679a.958.958,0,0,0,.958.958H17.32a.958.958,0,0,0,.958-.958V24.26c.133-.054.265-.109.4-.168l1.188,1.188a.958.958,0,0,0,1.354,0l2.215-2.215H38.386a.958.958,0,1,0,0-1.915H25.325a.948.948,0,0,0-.045-1.286l-1.188-1.188c.058-.133.114-.265.168-.4h1.679a.958.958,0,0,0,.958-.958V11.575a.958.958,0,0,0-.958-.958H24.26c-.054-.133-.109-.265-.168-.4L25.28,9.031a.948.948,0,0,0,.045-1.286H46.046a.958.958,0,1,0,0-1.915H23.433L21.218,3.615a.958.958,0,0,0-1.354,0L18.676,4.8c-.133-.058-.265-.114-.4-.168V2.958A.958.958,0,0,0,17.32,2H11.575a.958.958,0,0,0-.958.958V4.636c-.133.054-.265.109-.4.168L9.031,3.615a.958.958,0,0,0-1.354,0L3.615,7.677a.958.958,0,0,0,0,1.354L4.8,10.219c-.058.133-.114.265-.168.4H2.958A.958.958,0,0,0,2,11.575V13.49a.958.958,0,0,0,1.915,0v-.958h1.4a.958.958,0,0,0,.913-.67,8.554,8.554,0,0,1,.584-1.4.958.958,0,0,0-.171-1.121l-.992-.992L8.354,5.646l.992.992a.958.958,0,0,0,1.121.171,8.554,8.554,0,0,1,1.4-.584.958.958,0,0,0,.67-.913v-1.4h3.83v1.4a.958.958,0,0,0,.67.913,8.555,8.555,0,0,1,1.4.584.958.958,0,0,0,1.121-.171l.992-.992,2.708,2.708-.992.992a.958.958,0,0,0-.171,1.121,8.555,8.555,0,0,1,.584,1.4.958.958,0,0,0,.913.67h1.4v3.83h-1.4a.958.958,0,0,0-.913.67,8.555,8.555,0,0,1-.584,1.4.958.958,0,0,0,.171,1.121l.992.992-2.708,2.708-.992-.992a.958.958,0,0,0-1.121-.171,8.555,8.555,0,0,1-1.4.584.958.958,0,0,0-.67.913v1.4h-3.83v-1.4a.958.958,0,0,0-.67-.913,8.554,8.554,0,0,1-1.4-.584.958.958,0,0,0-1.121.171l-.992.992L5.646,20.541l.992-.992a.958.958,0,0,0,.171-1.121Z" transform="translate(-2 -2)" fill="#323232"/>
        <path id="Trazado_1016827" data-name="Trazado 1016827" d="M18.843,17.375a.958.958,0,0,0,1.245-.543,5.778,5.778,0,1,0-3.251,3.251.957.957,0,1,0-.7-1.783A3.862,3.862,0,1,1,18.3,16.134a.958.958,0,0,0,.538,1.241Z" transform="translate(-2.295 -2.294)" fill="#323232"/>
        <path id="Trazado_1016828" data-name="Trazado 1016828" d="M31.958,17.66a.958.958,0,1,0,0,1.915h3.83a.958.958,0,0,0,0-1.915H34.83v-6.7a.958.958,0,0,0-1.634-.677L31.281,12.2a.957.957,0,1,0,1.354,1.354l.28-.281V17.66Z" transform="translate(-3.232 -2.34)" fill="#323232"/>
        <path id="Trazado_1016829" data-name="Trazado 1016829" d="M55.448,10H43.958a.958.958,0,1,0,0,1.915h11.49a.958.958,0,0,0,0-1.915Z" transform="translate(-3.742 -2.34)" fill="#323232"/>
        <path id="Trazado_1016830" data-name="Trazado 1016830" d="M55.235,14H38.958a.958.958,0,1,0,0,1.915H55.235a.958.958,0,0,0,0-1.915Z" transform="translate(-3.529 -2.51)" fill="#323232"/>
        <path id="Trazado_1016831" data-name="Trazado 1016831" d="M55.32,18H40.958a.958.958,0,1,0,0,1.915H55.32a.958.958,0,0,0,0-1.915Z" transform="translate(-3.614 -2.68)" fill="#323232"/>
        <path id="Trazado_1016832" data-name="Trazado 1016832" d="M53.55,32.983a.958.958,0,0,0-1.354,0L50.281,34.9a.958.958,0,0,0,0,1.354L52.2,38.167a.957.957,0,1,0,1.354-1.354l-.281-.28H56.7a.958.958,0,0,0,.958-.958V26.958a.958.958,0,1,0-1.915,0v7.66H53.269l.281-.281A.958.958,0,0,0,53.55,32.983Z" transform="translate(-4.039 -3.019)" fill="#323232"/>
        <path id="Trazado_1016833" data-name="Trazado 1016833" d="M13.21,50.686a.957.957,0,1,0-1.354,1.354l.281.28H3.915V38.915H6.788a.958.958,0,0,0,0-1.915H2.958A.958.958,0,0,0,2,37.958v15.32a.958.958,0,0,0,.958.958h9.179l-.281.281A.957.957,0,1,0,13.21,55.87l1.915-1.915a.958.958,0,0,0,0-1.354Z" transform="translate(-2 -3.487)" fill="#323232"/>
        <path id="Trazado_1016834" data-name="Trazado 1016834" d="M20.745,36.873a2.873,2.873,0,0,0-5.745,0,.958.958,0,1,0,1.915,0,.958.958,0,0,1,1.883-.243L15.16,42.087a.958.958,0,0,0,.8,1.488h3.83a.958.958,0,0,0,0-1.915h-2.04L20.584,37.4A.963.963,0,0,0,20.745,36.873Z" transform="translate(-2.552 -3.359)" fill="#323232"/>
        <path id="Trazado_1016835" data-name="Trazado 1016835" d="M41.448,35H29.958a.958.958,0,1,0,0,1.915h11.49a.958.958,0,1,0,0-1.915Z" transform="translate(-3.147 -3.402)" fill="#323232"/>
        <path id="Trazado_1016836" data-name="Trazado 1016836" d="M41.235,39H24.958a.958.958,0,1,0,0,1.915H41.235a.958.958,0,0,0,0-1.915Z" transform="translate(-2.935 -3.572)" fill="#323232"/>
        <path id="Trazado_1016837" data-name="Trazado 1016837" d="M31.873,48A2.873,2.873,0,0,0,29,50.873a.958.958,0,0,0,1.915,0,.958.958,0,1,1,.958.958.958.958,0,1,0,0,1.915.958.958,0,1,1-.958.958A.958.958,0,1,0,29,54.7a2.873,2.873,0,1,0,5.012-1.915A2.873,2.873,0,0,0,31.873,48Z" transform="translate(-3.147 -3.954)" fill="#323232"/>
        <path id="Trazado_1016838" data-name="Trazado 1016838" d="M54.448,49.915a.958.958,0,1,0,0-1.915H42.958a.958.958,0,0,0,0,1.915Z" transform="translate(-3.699 -3.954)" fill="#323232"/>
        <path id="Trazado_1016839" data-name="Trazado 1016839" d="M38,52.958a.958.958,0,0,0,.958.958h15.32a.958.958,0,0,0,0-1.915H38.958A.958.958,0,0,0,38,52.958Z" transform="translate(-3.529 -4.124)" fill="#323232"/>
        <path id="Trazado_1016840" data-name="Trazado 1016840" d="M38.958,57.915h15.32a.958.958,0,1,0,0-1.915H38.958a.958.958,0,1,0,0,1.915Z" transform="translate(-3.529 -4.294)" fill="#323232"/>
      </g>
    </g>
  </g>
</svg>
