<svg xmlns="http://www.w3.org/2000/svg" xmlns:xlink="http://www.w3.org/1999/xlink" width="110" height="110" viewBox="0 0 110 110">
  <defs>
    <filter id="Trazado_982547" x="0" y="0" width="110" height="110" filterUnits="userSpaceOnUse">
      <feOffset dy="3" input="SourceAlpha"/>
      <feGaussianBlur stdDeviation="3" result="blur"/>
      <feFlood flood-opacity="0.161"/>
      <feComposite operator="in" in2="blur"/>
      <feComposite in="SourceGraphic"/>
    </filter>
  </defs>
  <g id="Grupo_1171647" data-name="Grupo 1171647" transform="translate(-800 -822)">
    <g id="Grupo_1171414" data-name="Grupo 1171414" transform="translate(-0.701 -6107)">
      <g id="Grupo_1163801" data-name="Grupo 1163801" transform="translate(-0.299 2285)">
        <g id="Grupo_1163014" data-name="Grupo 1163014" transform="translate(1 306)">
          <g id="Grupo_1157015" data-name="Grupo 1157015" transform="translate(0 3549)">
            <g id="Grupo_1155792" data-name="Grupo 1155792" transform="translate(-1 -3894.666)">
              <g id="Grupo_1154703" data-name="Grupo 1154703" transform="translate(0 1465.666)">
                <g id="Grupo_1150789" data-name="Grupo 1150789" transform="translate(3 2320)">
                  <g id="Grupo_1154212" data-name="Grupo 1154212" transform="translate(-236 -5809)">
                    <g id="Grupo_1152583" data-name="Grupo 1152583" transform="translate(1043 6713)">
                      <g id="Grupo_1146973" data-name="Grupo 1146973" transform="translate(0 0)">
                        <g id="Grupo_1146954" data-name="Grupo 1146954">
                          <g transform="matrix(1, 0, 0, 1, -9, -6)" filter="url(#Trazado_982547)">
                            <g id="Trazado_982547-2" data-name="Trazado 982547" transform="translate(9 6)" fill="#e4f2f4">
                              <path d="M 46 90.49987030029297 C 39.99187850952148 90.49987030029297 34.16426849365234 89.32350921630859 28.67905426025391 87.00345611572266 C 23.38019943237305 84.76224517822266 18.62104034423828 81.55341339111328 14.53374671936035 77.46613311767578 C 10.44646644592285 73.37885284423828 7.237639904022217 68.61969757080078 4.996413230895996 63.32085418701172 C 2.676359891891479 57.83565521240234 1.5 52.008056640625 1.5 45.99993515014648 C 1.5 39.99181365966797 2.676359891891479 34.16421508789062 4.996413230895996 28.67901420593262 C 7.237639904022217 23.38017463684082 10.44646644592285 18.62101554870605 14.53374671936035 14.53373527526855 C 18.62104034423828 10.44645500183105 23.38019943237305 7.23762845993042 28.67905426025391 4.996415138244629 C 34.16426849365234 2.676361799240112 39.99187850952148 1.500001788139343 46 1.500001788139343 C 52.00812149047852 1.500001788139343 57.83573150634766 2.676361799240112 63.32094573974609 4.996415138244629 C 68.61979675292969 7.23762845993042 73.37895965576172 10.44645500183105 77.46625518798828 14.53373527526855 C 81.55353546142578 18.62101554870605 84.76235961914062 23.38017463684082 87.00358581542969 28.67901420593262 C 89.32363891601562 34.16421508789062 90.5 39.99181365966797 90.5 45.99993515014648 C 90.5 52.008056640625 89.32363891601562 57.83565521240234 87.00358581542969 63.32085418701172 C 84.76235961914062 68.61969757080078 81.55353546142578 73.37885284423828 77.46625518798828 77.46613311767578 C 73.37895965576172 81.55341339111328 68.61979675292969 84.76224517822266 63.32094573974609 87.00345611572266 C 57.83573150634766 89.32350921630859 52.00812149047852 90.49987030029297 46 90.49987030029297 Z" stroke="none"/>
                              <path d="M 46 2.999992370605469 C 40.1937141418457 2.999992370605469 34.56269836425781 4.136489868164062 29.26337051391602 6.377906799316406 C 24.14332580566406 8.543502807617188 19.54441070556641 11.64437866210938 15.59439849853516 15.59437561035156 C 11.64440155029297 19.54439544677734 8.54351806640625 24.14329528808594 6.377914428710938 29.26333618164062 C 4.136497497558594 34.56264877319336 3 40.19366455078125 3 45.99993515014648 C 3 51.80620574951172 4.136497497558594 57.43720626831055 6.377914428710938 62.73651885986328 C 8.54351806640625 67.8565673828125 11.64440155029297 72.45545959472656 15.59439849853516 76.40547943115234 C 19.54441070556641 80.35547637939453 24.14332580566406 83.45635223388672 29.26337051391602 85.6219482421875 C 34.56269836425781 87.86336517333984 40.1937141418457 88.99986267089844 46 88.99986267089844 C 51.8062858581543 88.99986267089844 57.43730163574219 87.86336517333984 62.73661422729492 85.6219482421875 C 67.85667419433594 83.45635223388672 72.45557403564453 80.35547637939453 76.40558624267578 76.40547943115234 C 80.35559844970703 72.45545959472656 83.45647430419922 67.8565673828125 85.6220703125 62.73651885986328 C 87.86350250244141 57.43720626831055 89 51.80620574951172 89 45.99993515014648 C 89 40.19366455078125 87.86350250244141 34.56264877319336 85.6220703125 29.26333618164062 C 83.45647430419922 24.14329528808594 80.35559844970703 19.54439544677734 76.40558624267578 15.59437561035156 C 72.45557403564453 11.64437866210938 67.85667419433594 8.543502807617188 62.73661422729492 6.377906799316406 C 57.43730163574219 4.136489868164062 51.8062858581543 2.999992370605469 46 2.999992370605469 M 46 -7.62939453125e-06 C 71.40509033203125 -7.62939453125e-06 92 20.59486389160156 92 45.99993515014648 C 92 71.40499114990234 71.40509033203125 91.99986267089844 46 91.99986267089844 C 20.59490203857422 91.99986267089844 0 71.40499114990234 0 45.99993515014648 C 0 20.59486389160156 20.59490203857422 -7.62939453125e-06 46 -7.62939453125e-06 Z" stroke="none" fill="#01899b"/>
                            </g>
                          </g>
                        </g>
                      </g>
                    </g>
                  </g>
                </g>
              </g>
            </g>
          </g>
        </g>
      </g>
    </g>
    <g id="work-process" transform="translate(824 843)">
      <g id="Grupo_1171645" data-name="Grupo 1171645" transform="translate(0.96 0.96)">
        <path id="Trazado_1016085" data-name="Trazado 1016085" d="M57.32,10.461h0A27.313,27.313,0,0,0,30.148,35.015l7.21-.338a20.237,20.237,0,0,1,19.962-17.1l-.032.011v2.761l6.971-5.632L57.288,8v2.472" transform="translate(-27.489 -8)" fill="#ffe27a"/>
        <path id="Trazado_1016086" data-name="Trazado 1016086" d="M108.337,74.681l5.25-4.242A20.209,20.209,0,0,0,88.161,89.025l.246-.012a20.237,20.237,0,0,1,19.962-17.1l-.032.011Z" transform="translate(-78.538 -62.336)" fill="#f9cf58"/>
        <path id="Trazado_1016087" data-name="Trazado 1016087" d="M170.016,155.322l-2.284-.343a10.657,10.657,0,0,0-1.68-4.053l1.373-1.858a.817.817,0,0,0-.079-1.063l-1.182-1.182a.817.817,0,0,0-1.063-.079l-1.858,1.373a10.656,10.656,0,0,0-4.053-1.68l-.343-2.284a.817.817,0,0,0-.808-.7h-1.672a.817.817,0,0,0-.808.7l-.343,2.284a10.655,10.655,0,0,0-4.053,1.68l-1.858-1.373a.817.817,0,0,0-1.063.079L147.058,148a.817.817,0,0,0-.079,1.063l1.373,1.858a10.656,10.656,0,0,0-1.68,4.053l-2.284.343a.817.817,0,0,0-.7.808V157.8a.817.817,0,0,0,.7.808l2.284.343a10.656,10.656,0,0,0,1.68,4.053l-1.373,1.858a.817.817,0,0,0,.079,1.063l1.182,1.182a.817.817,0,0,0,1.063.079l1.858-1.373a10.656,10.656,0,0,0,4.053,1.68l.343,2.284a.817.817,0,0,0,.808.7h1.672a.817.817,0,0,0,.808-.7l.343-2.284a10.655,10.655,0,0,0,4.053-1.68l1.858,1.373a.817.817,0,0,0,1.063-.079l1.182-1.182a.817.817,0,0,0,.079-1.063l-1.373-1.858a10.657,10.657,0,0,0,1.68-4.053l2.284-.343a.817.817,0,0,0,.7-.808V156.13a.817.817,0,0,0-.7-.808ZM157.2,162.374a5.408,5.408,0,1,1,5.408-5.408A5.408,5.408,0,0,1,157.2,162.374Z" transform="translate(-127.403 -127.195)" fill="#ff4755"/>
        <path id="Trazado_1016088" data-name="Trazado 1016088" d="M10.489,204.671c0,.009,0,.018,0,.028a27.313,27.313,0,0,0,24.556,27.172l-.423-7.224A20.2,20.2,0,0,1,17.6,204.7c0-.009,0-.018,0-.028h2.744L14.713,197.7,8,204.671h2.472" transform="translate(-8 -174.928)" fill="#8bcaff"/>
        <path id="Trazado_1016089" data-name="Trazado 1016089" d="M204.671,295.926h.056a20.2,20.2,0,0,0,19.947-17.015l7.231-.491a27.312,27.312,0,0,1-27.178,24.618h-.056V305.5l-6.971-6.713,6.971-5.632v2.761Z" transform="translate(-174.928 -245.959)" fill="#98db7c"/>
        <path id="Trazado_1016090" data-name="Trazado 1016090" d="M222,266.08a5.429,5.429,0,0,0-.108-1.08,5.409,5.409,0,0,1-10.6,0A5.408,5.408,0,1,0,222,266.08Z" transform="translate(-186.794 -234.149)" fill="#fc2b3a"/>
        <path id="Trazado_1016091" data-name="Trazado 1016091" d="M216.553,300.879a27.436,27.436,0,0,1-5.413-.537L216.5,305.5v-2.462h.056a27.312,27.312,0,0,0,27.178-24.618l-.372.386A27.317,27.317,0,0,1,216.553,300.879Z" transform="translate(-186.754 -245.96)" fill="#82d361"/>
        <path id="Trazado_1016092" data-name="Trazado 1016092" d="M50.63,280.407a27.323,27.323,0,0,1-21.813-24.639h-.083c0,.009,0,.018,0,.028a27.313,27.313,0,0,0,24.556,27.172Z" transform="translate(-26.244 -226.025)" fill="#6cc4ff"/>
        <path id="Trazado_1016093" data-name="Trazado 1016093" d="M303.281,56.807c0-.009,0-.018,0-.028A27.312,27.312,0,0,0,278.664,29.6l4.278,4.12-3.839,3.1A20.2,20.2,0,0,1,296.169,56.78c0,.009,0,.018,0,.028h-2.8L299,63.778l6.713-6.971Z" transform="translate(-246.173 -27.009)" fill="#ffba57"/>
        <g id="Grupo_1171644" data-name="Grupo 1171644" transform="translate(32.93 8.103)">
          <path id="Trazado_1016094" data-name="Trazado 1016094" d="M284.435,75.5l-2.119,1.712a20.2,20.2,0,0,1,17.037,18.881q.029-.539.029-1.086A20.2,20.2,0,0,0,284.435,75.5Z" transform="translate(-282.316 -75.501)" fill="#ffac3e"/>
        </g>
      </g>
      <g id="Grupo_1171646" data-name="Grupo 1171646" transform="translate(0 0)">
        <path id="Trazado_1016095" data-name="Trazado 1016095" d="M209.891,203.347a6.324,6.324,0,0,0-5.937,8.492.9.9,0,1,0,1.695-.62,4.516,4.516,0,1,1,1.916,2.32.9.9,0,0,0-.931,1.545,6.321,6.321,0,1,0,3.258-11.738Z" transform="translate(-179.134 -178.937)"/>
        <path id="Trazado_1016096" data-name="Trazado 1016096" d="M163.356,147.613l-1.673-.251a11.492,11.492,0,0,0-1.337-3.227l1.006-1.361a1.711,1.711,0,0,0-.167-2.239L160,139.35a1.711,1.711,0,0,0-2.239-.167l-1.361,1.005a11.486,11.486,0,0,0-3.226-1.337l-.251-1.673a1.711,1.711,0,0,0-1.7-1.465h-1.675a1.711,1.711,0,0,0-1.7,1.465l-.251,1.673a11.488,11.488,0,0,0-3.226,1.337L143,139.183a1.711,1.711,0,0,0-2.239.167l-1.184,1.184a1.71,1.71,0,0,0-.167,2.24l1.005,1.361a11.48,11.48,0,0,0-1.337,3.227l-1.673.251a1.71,1.71,0,0,0-1.465,1.7v1.675a1.71,1.71,0,0,0,1.465,1.7l1.673.251a11.489,11.489,0,0,0,1.337,3.227l-1.005,1.361a1.71,1.71,0,0,0,.167,2.24l1.184,1.185a1.711,1.711,0,0,0,2.239.167l1.361-1.005a11.487,11.487,0,0,0,3.226,1.337l.251,1.673a1.711,1.711,0,0,0,1.7,1.465h1.675a1.711,1.711,0,0,0,1.7-1.465l.251-1.673a11.487,11.487,0,0,0,3.226-1.337l1.361,1.006a1.711,1.711,0,0,0,2.239-.167l1.184-1.185a1.711,1.711,0,0,0,.167-2.24l-1.005-1.361a11.484,11.484,0,0,0,1.337-3.227l1.673-.251a1.71,1.71,0,0,0,1.465-1.7v-1.675a1.71,1.71,0,0,0-1.465-1.7Zm-.339,3.305-2.217.333a.9.9,0,0,0-.752.726,9.726,9.726,0,0,1-1.541,3.718.9.9,0,0,0,.019,1.045l1.333,1.8-1.083,1.083-1.8-1.333a.9.9,0,0,0-1.045-.019,9.726,9.726,0,0,1-3.718,1.541.9.9,0,0,0-.726.753l-.333,2.217h-1.532l-.333-2.218a.9.9,0,0,0-.726-.753,9.727,9.727,0,0,1-3.718-1.541.9.9,0,0,0-1.045.019l-1.8,1.333-1.083-1.083,1.333-1.8a.9.9,0,0,0,.019-1.045,9.724,9.724,0,0,1-1.541-3.718.9.9,0,0,0-.752-.726l-2.217-.333v-1.532l2.217-.333a.9.9,0,0,0,.752-.726,9.725,9.725,0,0,1,1.541-3.718.9.9,0,0,0-.019-1.045l-1.333-1.8,1.083-1.083,1.8,1.333a.9.9,0,0,0,1.045.019,9.728,9.728,0,0,1,3.718-1.541.9.9,0,0,0,.726-.753l.333-2.218h1.532l.333,2.217a.9.9,0,0,0,.726.753,9.724,9.724,0,0,1,3.718,1.541.9.9,0,0,0,1.045-.019l1.8-1.333,1.083,1.083-1.333,1.8a.9.9,0,0,0-.019,1.045,9.725,9.725,0,0,1,1.541,3.718.9.9,0,0,0,.752.726l2.217.333Z" transform="translate(-119.624 -119.422)"/>
        <path id="Trazado_1016097" data-name="Trazado 1016097" d="M61.39,30.406a.9.9,0,0,0-.83-.549H59.01A28.266,28.266,0,0,0,33.86,2.635L31.383.25A.908.908,0,0,0,29.856.9V2.478A28.066,28.066,0,0,0,14.488,7.613a.9.9,0,0,0,1.04,1.475,26.29,26.29,0,0,1,15.23-4.82.9.9,0,0,0,.9-.9V3.021l4.72,4.546L31.66,11.381v-.889a.9.9,0,0,0-.9-.9,21.147,21.147,0,0,0-20.5,15.954L8.328,23.151a.908.908,0,0,0-1.352-.059l-2.119,2.2a26.429,26.429,0,0,1,7.956-14.011A.9.9,0,0,0,11.59,9.956,28.21,28.21,0,0,0,2.669,27.565L.25,30.077A.908.908,0,0,0,.9,31.605H2.5A28.268,28.268,0,0,0,27.593,58.821l2.483,2.391a.908.908,0,0,0,1.528-.65V58.986a28.049,28.049,0,0,0,15.615-5.274.9.9,0,0,0-1.052-1.466,26.279,26.279,0,0,1-15.421,4.948H30.7a.9.9,0,0,0-.9.9v.345l-4.72-4.546,4.72-3.814v.888a.9.9,0,0,0,.9.9h.061A21.147,21.147,0,0,0,51.24,35.97l1.891,2.341a.908.908,0,0,0,1.352.059L56.672,36.1a26.445,26.445,0,0,1-7.806,13.93A.9.9,0,1,0,50.1,51.342a28.227,28.227,0,0,0,8.752-17.51l2.357-2.447a.9.9,0,0,0,.18-.979ZM23.15,53.134a.908.908,0,0,0-.059,1.352l2.23,2.147A26.47,26.47,0,0,1,4.3,30.734V30.7a.9.9,0,0,0-.9-.9H3.021L7.567,25.08,11.381,29.8h-.86a.9.9,0,0,0-.9.9v.031A21.147,21.147,0,0,0,25.524,51.216Zm20.223-7.749A19.326,19.326,0,0,1,31.6,50.049V48.192a.908.908,0,0,0-1.469-.7l-2.811,2.272A19.342,19.342,0,0,1,11.442,31.605h1.828a.908.908,0,0,0,.7-1.469l-2.253-2.789A19.341,19.341,0,0,1,29.855,11.416V13.27a.908.908,0,0,0,1.469.7l2.822-2.28A19.342,19.342,0,0,1,50.074,29.857H48.19a.908.908,0,0,0-.7,1.469l2.3,2.845a19.346,19.346,0,0,1-6.414,11.214Zm10.52-9-3.814-4.721H51a.9.9,0,0,0,.9-.9v-.031a21.147,21.147,0,0,0-15.948-20.5l2.36-1.907a.908.908,0,0,0,.059-1.352L36.124,4.816a26.469,26.469,0,0,1,21.1,25.912v.031a.9.9,0,0,0,.9.9h.317Z" transform="translate(0 0)"/>
      </g>
    </g>
  </g>
</svg>
