<svg xmlns="http://www.w3.org/2000/svg" xmlns:xlink="http://www.w3.org/1999/xlink" width="505" height="354" viewBox="0 0 505 354">
  <defs>
    <clipPath id="clip-path">
      <rect id="Rectángulo_414351" data-name="Rectángulo 414351" width="505" height="354" transform="translate(182.282 1322.039)" fill="#fff" stroke="#707070" stroke-width="1" opacity="0.63"/>
    </clipPath>
    <clipPath id="clip-path-2">
      <path id="Trazado_1016071" data-name="Trazado 1016071" d="M321.913,26.416C262.048,22.453,200.331,33.744,148.759,64.4S56.714,146.073,44.6,204.832,51.167,329.17,96.5,368.475c38.92,33.751,91.883,45.7,142.922,52.692,48.04,6.583,98.152,9.617,143.94-6.345,56.8-19.8,101.855-69.223,118.284-127.085s4.528-122.652-29.717-172.1S382.315,30.414,321.913,26.416Z" transform="translate(-40.99 -25.653)"/>
    </clipPath>
  </defs>
  <g id="Enmascarar_grupo_1098792" data-name="Enmascarar grupo 1098792" transform="translate(-182.282 -1322.039)" clip-path="url(#clip-path)">
    <g id="OBJECTS" transform="translate(182.282 1311.673)">
      <g id="Grupo_1171642" data-name="Grupo 1171642">
        <g id="Grupo_1171587" data-name="Grupo 1171587" transform="translate(166.431 26.959)">
          <g id="Grupo_1171578" data-name="Grupo 1171578" transform="translate(49.371 5.367)">
            <path id="Trazado_1015935" data-name="Trazado 1015935" d="M287.534,101.857a44.413,44.413,0,0,1,7.391-29.007c2.442-3.595,5.652-6.973,9.842-8.13,2.383-.657,5.245-.41,6.883,1.442,1.728,1.955,1.515,4.916,1,7.471-.987,4.851-2.713,9.519-3.877,14.33s-1.758,9.906-.459,14.683Z" transform="translate(-283.827 -62.23)" fill="#2e2854" opacity="0.15"/>
            <path id="Trazado_1015936" data-name="Trazado 1015936" d="M283.928,100.557a44.411,44.411,0,0,1,5.636-29.4c2.222-3.735,5.223-7.3,9.336-8.706,2.34-.8,5.211-.724,6.956,1.026,1.842,1.848,1.808,4.815,1.441,7.4-.694,4.9-2.137,9.665-3.01,14.537s-1.161,9.994.423,14.684Z" transform="translate(-283.395 -61.964)" fill="#f7a145"/>
            <path id="Trazado_1015937" data-name="Trazado 1015937" d="M298.562,75.8a52.431,52.431,0,0,0-2.484,28.032" transform="translate(-284.69 -63.483)" fill="none" stroke="#2e2854" stroke-linecap="round" stroke-linejoin="round" stroke-miterlimit="10" stroke-width="1.5"/>
          </g>
          <g id="Grupo_1171579" data-name="Grupo 1171579" transform="translate(4.994 0.478)">
            <path id="Trazado_1015938" data-name="Trazado 1015938" d="M274.615,154.578c-11.459-5.683-19.848-16.4-24.874-28.166s-7-24.59-8.253-37.319c-.6-6.094-1.038-12.342.534-18.258s5.515-11.534,11.294-13.56c7.754-2.72,16.512,1.816,21.46,8.376s7.045,14.76,9.481,22.61,5.57,15.929,11.864,21.212Z" transform="translate(-234.359 -56.472)" fill="#2e2854" opacity="0.15"/>
            <path id="Trazado_1015939" data-name="Trazado 1015939" d="M270.4,154.3c-11.691-5.192-20.526-15.546-26.046-27.086s-8.033-24.271-9.827-36.935c-.86-6.063-1.561-12.286-.24-18.265S239.3,60.259,244.99,57.989c7.631-3.046,16.574,1.114,21.8,7.459s7.664,14.449,10.431,22.187,6.241,15.679,12.754,20.69Z" transform="translate(-233.548 -56.527)" fill="#49ad9f"/>
            <path id="Trazado_1015940" data-name="Trazado 1015940" d="M249.559,86.669a101.936,101.936,0,0,0,34.431,48.706" transform="translate(-235.305 -59.786)" fill="none" stroke="#2e2854" stroke-linecap="round" stroke-linejoin="round" stroke-miterlimit="10" stroke-width="1.5"/>
          </g>
          <g id="Grupo_1171580" data-name="Grupo 1171580" transform="translate(0 128.187)">
            <path id="Trazado_1015941" data-name="Trazado 1015941" d="M271.1,248.433c-5.345,3.646-12.962,1.433-17.731-2.939s-7.569-10.415-11.037-15.875-8.21-10.76-14.389-12a25.637,25.637,0,0,1,44.888,2.648C276.756,228.566,275.961,238.345,271.1,248.433Z" transform="translate(-227.938 -200.548)" fill="#2e2854" opacity="0.15"/>
            <path id="Trazado_1015942" data-name="Trazado 1015942" d="M269.4,244.535c-5.642,3.166-13.038.3-17.408-4.471s-6.633-11.035-9.614-16.776-7.242-11.434-13.291-13.2a25.637,25.637,0,0,1,44.488,6.546C276.765,225.236,275.122,234.908,269.4,244.535Z" transform="translate(-228.064 -199.925)" fill="#f7a145"/>
            <path id="Trazado_1015943" data-name="Trazado 1015943" d="M242.074,210.322c8.792.056,16.547,6.466,20.751,14.187s5.527,16.635,6.782,25.337" transform="translate(-229.489 -201.066)" fill="none" stroke="#2e2854" stroke-linecap="round" stroke-linejoin="round" stroke-miterlimit="10" stroke-width="1.5"/>
          </g>
          <g id="Grupo_1171581" data-name="Grupo 1171581" transform="translate(22.741 282.448)">
            <path id="Trazado_1015944" data-name="Trazado 1015944" d="M310.458,374.708a30.835,30.835,0,0,0-31.129,9.144c-5.991,6.88-8.522,16-11.612,24.588s-7.37,17.456-14.234,21.849c15.831,4.765,34.188,2.435,46.915-8.115A39.7,39.7,0,0,0,310.458,374.708Z" transform="translate(-253.483 -373.243)" fill="#2e2854" opacity="0.15"/>
            <path id="Trazado_1015945" data-name="Trazado 1015945" d="M313.809,378.837A30.837,30.837,0,0,0,283.651,390.8c-5.334,7.4-7.015,16.719-9.3,25.551s-5.736,18.059-12.167,23.065c16.2,3.289,34.268-.716,45.971-12.391A39.7,39.7,0,0,0,313.809,378.837Z" transform="translate(-254.437 -373.764)" fill="#49ad9f"/>
            <path id="Trazado_1015946" data-name="Trazado 1015946" d="M318.712,373.2a98.357,98.357,0,0,1-27.862,49.414" transform="translate(-257.584 -373.202)" fill="none" stroke="#2e2854" stroke-linecap="round" stroke-linejoin="round" stroke-miterlimit="10" stroke-width="1.5"/>
          </g>
          <g id="Grupo_1171582" data-name="Grupo 1171582" transform="translate(61.891 312.452)">
            <path id="Trazado_1015947" data-name="Trazado 1015947" d="M321.541,406.9c-16.57,10.018-26.274,30.325-23.66,49.511a24.8,24.8,0,0,0,3.452,10.38,12.456,12.456,0,0,0,8.939,5.812c6.275.555,11.58-5.038,13.681-10.976s2.04-12.417,3.545-18.533,5.35-12.413,11.514-13.708Z" transform="translate(-297.458 -406.905)" fill="#2e2854" opacity="0.15"/>
            <path id="Trazado_1015948" data-name="Trazado 1015948" d="M321.6,412.379c-14.851,12.424-21.35,33.972-15.845,52.536a24.8,24.8,0,0,0,4.993,9.733,12.456,12.456,0,0,0,9.72,4.383c6.285-.408,10.678-6.742,11.849-12.931s.125-12.583.681-18.856,3.4-13.082,9.292-15.3Z" transform="translate(-298.155 -407.506)" fill="#f7a145"/>
            <path id="Trazado_1015949" data-name="Trazado 1015949" d="M334.229,420.241a50.2,50.2,0,0,0-13.421,40.651" transform="translate(-299.978 -408.369)" fill="none" stroke="#2e2854" stroke-linecap="round" stroke-linejoin="round" stroke-miterlimit="10" stroke-width="1.5"/>
          </g>
          <g id="Grupo_1171583" data-name="Grupo 1171583" transform="translate(203.22 221.826)">
            <path id="Trazado_1015950" data-name="Trazado 1015950" d="M457.279,319.215c5.452-5.642,13.29-8.361,21.035-9.619a72.76,72.76,0,0,1,46.572,8.132,49.848,49.848,0,0,1,14.592,11.718,30.871,30.871,0,0,1,7.174,17.087c.314,4.466-.767,9.363-4.215,12.218-4.18,3.46-10.4,2.86-15.513,1.028-8.78-3.144-16.189-9.2-24.535-13.361s-18.826-6.235-26.716-1.263Z" transform="translate(-456.327 -305.499)" fill="#2e2854" opacity="0.15"/>
            <path id="Trazado_1015951" data-name="Trazado 1015951" d="M456.21,318.156c5.028-6.023,12.648-9.3,20.281-11.12a72.76,72.76,0,0,1,47.039,4.733,49.832,49.832,0,0,1,15.4,10.629,30.872,30.872,0,0,1,8.394,16.521c.638,4.432-.086,9.394-3.318,12.492-3.917,3.754-10.169,3.606-15.4,2.152-8.985-2.5-16.813-8-25.439-11.546s-19.229-4.853-26.738.678Z" transform="translate(-456.21 -305.107)" fill="#49ad9f"/>
            <path id="Trazado_1015952" data-name="Trazado 1015952" d="M467.672,331.736c8.4-3.593,16.985-7.233,26.091-8.028s18.991,1.723,24.925,8.674" transform="translate(-457.468 -307.133)" fill="none" stroke="#2e2854" stroke-linecap="round" stroke-linejoin="round" stroke-miterlimit="10" stroke-width="1.5"/>
          </g>
          <g id="Grupo_1171584" data-name="Grupo 1171584" transform="translate(248.884 183.43)">
            <path id="Trazado_1015953" data-name="Trazado 1015953" d="M526.514,266.552c9.1,8.648,22.428,10.871,34.936,11.974a47.189,47.189,0,0,1,10.525,1.681,14.508,14.508,0,0,1,8.348,6.264c2.792,4.978,1.018,11.609-2.985,15.679s-9.735,5.974-15.381,6.818a54.076,54.076,0,0,1-51.3-22.194Z" transform="translate(-507.85 -262.48)" fill="#2e2854" opacity="0.15"/>
            <path id="Trazado_1015954" data-name="Trazado 1015954" d="M522.207,261.978c9.572,8.125,23,9.6,35.551,10a47.173,47.173,0,0,1,10.6,1.09,14.5,14.5,0,0,1,8.684,5.787c3.066,4.814,1.666,11.533-2.1,15.822s-9.386,6.509-14.975,7.668a54.075,54.075,0,0,1-52.463-19.29Z" transform="translate(-507.504 -261.978)" fill="#f7a145"/>
            <path id="Trazado_1015955" data-name="Trazado 1015955" d="M510.61,271.862a74.142,74.142,0,0,0,40.743,16.006" transform="translate(-507.845 -263.063)" fill="none" stroke="#2e2854" stroke-linecap="round" stroke-linejoin="round" stroke-miterlimit="10" stroke-width="1.5"/>
          </g>
          <g id="Grupo_1171585" data-name="Grupo 1171585" transform="translate(174.154 24.664)">
            <path id="Trazado_1015956" data-name="Trazado 1015956" d="M427.135,147.407c13.337-8.777,21.7-23.146,30.15-36.694,3.489-5.6,7.224-11.3,12.706-14.963s13.189-4.81,18.575-1a15.764,15.764,0,0,1,6.033,10.491,31.921,31.921,0,0,1-.893,12.318c-5.687,23.9-25.658,43.812-49.578,49.426Z" transform="translate(-423.953 -84.599)" fill="#2e2854" opacity="0.15"/>
            <path id="Trazado_1015957" data-name="Trazado 1015957" d="M423.561,140.7c12.987-9.286,20.79-23.968,28.708-37.833,3.27-5.728,6.782-11.567,12.117-15.444s12.993-5.317,18.522-1.723a15.763,15.763,0,0,1,6.435,10.249,31.911,31.911,0,0,1-.416,12.344C484.169,132.4,464.984,153.068,441.3,159.6Z" transform="translate(-423.561 -83.639)" fill="#49ad9f"/>
            <path id="Trazado_1015958" data-name="Trazado 1015958" d="M466.7,121.2a126.058,126.058,0,0,1-38.425,36.3" transform="translate(-424.079 -87.761)" fill="none" stroke="#2e2854" stroke-linecap="round" stroke-linejoin="round" stroke-miterlimit="10" stroke-width="1.5"/>
          </g>
          <g id="Grupo_1171586" data-name="Grupo 1171586" transform="translate(168.16)">
            <path id="Trazado_1015959" data-name="Trazado 1015959" d="M422.692,130.334A46.483,46.483,0,0,1,432.8,83.141c3.654-3.761,7.929-6.861,11.751-10.452a39.932,39.932,0,0,0,9.9-14.042c3.721,10.074,6.332,20.705,6.108,31.444s-3.46,21.632-10.367,29.857S432.458,133.375,422.692,130.334Z" transform="translate(-417.186 -56.233)" fill="#2e2854" opacity="0.15"/>
            <path id="Trazado_1015960" data-name="Trazado 1015960" d="M420.353,129.3a46.484,46.484,0,0,1,7.439-47.687c3.437-3.961,7.531-7.3,11.144-11.1a39.926,39.926,0,0,0,9.089-14.577c4.282,9.849,7.486,20.316,7.868,31.05s-2.237,21.793-8.67,30.393S430.275,131.782,420.353,129.3Z" transform="translate(-416.829 -55.935)" fill="#f7a145"/>
            <path id="Trazado_1015961" data-name="Trazado 1015961" d="M442.735,88.918a85.09,85.09,0,0,1-23.168,47.4" transform="translate(-417.129 -59.555)" fill="none" stroke="#2e2854" stroke-linecap="round" stroke-linejoin="round" stroke-miterlimit="10" stroke-width="1.5"/>
          </g>
        </g>
        <g id="Grupo_1171609" data-name="Grupo 1171609" transform="translate(199.044 63.254)">
          <g id="Grupo_1171588" data-name="Grupo 1171588" transform="translate(38.15 223.693)">
            <path id="Trazado_1015962" data-name="Trazado 1015962" d="M446.174,369.535l-1.345,60.329a12.292,12.292,0,0,1-12.12,12.014c-36.005.491-71.388-.34-106.709-1.3a12.293,12.293,0,0,1-11.947-11.929c-.588-19.993-.709-39.771-.748-59.586a12.3,12.3,0,0,1,11.863-12.308c36.037-1.288,72.209-1.251,109.207.227A12.291,12.291,0,0,1,446.174,369.535Z" transform="translate(-308.069 -348.835)" fill="#2e2854" opacity="0.15"/>
            <path id="Trazado_1015963" data-name="Trazado 1015963" d="M440.293,361.678l-1.345,60.329a12.292,12.292,0,0,1-12.12,12.014c-36.005.491-71.388-.34-106.709-1.3a12.293,12.293,0,0,1-11.947-11.929c-.588-19.993-.709-39.771-.748-59.586A12.3,12.3,0,0,1,319.288,348.9c36.037-1.288,72.209-1.251,109.207.227A12.293,12.293,0,0,1,440.293,361.678Z" transform="translate(-307.424 -347.973)" fill="#fff"/>
            <path id="Trazado_1015964" data-name="Trazado 1015964" d="M440.293,361.678l-1.345,60.329a12.292,12.292,0,0,1-12.12,12.014c-36.005.491-71.388-.34-106.709-1.3a12.293,12.293,0,0,1-11.947-11.929c-.588-19.993-.709-39.771-.748-59.586A12.3,12.3,0,0,1,319.288,348.9c36.037-1.288,72.209-1.251,109.207.227A12.293,12.293,0,0,1,440.293,361.678Z" transform="translate(-307.424 -347.973)" fill="none" stroke="#2e2854" stroke-linecap="round" stroke-linejoin="round" stroke-miterlimit="10" stroke-width="1.5"/>
            <rect id="Rectángulo_414337" data-name="Rectángulo 414337" width="81.73" height="4.673" transform="translate(20.262 43.381)" fill="#49ad9f"/>
            <line id="Línea_966" data-name="Línea 966" x2="51.41" transform="translate(20.262 34.501)" fill="none" stroke="#2e2854" stroke-linecap="round" stroke-linejoin="round" stroke-miterlimit="10" stroke-width="1.5"/>
            <line id="Línea_967" data-name="Línea 967" x2="96.558" transform="translate(20.262 23.827)" fill="none" stroke="#2e2854" stroke-linecap="round" stroke-linejoin="round" stroke-miterlimit="10" stroke-width="1.5"/>
            <line id="Línea_968" data-name="Línea 968" x2="23.131" transform="translate(20.262 69.674)" fill="none" stroke="#2e2854" stroke-linecap="round" stroke-linejoin="round" stroke-miterlimit="10" stroke-width="1.5"/>
            <line id="Línea_969" data-name="Línea 969" x2="52.431" transform="translate(49.561 69.674)" fill="none" stroke="#2e2854" stroke-linecap="round" stroke-linejoin="round" stroke-miterlimit="10" stroke-width="1.5"/>
            <line id="Línea_970" data-name="Línea 970" x2="96.558" transform="translate(20.262 58.999)" fill="none" stroke="#2e2854" stroke-linecap="round" stroke-linejoin="round" stroke-miterlimit="10" stroke-width="1.5"/>
          </g>
          <g id="Grupo_1171594" data-name="Grupo 1171594" transform="translate(145.17 50.024)">
            <path id="Trazado_1015965" data-name="Trazado 1015965" d="M448.572,292.985q38.153-.769,76.265-2.861a10.9,10.9,0,0,0,10.266-10.4c1.683-36.9,1.505-72.937-.092-108.832A10.9,10.9,0,0,0,524.986,160.5a614.4,614.4,0,0,0-77.711-1.037,10.884,10.884,0,0,0-10.342,10.971c.314,36.814.6,73.716.559,111.647A10.884,10.884,0,0,0,448.572,292.985Z" transform="translate(-428.658 -153.531)" fill="#2e2854" opacity="0.15"/>
            <path id="Trazado_1015966" data-name="Trazado 1015966" d="M439.277,287.183q38.153-.769,76.265-2.861a10.9,10.9,0,0,0,10.266-10.4c1.683-36.9,1.505-72.937-.092-108.833a10.9,10.9,0,0,0-10.026-10.392,614.386,614.386,0,0,0-77.711-1.037,10.884,10.884,0,0,0-10.342,10.971c.314,36.814.6,73.716.559,111.648A10.883,10.883,0,0,0,439.277,287.183Z" transform="translate(-427.638 -152.894)" fill="#fff"/>
            <path id="Trazado_1015967" data-name="Trazado 1015967" d="M526.014,174.832h-98.3q.088,10.459.168,20.94h98.794Q526.434,185.286,526.014,174.832Z" transform="translate(-427.646 -155.302)" fill="#d24d84"/>
            <path id="Trazado_1015968" data-name="Trazado 1015968" d="M439.277,287.183q38.153-.769,76.265-2.861a10.9,10.9,0,0,0,10.266-10.4c1.683-36.9,1.505-72.937-.092-108.833a10.9,10.9,0,0,0-10.026-10.392,614.386,614.386,0,0,0-77.711-1.037,10.884,10.884,0,0,0-10.342,10.971c.314,36.814.6,73.716.559,111.648A10.883,10.883,0,0,0,439.277,287.183Z" transform="translate(-427.638 -152.894)" fill="none" stroke="#2e2854" stroke-linecap="round" stroke-linejoin="round" stroke-miterlimit="10" stroke-width="1.5"/>
            <g id="Grupo_1171589" data-name="Grupo 1171589" transform="translate(24.911 23.914)">
              <path id="Trazado_1015969" data-name="Trazado 1015969" d="M455.619,180.061h4v11.856h-4Z" transform="translate(-455.619 -179.789)" fill="#2e2854"/>
              <path id="Trazado_1015970" data-name="Trazado 1015970" d="M476.813,180.061v11.856h-3.286l-4.5-5.385v5.385h-3.9V180.061h3.286l4.5,5.386v-5.386Z" transform="translate(-456.663 -179.789)" fill="#2e2854"/>
              <path id="Trazado_1015971" data-name="Trazado 1015971" d="M487.267,183.075v2.032h4.945v3.014h-4.945v3.793h-4V180.06h9.636v3.014h-5.64Z" transform="translate(-458.654 -179.789)" fill="#2e2854"/>
              <path id="Trazado_1015972" data-name="Trazado 1015972" d="M497.742,185.955c0-3.59,2.828-6.2,6.688-6.2s6.689,2.608,6.689,6.2-2.828,6.2-6.689,6.2S497.742,189.545,497.742,185.955Zm9.348,0a2.674,2.674,0,1,0-2.659,2.964A2.7,2.7,0,0,0,507.09,185.955Z" transform="translate(-460.242 -179.756)" fill="#2e2854"/>
            </g>
            <g id="Grupo_1171590" data-name="Grupo 1171590" transform="translate(13.326 52.365)">
              <path id="Trazado_1015973" data-name="Trazado 1015973" d="M462.618,211.714a20.011,20.011,0,1,0,20.011,20.011A20.012,20.012,0,0,0,462.618,211.714Zm0,33.141a13.129,13.129,0,1,1,13.129-13.129A13.13,13.13,0,0,1,462.618,244.855Z" transform="translate(-442.606 -211.714)" fill="#49ad9f"/>
              <path id="Trazado_1015974" data-name="Trazado 1015974" d="M486.246,236.417a20.1,20.1,0,0,0,.3-3.321,19.892,19.892,0,0,0-2.105-8.895l-6.165,3.046a12.8,12.8,0,0,1,1.195,8.012Z" transform="translate(-446.52 -213.085)" fill="#2e2854"/>
              <path id="Trazado_1015975" data-name="Trazado 1015975" d="M449.489,233.572a13.1,13.1,0,0,1,.436-3.306l-6.654-1.732a19.942,19.942,0,0,0,19.346,25.049V246.7A13.129,13.129,0,0,1,449.489,233.572Z" transform="translate(-442.606 -213.56)" fill="#2e2854"/>
            </g>
            <g id="Grupo_1171591" data-name="Grupo 1171591" transform="translate(38.912 83.807)">
              <rect id="Rectángulo_414338" data-name="Rectángulo 414338" width="27.783" height="5.181" transform="translate(21.063)" fill="#2e2854"/>
              <line id="Línea_971" data-name="Línea 971" x2="22.43" transform="translate(1.069 2.591)" fill="none" stroke="#2e2854" stroke-linecap="round" stroke-linejoin="round" stroke-miterlimit="10" stroke-width="1.5"/>
              <path id="Trazado_1015976" data-name="Trazado 1015976" d="M473.484,249.811a1.069,1.069,0,1,0-1.069,1.069A1.069,1.069,0,0,0,473.484,249.811Z" transform="translate(-471.346 -247.221)" fill="none" stroke="#2e2854" stroke-linecap="round" stroke-linejoin="round" stroke-miterlimit="10" stroke-width="1.5"/>
            </g>
            <g id="Grupo_1171592" data-name="Grupo 1171592" transform="translate(49.258 69.026)">
              <rect id="Rectángulo_414339" data-name="Rectángulo 414339" width="27.783" height="5.181" transform="translate(10.717)" fill="#2e2854"/>
              <line id="Línea_972" data-name="Línea 972" x2="12.083" transform="translate(1.069 2.591)" fill="none" stroke="#2e2854" stroke-linecap="round" stroke-linejoin="round" stroke-miterlimit="10" stroke-width="1.5"/>
              <path id="Trazado_1015977" data-name="Trazado 1015977" d="M485.106,233.208a1.069,1.069,0,1,0-1.069,1.069A1.069,1.069,0,0,0,485.106,233.208Z" transform="translate(-482.968 -230.618)" fill="none" stroke="#2e2854" stroke-linecap="round" stroke-linejoin="round" stroke-miterlimit="10" stroke-width="1.5"/>
            </g>
            <g id="Grupo_1171593" data-name="Grupo 1171593" transform="translate(37.972 54.246)">
              <rect id="Rectángulo_414340" data-name="Rectángulo 414340" width="27.783" height="5.181" transform="translate(22.003)" fill="#2e2854"/>
              <line id="Línea_973" data-name="Línea 973" x2="23.37" transform="translate(1.069 2.591)" fill="none" stroke="#2e2854" stroke-linecap="round" stroke-linejoin="round" stroke-miterlimit="10" stroke-width="1.5"/>
              <path id="Trazado_1015978" data-name="Trazado 1015978" d="M472.428,216.605a1.069,1.069,0,1,0-1.069,1.069A1.07,1.07,0,0,0,472.428,216.605Z" transform="translate(-470.29 -214.015)" fill="none" stroke="#2e2854" stroke-linecap="round" stroke-linejoin="round" stroke-miterlimit="10" stroke-width="1.5"/>
            </g>
            <line id="Línea_974" data-name="Línea 974" x2="71.834" transform="translate(14.823 103.293)" fill="none" stroke="#2e2854" stroke-linecap="round" stroke-linejoin="round" stroke-miterlimit="10" stroke-width="1.5"/>
            <line id="Línea_975" data-name="Línea 975" x2="71.834" transform="translate(14.823 110.647)" fill="none" stroke="#2e2854" stroke-linecap="round" stroke-linejoin="round" stroke-miterlimit="10" stroke-width="1.5"/>
            <line id="Línea_976" data-name="Línea 976" x2="42.42" transform="translate(14.823 118.001)" fill="none" stroke="#2e2854" stroke-linecap="round" stroke-linejoin="round" stroke-miterlimit="10" stroke-width="1.5"/>
          </g>
          <g id="Grupo_1171607" data-name="Grupo 1171607" transform="translate(0)">
            <path id="Trazado_1015979" data-name="Trazado 1015979" d="M291.955,344.081c41.7.006,86.637-2.557,128.414-6.67a11.838,11.838,0,0,0,10.648-11.1c4.23-72.2.8-143.163-4.672-212.8a11.815,11.815,0,0,0-10.422-10.817,493.968,493.968,0,0,0-130.792,2.2,11.836,11.836,0,0,0-10.023,11.3c-2.535,70.748-1.619,144.8,5.083,217.126A11.835,11.835,0,0,0,291.955,344.081Z" transform="translate(-265.585 -96.997)" fill="#2e2854" opacity="0.15"/>
            <path id="Trazado_1015980" data-name="Trazado 1015980" d="M282.718,341.405c41.7.006,86.637-2.556,128.414-6.67a11.838,11.838,0,0,0,10.648-11.1c4.23-72.2.8-143.162-4.672-212.8a11.815,11.815,0,0,0-10.422-10.817,493.968,493.968,0,0,0-130.792,2.2,11.835,11.835,0,0,0-10.023,11.3c-2.535,70.748-1.619,144.8,5.083,217.126A11.835,11.835,0,0,0,282.718,341.405Z" transform="translate(-264.571 -96.704)" fill="#fff"/>
            <path id="Trazado_1015981" data-name="Trazado 1015981" d="M264.674,170.173h156.24q-1.079-18.958-2.466-37.79H265.4Q264.866,151.157,264.674,170.173Z" transform="translate(-264.583 -100.62)" fill="#d24d84"/>
            <path id="Trazado_1015982" data-name="Trazado 1015982" d="M282.718,341.405c41.7.006,86.637-2.556,128.414-6.67a11.838,11.838,0,0,0,10.648-11.1c4.23-72.2.8-143.162-4.672-212.8a11.815,11.815,0,0,0-10.422-10.817,493.968,493.968,0,0,0-130.792,2.2,11.835,11.835,0,0,0-10.023,11.3c-2.535,70.748-1.619,144.8,5.083,217.126A11.835,11.835,0,0,0,282.718,341.405Z" transform="translate(-264.571 -96.704)" fill="none" stroke="#2e2854" stroke-linecap="round" stroke-linejoin="round" stroke-miterlimit="10" stroke-width="1.5"/>
            <g id="Grupo_1171595" data-name="Grupo 1171595" transform="translate(16.247 41.491)">
              <path id="Trazado_1015983" data-name="Trazado 1015983" d="M282.822,154.339c-.075-5.685,4.235-9.733,10.183-9.811a10,10,0,0,1,8.349,3.59l-3.891,3.567a5,5,0,0,0-4.075-2.114c-2.591.034-4.311,1.854-4.274,4.685s1.806,4.6,4.4,4.569a5.005,5.005,0,0,0,4.017-2.221l3.985,3.463a10,10,0,0,1-8.252,3.812C287.311,163.958,282.9,160.022,282.822,154.339Z" transform="translate(-282.821 -143.444)" fill="#2e2854"/>
              <path id="Trazado_1015984" data-name="Trazado 1015984" d="M318.191,158.528l-1.692.022.061,4.652-6.239.082-.244-18.506,8.91-.118c5.155-.068,8.468,2.586,8.525,6.867a6.2,6.2,0,0,1-3.412,5.862l3.961,5.659-6.661.088Zm.462-9.051-2.273.03.057,4.336,2.273-.03c1.719-.022,2.527-.851,2.51-2.2S320.372,149.455,318.653,149.477Z" transform="translate(-285.812 -143.458)" fill="#2e2854"/>
              <path id="Trazado_1015985" data-name="Trazado 1015985" d="M352.237,158.015l.062,4.706-15.385.2-.244-18.506,15.042-.2.062,4.706-8.909.118.029,2.168,7.824-.1.06,4.495-7.824.1.032,2.432Z" transform="translate(-288.731 -143.41)" fill="#2e2854"/>
              <path id="Trazado_1015986" data-name="Trazado 1015986" d="M361.121,144.105l9.121-.12c6.186-.082,10.488,3.379,10.564,9.116s-4.133,9.308-10.32,9.389l-9.121.12Zm9.035,13.524a4.389,4.389,0,1,0-.116-8.776l-2.616.035.116,8.776Z" transform="translate(-291.414 -143.384)" fill="#2e2854"/>
              <path id="Trazado_1015987" data-name="Trazado 1015987" d="M390.119,143.728l6.239-.082.244,18.506-6.239.082Z" transform="translate(-294.597 -143.347)" fill="#2e2854"/>
              <path id="Trazado_1015988" data-name="Trazado 1015988" d="M408.883,148.3l-5.42.071-.064-4.839,17.079-.225.064,4.839-5.42.071.18,13.666-6.238.082Z" transform="translate(-296.054 -143.31)" fill="#2e2854"/>
            </g>
            <g id="Grupo_1171597" data-name="Grupo 1171597" transform="translate(15.817 78.838)">
              <g id="Grupo_1171596" data-name="Grupo 1171596" transform="translate(8.221)">
                <rect id="Rectángulo_414341" data-name="Rectángulo 414341" width="5.651" height="20.526" transform="translate(0)" fill="#d24d84"/>
                <rect id="Rectángulo_414342" data-name="Rectángulo 414342" width="5.651" height="14.328" transform="translate(11.478 6.198)" fill="#2e2854"/>
                <rect id="Rectángulo_414343" data-name="Rectángulo 414343" width="5.651" height="8.87" transform="translate(22.957 11.656)" fill="#49ad9f"/>
                <rect id="Rectángulo_414344" data-name="Rectángulo 414344" width="5.651" height="14.328" transform="translate(34.436 6.198)" fill="#2e2854"/>
                <rect id="Rectángulo_414345" data-name="Rectángulo 414345" width="5.651" height="17.526" transform="translate(45.915 2.999)" fill="#f7a145"/>
                <rect id="Rectángulo_414346" data-name="Rectángulo 414346" width="5.651" height="8.763" transform="translate(57.393 11.763)" fill="#f7a145"/>
                <rect id="Rectángulo_414347" data-name="Rectángulo 414347" width="5.651" height="16.441" transform="translate(68.872 4.084)" fill="#d24d84"/>
                <rect id="Rectángulo_414348" data-name="Rectángulo 414348" width="5.651" height="5.651" transform="translate(80.351 14.874)" fill="#d24d84"/>
                <rect id="Rectángulo_414349" data-name="Rectángulo 414349" width="5.651" height="14.328" transform="translate(91.83 6.198)" fill="#2e2854"/>
                <rect id="Rectángulo_414350" data-name="Rectángulo 414350" width="5.651" height="17.1" transform="translate(103.308 3.426)" fill="#49ad9f"/>
              </g>
              <line id="Línea_977" data-name="Línea 977" x2="127.114" transform="translate(0 20.526)" fill="none" stroke="#2e2854" stroke-linecap="round" stroke-linejoin="round" stroke-miterlimit="10" stroke-width="1.5"/>
            </g>
            <g id="Grupo_1171600" data-name="Grupo 1171600" transform="translate(18.154 116.55)">
              <g id="Grupo_1171598" data-name="Grupo 1171598" transform="translate(0)">
                <path id="Trazado_1015989" data-name="Trazado 1015989" d="M298.235,231.545a59.282,59.282,0,0,0-13.242.041,115.413,115.413,0,0,0,.489,12.794c4.342-.147,8.684-.294,13.131-.426C298.442,240.064,298.272,236.172,298.235,231.545Z" transform="translate(-284.963 -228.014)" fill="none" stroke="#2e2854" stroke-linecap="round" stroke-linejoin="round" stroke-miterlimit="10" stroke-width="1.5"/>
                <path id="Trazado_1015990" data-name="Trazado 1015990" d="M285.244,230.575a39.841,39.841,0,0,1,6.2,8.747q1.293-5.852,2.584-11.7" transform="translate(-284.994 -227.622)" fill="none" stroke="#d14b56" stroke-linecap="round" stroke-linejoin="round" stroke-miterlimit="10" stroke-width="1.5"/>
              </g>
              <g id="Grupo_1171599" data-name="Grupo 1171599" transform="translate(25.435 3.181)">
                <line id="Línea_978" data-name="Línea 978" x2="86.583" fill="none" stroke="#2e2854" stroke-linecap="round" stroke-linejoin="round" stroke-miterlimit="10" stroke-width="1.5"/>
                <line id="Línea_979" data-name="Línea 979" x2="86.583" transform="translate(0 8.519)" fill="none" stroke="#2e2854" stroke-linecap="round" stroke-linejoin="round" stroke-miterlimit="10" stroke-width="1.5"/>
                <line id="Línea_980" data-name="Línea 980" x2="31.024" transform="translate(0 17.038)" fill="none" stroke="#2e2854" stroke-linecap="round" stroke-linejoin="round" stroke-miterlimit="10" stroke-width="1.5"/>
              </g>
            </g>
            <g id="Grupo_1171603" data-name="Grupo 1171603" transform="translate(18.154 150.897)">
              <g id="Grupo_1171601" data-name="Grupo 1171601" transform="translate(0)">
                <path id="Trazado_1015991" data-name="Trazado 1015991" d="M298.235,270.127a59.278,59.278,0,0,0-13.242.041,115.414,115.414,0,0,0,.489,12.794c4.342-.147,8.684-.294,13.131-.426C298.442,278.645,298.272,274.754,298.235,270.127Z" transform="translate(-284.963 -266.595)" fill="none" stroke="#2e2854" stroke-linecap="round" stroke-linejoin="round" stroke-miterlimit="10" stroke-width="1.5"/>
                <path id="Trazado_1015992" data-name="Trazado 1015992" d="M285.244,269.156a39.841,39.841,0,0,1,6.2,8.747q1.293-5.852,2.584-11.7" transform="translate(-284.994 -266.203)" fill="none" stroke="#d14b56" stroke-linecap="round" stroke-linejoin="round" stroke-miterlimit="10" stroke-width="1.5"/>
              </g>
              <g id="Grupo_1171602" data-name="Grupo 1171602" transform="translate(25.435 3.181)">
                <line id="Línea_981" data-name="Línea 981" x2="86.583" fill="none" stroke="#2e2854" stroke-linecap="round" stroke-linejoin="round" stroke-miterlimit="10" stroke-width="1.5"/>
                <line id="Línea_982" data-name="Línea 982" x2="86.583" transform="translate(0 8.519)" fill="none" stroke="#2e2854" stroke-linecap="round" stroke-linejoin="round" stroke-miterlimit="10" stroke-width="1.5"/>
                <line id="Línea_983" data-name="Línea 983" x2="43.494" transform="translate(0 17.038)" fill="none" stroke="#2e2854" stroke-linecap="round" stroke-linejoin="round" stroke-miterlimit="10" stroke-width="1.5"/>
              </g>
            </g>
            <g id="Grupo_1171606" data-name="Grupo 1171606" transform="translate(18.154 185.244)">
              <g id="Grupo_1171604" data-name="Grupo 1171604" transform="translate(0)">
                <path id="Trazado_1015993" data-name="Trazado 1015993" d="M298.235,308.708a59.275,59.275,0,0,0-13.242.041,115.413,115.413,0,0,0,.489,12.794c4.342-.147,8.684-.294,13.131-.426C298.442,317.226,298.272,313.335,298.235,308.708Z" transform="translate(-284.963 -305.176)" fill="none" stroke="#2e2854" stroke-linecap="round" stroke-linejoin="round" stroke-miterlimit="10" stroke-width="1.5"/>
                <path id="Trazado_1015994" data-name="Trazado 1015994" d="M285.244,307.737a39.84,39.84,0,0,1,6.2,8.747q1.293-5.852,2.584-11.7" transform="translate(-284.994 -304.784)" fill="none" stroke="#d14b56" stroke-linecap="round" stroke-linejoin="round" stroke-miterlimit="10" stroke-width="1.5"/>
              </g>
              <g id="Grupo_1171605" data-name="Grupo 1171605" transform="translate(25.435 3.181)">
                <line id="Línea_984" data-name="Línea 984" x2="86.583" fill="none" stroke="#2e2854" stroke-linecap="round" stroke-linejoin="round" stroke-miterlimit="10" stroke-width="1.5"/>
                <line id="Línea_985" data-name="Línea 985" x2="86.583" transform="translate(0 8.519)" fill="none" stroke="#2e2854" stroke-linecap="round" stroke-linejoin="round" stroke-miterlimit="10" stroke-width="1.5"/>
                <line id="Línea_986" data-name="Línea 986" x2="31.024" transform="translate(0 17.039)" fill="none" stroke="#2e2854" stroke-linecap="round" stroke-linejoin="round" stroke-miterlimit="10" stroke-width="1.5"/>
              </g>
            </g>
          </g>
          <g id="CALCULATOR" transform="translate(145.089 199.533)">
            <path id="Trazado_1015995" data-name="Trazado 1015995" d="M483.395,325.12l-44.85-.409-4.163,3.9a6.313,6.313,0,0,0-1.966,4.436l-1.48,65.751c-.1,4.422,2.489,8.074,6.912,8.125l39.273.458c2.372.028,4.327-.977,6.449-2.4l5.4-3.825.961-69.355A6.592,6.592,0,0,0,483.395,325.12Z" transform="translate(-427.918 -321.26)" fill="#2e2854" opacity="0.15"/>
            <path id="Trazado_1015996" data-name="Trazado 1015996" d="M435.887,320.834l-1.7,70.572a4.922,4.922,0,0,0,4.834,5.04l47.288.835.961-69.355a6.593,6.593,0,0,0-6.533-6.684Z" transform="translate(-428.276 -320.834)" fill="#d24d84"/>
            <path id="Trazado_1015997" data-name="Trazado 1015997" d="M435.159,320.834l-4.163,3.9a6.31,6.31,0,0,0-1.966,4.436l-1.481,65.751c-.1,4.422,2.489,8.074,6.912,8.125l39.273.457c2.373.028,4.328-.978,6.449-2.4l5.4-3.826-47.288-.835a4.922,4.922,0,0,1-4.834-5.04Z" transform="translate(-427.547 -320.834)" fill="#ad3b6a"/>
            <path id="Trazado_1015998" data-name="Trazado 1015998" d="M443.073,330.54l.176,11.563,38.521.4.023-12.766Z" transform="translate(-429.251 -321.811)" fill="#49ad9f"/>
            <path id="Trazado_1015999" data-name="Trazado 1015999" d="M443.12,333.667l35.987-1.338.228,10.152,2.436.026.023-12.766-38.721.8Z" transform="translate(-429.251 -321.811)" fill="#2e2854" opacity="0.15"/>
            <g id="Grupo_1171608" data-name="Grupo 1171608" transform="translate(13.738 29.806)">
              <path id="Trazado_1016000" data-name="Trazado 1016000" d="M445.1,354.708l7.6,0-.342,9-7.53.02Z" transform="translate(-443.182 -354.357)" fill="#fff" stroke="#2e2854" stroke-linecap="round" stroke-linejoin="round" stroke-miterlimit="10" stroke-width="1.5"/>
              <path id="Trazado_1016001" data-name="Trazado 1016001" d="M459.508,354.576l8.3-.091-.26,8.725-8.283.022Z" transform="translate(-444.767 -354.333)" fill="#fff" stroke="#2e2854" stroke-linecap="round" stroke-linejoin="round" stroke-miterlimit="10" stroke-width="1.5"/>
              <path id="Trazado_1016002" data-name="Trazado 1016002" d="M473.994,354.544l.107,8.759,8.311.136-.073-9.125Z" transform="translate(-446.383 -354.314)" fill="#fff" stroke="#2e2854" stroke-linecap="round" stroke-linejoin="round" stroke-miterlimit="10" stroke-width="1.5"/>
              <path id="Trazado_1016003" data-name="Trazado 1016003" d="M444.033,371.875l-.26,8.725,7.565.366.361-9.824Z" transform="translate(-443.066 -356.161)" fill="#fff" stroke="#2e2854" stroke-linecap="round" stroke-linejoin="round" stroke-miterlimit="10" stroke-width="1.5"/>
              <path id="Trazado_1016004" data-name="Trazado 1016004" d="M458.378,371.491l8.3.434-.368,9.6s-7.9-.241-8.091-.372S458.378,371.491,458.378,371.491Z" transform="translate(-444.645 -356.199)" fill="#fff" stroke="#2e2854" stroke-linecap="round" stroke-linejoin="round" stroke-miterlimit="10" stroke-width="1.5"/>
              <path id="Trazado_1016005" data-name="Trazado 1016005" d="M473.651,371.245l.045,8.967,8.027-.174-.393-9.822Z" transform="translate(-446.345 -356.059)" fill="#fff" stroke="#2e2854" stroke-linecap="round" stroke-linejoin="round" stroke-miterlimit="10" stroke-width="1.5"/>
              <path id="Trazado_1016006" data-name="Trazado 1016006" d="M443.4,388.215l-.418,8.754,7.986-.036-.232-9.1Z" transform="translate(-442.979 -357.993)" fill="#fff" stroke="#2e2854" stroke-linecap="round" stroke-linejoin="round" stroke-miterlimit="10" stroke-width="1.5"/>
              <path id="Trazado_1016007" data-name="Trazado 1016007" d="M457.817,387.121l.219,9.394,8.434-.278-.335-8.752Z" transform="translate(-444.608 -357.915)" fill="#fff" stroke="#2e2854" stroke-linecap="round" stroke-linejoin="round" stroke-miterlimit="10" stroke-width="1.5"/>
              <path id="Trazado_1016008" data-name="Trazado 1016008" d="M474.135,386.8l.232,9.1,7.9.013-.28-9.187Z" transform="translate(-446.398 -357.871)" fill="#fff" stroke="#2e2854" stroke-linecap="round" stroke-linejoin="round" stroke-miterlimit="10" stroke-width="1.5"/>
            </g>
            <path id="Trazado_1016009" data-name="Trazado 1016009" d="M443.073,330.54l.176,11.563,38.521.4.023-12.766Z" transform="translate(-429.251 -321.811)" fill="none" stroke="#2e2854" stroke-linecap="round" stroke-linejoin="round" stroke-miterlimit="10" stroke-width="1.5"/>
            <path id="Trazado_1016010" data-name="Trazado 1016010" d="M435.887,320.834l-1.7,70.572a4.922,4.922,0,0,0,4.834,5.04l47.288.835.961-69.355a6.593,6.593,0,0,0-6.533-6.684Z" transform="translate(-428.276 -320.834)" fill="none" stroke="#2e2854" stroke-linecap="round" stroke-linejoin="round" stroke-miterlimit="10" stroke-width="1.5"/>
          </g>
        </g>
        <g id="Grupo_1171641" data-name="Grupo 1171641">
          <g id="Grupo_1171640" data-name="Grupo 1171640" clip-path="url(#clip-path-2)">
            <path id="Trazado_1016011" data-name="Trazado 1016011" d="M388.414,270.3a1.745,1.745,0,0,0-1.712-.377,5.014,5.014,0,0,0-1.6.886c-2.924,2.132-6.014,4.556-8.756,6.919a146.7,146.7,0,0,0,11.188-17.563c.515-1,.96-2.355.141-3.122a1.806,1.806,0,0,0-2.012-.147,5.3,5.3,0,0,0-1.577,1.438c-3.769,4.514-8.05,9.266-11.82,13.78,3.4-6.649,7.013-12.79,9.622-18.9a6.058,6.058,0,0,0,.649-2.436,2.141,2.141,0,0,0-1.261-2.023c-1.317-.461-2.519.879-3.277,2.052-3.453,5.345-7.169,11.135-10.623,16.48,2.134-6.6,4.7-13.276,6.668-19.619.306-.987.549-2.211-.195-2.929a1.951,1.951,0,0,0-2.423.023,5.682,5.682,0,0,0-1.545,2.1q-5.626,10.814-11.251,21.626a100.006,100.006,0,0,0-.15-11.565c-.047-1.1-.27-2.393-1.262-2.862a2.159,2.159,0,0,0-2.315.534,6.26,6.26,0,0,0-1.293,2.148q-4.116,9.6-7.566,19.458c-3.956,6.463-8.331,12.909-13.048,19.207-3.5,4.679-7.2,9.276-11.046,13.739-4.613,5.346-9.827,10.731-16.645,12.562-8.329,2.235-17.407-1.531-23.461-7.675s-9.564-14.323-12.3-22.5-4.849-16.624-8.727-24.327a58.913,58.913,0,0,0-23.029-24.335q-2.06-1.19-4.215-2.206a57.455,57.455,0,0,0-7-2.744,59.206,59.206,0,0,0-23.057-2.569q-.039-7.682-.078-15.365a33.586,33.586,0,0,0,13.331-4.332,30.507,30.507,0,0,0,10.724-11.55,10.859,10.859,0,0,0,10.679-1.6,15.555,15.555,0,0,0,5.523-10.517,13.536,13.536,0,0,0-.8-6.946,8.375,8.375,0,0,0-4.4-4.482,21.085,21.085,0,0,0-1.959-11.516,33.974,33.974,0,0,0-8.731-27.069,38.733,38.733,0,0,0-25.424-12,45.353,45.353,0,0,0-27.386,7.131,47.424,47.424,0,0,0-7.435,5.833c-.507-.652-1.024-1.3-1.559-1.924a4.088,4.088,0,0,0-3.37-1.418c-1.446-9.247-10.286-16.62-19.722-17.942-10.207-1.43-20.508,2.954-28.578,9.364A61.787,61.787,0,0,0,91.722,184.72c.62,6.007,2.133,11.893,2.754,17.9s.276,12.338-2.588,17.654c-2.742,5.093-7.548,8.814-10.43,13.83-5.786,10.071-2,24.043,7.259,31.054,6.058,4.587,13.866,6.286,21.454,5.479A129.919,129.919,0,0,0,87.66,305.71c-4.751,10.886-8.14,22.814-6.476,34.575,2.011,14.227,11.474,26.789,23.67,34.385a85.252,85.252,0,0,0,22.475,9.97q.208,10.866.624,21.718c3.675,6.555,11.318,9.627,18.44,12.028a363.15,363.15,0,0,0,97.786,19.008q.367-48.391.734-96.783c5.9,9.067,12.772,17.4,22.2,22.41,14.7,7.821,32.995,5.874,48.275-.744a88.473,88.473,0,0,0,41.239-36.859q-1.6-3.292-3.5-6.426A253,253,0,0,1,369.4,296.569a112.909,112.909,0,0,0,9.494-13.024,57.548,57.548,0,0,0,9.081-10.161C388.608,272.453,389.186,271.12,388.414,270.3Zm-246.97-24.049a53.27,53.27,0,0,0,2.067-5.015c3.849-10.957,4.3-22.862,3.154-34.42-.009-.089-.021-.177-.031-.266a14.832,14.832,0,0,0,4.532.709,16.162,16.162,0,0,0,12.139-5.877,31.924,31.924,0,0,0,12.047,14.056A33.941,33.941,0,0,0,188.1,219.82q-.43,7.959-.859,15.919a86.454,86.454,0,0,0-24.413,2.445,94.027,94.027,0,0,0-10.461,3.219A99.379,99.379,0,0,0,141.444,246.249Zm-2.187-86.732c.421-4.357,2.248-8.766,5.767-11.369a10.344,10.344,0,0,1,9.552-1.444,4.11,4.11,0,0,0,1.111,3.462,35.464,35.464,0,0,0,3.727,3.335c-.446.813-.871,1.638-1.261,2.48A38.865,38.865,0,0,0,154.9,178.02a18.877,18.877,0,0,0-4.714-.226,16.58,16.58,0,0,0-7.99,2.813c-.563-2.69-1.129-5.379-1.674-8.071C139.655,168.246,138.837,163.873,139.257,159.517Z" transform="translate(-45.129 -36.158)" fill="#2e2854" opacity="0.15"/>
            <g id="Grupo_1171639" data-name="Grupo 1171639" transform="translate(25.232 84.715)">
              <g id="Grupo_1171621" data-name="Grupo 1171621" transform="translate(0)">
                <g id="Grupo_1171610" data-name="Grupo 1171610" transform="translate(108.154 89.821)">
                  <path id="Trazado_1016012" data-name="Trazado 1016012" d="M191.413,222.029q-.3,12.63-.594,25.263s16.478.437,16.455.371q-.461-12.979-.922-25.957Z" transform="translate(-190.819 -221.705)" fill="#ff98aa"/>
                  <path id="Trazado_1016013" data-name="Trazado 1016013" d="M206.785,232.781q-.2-5.538-.393-11.076l-14.939.324-.272,11.607A36.611,36.611,0,0,0,206.785,232.781Z" transform="translate(-190.859 -221.705)" fill="#ff8095"/>
                </g>
                <g id="Grupo_1171611" data-name="Grupo 1171611" transform="translate(0)">
                  <path id="Trazado_1016014" data-name="Trazado 1016014" d="M150.3,140.607c-.518-10.294-10.291-18.511-20.537-19.63s-20.408,3.576-28.28,10.229a61.782,61.782,0,0,0-20.96,54.368c.8,5.984,2.494,11.823,3.3,17.808s.652,12.324-2.049,17.725c-2.586,5.175-7.277,9.04-10,14.141-5.477,10.242-1.269,24.092,8.2,30.818s22.821,6.625,33.064,1.151,17.465-15.662,20.979-26.732,3.6-22.982,2.105-34.5-4.532-22.768-7.183-34.076c-1-4.261-1.95-8.607-1.661-12.975s1.98-8.83,5.418-11.539,8.795-3.155,12.121-.227C145.807,145.081,147.417,143.293,150.3,140.607Z" transform="translate(-69.332 -120.812)" fill="#5767bf"/>
                  <path id="Trazado_1016015" data-name="Trazado 1016015" d="M157.962,155.655a34.379,34.379,0,0,1-5.575-4.415,4.076,4.076,0,0,1-.524-5.265,17.288,17.288,0,0,1,5.518-5.017,4.085,4.085,0,0,1,5.031.822q1.457,1.609,2.785,3.329Z" transform="translate(-78.309 -122.965)" fill="#d24d84"/>
                  <path id="Trazado_1016016" data-name="Trazado 1016016" d="M153.211,180.73a38.459,38.459,0,0,1,1.905-25.087A46.255,46.255,0,0,1,198.524,128.3,38.735,38.735,0,0,1,224.3,139.526a33.971,33.971,0,0,1,9.551,26.791c2.528,4.917,3.306,10.712,1.008,18a93.273,93.273,0,0,1-56.766,10.81C169.629,194.029,156.643,193.174,153.211,180.73Z" transform="translate(-78.397 -121.629)" fill="#5767bf"/>
                </g>
                <g id="Grupo_1171620" data-name="Grupo 1171620" transform="translate(55.73 31.464)">
                  <path id="Trazado_1016017" data-name="Trazado 1016017" d="M238.292,185.722a5.944,5.944,0,0,1,6.3-2.1,8.214,8.214,0,0,1,5.123,4.546,13.531,13.531,0,0,1,1.016,6.918,15.557,15.557,0,0,1-5.2,10.679c-3.137,2.585-7.8,3.444-11.405,1.568Z" transform="translate(-143.148 -159.146)" fill="#ff98aa"/>
                  <g id="Grupo_1171617" data-name="Grupo 1171617" transform="translate(22.992)">
                    <path id="Trazado_1016018" data-name="Trazado 1016018" d="M230.675,174.426c.767,7.784.725,15.76-1.414,23.284s-6.542,14.6-13.1,18.856c-5.955,3.862-13.232,5.167-20.324,5.368-7.261.207-14.767-.729-21.078-4.326a32.309,32.309,0,0,1-13.067-14.895,48.113,48.113,0,0,1-3.93-19.651c4.568-3.7,7.16-9.708,6.923-14.552a33.744,33.744,0,0,0,22.195,1.122c7.24-2.146,13.7-6.827,19.243-13.478C211.1,165.057,220.156,171.566,230.675,174.426Z" transform="translate(-157.758 -156.154)" fill="#ff98aa"/>
                    <g id="Grupo_1171612" data-name="Grupo 1171612" transform="translate(4.827 42.173)">
                      <path id="Trazado_1016019" data-name="Trazado 1016019" d="M235.186,205.165a11.45,11.45,0,0,0-10.458-.686,11.272,11.272,0,0,0-6.365,11.043,11,11,0,0,0,3.464,6.842c.329-.194.656-.391.978-.6C228.705,217.937,232.854,211.828,235.186,205.165Z" transform="translate(-169.231 -203.525)" fill="#ff8095"/>
                      <path id="Trazado_1016020" data-name="Trazado 1016020" d="M182.031,220.073c2.227-3.948,2.1-9.811-1.115-13.075a11.42,11.42,0,0,0-12.555-2.324,11.116,11.116,0,0,0-5.18,5.074,31.757,31.757,0,0,0,12.172,13.08c.821.467,1.662.888,2.519,1.269A10.539,10.539,0,0,0,182.031,220.073Z" transform="translate(-163.18 -203.547)" fill="#ff8095"/>
                    </g>
                    <g id="Grupo_1171616" data-name="Grupo 1171616" transform="translate(15.043 18.954)">
                      <g id="Grupo_1171613" data-name="Grupo 1171613">
                        <path id="Trazado_1016021" data-name="Trazado 1016021" d="M174.655,177.445c.812,1.811,1.626,3.622,2.66,5.673a9.448,9.448,0,0,1,12.141-.694" transform="translate(-174.655 -177.445)" fill="none" stroke="#2e2854" stroke-linecap="round" stroke-linejoin="round" stroke-miterlimit="10" stroke-width="1.5"/>
                        <path id="Trazado_1016022" data-name="Trazado 1016022" d="M181,181.258c-.215-1.091-.437-2.182-.661-3.265" transform="translate(-175.279 -177.505)" fill="none" stroke="#2e2854" stroke-linecap="round" stroke-linejoin="round" stroke-miterlimit="10" stroke-width="1.5"/>
                        <path id="Trazado_1016023" data-name="Trazado 1016023" d="M184.853,180.682c-.05-.669-.1-1.337-.149-2.015" transform="translate(-175.758 -177.579)" fill="none" stroke="#2e2854" stroke-linecap="round" stroke-linejoin="round" stroke-miterlimit="10" stroke-width="1.5"/>
                      </g>
                      <g id="Grupo_1171614" data-name="Grupo 1171614" transform="translate(39.323 0.056)">
                        <path id="Trazado_1016024" data-name="Trazado 1016024" d="M233.772,177.508c-.867,1.785-1.736,3.57-2.833,5.588a9.446,9.446,0,0,0-12.114-1.066" transform="translate(-218.826 -177.508)" fill="none" stroke="#2e2854" stroke-linecap="round" stroke-linejoin="round" stroke-miterlimit="10" stroke-width="1.5"/>
                        <path id="Trazado_1016025" data-name="Trazado 1016025" d="M229.064,181.123c.248-1.083.5-2.168.76-3.242" transform="translate(-219.95 -177.549)" fill="none" stroke="#2e2854" stroke-linecap="round" stroke-linejoin="round" stroke-miterlimit="10" stroke-width="1.5"/>
                        <path id="Trazado_1016026" data-name="Trazado 1016026" d="M225.3,180.428c.07-.667.141-1.334.211-2.009" transform="translate(-219.536 -177.608)" fill="none" stroke="#2e2854" stroke-linecap="round" stroke-linejoin="round" stroke-miterlimit="10" stroke-width="1.5"/>
                      </g>
                      <path id="Trazado_1016027" data-name="Trazado 1016027" d="M209.081,179.627a40.613,40.613,0,0,1,2.956,5.683,15.2,15.2,0,0,1-4.757,1.245" transform="translate(-178.236 -177.684)" fill="none" stroke="#2e2854" stroke-linecap="round" stroke-linejoin="round" stroke-miterlimit="10" stroke-width="1.5"/>
                      <g id="Grupo_1171615" data-name="Grupo 1171615" transform="translate(11.547 10.955)">
                        <path id="Trazado_1016028" data-name="Trazado 1016028" d="M216.966,189.75c-9.8,1.205-19.6,2.41-29.341,4.406a15.115,15.115,0,0,0,23.187,7.256A14.981,14.981,0,0,0,216.966,189.75Z" transform="translate(-187.625 -189.75)" fill="#2e2854"/>
                        <path id="Trazado_1016029" data-name="Trazado 1016029" d="M216.966,189.75c-9.8,1.205-19.6,2.41-29.341,4.406a14.735,14.735,0,0,0,1.643,3.3q13.579-2.9,27.35-4.786A12.606,12.606,0,0,0,216.966,189.75Z" transform="translate(-187.625 -189.75)" fill="#fff"/>
                        <path id="Trazado_1016030" data-name="Trazado 1016030" d="M204.724,200.137a7.778,7.778,0,0,0-6.075,4.634,15.364,15.364,0,0,0,13.263-2.152A8.556,8.556,0,0,0,204.724,200.137Z" transform="translate(-188.835 -190.881)" fill="#d14b56"/>
                      </g>
                    </g>
                  </g>
                  <g id="Grupo_1171619" data-name="Grupo 1171619" transform="translate(0 24.481)">
                    <path id="Trazado_1016031" data-name="Trazado 1016031" d="M157.2,186a20.889,20.889,0,0,0-11.578-2.235,15.993,15.993,0,0,0-10.379,5.339,14.808,14.808,0,0,0-1.734,15.985,15.467,15.467,0,0,0,13.989,8.1,16.192,16.192,0,0,0,13.609-8.866Z" transform="translate(-131.932 -183.653)" fill="#ff98aa"/>
                    <g id="Grupo_1171618" data-name="Grupo 1171618" transform="translate(7.264 10.082)">
                      <path id="Trazado_1016032" data-name="Trazado 1016032" d="M140.092,200.213a10.4,10.4,0,0,1,9.828-5.195" transform="translate(-140.092 -194.977)" fill="none" stroke="#2e2854" stroke-linecap="round" stroke-linejoin="round" stroke-miterlimit="10" stroke-width="1.5"/>
                      <path id="Trazado_1016033" data-name="Trazado 1016033" d="M144.927,196.265a10.332,10.332,0,0,0,4.543,6.441" transform="translate(-140.623 -195.119)" fill="none" stroke="#2e2854" stroke-linecap="round" stroke-linejoin="round" stroke-miterlimit="10" stroke-width="1.5"/>
                    </g>
                  </g>
                </g>
              </g>
              <g id="Grupo_1171638" data-name="Grupo 1171638" transform="translate(4.752 111.562)">
                <g id="Grupo_1171626" data-name="Grupo 1171626" transform="translate(154.209 4.224)">
                  <g id="Grupo_1171624" data-name="Grupo 1171624" transform="translate(96.758)">
                    <path id="Trazado_1016034" data-name="Trazado 1016034" d="M376.549,327.5A252.831,252.831,0,0,1,393,303.195a112.934,112.934,0,0,0,9.093-13.308,57.477,57.477,0,0,0,8.767-10.433c.607-.951,1.145-2.3.348-3.1a1.749,1.749,0,0,0-1.723-.325,5.049,5.049,0,0,0-1.574.934c-2.858,2.22-5.873,4.738-8.541,7.182a146.781,146.781,0,0,0,10.648-17.895c.484-1.013.888-2.382.045-3.125a1.805,1.805,0,0,0-2.016-.085,5.279,5.279,0,0,0-1.532,1.486c-3.63,4.627-7.764,9.507-11.4,14.134,3.2-6.75,6.621-13,9.042-19.187a6.061,6.061,0,0,0,.574-2.454,2.141,2.141,0,0,0-1.322-1.983c-1.33-.421-2.491.955-3.213,2.151-3.29,5.447-6.827,11.348-10.117,16.8,1.933-6.656,4.3-13.413,6.067-19.813.276-1,.481-2.227-.284-2.922a1.952,1.952,0,0,0-2.422.1,5.688,5.688,0,0,0-1.481,2.146l-11.953,24.789-10.98,5.261c-3.758,6.581-7.935,13.156-12.457,19.6Z" transform="translate(-356.575 -250.871)" fill="#ff98aa"/>
                    <g id="Grupo_1171622" data-name="Grupo 1171622" transform="translate(23.438)">
                      <path id="Trazado_1016035" data-name="Trazado 1016035" d="M391.275,274.714a41.785,41.785,0,0,1,12.767,13.471" transform="translate(-383.821 -253.488)" fill="none" stroke="#2e2854" stroke-linecap="round" stroke-linejoin="round" stroke-miterlimit="10" stroke-width="1.5"/>
                      <path id="Trazado_1016036" data-name="Trazado 1016036" d="M395.888,303.195a112.923,112.923,0,0,0,9.093-13.308,57.476,57.476,0,0,0,8.767-10.433c.607-.951,1.145-2.3.348-3.1a1.749,1.749,0,0,0-1.723-.325,5.048,5.048,0,0,0-1.574.934c-2.858,2.22-5.873,4.738-8.541,7.182a146.781,146.781,0,0,0,10.648-17.895c.484-1.013.888-2.382.045-3.125a1.805,1.805,0,0,0-2.016-.085,5.28,5.28,0,0,0-1.532,1.486c-3.63,4.627-7.764,9.507-11.4,14.134,3.2-6.75,6.621-13,9.042-19.187a6.06,6.06,0,0,0,.574-2.454,2.141,2.141,0,0,0-1.322-1.983c-1.33-.421-2.491.955-3.213,2.151-3.289,5.447-6.827,11.348-10.117,16.8,1.933-6.656,4.3-13.413,6.067-19.813.276-1,.481-2.227-.284-2.922a1.952,1.952,0,0,0-2.421.1,5.687,5.687,0,0,0-1.481,2.146L382.9,278.282" transform="translate(-382.902 -250.871)" fill="none" stroke="#2e2854" stroke-linecap="round" stroke-linejoin="round" stroke-miterlimit="10" stroke-width="1.5"/>
                    </g>
                    <g id="Grupo_1171623" data-name="Grupo 1171623" transform="translate(12.459 10.071)">
                      <path id="Trazado_1016037" data-name="Trazado 1016037" d="M370.57,284.786q3.146-9.955,6.971-19.679a6.244,6.244,0,0,1,1.227-2.186,2.158,2.158,0,0,1,2.3-.6c1.006.44,1.269,1.726,1.349,2.823a93.273,93.273,0,0,1,.481,12.108,12.051,12.051,0,0,1,6.638,4.86,14.225,14.225,0,0,1,2.812,8.51" transform="translate(-370.57 -262.183)" fill="#ff98aa"/>
                      <path id="Trazado_1016038" data-name="Trazado 1016038" d="M370.57,284.786q3.146-9.955,6.971-19.679a6.244,6.244,0,0,1,1.227-2.186,2.158,2.158,0,0,1,2.3-.6c1.006.44,1.269,1.726,1.349,2.823a93.273,93.273,0,0,1,.481,12.108,12.051,12.051,0,0,1,6.638,4.86,14.225,14.225,0,0,1,2.812,8.51" transform="translate(-370.57 -262.183)" fill="none" stroke="#2e2854" stroke-linecap="round" stroke-linejoin="round" stroke-miterlimit="10" stroke-width="1.5"/>
                    </g>
                  </g>
                  <g id="Grupo_1171625" data-name="Grupo 1171625" transform="translate(0 2.652)">
                    <path id="Trazado_1016039" data-name="Trazado 1016039" d="M247.889,253.85a58.914,58.914,0,0,1,23.759,23.623c4.11,7.581,6.483,15.956,9.463,24.05s6.739,16.163,12.976,22.118,15.426,9.446,23.684,6.957c6.76-2.038,11.806-7.58,16.255-13.064,3.712-4.578,7.264-9.285,10.623-14.069,9.951,8.273,18.635,18.027,24.533,29.279a88.46,88.46,0,0,1-40.1,38.1c-15.071,7.08-33.3,9.583-48.229,2.213-13.546-6.686-22.2-20.147-30.162-32.986Z" transform="translate(-247.889 -253.85)" fill="#d24d84"/>
                    <path id="Trazado_1016040" data-name="Trazado 1016040" d="M303.971,366.341c-28.455-5.453-47.605-43.343-54.339-58.864l1.251,38.478c7.961,12.838,16.616,26.3,30.162,32.986,14.931,7.37,33.158,4.867,48.229-2.213a88.087,88.087,0,0,0,25.3-18.005C340.694,364.666,322.154,369.825,303.971,366.341Z" transform="translate(-248.08 -259.736)" fill="#2e2854" opacity="0.15"/>
                    <path id="Trazado_1016041" data-name="Trazado 1016041" d="M344.994,309.583c9.951,8.273,18.635,18.027,24.533,29.279a88.461,88.461,0,0,1-40.1,38.1c-15.071,7.08-33.3,9.583-48.229,2.213-13.546-6.686-22.2-20.147-30.162-32.986" transform="translate(-248.235 -259.967)" fill="none" stroke="#2e2854" stroke-linecap="round" stroke-linejoin="round" stroke-miterlimit="10" stroke-width="1.5"/>
                  </g>
                </g>
                <g id="Grupo_1171630" data-name="Grupo 1171630" transform="translate(46.348)">
                  <path id="Trazado_1016042" data-name="Trazado 1016042" d="M243.668,306.179l-9.075-52.9q-2.1-1.127-4.28-2.077a57.224,57.224,0,0,0-7.081-2.529h0L193.28,262.405l-33.761-11.526a93.892,93.892,0,0,0-10.359,3.536l-22.393,47.272c-.182,39.53.283,79.062,3.013,118.349,3.873,6.44,11.605,9.279,18.8,11.462A363.133,363.133,0,0,0,246.9,447.523Q245.282,376.851,243.668,306.179Z" transform="translate(-126.732 -246.406)" fill="#d24d84"/>
                  <path id="Trazado_1016043" data-name="Trazado 1016043" d="M227.089,412.4v-20.14c15.027-16.179,4.579-23.385,4.579-23.385L226.4,367.5l-1.9-45.348-5.457-1.022v29.079s-53.57,18.216-68.723,4.737,0-52.715,0-52.715l-18.7-5.5-4.847,10.231c-.161,35.015.189,70.031,2.168,104.877a93.648,93.648,0,0,0,31.123-1.171v4.975A268.966,268.966,0,0,0,227.089,412.4Z" transform="translate(-126.732 -251.68)" fill="#2e2854" opacity="0.15"/>
                  <path id="Trazado_1016044" data-name="Trazado 1016044" d="M183.39,269.257a33.334,33.334,0,0,0,28.762-.546A29.508,29.508,0,0,0,227.272,248.4a58.889,58.889,0,0,0-30.839-.418A85.206,85.206,0,0,0,163.56,250.6C168.46,258.551,175.109,265.523,183.39,269.257Z" transform="translate(-130.774 -246.126)" fill="#ff98aa"/>
                  <g id="Grupo_1171629" data-name="Grupo 1171629" transform="translate(84.788 38.851)">
                    <g id="Grupo_1171628" data-name="Grupo 1171628" transform="translate(0 4.217)">
                      <path id="Trazado_1016045" data-name="Trazado 1016045" d="M242.716,314.649a76.091,76.091,0,0,1-17.327-.87,3.592,3.592,0,0,1-2.979-3.193,89.362,89.362,0,0,1-.369-12.307,3.563,3.563,0,0,1,3.15-3.4,51.9,51.9,0,0,1,18.621,1.083,3.568,3.568,0,0,1,2.658,3.218,57.8,57.8,0,0,1-.454,12.455A3.563,3.563,0,0,1,242.716,314.649Z" transform="translate(-221.972 -294.503)" fill="#fff"/>
                      <path id="Trazado_1016046" data-name="Trazado 1016046" d="M228.031,300.555h3.779a1.286,1.286,0,0,1,1.286,1.286V308.8a1.286,1.286,0,0,1-1.286,1.286h-3.779a1.285,1.285,0,0,1-1.286-1.286v-6.954A1.286,1.286,0,0,1,228.031,300.555Z" transform="translate(-222.496 -295.167)" fill="#33a1bd"/>
                      <g id="Grupo_1171627" data-name="Grupo 1171627" transform="translate(14.074 7.748)">
                        <path id="Trazado_1016047" data-name="Trazado 1016047" d="M238.122,303.206l6.864.131" transform="translate(-237.818 -303.206)" fill="none" stroke="#2e2854" stroke-linecap="round" stroke-linejoin="round" stroke-miterlimit="10" stroke-width="1.5"/>
                        <path id="Trazado_1016048" data-name="Trazado 1016048" d="M237.781,307.49l7.081-.079" transform="translate(-237.781 -303.667)" fill="none" stroke="#2e2854" stroke-linecap="round" stroke-linejoin="round" stroke-miterlimit="10" stroke-width="1.5"/>
                      </g>
                      <path id="Trazado_1016049" data-name="Trazado 1016049" d="M242.716,314.649a76.091,76.091,0,0,1-17.327-.87,3.592,3.592,0,0,1-2.979-3.193,89.362,89.362,0,0,1-.369-12.307,3.563,3.563,0,0,1,3.15-3.4,51.9,51.9,0,0,1,18.621,1.083,3.568,3.568,0,0,1,2.658,3.218,57.8,57.8,0,0,1-.454,12.455A3.563,3.563,0,0,1,242.716,314.649Z" transform="translate(-221.972 -294.503)" fill="none" stroke="#2e2854" stroke-linecap="round" stroke-linejoin="round" stroke-miterlimit="10" stroke-width="1.5"/>
                    </g>
                    <path id="Trazado_1016050" data-name="Trazado 1016050" d="M233.268,289.845q-.061,2.816-.121,5.634l3.368.213q.085-2.836.17-5.673A9.3,9.3,0,0,0,233.268,289.845Z" transform="translate(-223.199 -289.766)" fill="#2e2854" stroke="#2e2854" stroke-linecap="round" stroke-linejoin="round" stroke-miterlimit="10" stroke-width="1.5"/>
                  </g>
                </g>
                <g id="Grupo_1171637" data-name="Grupo 1171637" transform="translate(0 8.01)">
                  <g id="Grupo_1171634" data-name="Grupo 1171634" transform="translate(79.675 58.233)">
                    <path id="Trazado_1016051" data-name="Trazado 1016051" d="M225.992,321.5a719.942,719.942,0,0,1,.921,91.01,541.807,541.807,0,0,1-59.432,2.439c-1.02-30.608-2.04-61.215-3.314-92.7A368.94,368.94,0,0,1,225.992,321.5Z" transform="translate(-164.167 -320.536)" fill="#fff"/>
                    <g id="Grupo_1171631" data-name="Grupo 1171631" transform="translate(7.746 23.166)">
                      <path id="Trazado_1016052" data-name="Trazado 1016052" d="M185.43,350.272a56.091,56.091,0,0,0-12.534.039,109.421,109.421,0,0,0,.462,12.109c4.109-.139,8.219-.278,12.429-.4C185.626,358.334,185.466,354.652,185.43,350.272Z" transform="translate(-172.868 -346.929)" fill="none" stroke="#2e2854" stroke-linecap="round" stroke-linejoin="round" stroke-miterlimit="10" stroke-width="1.5"/>
                      <path id="Trazado_1016053" data-name="Trazado 1016053" d="M173.134,349.353A37.774,37.774,0,0,1,179,357.632q1.223-5.538,2.446-11.074" transform="translate(-172.897 -346.558)" fill="none" stroke="#d14b56" stroke-linecap="round" stroke-linejoin="round" stroke-miterlimit="10" stroke-width="3"/>
                    </g>
                    <g id="Grupo_1171632" data-name="Grupo 1171632" transform="translate(7.746 9.188)">
                      <path id="Trazado_1016054" data-name="Trazado 1016054" d="M172.869,335.638a3.746,3.746,0,0,1,3.916-3.845,3.88,3.88,0,0,1,3.253,1.363l-1.5,1.4a1.94,1.94,0,0,0-1.589-.806,1.8,1.8,0,0,0,.081,3.591,1.941,1.941,0,0,0,1.551-.876l1.559,1.329a3.878,3.878,0,0,1-3.188,1.509A3.745,3.745,0,0,1,172.869,335.638Z" transform="translate(-172.868 -330.96)" fill="#2e2854"/>
                      <path id="Trazado_1016055" data-name="Trazado 1016055" d="M186.606,337.136l-.656.015.041,1.805-2.421.054-.161-7.181,3.457-.077c2-.045,3.3.973,3.333,2.634a2.4,2.4,0,0,1-1.3,2.287l1.558,2.182-2.584.058Zm.147-3.514-.882.02.037,1.683.882-.02c.667-.015.978-.339.966-.863S187.42,333.607,186.753,333.622Z" transform="translate(-174.025 -330.955)" fill="#2e2854"/>
                      <path id="Trazado_1016056" data-name="Trazado 1016056" d="M199.817,336.812l.041,1.826-5.97.134-.162-7.181,5.837-.132.041,1.826-3.457.077.019.841,3.037-.069.039,1.744-3.037.068.021.944Z" transform="translate(-175.157 -330.923)" fill="#2e2854"/>
                      <path id="Trazado_1016057" data-name="Trazado 1016057" d="M203.214,331.384l3.539-.079c2.4-.054,4.083,1.274,4.133,3.5s-1.57,3.627-3.971,3.681l-3.539.08Zm3.556,5.216a1.7,1.7,0,1,0-.077-3.405l-1.015.023.077,3.405Z" transform="translate(-176.198 -330.906)" fill="#2e2854"/>
                      <path id="Trazado_1016058" data-name="Trazado 1016058" d="M214.467,331.134l2.421-.054.162,7.181-2.422.054Z" transform="translate(-177.433 -330.881)" fill="#2e2854"/>
                      <path id="Trazado_1016059" data-name="Trazado 1016059" d="M221.765,332.837l-2.1.047-.043-1.878,6.627-.15.042,1.878-2.1.047.119,5.3-2.421.054Z" transform="translate(-177.999 -330.857)" fill="#2e2854"/>
                    </g>
                    <g id="Grupo_1171633" data-name="Grupo 1171633" transform="translate(8.763 25.507)">
                      <path id="Trazado_1016060" data-name="Trazado 1016060" d="M194.221,350.013s22.49-.562,28.213-.826" transform="translate(-176.228 -349.187)" fill="none" stroke="#2e2854" stroke-linecap="round" stroke-linejoin="round" stroke-miterlimit="10" stroke-width="1.5"/>
                      <path id="Trazado_1016061" data-name="Trazado 1016061" d="M194.221,357.7s17.587-.169,28.213-.75" transform="translate(-176.228 -350.039)" fill="none" stroke="#2e2854" stroke-linecap="round" stroke-linejoin="round" stroke-miterlimit="10" stroke-width="1.5"/>
                      <path id="Trazado_1016062" data-name="Trazado 1016062" d="M194.221,365.331s7.786-.353,15.181-.616" transform="translate(-176.228 -350.891)" fill="none" stroke="#2e2854" stroke-linecap="round" stroke-linejoin="round" stroke-miterlimit="10" stroke-width="1.5"/>
                      <path id="Trazado_1016063" data-name="Trazado 1016063" d="M174.978,408.992s34.69-.929,47.369-1.849" transform="translate(-174.116 -355.548)" fill="none" stroke="#2e2854" stroke-linecap="round" stroke-linejoin="round" stroke-miterlimit="10" stroke-width="1.5"/>
                      <path id="Trazado_1016064" data-name="Trazado 1016064" d="M174.01,374.5s34.691-.929,47.369-1.849" transform="translate(-174.01 -351.762)" fill="none" stroke="#2e2854" stroke-linecap="round" stroke-linejoin="round" stroke-miterlimit="10" stroke-width="1.5"/>
                      <path id="Trazado_1016065" data-name="Trazado 1016065" d="M174.978,417.613s21.644-.557,30.368-.91" transform="translate(-174.116 -356.597)" fill="none" stroke="#2e2854" stroke-linecap="round" stroke-linejoin="round" stroke-miterlimit="10" stroke-width="1.5"/>
                    </g>
                  </g>
                  <g id="Grupo_1171635" data-name="Grupo 1171635" transform="translate(92.234 94.539)">
                    <path id="Trazado_1016066" data-name="Trazado 1016066" d="M180.881,375.207c12.876-.95,27.26-4.287,40.8-13.048,1.032-.668,2.544-1.308,3.337-.368.618.735.227,1.847-.215,2.7a47.246,47.246,0,0,1-5.222,8c3.788-.053,6.591-1.767,9.54-2.712s6.8-.8,8.392,1.854c1.05,1.747.734,3.958.385,5.968a57.515,57.515,0,0,1-2.623,10.857,19.34,19.34,0,0,1-6.456,8.943c-3.809,2.728-8.667,3.433-13.327,3.922a114.513,114.513,0,0,1-19.733.66c-4.144,1.28-13.38,3.9-17.481,4.979Z" transform="translate(-178.274 -361.317)" fill="#ff98aa"/>
                    <path id="Trazado_1016067" data-name="Trazado 1016067" d="M215.488,405.564c4.66-.489,9.518-1.193,13.327-3.922a15.1,15.1,0,0,0,1.9-1.633c-19.391,3.6-38.243.979-38.243.979-4.665.727-9.152,1.221-13.484,1.529l-.713,8.685c4.1-1.083,13.337-3.7,17.481-4.979A114.6,114.6,0,0,0,215.488,405.564Z" transform="translate(-178.274 -365.564)" fill="#ff8095"/>
                  </g>
                  <g id="Grupo_1171636" data-name="Grupo 1171636" transform="translate(0)">
                    <path id="Trazado_1016068" data-name="Trazado 1016068" d="M147.89,293.9c-5.31,6.039-10.651,12.118-14.816,19s-7.134,14.672-7.247,22.714,2.9,16.333,9.052,21.518a28.733,28.733,0,0,0,16.62,6.428,131.262,131.262,0,0,0,18.012,0,114.889,114.889,0,0,1,2.349,33.01,143.683,143.683,0,0,1-30.782,4.375c-14.355.594-28.642-3.939-41.063-11.16s-22.262-19.49-24.7-33.65c-2.02-11.705,1-23.73,5.421-34.755,8.513-21.247,22.5-40.471,40.949-54.016a101.694,101.694,0,0,1,21.767-12.231Z" transform="translate(-74.67 -255.124)" fill="#d24d84"/>
                    <path id="Trazado_1016069" data-name="Trazado 1016069" d="M172.137,397.891c-55.828,5.6-85.451-21.385-97.445-36.512a44.433,44.433,0,0,0,.62,6.409c2.443,14.159,12.284,26.428,24.7,33.649s26.708,11.755,41.063,11.16a143.579,143.579,0,0,0,30.782-4.375C172.116,404.786,172.2,401.337,172.137,397.891Z" transform="translate(-74.672 -266.785)" fill="#2e2854" opacity="0.15"/>
                    <path id="Trazado_1016070" data-name="Trazado 1016070" d="M169.51,372.214a114.887,114.887,0,0,1,2.349,33.01,143.683,143.683,0,0,1-30.782,4.375c-14.355.594-28.642-3.939-41.063-11.16s-22.262-19.49-24.7-33.65c-1.778-10.3.35-20.844,3.895-30.74" transform="translate(-74.67 -263.786)" fill="none" stroke="#2e2854" stroke-linecap="round" stroke-linejoin="round" stroke-miterlimit="10" stroke-width="1.5"/>
                  </g>
                </g>
              </g>
            </g>
          </g>
        </g>
      </g>
      <g id="Grupo_1171643" data-name="Grupo 1171643" transform="translate(7.493 22.308)">
        <path id="Trazado_1016072" data-name="Trazado 1016072" d="M362.159,458.524a2.263,2.263,0,1,0,.151,3.513A2.249,2.249,0,0,0,362.159,458.524Z" transform="translate(-83.337 -95.421)" fill="#fff"/>
        <path id="Trazado_1016073" data-name="Trazado 1016073" d="M67.49,292.99a2.263,2.263,0,1,0,.151,3.513A2.249,2.249,0,0,0,67.49,292.99Z" transform="translate(-50.998 -77.255)" fill="#fff"/>
        <path id="Trazado_1016074" data-name="Trazado 1016074" d="M189.569,105.269a2.263,2.263,0,1,0,.151,3.513A2.249,2.249,0,0,0,189.569,105.269Z" transform="translate(-64.395 -56.653)" fill="#fff"/>
        <path id="Trazado_1016075" data-name="Trazado 1016075" d="M388.982,78.5a2.263,2.263,0,1,0,.151,3.514A2.251,2.251,0,0,0,388.982,78.5Z" transform="translate(-86.28 -53.714)" fill="#fff"/>
        <path id="Trazado_1016076" data-name="Trazado 1016076" d="M78.321,97.287a2.263,2.263,0,1,0,.151,3.514A2.25,2.25,0,0,0,78.321,97.287Z" transform="translate(-52.186 -55.777)" fill="#9acedb"/>
        <path id="Trazado_1016077" data-name="Trazado 1016077" d="M116.67,450.556a2.263,2.263,0,1,0,.151,3.513A2.249,2.249,0,0,0,116.67,450.556Z" transform="translate(-56.395 -94.547)" fill="#9acedb"/>
        <path id="Trazado_1016078" data-name="Trazado 1016078" d="M539.924,413.878a2.263,2.263,0,1,0,.151,3.513A2.249,2.249,0,0,0,539.924,413.878Z" transform="translate(-102.846 -90.522)" fill="#9acedb"/>
        <path id="Trazado_1016079" data-name="Trazado 1016079" d="M500.683,51.332a2.263,2.263,0,1,0,.151,3.514A2.251,2.251,0,0,0,500.683,51.332Z" transform="translate(-98.539 -50.733)" fill="#9acedb"/>
        <path id="Trazado_1016080" data-name="Trazado 1016080" d="M344.423,59.223a4.933,4.933,0,1,0,2.413,7.037A4.962,4.962,0,0,0,344.423,59.223Z" transform="translate(-81.042 -51.609)" fill="#fff"/>
        <path id="Trazado_1016081" data-name="Trazado 1016081" d="M116.172,59.223a4.933,4.933,0,1,0,2.413,7.037A4.962,4.962,0,0,0,116.172,59.223Z" transform="translate(-55.992 -51.609)" fill="#9acedb"/>
        <path id="Trazado_1016082" data-name="Trazado 1016082" d="M540.491,450.065A4.933,4.933,0,1,0,542.9,457.1,4.961,4.961,0,0,0,540.491,450.065Z" transform="translate(-102.56 -94.503)" fill="#9acedb"/>
        <path id="Trazado_1016083" data-name="Trazado 1016083" d="M527.463,70.636a4.934,4.934,0,1,0,2.413,7.037A4.962,4.962,0,0,0,527.463,70.636Z" transform="translate(-101.13 -52.862)" fill="#9acedb"/>
        <path id="Trazado_1016084" data-name="Trazado 1016084" d="M75.988,432.142a4.933,4.933,0,1,0,2.413,7.037A4.962,4.962,0,0,0,75.988,432.142Z" transform="translate(-51.582 -92.536)" fill="#9acedb"/>
        <circle id="Elipse_11841" data-name="Elipse 11841" cx="2.416" cy="2.416" r="2.416" transform="translate(0 78.995)" fill="none" stroke="#2e2854" stroke-linecap="round" stroke-linejoin="round" stroke-miterlimit="10" stroke-width="1.5"/>
        <circle id="Elipse_11842" data-name="Elipse 11842" cx="2.416" cy="2.416" r="2.416" transform="translate(307.387)" fill="none" stroke="#2e2854" stroke-linecap="round" stroke-linejoin="round" stroke-miterlimit="10" stroke-width="1.5"/>
        <circle id="Elipse_11843" data-name="Elipse 11843" cx="2.416" cy="2.416" r="2.416" transform="translate(410.029 336.861)" fill="none" stroke="#2e2854" stroke-linecap="round" stroke-linejoin="round" stroke-miterlimit="10" stroke-width="1.5"/>
        <circle id="Elipse_11844" data-name="Elipse 11844" cx="2.416" cy="2.416" r="2.416" transform="translate(410.029 289.245)" fill="none" stroke="#2e2854" stroke-linecap="round" stroke-linejoin="round" stroke-miterlimit="10" stroke-width="1.5"/>
      </g>
    </g>
  </g>
</svg>
