<svg xmlns="http://www.w3.org/2000/svg" xmlns:xlink="http://www.w3.org/1999/xlink" width="110" height="110" viewBox="0 0 110 110">
  <defs>
    <filter id="Trazado_982547" x="0" y="0" width="110" height="110" filterUnits="userSpaceOnUse">
      <feOffset dy="3" input="SourceAlpha"/>
      <feGaussianBlur stdDeviation="3" result="blur"/>
      <feFlood flood-opacity="0.161"/>
      <feComposite operator="in" in2="blur"/>
      <feComposite in="SourceGraphic"/>
    </filter>
  </defs>
  <g id="Grupo_1171677" data-name="Grupo 1171677" transform="translate(-2050 -815)">
    <g id="Grupo_1171417" data-name="Grupo 1171417" transform="translate(1249.299 -6114)">
      <g id="Grupo_1163801" data-name="Grupo 1163801" transform="translate(-0.299 2285)">
        <g id="Grupo_1163014" data-name="Grupo 1163014" transform="translate(1 306)">
          <g id="Grupo_1157015" data-name="Grupo 1157015" transform="translate(0 3549)">
            <g id="Grupo_1155792" data-name="Grupo 1155792" transform="translate(-1 -3894.666)">
              <g id="Grupo_1154703" data-name="Grupo 1154703" transform="translate(0 1465.666)">
                <g id="Grupo_1150789" data-name="Grupo 1150789" transform="translate(3 2320)">
                  <g id="Grupo_1154212" data-name="Grupo 1154212" transform="translate(-236 -5809)">
                    <g id="Grupo_1152583" data-name="Grupo 1152583" transform="translate(1043 6713)">
                      <g id="Grupo_1146973" data-name="Grupo 1146973" transform="translate(0 0)">
                        <g id="Grupo_1146954" data-name="Grupo 1146954">
                          <g transform="matrix(1, 0, 0, 1, -9, -6)" filter="url(#Trazado_982547)">
                            <g id="Trazado_982547-2" data-name="Trazado 982547" transform="translate(9 6)" fill="#e4f2f4">
                              <path d="M 46 90.49987030029297 C 39.99187850952148 90.49987030029297 34.16426849365234 89.32350921630859 28.67905426025391 87.00345611572266 C 23.38019943237305 84.76224517822266 18.62104034423828 81.55341339111328 14.53374671936035 77.46613311767578 C 10.44646644592285 73.37885284423828 7.237639904022217 68.61969757080078 4.996413230895996 63.32085418701172 C 2.676359891891479 57.83565521240234 1.5 52.008056640625 1.5 45.99993515014648 C 1.5 39.99181365966797 2.676359891891479 34.16421508789062 4.996413230895996 28.67901420593262 C 7.237639904022217 23.38017463684082 10.44646644592285 18.62101554870605 14.53374671936035 14.53373527526855 C 18.62104034423828 10.44645500183105 23.38019943237305 7.23762845993042 28.67905426025391 4.996415138244629 C 34.16426849365234 2.676361799240112 39.99187850952148 1.500001788139343 46 1.500001788139343 C 52.00812149047852 1.500001788139343 57.83573150634766 2.676361799240112 63.32094573974609 4.996415138244629 C 68.61979675292969 7.23762845993042 73.37895965576172 10.44645500183105 77.46625518798828 14.53373527526855 C 81.55353546142578 18.62101554870605 84.76235961914062 23.38017463684082 87.00358581542969 28.67901420593262 C 89.32363891601562 34.16421508789062 90.5 39.99181365966797 90.5 45.99993515014648 C 90.5 52.008056640625 89.32363891601562 57.83565521240234 87.00358581542969 63.32085418701172 C 84.76235961914062 68.61969757080078 81.55353546142578 73.37885284423828 77.46625518798828 77.46613311767578 C 73.37895965576172 81.55341339111328 68.61979675292969 84.76224517822266 63.32094573974609 87.00345611572266 C 57.83573150634766 89.32350921630859 52.00812149047852 90.49987030029297 46 90.49987030029297 Z" stroke="none"/>
                              <path d="M 46 2.999992370605469 C 40.1937141418457 2.999992370605469 34.56269836425781 4.136489868164062 29.26337051391602 6.377906799316406 C 24.14332580566406 8.543502807617188 19.54441070556641 11.64437866210938 15.59439849853516 15.59437561035156 C 11.64440155029297 19.54439544677734 8.54351806640625 24.14329528808594 6.377914428710938 29.26333618164062 C 4.136497497558594 34.56264877319336 3 40.19366455078125 3 45.99993515014648 C 3 51.80620574951172 4.136497497558594 57.43720626831055 6.377914428710938 62.73651885986328 C 8.54351806640625 67.8565673828125 11.64440155029297 72.45545959472656 15.59439849853516 76.40547943115234 C 19.54441070556641 80.35547637939453 24.14332580566406 83.45635223388672 29.26337051391602 85.6219482421875 C 34.56269836425781 87.86336517333984 40.1937141418457 88.99986267089844 46 88.99986267089844 C 51.8062858581543 88.99986267089844 57.43730163574219 87.86336517333984 62.73661422729492 85.6219482421875 C 67.85667419433594 83.45635223388672 72.45557403564453 80.35547637939453 76.40558624267578 76.40547943115234 C 80.35559844970703 72.45545959472656 83.45647430419922 67.8565673828125 85.6220703125 62.73651885986328 C 87.86350250244141 57.43720626831055 89 51.80620574951172 89 45.99993515014648 C 89 40.19366455078125 87.86350250244141 34.56264877319336 85.6220703125 29.26333618164062 C 83.45647430419922 24.14329528808594 80.35559844970703 19.54439544677734 76.40558624267578 15.59437561035156 C 72.45557403564453 11.64437866210938 67.85667419433594 8.543502807617188 62.73661422729492 6.377906799316406 C 57.43730163574219 4.136489868164062 51.8062858581543 2.999992370605469 46 2.999992370605469 M 46 -7.62939453125e-06 C 71.40509033203125 -7.62939453125e-06 92 20.59486389160156 92 45.99993515014648 C 92 71.40499114990234 71.40509033203125 91.99986267089844 46 91.99986267089844 C 20.59490203857422 91.99986267089844 0 71.40499114990234 0 45.99993515014648 C 0 20.59486389160156 20.59490203857422 -7.62939453125e-06 46 -7.62939453125e-06 Z" stroke="none" fill="#01899b"/>
                            </g>
                          </g>
                        </g>
                      </g>
                    </g>
                  </g>
                </g>
              </g>
            </g>
          </g>
        </g>
      </g>
    </g>
    <g id="salary" transform="translate(2070.203 839.001)">
      <g id="Grupo_1171675" data-name="Grupo 1171675" transform="translate(8.619 0.828)">
        <g id="Grupo_1171659" data-name="Grupo 1171659" transform="translate(10.878)">
          <g id="Grupo_1171658" data-name="Grupo 1171658">
            <g id="Grupo_1171657" data-name="Grupo 1171657">
              <g id="Grupo_1171654" data-name="Grupo 1171654">
                <g id="Grupo_1171653" data-name="Grupo 1171653">
                  <path id="Trazado_1016116" data-name="Trazado 1016116" d="M136.336,17.14s5.381-6.984,3.834-8.987c-.527-.683-.977.244-2.068.244-1.281,0-1.281-.838-2.563-.838s-1.281.838-2.563.838-1.281-.838-2.562-.838-1.281.838-2.562.838c-1.092,0-1.54-.939-2.071-.256-1.548,1.992,3.754,9,3.754,9-23.418,15.395-15.867,36.331-2.041,36.331h10.965c13.868,0,21.372-20.885-2.124-36.331Z" transform="translate(-114.473 -7.559)" fill="#eabc6b"/>
                </g>
              </g>
              <g id="Grupo_1171655" data-name="Grupo 1171655" transform="translate(14.143)">
                <path id="Trazado_1016117" data-name="Trazado 1016117" d="M251.135,17.14s5.381-6.984,3.834-8.987c-.527-.683-.977.244-2.068.244-1.281,0-1.281-.838-2.563-.838s-1.281.838-2.563.838c-.063,0-.121,0-.178-.007-.515,2.207-2.835,5.645-4.162,7.486.523.767.9,1.265.9,1.265q-.469.308-.919.619c22.374,15.379,14.888,35.712,1.2,35.712h8.64c13.868,0,21.372-20.885-2.124-36.331Z" transform="translate(-243.415 -7.559)" fill="#e8ae4d"/>
              </g>
              <g id="Grupo_1171656" data-name="Grupo 1171656" transform="translate(12.088 8.136)">
                <path id="Trazado_1016118" data-name="Trazado 1016118" d="M235.458,85.667a18.72,18.72,0,0,1-9.343,0,2,2,0,0,1-1.314-2.611l.013-.037a1.841,1.841,0,0,1,2.173-1.227,15.211,15.211,0,0,0,7.6,0,1.841,1.841,0,0,1,2.173,1.227l.013.037A2,2,0,0,1,235.458,85.667Z" transform="translate(-224.683 -81.738)" fill="#ffe07d"/>
              </g>
            </g>
          </g>
        </g>
        <g id="Grupo_1171674" data-name="Grupo 1171674" transform="translate(0 31.156)">
          <g id="Grupo_1171673" data-name="Grupo 1171673">
            <g id="Grupo_1171672" data-name="Grupo 1171672">
              <g id="Grupo_1171671" data-name="Grupo 1171671">
                <g id="Grupo_1171670" data-name="Grupo 1171670">
                  <g id="Grupo_1171669" data-name="Grupo 1171669">
                    <g id="Grupo_1171668" data-name="Grupo 1171668">
                      <g id="Grupo_1171667" data-name="Grupo 1171667">
                        <g id="Grupo_1171666" data-name="Grupo 1171666">
                          <g id="Grupo_1171665" data-name="Grupo 1171665">
                            <g id="Grupo_1171664" data-name="Grupo 1171664" transform="translate(4.342 2.882)">
                              <g id="Grupo_1171663" data-name="Grupo 1171663">
                                <g id="Grupo_1171660" data-name="Grupo 1171660">
                                  <path id="Trazado_1016119" data-name="Trazado 1016119" d="M54.883,333.362l11.908,4.432a9.061,9.061,0,0,0,3.161.569H82.223a9.062,9.062,0,0,0,4.85-1.407l15.366-9.737a2.7,2.7,0,0,0,.439-3.534c-.834-1.226-2.215-1.44-3.734-.721l-14.96,6.587.018-2.427a4.344,4.344,0,0,0-3.714-3.872l-9.11-1.049a12.019,12.019,0,0,1-4.984-2.073,16.328,16.328,0,0,0-8.244-2.234H54.883v15.466Z" transform="translate(-54.883 -317.896)" fill="#ffddce"/>
                                </g>
                                <g id="Grupo_1171661" data-name="Grupo 1171661">
                                  <path id="Trazado_1016120" data-name="Trazado 1016120" d="M54.883,333.362l11.908,4.432a9.061,9.061,0,0,0,3.161.569H82.223a9.062,9.062,0,0,0,4.85-1.407l15.366-9.737a2.7,2.7,0,0,0,.439-3.534c-.834-1.226-2.215-1.44-3.734-.721l-14.96,6.587.018-2.427a4.344,4.344,0,0,0-3.714-3.872l-9.11-1.049a12.019,12.019,0,0,1-4.984-2.073,16.328,16.328,0,0,0-8.244-2.234H54.883v15.466Z" transform="translate(-54.883 -317.896)" fill="#ffddce"/>
                                </g>
                                <path id="Trazado_1016121" data-name="Trazado 1016121" d="M102.879,361.492c-.834-1.226-2.215-1.44-3.734-.721l-4.115,1.812.358.567a2.7,2.7,0,0,1-.439,3.534L86,372.357a9.06,9.06,0,0,1-3.771.823H69.953a9.059,9.059,0,0,1-3.161-.569l-11.908-4.432v2.99L66.792,375.6a9.061,9.061,0,0,0,3.161.569H82.224a9.062,9.062,0,0,0,4.85-1.407l15.366-9.736a2.7,2.7,0,0,0,.439-3.534Z" transform="translate(-54.884 -355.703)" fill="#ffcbbe"/>
                                <g id="Grupo_1171662" data-name="Grupo 1171662" transform="translate(28.202 6.728)">
                                  <path id="Trazado_1016122" data-name="Trazado 1016122" d="M312,379.236v.059l.039-.017Z" transform="translate(-312.004 -379.236)" fill="#f5dbcc"/>
                                </g>
                              </g>
                            </g>
                            <path id="Trazado_1016123" data-name="Trazado 1016123" d="M22.2,312.34a1.564,1.564,0,0,1-1.564,1.564H16.859A1.564,1.564,0,0,1,15.3,312.34V293.184a1.564,1.564,0,0,1,1.564-1.564h3.776a1.564,1.564,0,0,1,1.564,1.564Z" transform="translate(-15.295 -291.62)" fill="#407093"/>
                          </g>
                        </g>
                      </g>
                    </g>
                  </g>
                </g>
              </g>
            </g>
          </g>
        </g>
      </g>
      <g id="Grupo_1171676" data-name="Grupo 1171676" transform="translate(7.797 -0.001)">
        <path id="Trazado_1016124" data-name="Trazado 1016124" d="M61.637,40.194c-1.048-1.539-2.825-1.915-4.755-1.007l-1.023.45a16.917,16.917,0,0,0,1.01-10.892,26.277,26.277,0,0,0-6.621-11.973.822.822,0,1,0-1.213,1.112A24.664,24.664,0,0,1,55.263,29.1a14.749,14.749,0,0,1-1.931,11.648L43.095,45.257,43.1,44.1a.8.8,0,0,0,0-.087,5.155,5.155,0,0,0-4.418-4.6l-.021,0-9.1-1.048c-3.5-.5-4.4-2.595-9.139-3.791a17.707,17.707,0,0,1,1.305-8.7c1.8-4.466,5.326-8.805,10.212-12.582,1.821,1.291,9.946,1.452,11.764-.214.931.707,1.82,1.436,2.648,2.174a.822.822,0,1,0,1.094-1.228c-.908-.809-1.884-1.607-2.908-2.378a2.928,2.928,0,0,0-.982-2.918c2.575-3.906,3.324-6.463,2.29-7.8a1.438,1.438,0,0,0-1.972-.3A1.319,1.319,0,0,1,42.3.559a2.957,2.957,0,0,0-3.463,0,1.326,1.326,0,0,1-1.662,0,2.957,2.957,0,0,0-3.463,0,1.309,1.309,0,0,1-1.576.053,1.435,1.435,0,0,0-1.975.294c-1.011,1.3-.335,3.778,2.067,7.551a2.678,2.678,0,0,0-.418.279,5.553,5.553,0,0,0-4.783-1.808,6.027,6.027,0,0,1-4.092-.967.822.822,0,0,0-.916,1.366A7.659,7.659,0,0,0,27.2,8.563a4.019,4.019,0,0,1,3.673,1.607q-.015.053-.028.106a14.115,14.115,0,0,0-2.608.284,7.724,7.724,0,0,0-5.352,3.427.822.822,0,1,0,1.42.831c1.5-2.563,5.161-2.877,6.615-2.9.006.018.014.036.02.054-5.189,4-8.8,8.466-10.741,13.276a19.521,19.521,0,0,0-1.467,8.98,17.115,17.115,0,0,0-2.388-.185v-.5a2.389,2.389,0,0,0-2.387-2.387H10.184A2.389,2.389,0,0,0,7.8,33.548V52.7a2.389,2.389,0,0,0,2.387,2.387h3.776A2.39,2.39,0,0,0,16.346,52.7V52.47l8.236,3.066a9.854,9.854,0,0,0,3.448.621H40.3a9.869,9.869,0,0,0,5.29-1.535C61.963,44.243,60.969,44.888,61.064,44.8a3.527,3.527,0,0,0,.573-4.611ZM42.159,12.1a17.826,17.826,0,0,1-8.94,0c-1.291-.326-.917-2.629.47-2.281a16.039,16.039,0,0,0,8,0C43.052,9.473,43.471,11.765,42.159,12.1ZM31.38,2.075l.019.01a2.918,2.918,0,0,0,3.208-.149c1.4-.917,1.553.553,3.393.553a2.857,2.857,0,0,0,1.732-.553,1.327,1.327,0,0,1,1.662,0,2.934,2.934,0,0,0,3.222.147c.169.61-.214,2.429-2.653,6.06C40.753,8.122,39,9.312,34.02,8.2c-2.434-3.678-2.81-5.514-2.64-6.129ZM60.016,43.534l-15.3,9.7a8.227,8.227,0,0,1-4.41,1.28H28.03a8.212,8.212,0,0,1-2.874-.518l-8.81-3.279V41.857a.822.822,0,1,0-1.645,0V52.7a.743.743,0,0,1-.742.742H10.184a.743.743,0,0,1-.742-.742V33.549a.743.743,0,0,1,.742-.742h3.776a.743.743,0,0,1,.742.742v4.463a.822.822,0,1,0,1.645,0V35.691c6.8.052,8.333,3.638,12.995,4.3l.021,0,9.1,1.048a3.513,3.513,0,0,1,3,3.1L41.446,45.7H32.961a.823.823,0,1,0,0,1.645h9.3a.851.851,0,0,0,.328-.069l14.963-6.588c1.076-.478,2.057-.547,2.723.431A1.879,1.879,0,0,1,60.016,43.534Z" transform="translate(-7.797 0.001)"/>
        <path id="Trazado_1016125" data-name="Trazado 1016125" d="M244.535,175.611a.823.823,0,0,0,.823-.823v-1.363a4.819,4.819,0,0,0,3.949-3.987,4.218,4.218,0,0,0-2.906-4.825c-.377-.133-.723-.26-1.043-.383v-5.244a3.383,3.383,0,0,1,1.6.7.822.822,0,0,0,1.111-1.213,5.1,5.1,0,0,0-2.71-1.15v-1.17a.822.822,0,1,0-1.645,0v1.236a6.056,6.056,0,0,0-.61.149,3.977,3.977,0,0,0-2.722,3.122,3.478,3.478,0,0,0,1.13,3.429,9.965,9.965,0,0,0,2.2,1.244v6.5a4.369,4.369,0,0,1-2.558-.887.822.822,0,1,0-.9,1.377,6.024,6.024,0,0,0,3.458,1.155v1.306A.822.822,0,0,0,244.535,175.611ZM242.526,162.8a1.854,1.854,0,0,1-.529-1.83,2.353,2.353,0,0,1,1.58-1.851c.046-.014.091-.026.136-.038v4.443A6.936,6.936,0,0,1,242.526,162.8Zm3.326,3.368a2.589,2.589,0,0,1,1.832,3,3.2,3.2,0,0,1-2.327,2.579v-5.759c.16.059.324.118.495.178Z" transform="translate(-214.426 -138.295)"/>
      </g>
    </g>
  </g>
</svg>
