<svg xmlns="http://www.w3.org/2000/svg" xmlns:xlink="http://www.w3.org/1999/xlink" width="113" height="113" viewBox="0 0 113 113">
  <defs>
    <filter id="Trazado_982547" x="0" y="0" width="113" height="113" filterUnits="userSpaceOnUse">
      <feOffset dy="3" input="SourceAlpha"/>
      <feGaussianBlur stdDeviation="3" result="blur"/>
      <feFlood flood-opacity="0.161"/>
      <feComposite operator="in" in2="blur"/>
      <feComposite in="SourceGraphic"/>
    </filter>
  </defs>
  <g id="Grupo_1171787" data-name="Grupo 1171787" transform="translate(-190.514 -4024)">
    <g id="Grupo_1167986" data-name="Grupo 1167986" transform="translate(199.514 4030)">
      <g id="Grupo_1167464" data-name="Grupo 1167464">
        <g id="Grupo_1164308" data-name="Grupo 1164308" transform="translate(0)">
          <g id="Grupo_1163948" data-name="Grupo 1163948">
            <g id="Grupo_1158168" data-name="Grupo 1158168">
              <g id="Grupo_1152576" data-name="Grupo 1152576">
                <g id="Grupo_1148633" data-name="Grupo 1148633">
                  <g id="Grupo_1148525" data-name="Grupo 1148525">
                    <g transform="matrix(1, 0, 0, 1, -9, -6)" filter="url(#Trazado_982547)">
                      <g id="Trazado_982547-2" data-name="Trazado 982547" transform="translate(9 6)" fill="#f2f7f5">
                        <path d="M 47.5 93.5 C 41.28937149047852 93.5 35.26533508300781 92.28397369384766 29.59518623352051 89.88570404052734 C 24.11771965026855 87.56893157958984 19.19813346862793 84.25196075439453 14.97309303283691 80.02691650390625 C 10.74804019927979 75.80186462402344 7.431066513061523 70.88229370117188 5.114293098449707 65.40481567382812 C 2.716026782989502 59.73468017578125 1.5 53.71062850952148 1.5 47.5 C 1.5 41.28937149047852 2.716026782989502 35.26533508300781 5.114293098449707 29.59518623352051 C 7.431066513061523 24.11771965026855 10.74804019927979 19.19813346862793 14.97309303283691 14.97309303283691 C 19.19813346862793 10.74804019927979 24.11771965026855 7.431066513061523 29.59518623352051 5.114293098449707 C 35.26533508300781 2.716026782989502 41.28937149047852 1.5 47.5 1.5 C 53.71062850952148 1.5 59.73468017578125 2.716026782989502 65.40481567382812 5.114293098449707 C 70.88229370117188 7.431066513061523 75.80186462402344 10.74804019927979 80.02691650390625 14.97309303283691 C 84.25196075439453 19.19813346862793 87.56893157958984 24.11771965026855 89.88570404052734 29.59518623352051 C 92.28397369384766 35.26533508300781 93.5 41.28937149047852 93.5 47.5 C 93.5 53.71062850952148 92.28397369384766 59.73468017578125 89.88570404052734 65.40481567382812 C 87.56893157958984 70.88229370117188 84.25196075439453 75.80186462402344 80.02691650390625 80.02691650390625 C 75.80186462402344 84.25196075439453 70.88229370117188 87.56893157958984 65.40481567382812 89.88570404052734 C 59.73468017578125 92.28397369384766 53.71062850952148 93.5 47.5 93.5 Z" stroke="none"/>
                        <path d="M 47.5 3 C 41.49121475219727 3 35.66376876831055 4.176155090332031 30.17950439453125 6.495796203613281 C 24.88084411621094 8.736953735351562 20.12152099609375 11.94598388671875 16.03375244140625 16.03375244140625 C 11.94598388671875 20.12152099609375 8.736953735351562 24.88084411621094 6.495796203613281 30.17950439453125 C 4.176155090332031 35.66376876831055 3 41.49121475219727 3 47.5 C 3 53.50878524780273 4.176155090332031 59.33623123168945 6.495796203613281 64.82049560546875 C 8.736953735351562 70.11915588378906 11.94598388671875 74.87847900390625 16.03375244140625 78.96624755859375 C 20.12152099609375 83.05401611328125 24.88084411621094 86.26304626464844 30.17950439453125 88.50419616699219 C 35.66376876831055 90.82384490966797 41.49121475219727 92 47.5 92 C 53.50878524780273 92 59.33623123168945 90.82384490966797 64.82049560546875 88.50419616699219 C 70.11915588378906 86.26304626464844 74.87847900390625 83.05401611328125 78.96624755859375 78.96624755859375 C 83.05401611328125 74.87847900390625 86.26304626464844 70.11915588378906 88.50419616699219 64.82049560546875 C 90.82384490966797 59.33623123168945 92 53.50878524780273 92 47.5 C 92 41.49121475219727 90.82384490966797 35.66376876831055 88.50419616699219 30.17950439453125 C 86.26304626464844 24.88084411621094 83.05401611328125 20.12152099609375 78.96624755859375 16.03375244140625 C 74.87847900390625 11.94598388671875 70.11915588378906 8.736953735351562 64.82049560546875 6.495796203613281 C 59.33623123168945 4.176155090332031 53.50878524780273 3 47.5 3 M 47.5 0 C 73.7335205078125 0 95 21.2664794921875 95 47.5 C 95 73.7335205078125 73.7335205078125 95 47.5 95 C 21.2664794921875 95 0 73.7335205078125 0 47.5 C 0 21.2664794921875 21.2664794921875 0 47.5 0 Z" stroke="none" fill="#4a665c"/>
                      </g>
                    </g>
                  </g>
                </g>
              </g>
            </g>
          </g>
        </g>
      </g>
    </g>
    <g id="flexible_3322044" transform="translate(215.014 4044.38)">
      <g id="Grupo_1171785" data-name="Grupo 1171785">
        <g id="Grupo_1171765" data-name="Grupo 1171765">
          <path id="Trazado_1016626" data-name="Trazado 1016626" d="M54,42H49.32A19.923,19.923,0,0,1,42,49.32a19.624,19.624,0,0,1-7.04,2.46A19.278,19.278,0,0,1,32,52a20.622,20.622,0,0,1-2.96-.22,21.021,21.021,0,0,1-3.09-.71,11.9,11.9,0,0,1-2.01,5.66A26.05,26.05,0,0,0,54,45.86,24.789,24.789,0,0,0,56.01,42Z" fill="#ffeaa7"/>
        </g>
        <g id="Grupo_1171766" data-name="Grupo 1171766">
          <path id="Trazado_1016627" data-name="Trazado 1016627" d="M56.01,22H49.32A20,20,0,0,0,26,12.92V12H24.36a2.206,2.206,0,0,1-2.03-1.42c-.01-.01-.01-.02-.02-.04a2.233,2.233,0,0,1,.43-2.46l.62-.61A26.038,26.038,0,0,1,56.01,22Z" fill="#ffeaa7"/>
        </g>
        <g id="Grupo_1171767" data-name="Grupo 1171767">
          <path id="Trazado_1016628" data-name="Trazado 1016628" d="M12,26h.92A19.816,19.816,0,0,0,12,32a20.147,20.147,0,0,0,.93,6.05,11.9,11.9,0,0,0-5.66,2.01,26.167,26.167,0,0,1,.2-16.7l.61-.62a2.233,2.233,0,0,1,2.46-.43c.02.01.03.01.04.02A2.206,2.206,0,0,1,12,24.36Z" fill="#ffeaa7"/>
        </g>
        <g id="Grupo_1171768" data-name="Grupo 1171768">
          <path id="Trazado_1016629" data-name="Trazado 1016629" d="M58,56l-4,6-4-6h8Z" fill="#ef7385"/>
        </g>
        <g id="Grupo_1171769" data-name="Grupo 1171769">
          <path id="Trazado_1016630" data-name="Trazado 1016630" d="M46,41V23a1,1,0,0,1,1-1H61a1,1,0,0,1,1,1V41a1,1,0,0,1-1,1H47a1,1,0,0,1-1-1Z" fill="#e6e9ed"/>
        </g>
        <g id="Grupo_1171770" data-name="Grupo 1171770">
          <path id="Trazado_1016631" data-name="Trazado 1016631" d="M33,42l1.96,9.78A19.278,19.278,0,0,1,32,52a20.622,20.622,0,0,1-2.96-.22L31,42Z" fill="#ef7385"/>
        </g>
        <g id="Grupo_1171771" data-name="Grupo 1171771">
          <path id="Trazado_1016632" data-name="Trazado 1016632" d="M34,40l-1,2H31l-1-2,2-2Z" fill="#ed5565"/>
        </g>
        <g id="Grupo_1171772" data-name="Grupo 1171772">
          <path id="Trazado_1016633" data-name="Trazado 1016633" d="M36,42l1.61-4.81a9.467,9.467,0,0,1,2.44,2.28A9.629,9.629,0,0,1,42,45.28v4.04a19.624,19.624,0,0,1-7.04,2.46L33,42l1-2Z" fill="#b4dd7f"/>
        </g>
        <g id="Grupo_1171773" data-name="Grupo 1171773">
          <path id="Trazado_1016634" data-name="Trazado 1016634" d="M28,42l2-2,1,2-1.96,9.78a21.021,21.021,0,0,1-3.09-.71c.03-.35.05-.71.05-1.07a11.936,11.936,0,0,0-3.32-8.29,9.658,9.658,0,0,1,2.46-3.56,9.858,9.858,0,0,1,1.25-.96Z" fill="#b4dd7f"/>
        </g>
        <g id="Grupo_1171774" data-name="Grupo 1171774">
          <path id="Trazado_1016635" data-name="Trazado 1016635" d="M37.61,37.19,36,42l-2-2-2-2,3-2A9.521,9.521,0,0,1,37.61,37.19Z" fill="#a0d468"/>
        </g>
        <g id="Grupo_1171775" data-name="Grupo 1171775">
          <path id="Trazado_1016636" data-name="Trazado 1016636" d="M32,38l-2,2-2,2-1.61-4.81A9.521,9.521,0,0,1,29,36Z" fill="#a0d468"/>
        </g>
        <g id="Grupo_1171776" data-name="Grupo 1171776">
          <path id="Trazado_1016637" data-name="Trazado 1016637" d="M26,26a2.012,2.012,0,0,0-1.2.4l-.54-1.61A5.246,5.246,0,0,1,24,23.16l.41-2.01,1.1-1.64A5.164,5.164,0,0,1,29.16,18h5.68A5.16,5.16,0,0,1,40,23.16a5.247,5.247,0,0,1-.26,1.63L39.2,26.4A2.012,2.012,0,0,0,38,26H34.12a5.274,5.274,0,0,1-3.79-1.61,11.769,11.769,0,0,1-3.01,1.5L27,26Z" fill="#656d78"/>
        </g>
        <g id="Grupo_1171777" data-name="Grupo 1171777">
          <path id="Trazado_1016638" data-name="Trazado 1016638" d="M12.93,38.05c.35-.03.71-.05,1.07-.05a11.962,11.962,0,0,1,8.49,3.51c.06.06.13.13.19.2A11.936,11.936,0,0,1,26,50c0,.36-.02.72-.05,1.07a11.9,11.9,0,0,1-2.01,5.66,11.7,11.7,0,0,1-1.45,1.76A12.007,12.007,0,0,1,5.51,41.51a11.7,11.7,0,0,1,1.76-1.45,11.9,11.9,0,0,1,5.66-2.01Z" fill="#69d6f4"/>
        </g>
        <g id="Grupo_1171778" data-name="Grupo 1171778">
          <path id="Trazado_1016639" data-name="Trazado 1016639" d="M12.59,48.59A2,2,0,0,1,16,50a2,2,0,0,1-4,0A1.955,1.955,0,0,1,12.59,48.59Z" fill="#ef7385"/>
        </g>
        <g id="Grupo_1171779" data-name="Grupo 1171779">
          <path id="Trazado_1016640" data-name="Trazado 1016640" d="M39.2,26.4A2.027,2.027,0,0,1,40,28a2.015,2.015,0,0,1-2,2H36.5l.5-4h1A2.012,2.012,0,0,1,39.2,26.4Z" fill="#f0d0b4"/>
        </g>
        <g id="Grupo_1171780" data-name="Grupo 1171780">
          <path id="Trazado_1016641" data-name="Trazado 1016641" d="M33.35,34a2.877,2.877,0,0,0,.93-.15L35,36l-3,2-3-2,.72-2.15a2.877,2.877,0,0,0,.93.15Z" fill="#f0d0b4"/>
        </g>
        <g id="Grupo_1171781" data-name="Grupo 1171781">
          <path id="Trazado_1016642" data-name="Trazado 1016642" d="M37,26l-.5,4-.17,1.37a3,3,0,0,1-2.05,2.48,2.877,2.877,0,0,1-.93.15h-2.7a2.877,2.877,0,0,1-.93-.15,3,3,0,0,1-2.05-2.48L27.5,30,27,26l.32-.11a11.769,11.769,0,0,0,3.01-1.5A5.274,5.274,0,0,0,34.12,26Z" fill="#f0d0b4"/>
        </g>
        <g id="Grupo_1171782" data-name="Grupo 1171782">
          <path id="Trazado_1016643" data-name="Trazado 1016643" d="M24,28a2,2,0,0,1,2-2h1l.5,4H26a2.015,2.015,0,0,1-2-2Z" fill="#f0d0b4"/>
        </g>
        <g id="Grupo_1171783" data-name="Grupo 1171783">
          <path id="Trazado_1016644" data-name="Trazado 1016644" d="M14,20a6,6,0,1,0-6-6A6,6,0,0,0,14,20Zm8.31-9.46c.01.02.01.03.02.04A2.206,2.206,0,0,0,24.36,12H26v4H24.36a2.191,2.191,0,0,0-1.98,1.31c-.02.03-.06.13-.07.15a2.233,2.233,0,0,0,.43,2.46l1.16,1.15L21.07,23.9l-1.15-1.16a2.233,2.233,0,0,0-2.46-.43c-.02.01-.03.01-.04.02A2.206,2.206,0,0,0,16,24.36V26H12V24.36a2.206,2.206,0,0,0-1.42-2.03c-.01-.01-.02-.01-.04-.02a2.233,2.233,0,0,0-2.46.43l-.61.62-.54.54L4.1,21.07l1.16-1.15a2.233,2.233,0,0,0,.43-2.46c-.01-.02-.01-.03-.02-.04A2.206,2.206,0,0,0,3.64,16H2V12H3.64a2.206,2.206,0,0,0,2.03-1.42c.01-.01.01-.02.02-.04a2.233,2.233,0,0,0-.43-2.46L4.1,6.93,6.93,4.1,8.08,5.26a2.233,2.233,0,0,0,2.46.43c.02-.01.03-.01.04-.02A2.206,2.206,0,0,0,12,3.64V2h4V3.64a2.206,2.206,0,0,0,1.42,2.03c.01.01.02.01.04.02a2.233,2.233,0,0,0,2.46-.43L21.07,4.1,23.9,6.93l-.54.54-.62.61a2.233,2.233,0,0,0-.43,2.46Z" fill="#ffc729"/>
        </g>
        <g id="Grupo_1171784" data-name="Grupo 1171784">
          <path id="Trazado_1016645" data-name="Trazado 1016645" d="M14,8a6,6,0,1,1-6,6A6,6,0,0,1,14,8Zm2,6a2,2,0,1,0-2,2A2.006,2.006,0,0,0,16,14Z" fill="#fcd770"/>
        </g>
      </g>
      <g id="Grupo_1171786" data-name="Grupo 1171786">
        <path id="Trazado_1016646" data-name="Trazado 1016646" d="M17.293,45.293,15.285,47.3a2.893,2.893,0,0,0-2.57,0L9.707,44.293,8.293,45.707,11.3,48.715A2.951,2.951,0,0,0,11,50a3,3,0,1,0,6,0,2.951,2.951,0,0,0-.3-1.285l2.008-2.008ZM14,51a1,1,0,1,1,1-1A1,1,0,0,1,14,51Z"/>
        <path id="Trazado_1016647" data-name="Trazado 1016647" d="M61,21H56.646A26.92,26.92,0,0,0,24.471,6.086l-3.4-3.4L19.21,4.551a1.263,1.263,0,0,1-1.41.2,1.216,1.216,0,0,1-.8-1.11V1H11V3.639a1.24,1.24,0,0,1-.842,1.128,1.239,1.239,0,0,1-1.367-.216L6.932,2.684,2.684,6.932,4.551,8.79a1.259,1.259,0,0,1,.2,1.41,1.216,1.216,0,0,1-1.11.8H1v6H3.639a1.24,1.24,0,0,1,1.128.842,1.236,1.236,0,0,1-.216,1.367L2.684,21.068l3.4,3.4a26.675,26.675,0,0,0,.042,15.209A12.984,12.984,0,1,0,24.321,57.872,26.924,26.924,0,0,0,51.73,50.431l-1.461-1.365a24.926,24.926,0,0,1-24.8,7.053,12.916,12.916,0,0,0,1.315-3.786A20.941,20.941,0,0,0,49.878,43H53V55H48.131L54,63.8,59.869,55H55V43h6a2,2,0,0,0,2-2V23a2,2,0,0,0-2-2ZM54,60.2,51.869,57h4.263ZM54.446,21H49.879A20.968,20.968,0,0,0,27,11.607V11H24.361a1.24,1.24,0,0,1-1.128-.842,1.236,1.236,0,0,1,.216-1.367l.439-.437A24.99,24.99,0,0,1,54.446,21ZM6.6,17.035A3.223,3.223,0,0,0,3.639,15H3V13h.639a3.238,3.238,0,0,0,2.972-2.068,3.229,3.229,0,0,0-.648-3.56l-.447-.443L6.929,5.516l.444.446a3.241,3.241,0,0,0,3.592.634A3.221,3.221,0,0,0,13,3.639V3h2v.639a3.238,3.238,0,0,0,2.068,2.972,3.227,3.227,0,0,0,3.56-.648l.444-.446L22.485,6.93l-.446.444a3.241,3.241,0,0,0-.634,3.592A3.219,3.219,0,0,0,24.361,13H25v2h-.639a3.193,3.193,0,0,0-2.889,1.88l-.083.188a3.229,3.229,0,0,0,.648,3.56l.446.444L21.07,22.485l-.444-.446A3.344,3.344,0,0,0,15,24.361V25H13v-.639a3.238,3.238,0,0,0-2.068-2.972,3.229,3.229,0,0,0-3.56.648l-.444.446L5.515,21.07l.446-.444A3.238,3.238,0,0,0,6.6,17.035ZM37.883,27H38a1,1,0,0,1,0,2h-.367Zm.9-2.521-.194.581a3.038,3.038,0,0,0-.461-.047l0-.013h-4.01a4.275,4.275,0,0,1-4.153-3.243l-1.94.485a6.3,6.3,0,0,0,.811,1.869,10.96,10.96,0,0,1-1.84.834L26.838,25H26a2.957,2.957,0,0,0-.592.06l-.194-.582A4.161,4.161,0,0,1,29.162,19h5.676a4.162,4.162,0,0,1,3.948,5.479ZM41,48.712a19.059,19.059,0,0,1-5.255,1.913l-1.7-8.484.226-.452,2.163,2.163,1.67-5.009A8.669,8.669,0,0,1,41,45.28Zm-12.143-11.6,1.573,1.049L28.436,40.15,27.6,37.642A8.74,8.74,0,0,1,28.857,37.107ZM31.618,41l-.4-.8L32,39.414l.783.783-.4.8Zm3.945-.851-1.994-1.994,1.58-1.053a8.574,8.574,0,0,1,1.248.543ZM33.81,35.592,32,36.8l-1.81-1.207.2-.615c.085.006.167.024.253.024h2.7c.086,0,.168-.018.253-.024ZM33.352,33h-2.7a2,2,0,0,1-1.985-1.752l-.572-4.576a12.9,12.9,0,0,0,2.134-1.029A6.265,6.265,0,0,0,34.123,27h1.744l-.531,4.248A2,2,0,0,1,33.352,33ZM26,27h.117l.25,2H26a1,1,0,0,1,0-2Zm-2.684-1.889.344,1.034A2.983,2.983,0,0,0,26,31h.617l.062.5a3.993,3.993,0,0,0,1.814,2.862l-.28.84a10.549,10.549,0,0,0-5.842,4.87A12.941,12.941,0,0,0,14,37c-.107,0-.21.013-.316.016A18.741,18.741,0,0,1,13.679,27H17V24.361a1.35,1.35,0,0,1,2.209-.912l1.859,1.867,1.948-1.948a6.142,6.142,0,0,0,.3,1.743ZM24.949,51a10.954,10.954,0,0,1-2.5,6.034l-1.377-1.377-1.414,1.414,1.377,1.377A10.943,10.943,0,0,1,15,60.949V59H13v1.949a10.954,10.954,0,0,1-6.034-2.5l1.377-1.377L6.929,55.657,5.552,57.034A10.946,10.946,0,0,1,3.051,51H5V49H3.051a10.954,10.954,0,0,1,2.5-6.034l1.377,1.377,1.414-1.414L6.966,41.552A10.943,10.943,0,0,1,13,39.051V41h2V39.051a10.954,10.954,0,0,1,6.034,2.5l-1.377,1.377,1.414,1.414,1.377-1.377A10.943,10.943,0,0,1,24.949,49H23v2ZM7,32a24.934,24.934,0,0,1,1.355-8.114l.435-.437a1.261,1.261,0,0,1,1.41-.2,1.215,1.215,0,0,1,.8,1.11V27h.607a20.83,20.83,0,0,0,.06,10.221,12.916,12.916,0,0,0-3.786,1.315A25.036,25.036,0,0,1,7,32Zm16.86,9.55a8.6,8.6,0,0,1,2.028-2.727l1.676,5.027,2.163-2.163.226.452-1.695,8.477q-.642-.129-1.273-.3c0-.1.015-.208.015-.315A12.936,12.936,0,0,0,23.86,41.55Zm6.378,9.36L31.82,43h.361l1.581,7.907c-.584.055-1.17.093-1.762.093S30.822,50.964,30.238,50.91ZM43,47.469V45.28A10.7,10.7,0,0,0,35.787,35.2l-.28-.841A3.993,3.993,0,0,0,37.321,31.5l.062-.5H38a3,3,0,0,0,3-3,2.97,2.97,0,0,0-.661-1.855l.344-1.033A6.164,6.164,0,0,0,34.838,17H29.162a6.16,6.16,0,0,0-5.144,2.777l-.57-.567a1.239,1.239,0,0,1-.217-1.365l.048-.11A1.216,1.216,0,0,1,24.361,17H27V13.679A18.931,18.931,0,0,1,47.481,21H47a2,2,0,0,0-2,2V41a2,2,0,0,0,2,2h.481A19.03,19.03,0,0,1,43,47.469ZM47,41V23H61V41Z"/>
        <path id="Trazado_1016648" data-name="Trazado 1016648" d="M49,25H59v2H49Z"/>
        <path id="Trazado_1016649" data-name="Trazado 1016649" d="M49,29H59v2H49Z"/>
        <path id="Trazado_1016650" data-name="Trazado 1016650" d="M49,33H59v2H49Z"/>
        <path id="Trazado_1016651" data-name="Trazado 1016651" d="M49,37H59v2H49Z"/>
        <path id="Trazado_1016652" data-name="Trazado 1016652" d="M14,17a3,3,0,1,0-3-3A3,3,0,0,0,14,17Zm0-4a1,1,0,1,1-1,1A1,1,0,0,1,14,13Z"/>
        <path id="Trazado_1016653" data-name="Trazado 1016653" d="M14,21a7,7,0,1,0-7-7A7.008,7.008,0,0,0,14,21ZM14,9a5,5,0,1,1-5,5A5.006,5.006,0,0,1,14,9Z"/>
      </g>
    </g>
  </g>
</svg>
